mtllib banana.mtl
v -0.6200 -0.0500 0.0200
v -0.6133 -0.0574 0.0173
v -0.6084 -0.0629 0.0100
v -0.6066 -0.0649 0.0000
v -0.6084 -0.0629 -0.0100
v -0.6133 -0.0574 -0.0173
v -0.6200 -0.0500 -0.0200
v -0.6267 -0.0426 -0.0173
v -0.6316 -0.0371 -0.0100
v -0.6334 -0.0351 -0.0000
v -0.6316 -0.0371 0.0100
v -0.6267 -0.0426 0.0173
v -0.4960 0.0612 0.0771
v -0.4717 0.0313 0.0668
v -0.4540 0.0093 0.0386
v -0.4475 0.0013 0.0000
v -0.4540 0.0093 -0.0386
v -0.4717 0.0313 -0.0668
v -0.4960 0.0612 -0.0771
v -0.5203 0.0912 -0.0668
v -0.5380 0.1132 -0.0386
v -0.5445 0.1212 -0.0000
v -0.5380 0.1132 0.0386
v -0.5203 0.0912 0.0668
v -0.3720 0.1616 0.1096
v -0.3424 0.1155 0.0949
v -0.3207 0.0817 0.0548
v -0.3128 0.0694 0.0000
v -0.3207 0.0817 -0.0548
v -0.3424 0.1155 -0.0949
v -0.3720 0.1616 -0.1096
v -0.4016 0.2077 -0.0949
v -0.4233 0.2415 -0.0548
v -0.4312 0.2538 -0.0000
v -0.4233 0.2415 0.0548
v -0.4016 0.2077 0.0949
v -0.2480 0.2412 0.1321
v -0.2228 0.1802 0.1144
v -0.2044 0.1355 0.0660
v -0.1976 0.1191 0.0000
v -0.2044 0.1355 -0.0660
v -0.2228 0.1802 -0.1144
v -0.2480 0.2412 -0.1321
v -0.2732 0.3023 -0.1144
v -0.2916 0.3470 -0.0660
v -0.2984 0.3633 -0.0000
v -0.2916 0.3470 0.0660
v -0.2732 0.3023 0.1144
v -0.1240 0.2924 0.1455
v -0.1138 0.2203 0.1260
v -0.1063 0.1676 0.0728
v -0.1035 0.1483 0.0000
v -0.1063 0.1676 -0.0728
v -0.1138 0.2203 -0.1260
v -0.1240 0.2924 -0.1455
v -0.1342 0.3644 -0.1260
v -0.1417 0.4171 -0.0728
v -0.1445 0.4364 -0.0000
v -0.1417 0.4171 0.0728
v -0.1342 0.3644 0.1260
v 0.0000 0.3100 0.1500
v -0.0106 0.2357 0.1299
v -0.0183 0.1814 0.0750
v -0.0211 0.1615 0.0000
v -0.0183 0.1814 -0.0750
v -0.0106 0.2357 -0.1299
v -0.0000 0.3100 -0.1500
v 0.0106 0.3843 -0.1299
v 0.0183 0.4386 -0.0750
v 0.0211 0.4585 -0.0000
v 0.0183 0.4386 0.0750
v 0.0106 0.3843 0.1299
v 0.1240 0.2924 0.1455
v 0.0963 0.2251 0.1260
v 0.0760 0.1759 0.0728
v 0.0685 0.1579 0.0000
v 0.0760 0.1759 -0.0728
v 0.0963 0.2251 -0.1260
v 0.1240 0.2924 -0.1455
v 0.1517 0.3596 -0.1260
v 0.1720 0.4089 -0.0728
v 0.1795 0.4269 -0.0000
v 0.1720 0.4089 0.0728
v 0.1517 0.3596 0.1260
v 0.2480 0.2412 0.1321
v 0.2123 0.1857 0.1144
v 0.1862 0.1450 0.0660
v 0.1766 0.1301 0.0000
v 0.1862 0.1450 -0.0660
v 0.2123 0.1857 -0.1144
v 0.2480 0.2412 -0.1321
v 0.2837 0.2968 -0.1144
v 0.3098 0.3375 -0.0660
v 0.3194 0.3524 -0.0000
v 0.3098 0.3375 0.0660
v 0.2837 0.2968 0.1144
v 0.3720 0.1616 0.1096
v 0.3375 0.1190 0.0949
v 0.3123 0.0878 0.0548
v 0.3030 0.0764 0.0000
v 0.3123 0.0878 -0.0548
v 0.3375 0.1190 -0.0949
v 0.3720 0.1616 -0.1096
v 0.4065 0.2042 -0.0949
v 0.4317 0.2354 -0.0548
v 0.4410 0.2468 -0.0000
v 0.4317 0.2354 0.0548
v 0.4065 0.2042 0.0949
v 0.4960 0.0612 0.0771
v 0.4702 0.0325 0.0668
v 0.4514 0.0115 0.0386
v 0.4445 0.0038 0.0000
v 0.4514 0.0115 -0.0386
v 0.4702 0.0325 -0.0668
v 0.4960 0.0612 -0.0771
v 0.5218 0.0900 -0.0668
v 0.5406 0.1110 -0.0386
v 0.5475 0.1187 -0.0000
v 0.5406 0.1110 0.0386
v 0.5218 0.0900 0.0668
v 0.6200 -0.0500 0.0200
v 0.6133 -0.0574 0.0173
v 0.6084 -0.0629 0.0100
v 0.6066 -0.0649 0.0000
v 0.6084 -0.0629 -0.0100
v 0.6133 -0.0574 -0.0173
v 0.6200 -0.0500 -0.0200
v 0.6267 -0.0426 -0.0173
v 0.6316 -0.0371 -0.0100
v 0.6334 -0.0351 -0.0000
v 0.6316 -0.0371 0.0100
v 0.6267 -0.0426 0.0173
v -0.6200 -0.0200 0.0000
v -0.6200 -0.0200 0.0000
v -0.6200 -0.0200 0.0000
v -0.6200 -0.0200 0.0000
v -0.6200 -0.0200 0.0000
v -0.6200 -0.0200 0.0000
v -0.6024 -0.0257 0.0000
v -0.6112 -0.0257 0.0153
v -0.6288 -0.0257 0.0153
v -0.6376 -0.0257 0.0000
v -0.6288 -0.0257 -0.0153
v -0.6112 -0.0257 -0.0153
v -0.5915 -0.0407 0.0000
v -0.6057 -0.0407 0.0247
v -0.6343 -0.0407 0.0247
v -0.6485 -0.0407 0.0000
v -0.6343 -0.0407 -0.0247
v -0.6057 -0.0407 -0.0247
v -0.5915 -0.0593 0.0000
v -0.6057 -0.0593 0.0247
v -0.6343 -0.0593 0.0247
v -0.6485 -0.0593 0.0000
v -0.6343 -0.0593 -0.0247
v -0.6057 -0.0593 -0.0247
v -0.6024 -0.0743 0.0000
v -0.6112 -0.0743 0.0153
v -0.6288 -0.0743 0.0153
v -0.6376 -0.0743 0.0000
v -0.6288 -0.0743 -0.0153
v -0.6112 -0.0743 -0.0153
v -0.6200 -0.0800 0.0000
v -0.6200 -0.0800 0.0000
v -0.6200 -0.0800 0.0000
v -0.6200 -0.0800 0.0000
v -0.6200 -0.0800 -0.0000
v -0.6200 -0.0800 -0.0000
v 0.6200 -0.0200 0.0000
v 0.6200 -0.0200 0.0000
v 0.6200 -0.0200 0.0000
v 0.6200 -0.0200 0.0000
v 0.6200 -0.0200 0.0000
v 0.6200 -0.0200 0.0000
v 0.6376 -0.0257 0.0000
v 0.6288 -0.0257 0.0153
v 0.6112 -0.0257 0.0153
v 0.6024 -0.0257 0.0000
v 0.6112 -0.0257 -0.0153
v 0.6288 -0.0257 -0.0153
v 0.6485 -0.0407 0.0000
v 0.6343 -0.0407 0.0247
v 0.6057 -0.0407 0.0247
v 0.5915 -0.0407 0.0000
v 0.6057 -0.0407 -0.0247
v 0.6343 -0.0407 -0.0247
v 0.6485 -0.0593 0.0000
v 0.6343 -0.0593 0.0247
v 0.6057 -0.0593 0.0247
v 0.5915 -0.0593 0.0000
v 0.6057 -0.0593 -0.0247
v 0.6343 -0.0593 -0.0247
v 0.6376 -0.0743 0.0000
v 0.6288 -0.0743 0.0153
v 0.6112 -0.0743 0.0153
v 0.6024 -0.0743 0.0000
v 0.6112 -0.0743 -0.0153
v 0.6288 -0.0743 -0.0153
v 0.6200 -0.0800 0.0000
v 0.6200 -0.0800 0.0000
v 0.6200 -0.0800 0.0000
v 0.6200 -0.0800 0.0000
v 0.6200 -0.0800 -0.0000
v 0.6200 -0.0800 -0.0000
usemtl banana
f 1 13 14
f 14 13 1
f 1 14 2
f 2 14 1
f 2 14 15
f 15 14 2
f 2 15 3
f 3 15 2
f 3 15 16
f 16 15 3
f 3 16 4
f 4 16 3
f 4 16 17
f 17 16 4
f 4 17 5
f 5 17 4
f 5 17 18
f 18 17 5
f 5 18 6
f 6 18 5
f 6 18 19
f 19 18 6
f 6 19 7
f 7 19 6
f 7 19 20
f 20 19 7
f 7 20 8
f 8 20 7
f 8 20 21
f 21 20 8
f 8 21 9
f 9 21 8
f 9 21 22
f 22 21 9
f 9 22 10
f 10 22 9
f 10 22 23
f 23 22 10
f 10 23 11
f 11 23 10
f 11 23 24
f 24 23 11
f 11 24 12
f 12 24 11
f 12 24 13
f 13 24 12
f 12 13 1
f 1 13 12
f 13 25 26
f 26 25 13
f 13 26 14
f 14 26 13
f 14 26 27
f 27 26 14
f 14 27 15
f 15 27 14
f 15 27 28
f 28 27 15
f 15 28 16
f 16 28 15
f 16 28 29
f 29 28 16
f 16 29 17
f 17 29 16
f 17 29 30
f 30 29 17
f 17 30 18
f 18 30 17
f 18 30 31
f 31 30 18
f 18 31 19
f 19 31 18
f 19 31 32
f 32 31 19
f 19 32 20
f 20 32 19
f 20 32 33
f 33 32 20
f 20 33 21
f 21 33 20
f 21 33 34
f 34 33 21
f 21 34 22
f 22 34 21
f 22 34 35
f 35 34 22
f 22 35 23
f 23 35 22
f 23 35 36
f 36 35 23
f 23 36 24
f 24 36 23
f 24 36 25
f 25 36 24
f 24 25 13
f 13 25 24
f 25 37 38
f 38 37 25
f 25 38 26
f 26 38 25
f 26 38 39
f 39 38 26
f 26 39 27
f 27 39 26
f 27 39 40
f 40 39 27
f 27 40 28
f 28 40 27
f 28 40 41
f 41 40 28
f 28 41 29
f 29 41 28
f 29 41 42
f 42 41 29
f 29 42 30
f 30 42 29
f 30 42 43
f 43 42 30
f 30 43 31
f 31 43 30
f 31 43 44
f 44 43 31
f 31 44 32
f 32 44 31
f 32 44 45
f 45 44 32
f 32 45 33
f 33 45 32
f 33 45 46
f 46 45 33
f 33 46 34
f 34 46 33
f 34 46 47
f 47 46 34
f 34 47 35
f 35 47 34
f 35 47 48
f 48 47 35
f 35 48 36
f 36 48 35
f 36 48 37
f 37 48 36
f 36 37 25
f 25 37 36
f 37 49 50
f 50 49 37
f 37 50 38
f 38 50 37
f 38 50 51
f 51 50 38
f 38 51 39
f 39 51 38
f 39 51 52
f 52 51 39
f 39 52 40
f 40 52 39
f 40 52 53
f 53 52 40
f 40 53 41
f 41 53 40
f 41 53 54
f 54 53 41
f 41 54 42
f 42 54 41
f 42 54 55
f 55 54 42
f 42 55 43
f 43 55 42
f 43 55 56
f 56 55 43
f 43 56 44
f 44 56 43
f 44 56 57
f 57 56 44
f 44 57 45
f 45 57 44
f 45 57 58
f 58 57 45
f 45 58 46
f 46 58 45
f 46 58 59
f 59 58 46
f 46 59 47
f 47 59 46
f 47 59 60
f 60 59 47
f 47 60 48
f 48 60 47
f 48 60 49
f 49 60 48
f 48 49 37
f 37 49 48
f 49 61 62
f 62 61 49
f 49 62 50
f 50 62 49
f 50 62 63
f 63 62 50
f 50 63 51
f 51 63 50
f 51 63 64
f 64 63 51
f 51 64 52
f 52 64 51
f 52 64 65
f 65 64 52
f 52 65 53
f 53 65 52
f 53 65 66
f 66 65 53
f 53 66 54
f 54 66 53
f 54 66 67
f 67 66 54
f 54 67 55
f 55 67 54
f 55 67 68
f 68 67 55
f 55 68 56
f 56 68 55
f 56 68 69
f 69 68 56
f 56 69 57
f 57 69 56
f 57 69 70
f 70 69 57
f 57 70 58
f 58 70 57
f 58 70 71
f 71 70 58
f 58 71 59
f 59 71 58
f 59 71 72
f 72 71 59
f 59 72 60
f 60 72 59
f 60 72 61
f 61 72 60
f 60 61 49
f 49 61 60
f 61 73 74
f 74 73 61
f 61 74 62
f 62 74 61
f 62 74 75
f 75 74 62
f 62 75 63
f 63 75 62
f 63 75 76
f 76 75 63
f 63 76 64
f 64 76 63
f 64 76 77
f 77 76 64
f 64 77 65
f 65 77 64
f 65 77 78
f 78 77 65
f 65 78 66
f 66 78 65
f 66 78 79
f 79 78 66
f 66 79 67
f 67 79 66
f 67 79 80
f 80 79 67
f 67 80 68
f 68 80 67
f 68 80 81
f 81 80 68
f 68 81 69
f 69 81 68
f 69 81 82
f 82 81 69
f 69 82 70
f 70 82 69
f 70 82 83
f 83 82 70
f 70 83 71
f 71 83 70
f 71 83 84
f 84 83 71
f 71 84 72
f 72 84 71
f 72 84 73
f 73 84 72
f 72 73 61
f 61 73 72
f 73 85 86
f 86 85 73
f 73 86 74
f 74 86 73
f 74 86 87
f 87 86 74
f 74 87 75
f 75 87 74
f 75 87 88
f 88 87 75
f 75 88 76
f 76 88 75
f 76 88 89
f 89 88 76
f 76 89 77
f 77 89 76
f 77 89 90
f 90 89 77
f 77 90 78
f 78 90 77
f 78 90 91
f 91 90 78
f 78 91 79
f 79 91 78
f 79 91 92
f 92 91 79
f 79 92 80
f 80 92 79
f 80 92 93
f 93 92 80
f 80 93 81
f 81 93 80
f 81 93 94
f 94 93 81
f 81 94 82
f 82 94 81
f 82 94 95
f 95 94 82
f 82 95 83
f 83 95 82
f 83 95 96
f 96 95 83
f 83 96 84
f 84 96 83
f 84 96 85
f 85 96 84
f 84 85 73
f 73 85 84
f 85 97 98
f 98 97 85
f 85 98 86
f 86 98 85
f 86 98 99
f 99 98 86
f 86 99 87
f 87 99 86
f 87 99 100
f 100 99 87
f 87 100 88
f 88 100 87
f 88 100 101
f 101 100 88
f 88 101 89
f 89 101 88
f 89 101 102
f 102 101 89
f 89 102 90
f 90 102 89
f 90 102 103
f 103 102 90
f 90 103 91
f 91 103 90
f 91 103 104
f 104 103 91
f 91 104 92
f 92 104 91
f 92 104 105
f 105 104 92
f 92 105 93
f 93 105 92
f 93 105 106
f 106 105 93
f 93 106 94
f 94 106 93
f 94 106 107
f 107 106 94
f 94 107 95
f 95 107 94
f 95 107 108
f 108 107 95
f 95 108 96
f 96 108 95
f 96 108 97
f 97 108 96
f 96 97 85
f 85 97 96
f 97 109 110
f 110 109 97
f 97 110 98
f 98 110 97
f 98 110 111
f 111 110 98
f 98 111 99
f 99 111 98
f 99 111 112
f 112 111 99
f 99 112 100
f 100 112 99
f 100 112 113
f 113 112 100
f 100 113 101
f 101 113 100
f 101 113 114
f 114 113 101
f 101 114 102
f 102 114 101
f 102 114 115
f 115 114 102
f 102 115 103
f 103 115 102
f 103 115 116
f 116 115 103
f 103 116 104
f 104 116 103
f 104 116 117
f 117 116 104
f 104 117 105
f 105 117 104
f 105 117 118
f 118 117 105
f 105 118 106
f 106 118 105
f 106 118 119
f 119 118 106
f 106 119 107
f 107 119 106
f 107 119 120
f 120 119 107
f 107 120 108
f 108 120 107
f 108 120 109
f 109 120 108
f 108 109 97
f 97 109 108
f 109 121 122
f 122 121 109
f 109 122 110
f 110 122 109
f 110 122 123
f 123 122 110
f 110 123 111
f 111 123 110
f 111 123 124
f 124 123 111
f 111 124 112
f 112 124 111
f 112 124 125
f 125 124 112
f 112 125 113
f 113 125 112
f 113 125 126
f 126 125 113
f 113 126 114
f 114 126 113
f 114 126 127
f 127 126 114
f 114 127 115
f 115 127 114
f 115 127 128
f 128 127 115
f 115 128 116
f 116 128 115
f 116 128 129
f 129 128 116
f 116 129 117
f 117 129 116
f 117 129 130
f 130 129 117
f 117 130 118
f 118 130 117
f 118 130 131
f 131 130 118
f 118 131 119
f 119 131 118
f 119 131 132
f 132 131 119
f 119 132 120
f 120 132 119
f 120 132 121
f 121 132 120
f 120 121 109
f 109 121 120
usemtl banana_tip
f 133 139 140
f 140 139 133
f 133 140 134
f 134 140 133
f 134 140 141
f 141 140 134
f 134 141 135
f 135 141 134
f 135 141 142
f 142 141 135
f 135 142 136
f 136 142 135
f 136 142 143
f 143 142 136
f 136 143 137
f 137 143 136
f 137 143 144
f 144 143 137
f 137 144 138
f 138 144 137
f 138 144 139
f 139 144 138
f 138 139 133
f 133 139 138
f 139 145 146
f 146 145 139
f 139 146 140
f 140 146 139
f 140 146 147
f 147 146 140
f 140 147 141
f 141 147 140
f 141 147 148
f 148 147 141
f 141 148 142
f 142 148 141
f 142 148 149
f 149 148 142
f 142 149 143
f 143 149 142
f 143 149 150
f 150 149 143
f 143 150 144
f 144 150 143
f 144 150 145
f 145 150 144
f 144 145 139
f 139 145 144
f 145 151 152
f 152 151 145
f 145 152 146
f 146 152 145
f 146 152 153
f 153 152 146
f 146 153 147
f 147 153 146
f 147 153 154
f 154 153 147
f 147 154 148
f 148 154 147
f 148 154 155
f 155 154 148
f 148 155 149
f 149 155 148
f 149 155 156
f 156 155 149
f 149 156 150
f 150 156 149
f 150 156 151
f 151 156 150
f 150 151 145
f 145 151 150
f 151 157 158
f 158 157 151
f 151 158 152
f 152 158 151
f 152 158 159
f 159 158 152
f 152 159 153
f 153 159 152
f 153 159 160
f 160 159 153
f 153 160 154
f 154 160 153
f 154 160 161
f 161 160 154
f 154 161 155
f 155 161 154
f 155 161 162
f 162 161 155
f 155 162 156
f 156 162 155
f 156 162 157
f 157 162 156
f 156 157 151
f 151 157 156
f 157 163 164
f 164 163 157
f 157 164 158
f 158 164 157
f 158 164 165
f 165 164 158
f 158 165 159
f 159 165 158
f 159 165 166
f 166 165 159
f 159 166 160
f 160 166 159
f 160 166 167
f 167 166 160
f 160 167 161
f 161 167 160
f 161 167 168
f 168 167 161
f 161 168 162
f 162 168 161
f 162 168 163
f 163 168 162
f 162 163 157
f 157 163 162
f 169 175 176
f 176 175 169
f 169 176 170
f 170 176 169
f 170 176 177
f 177 176 170
f 170 177 171
f 171 177 170
f 171 177 178
f 178 177 171
f 171 178 172
f 172 178 171
f 172 178 179
f 179 178 172
f 172 179 173
f 173 179 172
f 173 179 180
f 180 179 173
f 173 180 174
f 174 180 173
f 174 180 175
f 175 180 174
f 174 175 169
f 169 175 174
f 175 181 182
f 182 181 175
f 175 182 176
f 176 182 175
f 176 182 183
f 183 182 176
f 176 183 177
f 177 183 176
f 177 183 184
f 184 183 177
f 177 184 178
f 178 184 177
f 178 184 185
f 185 184 178
f 178 185 179
f 179 185 178
f 179 185 186
f 186 185 179
f 179 186 180
f 180 186 179
f 180 186 181
f 181 186 180
f 180 181 175
f 175 181 180
f 181 187 188
f 188 187 181
f 181 188 182
f 182 188 181
f 182 188 189
f 189 188 182
f 182 189 183
f 183 189 182
f 183 189 190
f 190 189 183
f 183 190 184
f 184 190 183
f 184 190 191
f 191 190 184
f 184 191 185
f 185 191 184
f 185 191 192
f 192 191 185
f 185 192 186
f 186 192 185
f 186 192 187
f 187 192 186
f 186 187 181
f 181 187 186
f 187 193 194
f 194 193 187
f 187 194 188
f 188 194 187
f 188 194 195
f 195 194 188
f 188 195 189
f 189 195 188
f 189 195 196
f 196 195 189
f 189 196 190
f 190 196 189
f 190 196 197
f 197 196 190
f 190 197 191
f 191 197 190
f 191 197 198
f 198 197 191
f 191 198 192
f 192 198 191
f 192 198 193
f 193 198 192
f 192 193 187
f 187 193 192
f 193 199 200
f 200 199 193
f 193 200 194
f 194 200 193
f 194 200 201
f 201 200 194
f 194 201 195
f 195 201 194
f 195 201 202
f 202 201 195
f 195 202 196
f 196 202 195
f 196 202 203
f 203 202 196
f 196 203 197
f 197 203 196
f 197 203 204
f 204 203 197
f 197 204 198
f 198 204 197
f 198 204 199
f 199 204 198
f 198 199 193
f 193 199 198
