mtllib basket.mtl
v 0.4320 0.0000 0.1872
v 0.4281 0.0000 0.2170
v 0.4166 0.0000 0.2448
v 0.3983 0.0000 0.2687
v 0.3744 0.0000 0.2870
v 0.3466 0.0000 0.2985
v -0.3168 0.0000 0.3024
v -0.3466 0.0000 0.2985
v -0.3744 0.0000 0.2870
v -0.3983 0.0000 0.2687
v -0.4166 0.0000 0.2448
v -0.4281 0.0000 0.2170
v -0.4320 0.0000 -0.1872
v -0.4281 0.0000 -0.2170
v -0.4166 0.0000 -0.2448
v -0.3983 0.0000 -0.2687
v -0.3744 0.0000 -0.2870
v -0.3466 0.0000 -0.2985
v 0.3168 0.0000 -0.3024
v 0.3466 0.0000 -0.2985
v 0.3744 0.0000 -0.2870
v 0.3983 0.0000 -0.2687
v 0.4166 0.0000 -0.2448
v 0.4281 0.0000 -0.2170
v 0.4800 0.2500 0.2080
v 0.4756 0.2500 0.2411
v 0.4629 0.2500 0.2720
v 0.4425 0.2500 0.2985
v 0.4160 0.2500 0.3189
v 0.3851 0.2500 0.3316
v -0.3520 0.2500 0.3360
v -0.3851 0.2500 0.3316
v -0.4160 0.2500 0.3189
v -0.4425 0.2500 0.2985
v -0.4629 0.2500 0.2720
v -0.4756 0.2500 0.2411
v -0.4800 0.2500 -0.2080
v -0.4756 0.2500 -0.2411
v -0.4629 0.2500 -0.2720
v -0.4425 0.2500 -0.2985
v -0.4160 0.2500 -0.3189
v -0.3851 0.2500 -0.3316
v 0.3520 0.2500 -0.3360
v 0.3851 0.2500 -0.3316
v 0.4160 0.2500 -0.3189
v 0.4425 0.2500 -0.2985
v 0.4629 0.2500 -0.2720
v 0.4756 0.2500 -0.2411
v 0.5520 0.6000 0.2392
v 0.5470 0.6000 0.2773
v 0.5323 0.6000 0.3128
v 0.5089 0.6000 0.3433
v 0.4784 0.6000 0.3667
v 0.4429 0.6000 0.3814
v -0.4048 0.6000 0.3864
v -0.4429 0.6000 0.3814
v -0.4784 0.6000 0.3667
v -0.5089 0.6000 0.3433
v -0.5323 0.6000 0.3128
v -0.5470 0.6000 0.2773
v -0.5520 0.6000 -0.2392
v -0.5470 0.6000 -0.2773
v -0.5323 0.6000 -0.3128
v -0.5089 0.6000 -0.3433
v -0.4784 0.6000 -0.3667
v -0.4429 0.6000 -0.3814
v 0.4048 0.6000 -0.3864
v 0.4429 0.6000 -0.3814
v 0.4784 0.6000 -0.3667
v 0.5089 0.6000 -0.3433
v 0.5323 0.6000 -0.3128
v 0.5470 0.6000 -0.2773
v 0.6000 1.0000 0.2600
v 0.5945 1.0000 0.3014
v 0.5786 1.0000 0.3400
v 0.5531 1.0000 0.3731
v 0.5200 1.0000 0.3986
v 0.4814 1.0000 0.4145
v -0.4400 1.0000 0.4200
v -0.4814 1.0000 0.4145
v -0.5200 1.0000 0.3986
v -0.5531 1.0000 0.3731
v -0.5786 1.0000 0.3400
v -0.5945 1.0000 0.3014
v -0.6000 1.0000 -0.2600
v -0.5945 1.0000 -0.3014
v -0.5786 1.0000 -0.3400
v -0.5531 1.0000 -0.3731
v -0.5200 1.0000 -0.3986
v -0.4814 1.0000 -0.4145
v 0.4400 1.0000 -0.4200
v 0.4814 1.0000 -0.4145
v 0.5200 1.0000 -0.3986
v 0.5531 1.0000 -0.3731
v 0.5786 1.0000 -0.3400
v 0.5945 1.0000 -0.3014
v 0.6120 1.3500 0.2652
v 0.6064 1.3500 0.3074
v 0.5901 1.3500 0.3468
v 0.5642 1.3500 0.3806
v 0.5304 1.3500 0.4065
v 0.4910 1.3500 0.4228
v -0.4488 1.3500 0.4284
v -0.4910 1.3500 0.4228
v -0.5304 1.3500 0.4065
v -0.5642 1.3500 0.3806
v -0.5901 1.3500 0.3468
v -0.6064 1.3500 0.3074
v -0.6120 1.3500 -0.2652
v -0.6064 1.3500 -0.3074
v -0.5901 1.3500 -0.3468
v -0.5642 1.3500 -0.3806
v -0.5304 1.3500 -0.4065
v -0.4910 1.3500 -0.4228
v 0.4488 1.3500 -0.4284
v 0.4910 1.3500 -0.4228
v 0.5304 1.3500 -0.4065
v 0.5642 1.3500 -0.3806
v 0.5901 1.3500 -0.3468
v 0.6064 1.3500 -0.3074
v 0.0000 0.0000 0.0000
v -0.2800 1.3200 0.2600
v -0.3032 1.3237 0.2676
v -0.3176 1.3259 0.2876
v -0.3176 1.3259 0.3124
v -0.3032 1.3237 0.3324
v -0.2800 1.3200 0.3400
v -0.2568 1.3163 0.3324
v -0.2424 1.3141 0.3124
v -0.2424 1.3141 0.2876
v -0.2568 1.3163 0.2676
v -0.2200 1.7000 0.3400
v -0.2087 1.6794 0.3324
v -0.2018 1.6666 0.3124
v -0.2018 1.6666 0.2876
v -0.2087 1.6794 0.2676
v -0.2200 1.7000 0.2600
v -0.2313 1.7206 0.2676
v -0.2382 1.7334 0.2876
v -0.2382 1.7334 0.3124
v -0.2313 1.7206 0.3324
v 0.0000 1.8200 0.3400
v -0.0113 1.7994 0.3324
v -0.0182 1.7866 0.3124
v -0.0182 1.7866 0.2876
v -0.0113 1.7994 0.2676
v -0.0000 1.8200 0.2600
v 0.0113 1.8406 0.2676
v 0.0182 1.8534 0.2876
v 0.0182 1.8534 0.3124
v 0.0113 1.8406 0.3324
v 0.2200 1.7000 0.3400
v 0.1968 1.6963 0.3324
v 0.1824 1.6941 0.3124
v 0.1824 1.6941 0.2876
v 0.1968 1.6963 0.2676
v 0.2200 1.7000 0.2600
v 0.2432 1.7037 0.2676
v 0.2576 1.7059 0.2876
v 0.2576 1.7059 0.3124
v 0.2432 1.7037 0.3324
v 0.2800 1.3200 0.3400
v 0.2568 1.3163 0.3324
v 0.2424 1.3141 0.3124
v 0.2424 1.3141 0.2876
v 0.2568 1.3163 0.2676
v 0.2800 1.3200 0.2600
v 0.3032 1.3237 0.2676
v 0.3176 1.3259 0.2876
v 0.3176 1.3259 0.3124
v 0.3032 1.3237 0.3324
v -0.2800 1.3200 0.3000
v 0.2800 1.3200 0.3000
v -0.2800 1.3200 -0.3400
v -0.3032 1.3237 -0.3324
v -0.3176 1.3259 -0.3124
v -0.3176 1.3259 -0.2876
v -0.3032 1.3237 -0.2676
v -0.2800 1.3200 -0.2600
v -0.2568 1.3163 -0.2676
v -0.2424 1.3141 -0.2876
v -0.2424 1.3141 -0.3124
v -0.2568 1.3163 -0.3324
v -0.2200 1.7000 -0.2600
v -0.2087 1.6794 -0.2676
v -0.2018 1.6666 -0.2876
v -0.2018 1.6666 -0.3124
v -0.2087 1.6794 -0.3324
v -0.2200 1.7000 -0.3400
v -0.2313 1.7206 -0.3324
v -0.2382 1.7334 -0.3124
v -0.2382 1.7334 -0.2876
v -0.2313 1.7206 -0.2676
v 0.0000 1.8200 -0.2600
v -0.0113 1.7994 -0.2676
v -0.0182 1.7866 -0.2876
v -0.0182 1.7866 -0.3124
v -0.0113 1.7994 -0.3324
v -0.0000 1.8200 -0.3400
v 0.0113 1.8406 -0.3324
v 0.0182 1.8534 -0.3124
v 0.0182 1.8534 -0.2876
v 0.0113 1.8406 -0.2676
v 0.2200 1.7000 -0.2600
v 0.1968 1.6963 -0.2676
v 0.1824 1.6941 -0.2876
v 0.1824 1.6941 -0.3124
v 0.1968 1.6963 -0.3324
v 0.2200 1.7000 -0.3400
v 0.2432 1.7037 -0.3324
v 0.2576 1.7059 -0.3124
v 0.2576 1.7059 -0.2876
v 0.2432 1.7037 -0.2676
v 0.2800 1.3200 -0.2600
v 0.2568 1.3163 -0.2676
v 0.2424 1.3141 -0.2876
v 0.2424 1.3141 -0.3124
v 0.2568 1.3163 -0.3324
v 0.2800 1.3200 -0.3400
v 0.3032 1.3237 -0.3324
v 0.3176 1.3259 -0.3124
v 0.3176 1.3259 -0.2876
v 0.3032 1.3237 -0.2676
v -0.2800 1.3200 -0.3000
v 0.2800 1.3200 -0.3000
usemtl bag_green
f 1 25 26
f 1 26 2
f 2 26 27
f 2 27 3
f 3 27 28
f 3 28 4
f 4 28 29
f 4 29 5
f 5 29 30
f 5 30 6
f 6 30 31
f 6 31 7
f 7 31 32
f 7 32 8
f 8 32 33
f 8 33 9
f 9 33 34
f 9 34 10
f 10 34 35
f 10 35 11
f 11 35 36
f 11 36 12
f 12 36 37
f 12 37 13
f 13 37 38
f 13 38 14
f 14 38 39
f 14 39 15
f 15 39 40
f 15 40 16
f 16 40 41
f 16 41 17
f 17 41 42
f 17 42 18
f 18 42 43
f 18 43 19
f 19 43 44
f 19 44 20
f 20 44 45
f 20 45 21
f 21 45 46
f 21 46 22
f 22 46 47
f 22 47 23
f 23 47 48
f 23 48 24
f 24 48 25
f 24 25 1
f 25 49 50
f 25 50 26
f 26 50 51
f 26 51 27
f 27 51 52
f 27 52 28
f 28 52 53
f 28 53 29
f 29 53 54
f 29 54 30
f 30 54 55
f 30 55 31
f 31 55 56
f 31 56 32
f 32 56 57
f 32 57 33
f 33 57 58
f 33 58 34
f 34 58 59
f 34 59 35
f 35 59 60
f 35 60 36
f 36 60 61
f 36 61 37
f 37 61 62
f 37 62 38
f 38 62 63
f 38 63 39
f 39 63 64
f 39 64 40
f 40 64 65
f 40 65 41
f 41 65 66
f 41 66 42
f 42 66 67
f 42 67 43
f 43 67 68
f 43 68 44
f 44 68 69
f 44 69 45
f 45 69 70
f 45 70 46
f 46 70 71
f 46 71 47
f 47 71 72
f 47 72 48
f 48 72 49
f 48 49 25
f 49 73 74
f 49 74 50
f 50 74 75
f 50 75 51
f 51 75 76
f 51 76 52
f 52 76 77
f 52 77 53
f 53 77 78
f 53 78 54
f 54 78 79
f 54 79 55
f 55 79 80
f 55 80 56
f 56 80 81
f 56 81 57
f 57 81 82
f 57 82 58
f 58 82 83
f 58 83 59
f 59 83 84
f 59 84 60
f 60 84 85
f 60 85 61
f 61 85 86
f 61 86 62
f 62 86 87
f 62 87 63
f 63 87 88
f 63 88 64
f 64 88 89
f 64 89 65
f 65 89 90
f 65 90 66
f 66 90 91
f 66 91 67
f 67 91 92
f 67 92 68
f 68 92 93
f 68 93 69
f 69 93 94
f 69 94 70
f 70 94 95
f 70 95 71
f 71 95 96
f 71 96 72
f 72 96 73
f 72 73 49
f 121 2 1
f 121 3 2
f 121 4 3
f 121 5 4
f 121 6 5
f 121 7 6
f 121 8 7
f 121 9 8
f 121 10 9
f 121 11 10
f 121 12 11
f 121 13 12
f 121 14 13
f 121 15 14
f 121 16 15
f 121 17 16
f 121 18 17
f 121 19 18
f 121 20 19
f 121 21 20
f 121 22 21
f 121 23 22
f 121 24 23
f 121 1 24
usemtl bag_cream
f 73 97 98
f 73 98 74
f 74 98 99
f 74 99 75
f 75 99 100
f 75 100 76
f 76 100 101
f 76 101 77
f 77 101 102
f 77 102 78
f 78 102 103
f 78 103 79
f 79 103 104
f 79 104 80
f 80 104 105
f 80 105 81
f 81 105 106
f 81 106 82
f 82 106 107
f 82 107 83
f 83 107 108
f 83 108 84
f 84 108 109
f 84 109 85
f 85 109 110
f 85 110 86
f 86 110 111
f 86 111 87
f 87 111 112
f 87 112 88
f 88 112 113
f 88 113 89
f 89 113 114
f 89 114 90
f 90 114 115
f 90 115 91
f 91 115 116
f 91 116 92
f 92 116 117
f 92 117 93
f 93 117 118
f 93 118 94
f 94 118 119
f 94 119 95
f 95 119 120
f 95 120 96
f 96 120 97
f 96 97 73
f 122 132 133
f 122 133 123
f 123 133 134
f 123 134 124
f 124 134 135
f 124 135 125
f 125 135 136
f 125 136 126
f 126 136 137
f 126 137 127
f 127 137 138
f 127 138 128
f 128 138 139
f 128 139 129
f 129 139 140
f 129 140 130
f 130 140 141
f 130 141 131
f 131 141 132
f 131 132 122
f 132 142 143
f 132 143 133
f 133 143 144
f 133 144 134
f 134 144 145
f 134 145 135
f 135 145 146
f 135 146 136
f 136 146 147
f 136 147 137
f 137 147 148
f 137 148 138
f 138 148 149
f 138 149 139
f 139 149 150
f 139 150 140
f 140 150 151
f 140 151 141
f 141 151 142
f 141 142 132
f 142 152 153
f 142 153 143
f 143 153 154
f 143 154 144
f 144 154 155
f 144 155 145
f 145 155 156
f 145 156 146
f 146 156 157
f 146 157 147
f 147 157 158
f 147 158 148
f 148 158 159
f 148 159 149
f 149 159 160
f 149 160 150
f 150 160 161
f 150 161 151
f 151 161 152
f 151 152 142
f 152 162 163
f 152 163 153
f 153 163 164
f 153 164 154
f 154 164 165
f 154 165 155
f 155 165 166
f 155 166 156
f 156 166 167
f 156 167 157
f 157 167 168
f 157 168 158
f 158 168 169
f 158 169 159
f 159 169 170
f 159 170 160
f 160 170 171
f 160 171 161
f 161 171 162
f 161 162 152
f 172 123 122
f 172 124 123
f 172 125 124
f 172 126 125
f 172 127 126
f 172 128 127
f 172 129 128
f 172 130 129
f 172 131 130
f 172 122 131
f 173 162 163
f 173 163 164
f 173 164 165
f 173 165 166
f 173 166 167
f 173 167 168
f 173 168 169
f 173 169 170
f 173 170 171
f 173 171 162
f 174 184 185
f 174 185 175
f 175 185 186
f 175 186 176
f 176 186 187
f 176 187 177
f 177 187 188
f 177 188 178
f 178 188 189
f 178 189 179
f 179 189 190
f 179 190 180
f 180 190 191
f 180 191 181
f 181 191 192
f 181 192 182
f 182 192 193
f 182 193 183
f 183 193 184
f 183 184 174
f 184 194 195
f 184 195 185
f 185 195 196
f 185 196 186
f 186 196 197
f 186 197 187
f 187 197 198
f 187 198 188
f 188 198 199
f 188 199 189
f 189 199 200
f 189 200 190
f 190 200 201
f 190 201 191
f 191 201 202
f 191 202 192
f 192 202 203
f 192 203 193
f 193 203 194
f 193 194 184
f 194 204 205
f 194 205 195
f 195 205 206
f 195 206 196
f 196 206 207
f 196 207 197
f 197 207 208
f 197 208 198
f 198 208 209
f 198 209 199
f 199 209 210
f 199 210 200
f 200 210 211
f 200 211 201
f 201 211 212
f 201 212 202
f 202 212 213
f 202 213 203
f 203 213 204
f 203 204 194
f 204 214 215
f 204 215 205
f 205 215 216
f 205 216 206
f 206 216 217
f 206 217 207
f 207 217 218
f 207 218 208
f 208 218 219
f 208 219 209
f 209 219 220
f 209 220 210
f 210 220 221
f 210 221 211
f 211 221 222
f 211 222 212
f 212 222 223
f 212 223 213
f 213 223 214
f 213 214 204
f 224 175 174
f 224 176 175
f 224 177 176
f 224 178 177
f 224 179 178
f 224 180 179
f 224 181 180
f 224 182 181
f 224 183 182
f 224 174 183
f 225 214 215
f 225 215 216
f 225 216 217
f 225 217 218
f 225 218 219
f 225 219 220
f 225 220 221
f 225 221 222
f 225 222 223
f 225 223 214
