mtllib basket.mtl
v 0.4712 0.0000 0.2052
v 0.4680 0.0000 0.2339
v 0.4584 0.0000 0.2613
v 0.4430 0.0000 0.2858
v 0.4226 0.0000 0.3062
v 0.3981 0.0000 0.3216
v 0.3707 0.0000 0.3312
v -0.3420 0.0000 0.3344
v -0.3707 0.0000 0.3312
v -0.3981 0.0000 0.3216
v -0.4226 0.0000 0.3062
v -0.4430 0.0000 0.2858
v -0.4584 0.0000 0.2613
v -0.4680 0.0000 0.2339
v -0.4712 0.0000 -0.2052
v -0.4680 0.0000 -0.2339
v -0.4584 0.0000 -0.2613
v -0.4430 0.0000 -0.2858
v -0.4226 0.0000 -0.3062
v -0.3981 0.0000 -0.3216
v -0.3707 0.0000 -0.3312
v 0.3420 0.0000 -0.3344
v 0.3707 0.0000 -0.3312
v 0.3981 0.0000 -0.3216
v 0.4226 0.0000 -0.3062
v 0.4430 0.0000 -0.2858
v 0.4584 0.0000 -0.2613
v 0.4680 0.0000 -0.2339
v 0.5208 0.2800 0.2268
v 0.5172 0.2800 0.2586
v 0.5067 0.2800 0.2888
v 0.4896 0.2800 0.3158
v 0.4670 0.2800 0.3384
v 0.4400 0.2800 0.3555
v 0.4098 0.2800 0.3660
v -0.3780 0.2800 0.3696
v -0.4098 0.2800 0.3660
v -0.4400 0.2800 0.3555
v -0.4670 0.2800 0.3384
v -0.4896 0.2800 0.3158
v -0.5067 0.2800 0.2888
v -0.5172 0.2800 0.2586
v -0.5208 0.2800 -0.2268
v -0.5172 0.2800 -0.2586
v -0.5067 0.2800 -0.2888
v -0.4896 0.2800 -0.3158
v -0.4670 0.2800 -0.3384
v -0.4400 0.2800 -0.3555
v -0.4098 0.2800 -0.3660
v 0.3780 0.2800 -0.3696
v 0.4098 0.2800 -0.3660
v 0.4400 0.2800 -0.3555
v 0.4670 0.2800 -0.3384
v 0.4896 0.2800 -0.3158
v 0.5067 0.2800 -0.2888
v 0.5172 0.2800 -0.2586
v 0.6014 0.6600 0.2619
v 0.5973 0.6600 0.2986
v 0.5851 0.6600 0.3334
v 0.5654 0.6600 0.3647
v 0.5393 0.6600 0.3908
v 0.5080 0.6600 0.4105
v 0.4732 0.6600 0.4227
v -0.4365 0.6600 0.4268
v -0.4732 0.6600 0.4227
v -0.5080 0.6600 0.4105
v -0.5393 0.6600 0.3908
v -0.5654 0.6600 0.3647
v -0.5851 0.6600 0.3334
v -0.5973 0.6600 0.2986
v -0.6014 0.6600 -0.2619
v -0.5973 0.6600 -0.2986
v -0.5851 0.6600 -0.3334
v -0.5654 0.6600 -0.3647
v -0.5393 0.6600 -0.3908
v -0.5080 0.6600 -0.4105
v -0.4732 0.6600 -0.4227
v 0.4365 0.6600 -0.4268
v 0.4732 0.6600 -0.4227
v 0.5080 0.6600 -0.4105
v 0.5393 0.6600 -0.3908
v 0.5654 0.6600 -0.3647
v 0.5851 0.6600 -0.3334
v 0.5973 0.6600 -0.2986
v 0.6510 1.0500 0.2835
v 0.6465 1.0500 0.3232
v 0.6333 1.0500 0.3609
v 0.6121 1.0500 0.3948
v 0.5838 1.0500 0.4231
v 0.5499 1.0500 0.4443
v 0.5122 1.0500 0.4575
v -0.4725 1.0500 0.4620
v -0.5122 1.0500 0.4575
v -0.5499 1.0500 0.4443
v -0.5838 1.0500 0.4231
v -0.6121 1.0500 0.3948
v -0.6333 1.0500 0.3609
v -0.6465 1.0500 0.3232
v -0.6510 1.0500 -0.2835
v -0.6465 1.0500 -0.3232
v -0.6333 1.0500 -0.3609
v -0.6121 1.0500 -0.3948
v -0.5838 1.0500 -0.4231
v -0.5499 1.0500 -0.4443
v -0.5122 1.0500 -0.4575
v 0.4725 1.0500 -0.4620
v 0.5122 1.0500 -0.4575
v 0.5499 1.0500 -0.4443
v 0.5838 1.0500 -0.4231
v 0.6121 1.0500 -0.3948
v 0.6333 1.0500 -0.3609
v 0.6465 1.0500 -0.3232
v 0.6634 1.4000 0.2889
v 0.6588 1.4000 0.3294
v 0.6454 1.4000 0.3678
v 0.6237 1.4000 0.4023
v 0.5949 1.4000 0.4311
v 0.5604 1.4000 0.4528
v 0.5220 1.4000 0.4662
v -0.4815 1.4000 0.4708
v -0.5220 1.4000 0.4662
v -0.5604 1.4000 0.4528
v -0.5949 1.4000 0.4311
v -0.6237 1.4000 0.4023
v -0.6454 1.4000 0.3678
v -0.6588 1.4000 0.3294
v -0.6634 1.4000 -0.2889
v -0.6588 1.4000 -0.3294
v -0.6454 1.4000 -0.3678
v -0.6237 1.4000 -0.4023
v -0.5949 1.4000 -0.4311
v -0.5604 1.4000 -0.4528
v -0.5220 1.4000 -0.4662
v 0.4815 1.4000 -0.4708
v 0.5220 1.4000 -0.4662
v 0.5604 1.4000 -0.4528
v 0.5949 1.4000 -0.4311
v 0.6237 1.4000 -0.4023
v 0.6454 1.4000 -0.3678
v 0.6588 1.4000 -0.3294
v 0.3720 0.0000 0.1620
v 0.3694 0.0000 0.1847
v 0.3619 0.0000 0.2063
v 0.3497 0.0000 0.2256
v 0.3336 0.0000 0.2417
v 0.3143 0.0000 0.2539
v 0.2927 0.0000 0.2614
v -0.2700 0.0000 0.2640
v -0.2927 0.0000 0.2614
v -0.3143 0.0000 0.2539
v -0.3336 0.0000 0.2417
v -0.3497 0.0000 0.2256
v -0.3619 0.0000 0.2063
v -0.3694 0.0000 0.1847
v -0.3720 0.0000 -0.1620
v -0.3694 0.0000 -0.1847
v -0.3619 0.0000 -0.2063
v -0.3497 0.0000 -0.2256
v -0.3336 0.0000 -0.2417
v -0.3143 0.0000 -0.2539
v -0.2927 0.0000 -0.2614
v 0.2700 0.0000 -0.2640
v 0.2927 0.0000 -0.2614
v 0.3143 0.0000 -0.2539
v 0.3336 0.0000 -0.2417
v 0.3497 0.0000 -0.2256
v 0.3619 0.0000 -0.2063
v 0.3694 0.0000 -0.1847
v 0.4216 0.2800 0.1836
v 0.4187 0.2800 0.2093
v 0.4102 0.2800 0.2338
v 0.3964 0.2800 0.2557
v 0.3781 0.2800 0.2740
v 0.3562 0.2800 0.2878
v 0.3317 0.2800 0.2963
v -0.3060 0.2800 0.2992
v -0.3317 0.2800 0.2963
v -0.3562 0.2800 0.2878
v -0.3781 0.2800 0.2740
v -0.3964 0.2800 0.2557
v -0.4102 0.2800 0.2338
v -0.4187 0.2800 0.2093
v -0.4216 0.2800 -0.1836
v -0.4187 0.2800 -0.2093
v -0.4102 0.2800 -0.2338
v -0.3964 0.2800 -0.2557
v -0.3781 0.2800 -0.2740
v -0.3562 0.2800 -0.2878
v -0.3317 0.2800 -0.2963
v 0.3060 0.2800 -0.2992
v 0.3317 0.2800 -0.2963
v 0.3562 0.2800 -0.2878
v 0.3781 0.2800 -0.2740
v 0.3964 0.2800 -0.2557
v 0.4102 0.2800 -0.2338
v 0.4187 0.2800 -0.2093
v 0.5084 0.6600 0.2214
v 0.5049 0.6600 0.2524
v 0.4946 0.6600 0.2819
v 0.4780 0.6600 0.3083
v 0.4559 0.6600 0.3304
v 0.4295 0.6600 0.3470
v 0.4000 0.6600 0.3573
v -0.3690 0.6600 0.3608
v -0.4000 0.6600 0.3573
v -0.4295 0.6600 0.3470
v -0.4559 0.6600 0.3304
v -0.4780 0.6600 0.3083
v -0.4946 0.6600 0.2819
v -0.5049 0.6600 0.2524
v -0.5084 0.6600 -0.2214
v -0.5049 0.6600 -0.2524
v -0.4946 0.6600 -0.2819
v -0.4780 0.6600 -0.3083
v -0.4559 0.6600 -0.3304
v -0.4295 0.6600 -0.3470
v -0.4000 0.6600 -0.3573
v 0.3690 0.6600 -0.3608
v 0.4000 0.6600 -0.3573
v 0.4295 0.6600 -0.3470
v 0.4559 0.6600 -0.3304
v 0.4780 0.6600 -0.3083
v 0.4946 0.6600 -0.2819
v 0.5049 0.6600 -0.2524
v 0.5580 1.0500 0.2430
v 0.5542 1.0500 0.2770
v 0.5428 1.0500 0.3094
v 0.5246 1.0500 0.3384
v 0.5004 1.0500 0.3626
v 0.4714 1.0500 0.3808
v 0.4390 1.0500 0.3922
v -0.4050 1.0500 0.3960
v -0.4390 1.0500 0.3922
v -0.4714 1.0500 0.3808
v -0.5004 1.0500 0.3626
v -0.5246 1.0500 0.3384
v -0.5428 1.0500 0.3094
v -0.5542 1.0500 0.2770
v -0.5580 1.0500 -0.2430
v -0.5542 1.0500 -0.2770
v -0.5428 1.0500 -0.3094
v -0.5246 1.0500 -0.3384
v -0.5004 1.0500 -0.3626
v -0.4714 1.0500 -0.3808
v -0.4390 1.0500 -0.3922
v 0.4050 1.0500 -0.3960
v 0.4390 1.0500 -0.3922
v 0.4714 1.0500 -0.3808
v 0.5004 1.0500 -0.3626
v 0.5246 1.0500 -0.3384
v 0.5428 1.0500 -0.3094
v 0.5542 1.0500 -0.2770
v 0.5704 1.4000 0.2484
v 0.5665 1.4000 0.2832
v 0.5549 1.4000 0.3163
v 0.5363 1.4000 0.3459
v 0.5115 1.4000 0.3707
v 0.4819 1.4000 0.3893
v 0.4488 1.4000 0.4009
v -0.4140 1.4000 0.4048
v -0.4488 1.4000 0.4009
v -0.4819 1.4000 0.3893
v -0.5115 1.4000 0.3707
v -0.5363 1.4000 0.3459
v -0.5549 1.4000 0.3163
v -0.5665 1.4000 0.2832
v -0.5704 1.4000 -0.2484
v -0.5665 1.4000 -0.2832
v -0.5549 1.4000 -0.3163
v -0.5363 1.4000 -0.3459
v -0.5115 1.4000 -0.3707
v -0.4819 1.4000 -0.3893
v -0.4488 1.4000 -0.4009
v 0.4140 1.4000 -0.4048
v 0.4488 1.4000 -0.4009
v 0.4819 1.4000 -0.3893
v 0.5115 1.4000 -0.3707
v 0.5363 1.4000 -0.3459
v 0.5549 1.4000 -0.3163
v 0.5665 1.4000 -0.2832
v 0.0000 -0.0300 0.0000
v 0.0000 0.1200 0.0000
v -0.3000 1.3600 0.2800
v -0.3297 1.3641 0.2880
v -0.3515 1.3670 0.3100
v -0.3594 1.3681 0.3400
v -0.3515 1.3670 0.3700
v -0.3297 1.3641 0.3920
v -0.3000 1.3600 0.4000
v -0.2703 1.3559 0.3920
v -0.2485 1.3530 0.3700
v -0.2406 1.3519 0.3400
v -0.2485 1.3530 0.3100
v -0.2703 1.3559 0.2880
v -0.2400 1.8000 0.4000
v -0.2249 1.7741 0.3920
v -0.2138 1.7551 0.3700
v -0.2098 1.7482 0.3400
v -0.2138 1.7551 0.3100
v -0.2249 1.7741 0.2880
v -0.2400 1.8000 0.2800
v -0.2551 1.8259 0.2880
v -0.2662 1.8449 0.3100
v -0.2702 1.8518 0.3400
v -0.2662 1.8449 0.3700
v -0.2551 1.8259 0.3920
v 0.0000 1.9400 0.4000
v -0.0151 1.9141 0.3920
v -0.0262 1.8951 0.3700
v -0.0302 1.8882 0.3400
v -0.0262 1.8951 0.3100
v -0.0151 1.9141 0.2880
v -0.0000 1.9400 0.2800
v 0.0151 1.9659 0.2880
v 0.0262 1.9849 0.3100
v 0.0302 1.9918 0.3400
v 0.0262 1.9849 0.3700
v 0.0151 1.9659 0.3920
v 0.2400 1.8000 0.4000
v 0.2103 1.7959 0.3920
v 0.1885 1.7930 0.3700
v 0.1806 1.7919 0.3400
v 0.1885 1.7930 0.3100
v 0.2103 1.7959 0.2880
v 0.2400 1.8000 0.2800
v 0.2697 1.8041 0.2880
v 0.2915 1.8070 0.3100
v 0.2994 1.8081 0.3400
v 0.2915 1.8070 0.3700
v 0.2697 1.8041 0.3920
v 0.3000 1.3600 0.4000
v 0.2703 1.3559 0.3920
v 0.2485 1.3530 0.3700
v 0.2406 1.3519 0.3400
v 0.2485 1.3530 0.3100
v 0.2703 1.3559 0.2880
v 0.3000 1.3600 0.2800
v 0.3297 1.3641 0.2880
v 0.3515 1.3670 0.3100
v 0.3594 1.3681 0.3400
v 0.3515 1.3670 0.3700
v 0.3297 1.3641 0.3920
v -0.3000 1.3600 0.3400
v 0.3000 1.3600 0.3400
v -0.3000 1.3600 -0.4000
v -0.3297 1.3641 -0.3920
v -0.3515 1.3670 -0.3700
v -0.3594 1.3681 -0.3400
v -0.3515 1.3670 -0.3100
v -0.3297 1.3641 -0.2880
v -0.3000 1.3600 -0.2800
v -0.2703 1.3559 -0.2880
v -0.2485 1.3530 -0.3100
v -0.2406 1.3519 -0.3400
v -0.2485 1.3530 -0.3700
v -0.2703 1.3559 -0.3920
v -0.2400 1.8000 -0.2800
v -0.2249 1.7741 -0.2880
v -0.2138 1.7551 -0.3100
v -0.2098 1.7482 -0.3400
v -0.2138 1.7551 -0.3700
v -0.2249 1.7741 -0.3920
v -0.2400 1.8000 -0.4000
v -0.2551 1.8259 -0.3920
v -0.2662 1.8449 -0.3700
v -0.2702 1.8518 -0.3400
v -0.2662 1.8449 -0.3100
v -0.2551 1.8259 -0.2880
v 0.0000 1.9400 -0.2800
v -0.0151 1.9141 -0.2880
v -0.0262 1.8951 -0.3100
v -0.0302 1.8882 -0.3400
v -0.0262 1.8951 -0.3700
v -0.0151 1.9141 -0.3920
v -0.0000 1.9400 -0.4000
v 0.0151 1.9659 -0.3920
v 0.0262 1.9849 -0.3700
v 0.0302 1.9918 -0.3400
v 0.0262 1.9849 -0.3100
v 0.0151 1.9659 -0.2880
v 0.2400 1.8000 -0.2800
v 0.2103 1.7959 -0.2880
v 0.1885 1.7930 -0.3100
v 0.1806 1.7919 -0.3400
v 0.1885 1.7930 -0.3700
v 0.2103 1.7959 -0.3920
v 0.2400 1.8000 -0.4000
v 0.2697 1.8041 -0.3920
v 0.2915 1.8070 -0.3700
v 0.2994 1.8081 -0.3400
v 0.2915 1.8070 -0.3100
v 0.2697 1.8041 -0.2880
v 0.3000 1.3600 -0.2800
v 0.2703 1.3559 -0.2880
v 0.2485 1.3530 -0.3100
v 0.2406 1.3519 -0.3400
v 0.2485 1.3530 -0.3700
v 0.2703 1.3559 -0.3920
v 0.3000 1.3600 -0.4000
v 0.3297 1.3641 -0.3920
v 0.3515 1.3670 -0.3700
v 0.3594 1.3681 -0.3400
v 0.3515 1.3670 -0.3100
v 0.3297 1.3641 -0.2880
v -0.3000 1.3600 -0.3400
v 0.3000 1.3600 -0.3400
usemtl bag_green
f 1 29 30
f 30 29 1
f 1 30 2
f 2 30 1
f 2 30 31
f 31 30 2
f 2 31 3
f 3 31 2
f 3 31 32
f 32 31 3
f 3 32 4
f 4 32 3
f 4 32 33
f 33 32 4
f 4 33 5
f 5 33 4
f 5 33 34
f 34 33 5
f 5 34 6
f 6 34 5
f 6 34 35
f 35 34 6
f 6 35 7
f 7 35 6
f 7 35 36
f 36 35 7
f 7 36 8
f 8 36 7
f 8 36 37
f 37 36 8
f 8 37 9
f 9 37 8
f 9 37 38
f 38 37 9
f 9 38 10
f 10 38 9
f 10 38 39
f 39 38 10
f 10 39 11
f 11 39 10
f 11 39 40
f 40 39 11
f 11 40 12
f 12 40 11
f 12 40 41
f 41 40 12
f 12 41 13
f 13 41 12
f 13 41 42
f 42 41 13
f 13 42 14
f 14 42 13
f 14 42 43
f 43 42 14
f 14 43 15
f 15 43 14
f 15 43 44
f 44 43 15
f 15 44 16
f 16 44 15
f 16 44 45
f 45 44 16
f 16 45 17
f 17 45 16
f 17 45 46
f 46 45 17
f 17 46 18
f 18 46 17
f 18 46 47
f 47 46 18
f 18 47 19
f 19 47 18
f 19 47 48
f 48 47 19
f 19 48 20
f 20 48 19
f 20 48 49
f 49 48 20
f 20 49 21
f 21 49 20
f 21 49 50
f 50 49 21
f 21 50 22
f 22 50 21
f 22 50 51
f 51 50 22
f 22 51 23
f 23 51 22
f 23 51 52
f 52 51 23
f 23 52 24
f 24 52 23
f 24 52 53
f 53 52 24
f 24 53 25
f 25 53 24
f 25 53 54
f 54 53 25
f 25 54 26
f 26 54 25
f 26 54 55
f 55 54 26
f 26 55 27
f 27 55 26
f 27 55 56
f 56 55 27
f 27 56 28
f 28 56 27
f 28 56 29
f 29 56 28
f 28 29 1
f 1 29 28
f 29 57 58
f 58 57 29
f 29 58 30
f 30 58 29
f 30 58 59
f 59 58 30
f 30 59 31
f 31 59 30
f 31 59 60
f 60 59 31
f 31 60 32
f 32 60 31
f 32 60 61
f 61 60 32
f 32 61 33
f 33 61 32
f 33 61 62
f 62 61 33
f 33 62 34
f 34 62 33
f 34 62 63
f 63 62 34
f 34 63 35
f 35 63 34
f 35 63 64
f 64 63 35
f 35 64 36
f 36 64 35
f 36 64 65
f 65 64 36
f 36 65 37
f 37 65 36
f 37 65 66
f 66 65 37
f 37 66 38
f 38 66 37
f 38 66 67
f 67 66 38
f 38 67 39
f 39 67 38
f 39 67 68
f 68 67 39
f 39 68 40
f 40 68 39
f 40 68 69
f 69 68 40
f 40 69 41
f 41 69 40
f 41 69 70
f 70 69 41
f 41 70 42
f 42 70 41
f 42 70 71
f 71 70 42
f 42 71 43
f 43 71 42
f 43 71 72
f 72 71 43
f 43 72 44
f 44 72 43
f 44 72 73
f 73 72 44
f 44 73 45
f 45 73 44
f 45 73 74
f 74 73 45
f 45 74 46
f 46 74 45
f 46 74 75
f 75 74 46
f 46 75 47
f 47 75 46
f 47 75 76
f 76 75 47
f 47 76 48
f 48 76 47
f 48 76 77
f 77 76 48
f 48 77 49
f 49 77 48
f 49 77 78
f 78 77 49
f 49 78 50
f 50 78 49
f 50 78 79
f 79 78 50
f 50 79 51
f 51 79 50
f 51 79 80
f 80 79 51
f 51 80 52
f 52 80 51
f 52 80 81
f 81 80 52
f 52 81 53
f 53 81 52
f 53 81 82
f 82 81 53
f 53 82 54
f 54 82 53
f 54 82 83
f 83 82 54
f 54 83 55
f 55 83 54
f 55 83 84
f 84 83 55
f 55 84 56
f 56 84 55
f 56 84 57
f 57 84 56
f 56 57 29
f 29 57 56
f 57 85 86
f 86 85 57
f 57 86 58
f 58 86 57
f 58 86 87
f 87 86 58
f 58 87 59
f 59 87 58
f 59 87 88
f 88 87 59
f 59 88 60
f 60 88 59
f 60 88 89
f 89 88 60
f 60 89 61
f 61 89 60
f 61 89 90
f 90 89 61
f 61 90 62
f 62 90 61
f 62 90 91
f 91 90 62
f 62 91 63
f 63 91 62
f 63 91 92
f 92 91 63
f 63 92 64
f 64 92 63
f 64 92 93
f 93 92 64
f 64 93 65
f 65 93 64
f 65 93 94
f 94 93 65
f 65 94 66
f 66 94 65
f 66 94 95
f 95 94 66
f 66 95 67
f 67 95 66
f 67 95 96
f 96 95 67
f 67 96 68
f 68 96 67
f 68 96 97
f 97 96 68
f 68 97 69
f 69 97 68
f 69 97 98
f 98 97 69
f 69 98 70
f 70 98 69
f 70 98 99
f 99 98 70
f 70 99 71
f 71 99 70
f 71 99 100
f 100 99 71
f 71 100 72
f 72 100 71
f 72 100 101
f 101 100 72
f 72 101 73
f 73 101 72
f 73 101 102
f 102 101 73
f 73 102 74
f 74 102 73
f 74 102 103
f 103 102 74
f 74 103 75
f 75 103 74
f 75 103 104
f 104 103 75
f 75 104 76
f 76 104 75
f 76 104 105
f 105 104 76
f 76 105 77
f 77 105 76
f 77 105 106
f 106 105 77
f 77 106 78
f 78 106 77
f 78 106 107
f 107 106 78
f 78 107 79
f 79 107 78
f 79 107 108
f 108 107 79
f 79 108 80
f 80 108 79
f 80 108 109
f 109 108 80
f 80 109 81
f 81 109 80
f 81 109 110
f 110 109 81
f 81 110 82
f 82 110 81
f 82 110 111
f 111 110 82
f 82 111 83
f 83 111 82
f 83 111 112
f 112 111 83
f 83 112 84
f 84 112 83
f 84 112 85
f 85 112 84
f 84 85 57
f 57 85 84
f 141 169 170
f 170 169 141
f 141 170 142
f 142 170 141
f 142 170 171
f 171 170 142
f 142 171 143
f 143 171 142
f 143 171 172
f 172 171 143
f 143 172 144
f 144 172 143
f 144 172 173
f 173 172 144
f 144 173 145
f 145 173 144
f 145 173 174
f 174 173 145
f 145 174 146
f 146 174 145
f 146 174 175
f 175 174 146
f 146 175 147
f 147 175 146
f 147 175 176
f 176 175 147
f 147 176 148
f 148 176 147
f 148 176 177
f 177 176 148
f 148 177 149
f 149 177 148
f 149 177 178
f 178 177 149
f 149 178 150
f 150 178 149
f 150 178 179
f 179 178 150
f 150 179 151
f 151 179 150
f 151 179 180
f 180 179 151
f 151 180 152
f 152 180 151
f 152 180 181
f 181 180 152
f 152 181 153
f 153 181 152
f 153 181 182
f 182 181 153
f 153 182 154
f 154 182 153
f 154 182 183
f 183 182 154
f 154 183 155
f 155 183 154
f 155 183 184
f 184 183 155
f 155 184 156
f 156 184 155
f 156 184 185
f 185 184 156
f 156 185 157
f 157 185 156
f 157 185 186
f 186 185 157
f 157 186 158
f 158 186 157
f 158 186 187
f 187 186 158
f 158 187 159
f 159 187 158
f 159 187 188
f 188 187 159
f 159 188 160
f 160 188 159
f 160 188 189
f 189 188 160
f 160 189 161
f 161 189 160
f 161 189 190
f 190 189 161
f 161 190 162
f 162 190 161
f 162 190 191
f 191 190 162
f 162 191 163
f 163 191 162
f 163 191 192
f 192 191 163
f 163 192 164
f 164 192 163
f 164 192 193
f 193 192 164
f 164 193 165
f 165 193 164
f 165 193 194
f 194 193 165
f 165 194 166
f 166 194 165
f 166 194 195
f 195 194 166
f 166 195 167
f 167 195 166
f 167 195 196
f 196 195 167
f 167 196 168
f 168 196 167
f 168 196 169
f 169 196 168
f 168 169 141
f 141 169 168
f 169 197 198
f 198 197 169
f 169 198 170
f 170 198 169
f 170 198 199
f 199 198 170
f 170 199 171
f 171 199 170
f 171 199 200
f 200 199 171
f 171 200 172
f 172 200 171
f 172 200 201
f 201 200 172
f 172 201 173
f 173 201 172
f 173 201 202
f 202 201 173
f 173 202 174
f 174 202 173
f 174 202 203
f 203 202 174
f 174 203 175
f 175 203 174
f 175 203 204
f 204 203 175
f 175 204 176
f 176 204 175
f 176 204 205
f 205 204 176
f 176 205 177
f 177 205 176
f 177 205 206
f 206 205 177
f 177 206 178
f 178 206 177
f 178 206 207
f 207 206 178
f 178 207 179
f 179 207 178
f 179 207 208
f 208 207 179
f 179 208 180
f 180 208 179
f 180 208 209
f 209 208 180
f 180 209 181
f 181 209 180
f 181 209 210
f 210 209 181
f 181 210 182
f 182 210 181
f 182 210 211
f 211 210 182
f 182 211 183
f 183 211 182
f 183 211 212
f 212 211 183
f 183 212 184
f 184 212 183
f 184 212 213
f 213 212 184
f 184 213 185
f 185 213 184
f 185 213 214
f 214 213 185
f 185 214 186
f 186 214 185
f 186 214 215
f 215 214 186
f 186 215 187
f 187 215 186
f 187 215 216
f 216 215 187
f 187 216 188
f 188 216 187
f 188 216 217
f 217 216 188
f 188 217 189
f 189 217 188
f 189 217 218
f 218 217 189
f 189 218 190
f 190 218 189
f 190 218 219
f 219 218 190
f 190 219 191
f 191 219 190
f 191 219 220
f 220 219 191
f 191 220 192
f 192 220 191
f 192 220 221
f 221 220 192
f 192 221 193
f 193 221 192
f 193 221 222
f 222 221 193
f 193 222 194
f 194 222 193
f 194 222 223
f 223 222 194
f 194 223 195
f 195 223 194
f 195 223 224
f 224 223 195
f 195 224 196
f 196 224 195
f 196 224 197
f 197 224 196
f 196 197 169
f 169 197 196
f 197 225 226
f 226 225 197
f 197 226 198
f 198 226 197
f 198 226 227
f 227 226 198
f 198 227 199
f 199 227 198
f 199 227 228
f 228 227 199
f 199 228 200
f 200 228 199
f 200 228 229
f 229 228 200
f 200 229 201
f 201 229 200
f 201 229 230
f 230 229 201
f 201 230 202
f 202 230 201
f 202 230 231
f 231 230 202
f 202 231 203
f 203 231 202
f 203 231 232
f 232 231 203
f 203 232 204
f 204 232 203
f 204 232 233
f 233 232 204
f 204 233 205
f 205 233 204
f 205 233 234
f 234 233 205
f 205 234 206
f 206 234 205
f 206 234 235
f 235 234 206
f 206 235 207
f 207 235 206
f 207 235 236
f 236 235 207
f 207 236 208
f 208 236 207
f 208 236 237
f 237 236 208
f 208 237 209
f 209 237 208
f 209 237 238
f 238 237 209
f 209 238 210
f 210 238 209
f 210 238 239
f 239 238 210
f 210 239 211
f 211 239 210
f 211 239 240
f 240 239 211
f 211 240 212
f 212 240 211
f 212 240 241
f 241 240 212
f 212 241 213
f 213 241 212
f 213 241 242
f 242 241 213
f 213 242 214
f 214 242 213
f 214 242 243
f 243 242 214
f 214 243 215
f 215 243 214
f 215 243 244
f 244 243 215
f 215 244 216
f 216 244 215
f 216 244 245
f 245 244 216
f 216 245 217
f 217 245 216
f 217 245 246
f 246 245 217
f 217 246 218
f 218 246 217
f 218 246 247
f 247 246 218
f 218 247 219
f 219 247 218
f 219 247 248
f 248 247 219
f 219 248 220
f 220 248 219
f 220 248 249
f 249 248 220
f 220 249 221
f 221 249 220
f 221 249 250
f 250 249 221
f 221 250 222
f 222 250 221
f 222 250 251
f 251 250 222
f 222 251 223
f 223 251 222
f 223 251 252
f 252 251 223
f 223 252 224
f 224 252 223
f 224 252 225
f 225 252 224
f 224 225 197
f 197 225 224
f 281 2 1
f 1 2 281
f 281 3 2
f 2 3 281
f 281 4 3
f 3 4 281
f 281 5 4
f 4 5 281
f 281 6 5
f 5 6 281
f 281 7 6
f 6 7 281
f 281 8 7
f 7 8 281
f 281 9 8
f 8 9 281
f 281 10 9
f 9 10 281
f 281 11 10
f 10 11 281
f 281 12 11
f 11 12 281
f 281 13 12
f 12 13 281
f 281 14 13
f 13 14 281
f 281 15 14
f 14 15 281
f 281 16 15
f 15 16 281
f 281 17 16
f 16 17 281
f 281 18 17
f 17 18 281
f 281 19 18
f 18 19 281
f 281 20 19
f 19 20 281
f 281 21 20
f 20 21 281
f 281 22 21
f 21 22 281
f 281 23 22
f 22 23 281
f 281 24 23
f 23 24 281
f 281 25 24
f 24 25 281
f 281 26 25
f 25 26 281
f 281 27 26
f 26 27 281
f 281 28 27
f 27 28 281
f 281 1 28
f 28 1 281
f 282 141 142
f 142 141 282
f 282 142 143
f 143 142 282
f 282 143 144
f 144 143 282
f 282 144 145
f 145 144 282
f 282 145 146
f 146 145 282
f 282 146 147
f 147 146 282
f 282 147 148
f 148 147 282
f 282 148 149
f 149 148 282
f 282 149 150
f 150 149 282
f 282 150 151
f 151 150 282
f 282 151 152
f 152 151 282
f 282 152 153
f 153 152 282
f 282 153 154
f 154 153 282
f 282 154 155
f 155 154 282
f 282 155 156
f 156 155 282
f 282 156 157
f 157 156 282
f 282 157 158
f 158 157 282
f 282 158 159
f 159 158 282
f 282 159 160
f 160 159 282
f 282 160 161
f 161 160 282
f 282 161 162
f 162 161 282
f 282 162 163
f 163 162 282
f 282 163 164
f 164 163 282
f 282 164 165
f 165 164 282
f 282 165 166
f 166 165 282
f 282 166 167
f 167 166 282
f 282 167 168
f 168 167 282
f 282 168 141
f 141 168 282
usemtl bag_cream
f 85 113 114
f 114 113 85
f 85 114 86
f 86 114 85
f 86 114 115
f 115 114 86
f 86 115 87
f 87 115 86
f 87 115 116
f 116 115 87
f 87 116 88
f 88 116 87
f 88 116 117
f 117 116 88
f 88 117 89
f 89 117 88
f 89 117 118
f 118 117 89
f 89 118 90
f 90 118 89
f 90 118 119
f 119 118 90
f 90 119 91
f 91 119 90
f 91 119 120
f 120 119 91
f 91 120 92
f 92 120 91
f 92 120 121
f 121 120 92
f 92 121 93
f 93 121 92
f 93 121 122
f 122 121 93
f 93 122 94
f 94 122 93
f 94 122 123
f 123 122 94
f 94 123 95
f 95 123 94
f 95 123 124
f 124 123 95
f 95 124 96
f 96 124 95
f 96 124 125
f 125 124 96
f 96 125 97
f 97 125 96
f 97 125 126
f 126 125 97
f 97 126 98
f 98 126 97
f 98 126 127
f 127 126 98
f 98 127 99
f 99 127 98
f 99 127 128
f 128 127 99
f 99 128 100
f 100 128 99
f 100 128 129
f 129 128 100
f 100 129 101
f 101 129 100
f 101 129 130
f 130 129 101
f 101 130 102
f 102 130 101
f 102 130 131
f 131 130 102
f 102 131 103
f 103 131 102
f 103 131 132
f 132 131 103
f 103 132 104
f 104 132 103
f 104 132 133
f 133 132 104
f 104 133 105
f 105 133 104
f 105 133 134
f 134 133 105
f 105 134 106
f 106 134 105
f 106 134 135
f 135 134 106
f 106 135 107
f 107 135 106
f 107 135 136
f 136 135 107
f 107 136 108
f 108 136 107
f 108 136 137
f 137 136 108
f 108 137 109
f 109 137 108
f 109 137 138
f 138 137 109
f 109 138 110
f 110 138 109
f 110 138 139
f 139 138 110
f 110 139 111
f 111 139 110
f 111 139 140
f 140 139 111
f 111 140 112
f 112 140 111
f 112 140 113
f 113 140 112
f 112 113 85
f 85 113 112
f 225 253 254
f 254 253 225
f 225 254 226
f 226 254 225
f 226 254 255
f 255 254 226
f 226 255 227
f 227 255 226
f 227 255 256
f 256 255 227
f 227 256 228
f 228 256 227
f 228 256 257
f 257 256 228
f 228 257 229
f 229 257 228
f 229 257 258
f 258 257 229
f 229 258 230
f 230 258 229
f 230 258 259
f 259 258 230
f 230 259 231
f 231 259 230
f 231 259 260
f 260 259 231
f 231 260 232
f 232 260 231
f 232 260 261
f 261 260 232
f 232 261 233
f 233 261 232
f 233 261 262
f 262 261 233
f 233 262 234
f 234 262 233
f 234 262 263
f 263 262 234
f 234 263 235
f 235 263 234
f 235 263 264
f 264 263 235
f 235 264 236
f 236 264 235
f 236 264 265
f 265 264 236
f 236 265 237
f 237 265 236
f 237 265 266
f 266 265 237
f 237 266 238
f 238 266 237
f 238 266 267
f 267 266 238
f 238 267 239
f 239 267 238
f 239 267 268
f 268 267 239
f 239 268 240
f 240 268 239
f 240 268 269
f 269 268 240
f 240 269 241
f 241 269 240
f 241 269 270
f 270 269 241
f 241 270 242
f 242 270 241
f 242 270 271
f 271 270 242
f 242 271 243
f 243 271 242
f 243 271 272
f 272 271 243
f 243 272 244
f 244 272 243
f 244 272 273
f 273 272 244
f 244 273 245
f 245 273 244
f 245 273 274
f 274 273 245
f 245 274 246
f 246 274 245
f 246 274 275
f 275 274 246
f 246 275 247
f 247 275 246
f 247 275 276
f 276 275 247
f 247 276 248
f 248 276 247
f 248 276 277
f 277 276 248
f 248 277 249
f 249 277 248
f 249 277 278
f 278 277 249
f 249 278 250
f 250 278 249
f 250 278 279
f 279 278 250
f 250 279 251
f 251 279 250
f 251 279 280
f 280 279 251
f 251 280 252
f 252 280 251
f 252 280 253
f 253 280 252
f 252 253 225
f 225 253 252
f 113 114 254
f 254 114 113
f 113 254 253
f 253 254 113
f 114 115 255
f 255 115 114
f 114 255 254
f 254 255 114
f 115 116 256
f 256 116 115
f 115 256 255
f 255 256 115
f 116 117 257
f 257 117 116
f 116 257 256
f 256 257 116
f 117 118 258
f 258 118 117
f 117 258 257
f 257 258 117
f 118 119 259
f 259 119 118
f 118 259 258
f 258 259 118
f 119 120 260
f 260 120 119
f 119 260 259
f 259 260 119
f 120 121 261
f 261 121 120
f 120 261 260
f 260 261 120
f 121 122 262
f 262 122 121
f 121 262 261
f 261 262 121
f 122 123 263
f 263 123 122
f 122 263 262
f 262 263 122
f 123 124 264
f 264 124 123
f 123 264 263
f 263 264 123
f 124 125 265
f 265 125 124
f 124 265 264
f 264 265 124
f 125 126 266
f 266 126 125
f 125 266 265
f 265 266 125
f 126 127 267
f 267 127 126
f 126 267 266
f 266 267 126
f 127 128 268
f 268 128 127
f 127 268 267
f 267 268 127
f 128 129 269
f 269 129 128
f 128 269 268
f 268 269 128
f 129 130 270
f 270 130 129
f 129 270 269
f 269 270 129
f 130 131 271
f 271 131 130
f 130 271 270
f 270 271 130
f 131 132 272
f 272 132 131
f 131 272 271
f 271 272 131
f 132 133 273
f 273 133 132
f 132 273 272
f 272 273 132
f 133 134 274
f 274 134 133
f 133 274 273
f 273 274 133
f 134 135 275
f 275 135 134
f 134 275 274
f 274 275 134
f 135 136 276
f 276 136 135
f 135 276 275
f 275 276 135
f 136 137 277
f 277 137 136
f 136 277 276
f 276 277 136
f 137 138 278
f 278 138 137
f 137 278 277
f 277 278 137
f 138 139 279
f 279 139 138
f 138 279 278
f 278 279 138
f 139 140 280
f 280 140 139
f 139 280 279
f 279 280 139
f 140 113 253
f 253 113 140
f 140 253 280
f 280 253 140
f 283 295 296
f 296 295 283
f 283 296 284
f 284 296 283
f 284 296 297
f 297 296 284
f 284 297 285
f 285 297 284
f 285 297 298
f 298 297 285
f 285 298 286
f 286 298 285
f 286 298 299
f 299 298 286
f 286 299 287
f 287 299 286
f 287 299 300
f 300 299 287
f 287 300 288
f 288 300 287
f 288 300 301
f 301 300 288
f 288 301 289
f 289 301 288
f 289 301 302
f 302 301 289
f 289 302 290
f 290 302 289
f 290 302 303
f 303 302 290
f 290 303 291
f 291 303 290
f 291 303 304
f 304 303 291
f 291 304 292
f 292 304 291
f 292 304 305
f 305 304 292
f 292 305 293
f 293 305 292
f 293 305 306
f 306 305 293
f 293 306 294
f 294 306 293
f 294 306 295
f 295 306 294
f 294 295 283
f 283 295 294
f 295 307 308
f 308 307 295
f 295 308 296
f 296 308 295
f 296 308 309
f 309 308 296
f 296 309 297
f 297 309 296
f 297 309 310
f 310 309 297
f 297 310 298
f 298 310 297
f 298 310 311
f 311 310 298
f 298 311 299
f 299 311 298
f 299 311 312
f 312 311 299
f 299 312 300
f 300 312 299
f 300 312 313
f 313 312 300
f 300 313 301
f 301 313 300
f 301 313 314
f 314 313 301
f 301 314 302
f 302 314 301
f 302 314 315
f 315 314 302
f 302 315 303
f 303 315 302
f 303 315 316
f 316 315 303
f 303 316 304
f 304 316 303
f 304 316 317
f 317 316 304
f 304 317 305
f 305 317 304
f 305 317 318
f 318 317 305
f 305 318 306
f 306 318 305
f 306 318 307
f 307 318 306
f 306 307 295
f 295 307 306
f 307 319 320
f 320 319 307
f 307 320 308
f 308 320 307
f 308 320 321
f 321 320 308
f 308 321 309
f 309 321 308
f 309 321 322
f 322 321 309
f 309 322 310
f 310 322 309
f 310 322 323
f 323 322 310
f 310 323 311
f 311 323 310
f 311 323 324
f 324 323 311
f 311 324 312
f 312 324 311
f 312 324 325
f 325 324 312
f 312 325 313
f 313 325 312
f 313 325 326
f 326 325 313
f 313 326 314
f 314 326 313
f 314 326 327
f 327 326 314
f 314 327 315
f 315 327 314
f 315 327 328
f 328 327 315
f 315 328 316
f 316 328 315
f 316 328 329
f 329 328 316
f 316 329 317
f 317 329 316
f 317 329 330
f 330 329 317
f 317 330 318
f 318 330 317
f 318 330 319
f 319 330 318
f 318 319 307
f 307 319 318
f 319 331 332
f 332 331 319
f 319 332 320
f 320 332 319
f 320 332 333
f 333 332 320
f 320 333 321
f 321 333 320
f 321 333 334
f 334 333 321
f 321 334 322
f 322 334 321
f 322 334 335
f 335 334 322
f 322 335 323
f 323 335 322
f 323 335 336
f 336 335 323
f 323 336 324
f 324 336 323
f 324 336 337
f 337 336 324
f 324 337 325
f 325 337 324
f 325 337 338
f 338 337 325
f 325 338 326
f 326 338 325
f 326 338 339
f 339 338 326
f 326 339 327
f 327 339 326
f 327 339 340
f 340 339 327
f 327 340 328
f 328 340 327
f 328 340 341
f 341 340 328
f 328 341 329
f 329 341 328
f 329 341 342
f 342 341 329
f 329 342 330
f 330 342 329
f 330 342 331
f 331 342 330
f 330 331 319
f 319 331 330
f 343 284 283
f 283 284 343
f 343 285 284
f 284 285 343
f 343 286 285
f 285 286 343
f 343 287 286
f 286 287 343
f 343 288 287
f 287 288 343
f 343 289 288
f 288 289 343
f 343 290 289
f 289 290 343
f 343 291 290
f 290 291 343
f 343 292 291
f 291 292 343
f 343 293 292
f 292 293 343
f 343 294 293
f 293 294 343
f 343 283 294
f 294 283 343
f 344 331 332
f 332 331 344
f 344 332 333
f 333 332 344
f 344 333 334
f 334 333 344
f 344 334 335
f 335 334 344
f 344 335 336
f 336 335 344
f 344 336 337
f 337 336 344
f 344 337 338
f 338 337 344
f 344 338 339
f 339 338 344
f 344 339 340
f 340 339 344
f 344 340 341
f 341 340 344
f 344 341 342
f 342 341 344
f 344 342 331
f 331 342 344
f 345 357 358
f 358 357 345
f 345 358 346
f 346 358 345
f 346 358 359
f 359 358 346
f 346 359 347
f 347 359 346
f 347 359 360
f 360 359 347
f 347 360 348
f 348 360 347
f 348 360 361
f 361 360 348
f 348 361 349
f 349 361 348
f 349 361 362
f 362 361 349
f 349 362 350
f 350 362 349
f 350 362 363
f 363 362 350
f 350 363 351
f 351 363 350
f 351 363 364
f 364 363 351
f 351 364 352
f 352 364 351
f 352 364 365
f 365 364 352
f 352 365 353
f 353 365 352
f 353 365 366
f 366 365 353
f 353 366 354
f 354 366 353
f 354 366 367
f 367 366 354
f 354 367 355
f 355 367 354
f 355 367 368
f 368 367 355
f 355 368 356
f 356 368 355
f 356 368 357
f 357 368 356
f 356 357 345
f 345 357 356
f 357 369 370
f 370 369 357
f 357 370 358
f 358 370 357
f 358 370 371
f 371 370 358
f 358 371 359
f 359 371 358
f 359 371 372
f 372 371 359
f 359 372 360
f 360 372 359
f 360 372 373
f 373 372 360
f 360 373 361
f 361 373 360
f 361 373 374
f 374 373 361
f 361 374 362
f 362 374 361
f 362 374 375
f 375 374 362
f 362 375 363
f 363 375 362
f 363 375 376
f 376 375 363
f 363 376 364
f 364 376 363
f 364 376 377
f 377 376 364
f 364 377 365
f 365 377 364
f 365 377 378
f 378 377 365
f 365 378 366
f 366 378 365
f 366 378 379
f 379 378 366
f 366 379 367
f 367 379 366
f 367 379 380
f 380 379 367
f 367 380 368
f 368 380 367
f 368 380 369
f 369 380 368
f 368 369 357
f 357 369 368
f 369 381 382
f 382 381 369
f 369 382 370
f 370 382 369
f 370 382 383
f 383 382 370
f 370 383 371
f 371 383 370
f 371 383 384
f 384 383 371
f 371 384 372
f 372 384 371
f 372 384 385
f 385 384 372
f 372 385 373
f 373 385 372
f 373 385 386
f 386 385 373
f 373 386 374
f 374 386 373
f 374 386 387
f 387 386 374
f 374 387 375
f 375 387 374
f 375 387 388
f 388 387 375
f 375 388 376
f 376 388 375
f 376 388 389
f 389 388 376
f 376 389 377
f 377 389 376
f 377 389 390
f 390 389 377
f 377 390 378
f 378 390 377
f 378 390 391
f 391 390 378
f 378 391 379
f 379 391 378
f 379 391 392
f 392 391 379
f 379 392 380
f 380 392 379
f 380 392 381
f 381 392 380
f 380 381 369
f 369 381 380
f 381 393 394
f 394 393 381
f 381 394 382
f 382 394 381
f 382 394 395
f 395 394 382
f 382 395 383
f 383 395 382
f 383 395 396
f 396 395 383
f 383 396 384
f 384 396 383
f 384 396 397
f 397 396 384
f 384 397 385
f 385 397 384
f 385 397 398
f 398 397 385
f 385 398 386
f 386 398 385
f 386 398 399
f 399 398 386
f 386 399 387
f 387 399 386
f 387 399 400
f 400 399 387
f 387 400 388
f 388 400 387
f 388 400 401
f 401 400 388
f 388 401 389
f 389 401 388
f 389 401 402
f 402 401 389
f 389 402 390
f 390 402 389
f 390 402 403
f 403 402 390
f 390 403 391
f 391 403 390
f 391 403 404
f 404 403 391
f 391 404 392
f 392 404 391
f 392 404 393
f 393 404 392
f 392 393 381
f 381 393 392
f 405 346 345
f 345 346 405
f 405 347 346
f 346 347 405
f 405 348 347
f 347 348 405
f 405 349 348
f 348 349 405
f 405 350 349
f 349 350 405
f 405 351 350
f 350 351 405
f 405 352 351
f 351 352 405
f 405 353 352
f 352 353 405
f 405 354 353
f 353 354 405
f 405 355 354
f 354 355 405
f 405 356 355
f 355 356 405
f 405 345 356
f 356 345 405
f 406 393 394
f 394 393 406
f 406 394 395
f 395 394 406
f 406 395 396
f 396 395 406
f 406 396 397
f 397 396 406
f 406 397 398
f 398 397 406
f 406 398 399
f 399 398 406
f 406 399 400
f 400 399 406
f 406 400 401
f 401 400 406
f 406 401 402
f 402 401 406
f 406 402 403
f 403 402 406
f 406 403 404
f 404 403 406
f 406 404 393
f 393 404 406
