mtllib egg.mtl
v 0.0000 0.4600 0.0000
v 0.0000 0.4600 0.0000
v 0.0000 0.4600 0.0000
v 0.0000 0.4600 0.0000
v 0.0000 0.4600 0.0000
v 0.0000 0.4600 0.0000
v 0.0000 0.4600 0.0000
v 0.0000 0.4600 0.0000
v 0.0000 0.4600 0.0000
v 0.0000 0.4600 0.0000
v 0.0000 0.4600 0.0000
v 0.0000 0.4600 0.0000
v 0.0000 0.4600 0.0000
v 0.0000 0.4600 0.0000
v 0.0000 0.4600 0.0000
v 0.0000 0.4600 0.0000
v 0.0000 0.4600 0.0000
v 0.0000 0.4600 0.0000
v 0.0624 0.4512 0.0000
v 0.0587 0.4512 0.0214
v 0.0478 0.4512 0.0401
v 0.0312 0.4512 0.0541
v 0.0108 0.4512 0.0615
v -0.0108 0.4512 0.0615
v -0.0312 0.4512 0.0541
v -0.0478 0.4512 0.0401
v -0.0587 0.4512 0.0214
v -0.0624 0.4512 0.0000
v -0.0587 0.4512 -0.0214
v -0.0478 0.4512 -0.0401
v -0.0312 0.4512 -0.0541
v -0.0108 0.4512 -0.0615
v 0.0108 0.4512 -0.0615
v 0.0312 0.4512 -0.0541
v 0.0478 0.4512 -0.0401
v 0.0587 0.4512 -0.0214
v 0.1225 0.4250 0.0000
v 0.1151 0.4250 0.0419
v 0.0938 0.4250 0.0787
v 0.0612 0.4250 0.1061
v 0.0213 0.4250 0.1206
v -0.0213 0.4250 0.1206
v -0.0612 0.4250 0.1061
v -0.0938 0.4250 0.0787
v -0.1151 0.4250 0.0419
v -0.1225 0.4250 0.0000
v -0.1151 0.4250 -0.0419
v -0.0938 0.4250 -0.0787
v -0.0612 0.4250 -0.1061
v -0.0213 0.4250 -0.1206
v 0.0213 0.4250 -0.1206
v 0.0612 0.4250 -0.1061
v 0.0938 0.4250 -0.0787
v 0.1151 0.4250 -0.0419
v 0.1778 0.3825 0.0000
v 0.1671 0.3825 0.0608
v 0.1362 0.3825 0.1143
v 0.0889 0.3825 0.1540
v 0.0309 0.3825 0.1751
v -0.0309 0.3825 0.1751
v -0.0889 0.3825 0.1540
v -0.1362 0.3825 0.1143
v -0.1671 0.3825 0.0608
v -0.1778 0.3825 0.0000
v -0.1671 0.3825 -0.0608
v -0.1362 0.3825 -0.1143
v -0.0889 0.3825 -0.1540
v -0.0309 0.3825 -0.1751
v 0.0309 0.3825 -0.1751
v 0.0889 0.3825 -0.1540
v 0.1362 0.3825 -0.1143
v 0.1671 0.3825 -0.0608
v 0.2263 0.3253 0.0000
v 0.2126 0.3253 0.0774
v 0.1733 0.3253 0.1454
v 0.1131 0.3253 0.1960
v 0.0393 0.3253 0.2228
v -0.0393 0.3253 0.2228
v -0.1131 0.3253 0.1960
v -0.1733 0.3253 0.1454
v -0.2126 0.3253 0.0774
v -0.2263 0.3253 0.0000
v -0.2126 0.3253 -0.0774
v -0.1733 0.3253 -0.1454
v -0.1131 0.3253 -0.1960
v -0.0393 0.3253 -0.2228
v 0.0393 0.3253 -0.2228
v 0.1131 0.3253 -0.1960
v 0.1733 0.3253 -0.1454
v 0.2126 0.3253 -0.0774
v 0.2661 0.2556 0.0000
v 0.2500 0.2556 0.0910
v 0.2038 0.2556 0.1710
v 0.1330 0.2556 0.2304
v 0.0462 0.2556 0.2620
v -0.0462 0.2556 0.2620
v -0.1330 0.2556 0.2304
v -0.2038 0.2556 0.1710
v -0.2500 0.2556 0.0910
v -0.2661 0.2556 0.0000
v -0.2500 0.2556 -0.0910
v -0.2038 0.2556 -0.1710
v -0.1330 0.2556 -0.2304
v -0.0462 0.2556 -0.2620
v 0.0462 0.2556 -0.2620
v 0.1330 0.2556 -0.2304
v 0.2038 0.2556 -0.1710
v 0.2500 0.2556 -0.0910
v 0.2956 0.1760 0.0000
v 0.2778 0.1760 0.1011
v 0.2265 0.1760 0.1900
v 0.1478 0.1760 0.2560
v 0.0513 0.1760 0.2911
v -0.0513 0.1760 0.2911
v -0.1478 0.1760 0.2560
v -0.2265 0.1760 0.1900
v -0.2778 0.1760 0.1011
v -0.2956 0.1760 0.0000
v -0.2778 0.1760 -0.1011
v -0.2265 0.1760 -0.1900
v -0.1478 0.1760 -0.2560
v -0.0513 0.1760 -0.2911
v 0.0513 0.1760 -0.2911
v 0.1478 0.1760 -0.2560
v 0.2265 0.1760 -0.1900
v 0.2778 0.1760 -0.1011
v 0.3139 0.0897 0.0000
v 0.2949 0.0897 0.1073
v 0.2404 0.0897 0.2017
v 0.1569 0.0897 0.2718
v 0.0545 0.0897 0.3091
v -0.0545 0.0897 0.3091
v -0.1569 0.0897 0.2718
v -0.2404 0.0897 0.2017
v -0.2949 0.0897 0.1073
v -0.3139 0.0897 0.0000
v -0.2949 0.0897 -0.1073
v -0.2404 0.0897 -0.2017
v -0.1569 0.0897 -0.2718
v -0.0545 0.0897 -0.3091
v 0.0545 0.0897 -0.3091
v 0.1569 0.0897 -0.2718
v 0.2404 0.0897 -0.2017
v 0.2949 0.0897 -0.1073
v 0.3200 0.0000 0.0000
v 0.3007 0.0000 0.1094
v 0.2451 0.0000 0.2057
v 0.1600 0.0000 0.2771
v 0.0556 0.0000 0.3151
v -0.0556 0.0000 0.3151
v -0.1600 0.0000 0.2771
v -0.2451 0.0000 0.2057
v -0.3007 0.0000 0.1094
v -0.3200 0.0000 0.0000
v -0.3007 0.0000 -0.1094
v -0.2451 0.0000 -0.2057
v -0.1600 0.0000 -0.2771
v -0.0556 0.0000 -0.3151
v 0.0556 0.0000 -0.3151
v 0.1600 0.0000 -0.2771
v 0.2451 0.0000 -0.2057
v 0.3007 0.0000 -0.1094
v 0.3139 -0.0897 0.0000
v 0.2949 -0.0897 0.1073
v 0.2404 -0.0897 0.2017
v 0.1569 -0.0897 0.2718
v 0.0545 -0.0897 0.3091
v -0.0545 -0.0897 0.3091
v -0.1569 -0.0897 0.2718
v -0.2404 -0.0897 0.2017
v -0.2949 -0.0897 0.1073
v -0.3139 -0.0897 0.0000
v -0.2949 -0.0897 -0.1073
v -0.2404 -0.0897 -0.2017
v -0.1569 -0.0897 -0.2718
v -0.0545 -0.0897 -0.3091
v 0.0545 -0.0897 -0.3091
v 0.1569 -0.0897 -0.2718
v 0.2404 -0.0897 -0.2017
v 0.2949 -0.0897 -0.1073
v 0.2956 -0.1760 0.0000
v 0.2778 -0.1760 0.1011
v 0.2265 -0.1760 0.1900
v 0.1478 -0.1760 0.2560
v 0.0513 -0.1760 0.2911
v -0.0513 -0.1760 0.2911
v -0.1478 -0.1760 0.2560
v -0.2265 -0.1760 0.1900
v -0.2778 -0.1760 0.1011
v -0.2956 -0.1760 0.0000
v -0.2778 -0.1760 -0.1011
v -0.2265 -0.1760 -0.1900
v -0.1478 -0.1760 -0.2560
v -0.0513 -0.1760 -0.2911
v 0.0513 -0.1760 -0.2911
v 0.1478 -0.1760 -0.2560
v 0.2265 -0.1760 -0.1900
v 0.2778 -0.1760 -0.1011
v 0.2661 -0.2556 0.0000
v 0.2500 -0.2556 0.0910
v 0.2038 -0.2556 0.1710
v 0.1330 -0.2556 0.2304
v 0.0462 -0.2556 0.2620
v -0.0462 -0.2556 0.2620
v -0.1330 -0.2556 0.2304
v -0.2038 -0.2556 0.1710
v -0.2500 -0.2556 0.0910
v -0.2661 -0.2556 0.0000
v -0.2500 -0.2556 -0.0910
v -0.2038 -0.2556 -0.1710
v -0.1330 -0.2556 -0.2304
v -0.0462 -0.2556 -0.2620
v 0.0462 -0.2556 -0.2620
v 0.1330 -0.2556 -0.2304
v 0.2038 -0.2556 -0.1710
v 0.2500 -0.2556 -0.0910
v 0.2263 -0.3253 0.0000
v 0.2126 -0.3253 0.0774
v 0.1733 -0.3253 0.1454
v 0.1131 -0.3253 0.1960
v 0.0393 -0.3253 0.2228
v -0.0393 -0.3253 0.2228
v -0.1131 -0.3253 0.1960
v -0.1733 -0.3253 0.1454
v -0.2126 -0.3253 0.0774
v -0.2263 -0.3253 0.0000
v -0.2126 -0.3253 -0.0774
v -0.1733 -0.3253 -0.1454
v -0.1131 -0.3253 -0.1960
v -0.0393 -0.3253 -0.2228
v 0.0393 -0.3253 -0.2228
v 0.1131 -0.3253 -0.1960
v 0.1733 -0.3253 -0.1454
v 0.2126 -0.3253 -0.0774
v 0.1778 -0.3825 0.0000
v 0.1671 -0.3825 0.0608
v 0.1362 -0.3825 0.1143
v 0.0889 -0.3825 0.1540
v 0.0309 -0.3825 0.1751
v -0.0309 -0.3825 0.1751
v -0.0889 -0.3825 0.1540
v -0.1362 -0.3825 0.1143
v -0.1671 -0.3825 0.0608
v -0.1778 -0.3825 0.0000
v -0.1671 -0.3825 -0.0608
v -0.1362 -0.3825 -0.1143
v -0.0889 -0.3825 -0.1540
v -0.0309 -0.3825 -0.1751
v 0.0309 -0.3825 -0.1751
v 0.0889 -0.3825 -0.1540
v 0.1362 -0.3825 -0.1143
v 0.1671 -0.3825 -0.0608
v 0.1225 -0.4250 0.0000
v 0.1151 -0.4250 0.0419
v 0.0938 -0.4250 0.0787
v 0.0612 -0.4250 0.1061
v 0.0213 -0.4250 0.1206
v -0.0213 -0.4250 0.1206
v -0.0612 -0.4250 0.1061
v -0.0938 -0.4250 0.0787
v -0.1151 -0.4250 0.0419
v -0.1225 -0.4250 0.0000
v -0.1151 -0.4250 -0.0419
v -0.0938 -0.4250 -0.0787
v -0.0612 -0.4250 -0.1061
v -0.0213 -0.4250 -0.1206
v 0.0213 -0.4250 -0.1206
v 0.0612 -0.4250 -0.1061
v 0.0938 -0.4250 -0.0787
v 0.1151 -0.4250 -0.0419
v 0.0624 -0.4512 0.0000
v 0.0587 -0.4512 0.0214
v 0.0478 -0.4512 0.0401
v 0.0312 -0.4512 0.0541
v 0.0108 -0.4512 0.0615
v -0.0108 -0.4512 0.0615
v -0.0312 -0.4512 0.0541
v -0.0478 -0.4512 0.0401
v -0.0587 -0.4512 0.0214
v -0.0624 -0.4512 0.0000
v -0.0587 -0.4512 -0.0214
v -0.0478 -0.4512 -0.0401
v -0.0312 -0.4512 -0.0541
v -0.0108 -0.4512 -0.0615
v 0.0108 -0.4512 -0.0615
v 0.0312 -0.4512 -0.0541
v 0.0478 -0.4512 -0.0401
v 0.0587 -0.4512 -0.0214
v 0.0000 -0.4600 0.0000
v 0.0000 -0.4600 0.0000
v 0.0000 -0.4600 0.0000
v 0.0000 -0.4600 0.0000
v 0.0000 -0.4600 0.0000
v -0.0000 -0.4600 0.0000
v -0.0000 -0.4600 0.0000
v -0.0000 -0.4600 0.0000
v -0.0000 -0.4600 0.0000
v -0.0000 -0.4600 0.0000
v -0.0000 -0.4600 -0.0000
v -0.0000 -0.4600 -0.0000
v -0.0000 -0.4600 -0.0000
v -0.0000 -0.4600 -0.0000
v 0.0000 -0.4600 -0.0000
v 0.0000 -0.4600 -0.0000
v 0.0000 -0.4600 -0.0000
v 0.0000 -0.4600 -0.0000
usemtl egg
f 1 19 20
f 20 19 1
f 1 20 2
f 2 20 1
f 2 20 21
f 21 20 2
f 2 21 3
f 3 21 2
f 3 21 22
f 22 21 3
f 3 22 4
f 4 22 3
f 4 22 23
f 23 22 4
f 4 23 5
f 5 23 4
f 5 23 24
f 24 23 5
f 5 24 6
f 6 24 5
f 6 24 25
f 25 24 6
f 6 25 7
f 7 25 6
f 7 25 26
f 26 25 7
f 7 26 8
f 8 26 7
f 8 26 27
f 27 26 8
f 8 27 9
f 9 27 8
f 9 27 28
f 28 27 9
f 9 28 10
f 10 28 9
f 10 28 29
f 29 28 10
f 10 29 11
f 11 29 10
f 11 29 30
f 30 29 11
f 11 30 12
f 12 30 11
f 12 30 31
f 31 30 12
f 12 31 13
f 13 31 12
f 13 31 32
f 32 31 13
f 13 32 14
f 14 32 13
f 14 32 33
f 33 32 14
f 14 33 15
f 15 33 14
f 15 33 34
f 34 33 15
f 15 34 16
f 16 34 15
f 16 34 35
f 35 34 16
f 16 35 17
f 17 35 16
f 17 35 36
f 36 35 17
f 17 36 18
f 18 36 17
f 18 36 19
f 19 36 18
f 18 19 1
f 1 19 18
f 19 37 38
f 38 37 19
f 19 38 20
f 20 38 19
f 20 38 39
f 39 38 20
f 20 39 21
f 21 39 20
f 21 39 40
f 40 39 21
f 21 40 22
f 22 40 21
f 22 40 41
f 41 40 22
f 22 41 23
f 23 41 22
f 23 41 42
f 42 41 23
f 23 42 24
f 24 42 23
f 24 42 43
f 43 42 24
f 24 43 25
f 25 43 24
f 25 43 44
f 44 43 25
f 25 44 26
f 26 44 25
f 26 44 45
f 45 44 26
f 26 45 27
f 27 45 26
f 27 45 46
f 46 45 27
f 27 46 28
f 28 46 27
f 28 46 47
f 47 46 28
f 28 47 29
f 29 47 28
f 29 47 48
f 48 47 29
f 29 48 30
f 30 48 29
f 30 48 49
f 49 48 30
f 30 49 31
f 31 49 30
f 31 49 50
f 50 49 31
f 31 50 32
f 32 50 31
f 32 50 51
f 51 50 32
f 32 51 33
f 33 51 32
f 33 51 52
f 52 51 33
f 33 52 34
f 34 52 33
f 34 52 53
f 53 52 34
f 34 53 35
f 35 53 34
f 35 53 54
f 54 53 35
f 35 54 36
f 36 54 35
f 36 54 37
f 37 54 36
f 36 37 19
f 19 37 36
f 37 55 56
f 56 55 37
f 37 56 38
f 38 56 37
f 38 56 57
f 57 56 38
f 38 57 39
f 39 57 38
f 39 57 58
f 58 57 39
f 39 58 40
f 40 58 39
f 40 58 59
f 59 58 40
f 40 59 41
f 41 59 40
f 41 59 60
f 60 59 41
f 41 60 42
f 42 60 41
f 42 60 61
f 61 60 42
f 42 61 43
f 43 61 42
f 43 61 62
f 62 61 43
f 43 62 44
f 44 62 43
f 44 62 63
f 63 62 44
f 44 63 45
f 45 63 44
f 45 63 64
f 64 63 45
f 45 64 46
f 46 64 45
f 46 64 65
f 65 64 46
f 46 65 47
f 47 65 46
f 47 65 66
f 66 65 47
f 47 66 48
f 48 66 47
f 48 66 67
f 67 66 48
f 48 67 49
f 49 67 48
f 49 67 68
f 68 67 49
f 49 68 50
f 50 68 49
f 50 68 69
f 69 68 50
f 50 69 51
f 51 69 50
f 51 69 70
f 70 69 51
f 51 70 52
f 52 70 51
f 52 70 71
f 71 70 52
f 52 71 53
f 53 71 52
f 53 71 72
f 72 71 53
f 53 72 54
f 54 72 53
f 54 72 55
f 55 72 54
f 54 55 37
f 37 55 54
f 55 73 74
f 74 73 55
f 55 74 56
f 56 74 55
f 56 74 75
f 75 74 56
f 56 75 57
f 57 75 56
f 57 75 76
f 76 75 57
f 57 76 58
f 58 76 57
f 58 76 77
f 77 76 58
f 58 77 59
f 59 77 58
f 59 77 78
f 78 77 59
f 59 78 60
f 60 78 59
f 60 78 79
f 79 78 60
f 60 79 61
f 61 79 60
f 61 79 80
f 80 79 61
f 61 80 62
f 62 80 61
f 62 80 81
f 81 80 62
f 62 81 63
f 63 81 62
f 63 81 82
f 82 81 63
f 63 82 64
f 64 82 63
f 64 82 83
f 83 82 64
f 64 83 65
f 65 83 64
f 65 83 84
f 84 83 65
f 65 84 66
f 66 84 65
f 66 84 85
f 85 84 66
f 66 85 67
f 67 85 66
f 67 85 86
f 86 85 67
f 67 86 68
f 68 86 67
f 68 86 87
f 87 86 68
f 68 87 69
f 69 87 68
f 69 87 88
f 88 87 69
f 69 88 70
f 70 88 69
f 70 88 89
f 89 88 70
f 70 89 71
f 71 89 70
f 71 89 90
f 90 89 71
f 71 90 72
f 72 90 71
f 72 90 73
f 73 90 72
f 72 73 55
f 55 73 72
f 73 91 92
f 92 91 73
f 73 92 74
f 74 92 73
f 74 92 93
f 93 92 74
f 74 93 75
f 75 93 74
f 75 93 94
f 94 93 75
f 75 94 76
f 76 94 75
f 76 94 95
f 95 94 76
f 76 95 77
f 77 95 76
f 77 95 96
f 96 95 77
f 77 96 78
f 78 96 77
f 78 96 97
f 97 96 78
f 78 97 79
f 79 97 78
f 79 97 98
f 98 97 79
f 79 98 80
f 80 98 79
f 80 98 99
f 99 98 80
f 80 99 81
f 81 99 80
f 81 99 100
f 100 99 81
f 81 100 82
f 82 100 81
f 82 100 101
f 101 100 82
f 82 101 83
f 83 101 82
f 83 101 102
f 102 101 83
f 83 102 84
f 84 102 83
f 84 102 103
f 103 102 84
f 84 103 85
f 85 103 84
f 85 103 104
f 104 103 85
f 85 104 86
f 86 104 85
f 86 104 105
f 105 104 86
f 86 105 87
f 87 105 86
f 87 105 106
f 106 105 87
f 87 106 88
f 88 106 87
f 88 106 107
f 107 106 88
f 88 107 89
f 89 107 88
f 89 107 108
f 108 107 89
f 89 108 90
f 90 108 89
f 90 108 91
f 91 108 90
f 90 91 73
f 73 91 90
f 91 109 110
f 110 109 91
f 91 110 92
f 92 110 91
f 92 110 111
f 111 110 92
f 92 111 93
f 93 111 92
f 93 111 112
f 112 111 93
f 93 112 94
f 94 112 93
f 94 112 113
f 113 112 94
f 94 113 95
f 95 113 94
f 95 113 114
f 114 113 95
f 95 114 96
f 96 114 95
f 96 114 115
f 115 114 96
f 96 115 97
f 97 115 96
f 97 115 116
f 116 115 97
f 97 116 98
f 98 116 97
f 98 116 117
f 117 116 98
f 98 117 99
f 99 117 98
f 99 117 118
f 118 117 99
f 99 118 100
f 100 118 99
f 100 118 119
f 119 118 100
f 100 119 101
f 101 119 100
f 101 119 120
f 120 119 101
f 101 120 102
f 102 120 101
f 102 120 121
f 121 120 102
f 102 121 103
f 103 121 102
f 103 121 122
f 122 121 103
f 103 122 104
f 104 122 103
f 104 122 123
f 123 122 104
f 104 123 105
f 105 123 104
f 105 123 124
f 124 123 105
f 105 124 106
f 106 124 105
f 106 124 125
f 125 124 106
f 106 125 107
f 107 125 106
f 107 125 126
f 126 125 107
f 107 126 108
f 108 126 107
f 108 126 109
f 109 126 108
f 108 109 91
f 91 109 108
f 109 127 128
f 128 127 109
f 109 128 110
f 110 128 109
f 110 128 129
f 129 128 110
f 110 129 111
f 111 129 110
f 111 129 130
f 130 129 111
f 111 130 112
f 112 130 111
f 112 130 131
f 131 130 112
f 112 131 113
f 113 131 112
f 113 131 132
f 132 131 113
f 113 132 114
f 114 132 113
f 114 132 133
f 133 132 114
f 114 133 115
f 115 133 114
f 115 133 134
f 134 133 115
f 115 134 116
f 116 134 115
f 116 134 135
f 135 134 116
f 116 135 117
f 117 135 116
f 117 135 136
f 136 135 117
f 117 136 118
f 118 136 117
f 118 136 137
f 137 136 118
f 118 137 119
f 119 137 118
f 119 137 138
f 138 137 119
f 119 138 120
f 120 138 119
f 120 138 139
f 139 138 120
f 120 139 121
f 121 139 120
f 121 139 140
f 140 139 121
f 121 140 122
f 122 140 121
f 122 140 141
f 141 140 122
f 122 141 123
f 123 141 122
f 123 141 142
f 142 141 123
f 123 142 124
f 124 142 123
f 124 142 143
f 143 142 124
f 124 143 125
f 125 143 124
f 125 143 144
f 144 143 125
f 125 144 126
f 126 144 125
f 126 144 127
f 127 144 126
f 126 127 109
f 109 127 126
f 127 145 146
f 146 145 127
f 127 146 128
f 128 146 127
f 128 146 147
f 147 146 128
f 128 147 129
f 129 147 128
f 129 147 148
f 148 147 129
f 129 148 130
f 130 148 129
f 130 148 149
f 149 148 130
f 130 149 131
f 131 149 130
f 131 149 150
f 150 149 131
f 131 150 132
f 132 150 131
f 132 150 151
f 151 150 132
f 132 151 133
f 133 151 132
f 133 151 152
f 152 151 133
f 133 152 134
f 134 152 133
f 134 152 153
f 153 152 134
f 134 153 135
f 135 153 134
f 135 153 154
f 154 153 135
f 135 154 136
f 136 154 135
f 136 154 155
f 155 154 136
f 136 155 137
f 137 155 136
f 137 155 156
f 156 155 137
f 137 156 138
f 138 156 137
f 138 156 157
f 157 156 138
f 138 157 139
f 139 157 138
f 139 157 158
f 158 157 139
f 139 158 140
f 140 158 139
f 140 158 159
f 159 158 140
f 140 159 141
f 141 159 140
f 141 159 160
f 160 159 141
f 141 160 142
f 142 160 141
f 142 160 161
f 161 160 142
f 142 161 143
f 143 161 142
f 143 161 162
f 162 161 143
f 143 162 144
f 144 162 143
f 144 162 145
f 145 162 144
f 144 145 127
f 127 145 144
f 145 163 164
f 164 163 145
f 145 164 146
f 146 164 145
f 146 164 165
f 165 164 146
f 146 165 147
f 147 165 146
f 147 165 166
f 166 165 147
f 147 166 148
f 148 166 147
f 148 166 167
f 167 166 148
f 148 167 149
f 149 167 148
f 149 167 168
f 168 167 149
f 149 168 150
f 150 168 149
f 150 168 169
f 169 168 150
f 150 169 151
f 151 169 150
f 151 169 170
f 170 169 151
f 151 170 152
f 152 170 151
f 152 170 171
f 171 170 152
f 152 171 153
f 153 171 152
f 153 171 172
f 172 171 153
f 153 172 154
f 154 172 153
f 154 172 173
f 173 172 154
f 154 173 155
f 155 173 154
f 155 173 174
f 174 173 155
f 155 174 156
f 156 174 155
f 156 174 175
f 175 174 156
f 156 175 157
f 157 175 156
f 157 175 176
f 176 175 157
f 157 176 158
f 158 176 157
f 158 176 177
f 177 176 158
f 158 177 159
f 159 177 158
f 159 177 178
f 178 177 159
f 159 178 160
f 160 178 159
f 160 178 179
f 179 178 160
f 160 179 161
f 161 179 160
f 161 179 180
f 180 179 161
f 161 180 162
f 162 180 161
f 162 180 163
f 163 180 162
f 162 163 145
f 145 163 162
f 163 181 182
f 182 181 163
f 163 182 164
f 164 182 163
f 164 182 183
f 183 182 164
f 164 183 165
f 165 183 164
f 165 183 184
f 184 183 165
f 165 184 166
f 166 184 165
f 166 184 185
f 185 184 166
f 166 185 167
f 167 185 166
f 167 185 186
f 186 185 167
f 167 186 168
f 168 186 167
f 168 186 187
f 187 186 168
f 168 187 169
f 169 187 168
f 169 187 188
f 188 187 169
f 169 188 170
f 170 188 169
f 170 188 189
f 189 188 170
f 170 189 171
f 171 189 170
f 171 189 190
f 190 189 171
f 171 190 172
f 172 190 171
f 172 190 191
f 191 190 172
f 172 191 173
f 173 191 172
f 173 191 192
f 192 191 173
f 173 192 174
f 174 192 173
f 174 192 193
f 193 192 174
f 174 193 175
f 175 193 174
f 175 193 194
f 194 193 175
f 175 194 176
f 176 194 175
f 176 194 195
f 195 194 176
f 176 195 177
f 177 195 176
f 177 195 196
f 196 195 177
f 177 196 178
f 178 196 177
f 178 196 197
f 197 196 178
f 178 197 179
f 179 197 178
f 179 197 198
f 198 197 179
f 179 198 180
f 180 198 179
f 180 198 181
f 181 198 180
f 180 181 163
f 163 181 180
f 181 199 200
f 200 199 181
f 181 200 182
f 182 200 181
f 182 200 201
f 201 200 182
f 182 201 183
f 183 201 182
f 183 201 202
f 202 201 183
f 183 202 184
f 184 202 183
f 184 202 203
f 203 202 184
f 184 203 185
f 185 203 184
f 185 203 204
f 204 203 185
f 185 204 186
f 186 204 185
f 186 204 205
f 205 204 186
f 186 205 187
f 187 205 186
f 187 205 206
f 206 205 187
f 187 206 188
f 188 206 187
f 188 206 207
f 207 206 188
f 188 207 189
f 189 207 188
f 189 207 208
f 208 207 189
f 189 208 190
f 190 208 189
f 190 208 209
f 209 208 190
f 190 209 191
f 191 209 190
f 191 209 210
f 210 209 191
f 191 210 192
f 192 210 191
f 192 210 211
f 211 210 192
f 192 211 193
f 193 211 192
f 193 211 212
f 212 211 193
f 193 212 194
f 194 212 193
f 194 212 213
f 213 212 194
f 194 213 195
f 195 213 194
f 195 213 214
f 214 213 195
f 195 214 196
f 196 214 195
f 196 214 215
f 215 214 196
f 196 215 197
f 197 215 196
f 197 215 216
f 216 215 197
f 197 216 198
f 198 216 197
f 198 216 199
f 199 216 198
f 198 199 181
f 181 199 198
f 199 217 218
f 218 217 199
f 199 218 200
f 200 218 199
f 200 218 219
f 219 218 200
f 200 219 201
f 201 219 200
f 201 219 220
f 220 219 201
f 201 220 202
f 202 220 201
f 202 220 221
f 221 220 202
f 202 221 203
f 203 221 202
f 203 221 222
f 222 221 203
f 203 222 204
f 204 222 203
f 204 222 223
f 223 222 204
f 204 223 205
f 205 223 204
f 205 223 224
f 224 223 205
f 205 224 206
f 206 224 205
f 206 224 225
f 225 224 206
f 206 225 207
f 207 225 206
f 207 225 226
f 226 225 207
f 207 226 208
f 208 226 207
f 208 226 227
f 227 226 208
f 208 227 209
f 209 227 208
f 209 227 228
f 228 227 209
f 209 228 210
f 210 228 209
f 210 228 229
f 229 228 210
f 210 229 211
f 211 229 210
f 211 229 230
f 230 229 211
f 211 230 212
f 212 230 211
f 212 230 231
f 231 230 212
f 212 231 213
f 213 231 212
f 213 231 232
f 232 231 213
f 213 232 214
f 214 232 213
f 214 232 233
f 233 232 214
f 214 233 215
f 215 233 214
f 215 233 234
f 234 233 215
f 215 234 216
f 216 234 215
f 216 234 217
f 217 234 216
f 216 217 199
f 199 217 216
f 217 235 236
f 236 235 217
f 217 236 218
f 218 236 217
f 218 236 237
f 237 236 218
f 218 237 219
f 219 237 218
f 219 237 238
f 238 237 219
f 219 238 220
f 220 238 219
f 220 238 239
f 239 238 220
f 220 239 221
f 221 239 220
f 221 239 240
f 240 239 221
f 221 240 222
f 222 240 221
f 222 240 241
f 241 240 222
f 222 241 223
f 223 241 222
f 223 241 242
f 242 241 223
f 223 242 224
f 224 242 223
f 224 242 243
f 243 242 224
f 224 243 225
f 225 243 224
f 225 243 244
f 244 243 225
f 225 244 226
f 226 244 225
f 226 244 245
f 245 244 226
f 226 245 227
f 227 245 226
f 227 245 246
f 246 245 227
f 227 246 228
f 228 246 227
f 228 246 247
f 247 246 228
f 228 247 229
f 229 247 228
f 229 247 248
f 248 247 229
f 229 248 230
f 230 248 229
f 230 248 249
f 249 248 230
f 230 249 231
f 231 249 230
f 231 249 250
f 250 249 231
f 231 250 232
f 232 250 231
f 232 250 251
f 251 250 232
f 232 251 233
f 233 251 232
f 233 251 252
f 252 251 233
f 233 252 234
f 234 252 233
f 234 252 235
f 235 252 234
f 234 235 217
f 217 235 234
f 235 253 254
f 254 253 235
f 235 254 236
f 236 254 235
f 236 254 255
f 255 254 236
f 236 255 237
f 237 255 236
f 237 255 256
f 256 255 237
f 237 256 238
f 238 256 237
f 238 256 257
f 257 256 238
f 238 257 239
f 239 257 238
f 239 257 258
f 258 257 239
f 239 258 240
f 240 258 239
f 240 258 259
f 259 258 240
f 240 259 241
f 241 259 240
f 241 259 260
f 260 259 241
f 241 260 242
f 242 260 241
f 242 260 261
f 261 260 242
f 242 261 243
f 243 261 242
f 243 261 262
f 262 261 243
f 243 262 244
f 244 262 243
f 244 262 263
f 263 262 244
f 244 263 245
f 245 263 244
f 245 263 264
f 264 263 245
f 245 264 246
f 246 264 245
f 246 264 265
f 265 264 246
f 246 265 247
f 247 265 246
f 247 265 266
f 266 265 247
f 247 266 248
f 248 266 247
f 248 266 267
f 267 266 248
f 248 267 249
f 249 267 248
f 249 267 268
f 268 267 249
f 249 268 250
f 250 268 249
f 250 268 269
f 269 268 250
f 250 269 251
f 251 269 250
f 251 269 270
f 270 269 251
f 251 270 252
f 252 270 251
f 252 270 253
f 253 270 252
f 252 253 235
f 235 253 252
f 253 271 272
f 272 271 253
f 253 272 254
f 254 272 253
f 254 272 273
f 273 272 254
f 254 273 255
f 255 273 254
f 255 273 274
f 274 273 255
f 255 274 256
f 256 274 255
f 256 274 275
f 275 274 256
f 256 275 257
f 257 275 256
f 257 275 276
f 276 275 257
f 257 276 258
f 258 276 257
f 258 276 277
f 277 276 258
f 258 277 259
f 259 277 258
f 259 277 278
f 278 277 259
f 259 278 260
f 260 278 259
f 260 278 279
f 279 278 260
f 260 279 261
f 261 279 260
f 261 279 280
f 280 279 261
f 261 280 262
f 262 280 261
f 262 280 281
f 281 280 262
f 262 281 263
f 263 281 262
f 263 281 282
f 282 281 263
f 263 282 264
f 264 282 263
f 264 282 283
f 283 282 264
f 264 283 265
f 265 283 264
f 265 283 284
f 284 283 265
f 265 284 266
f 266 284 265
f 266 284 285
f 285 284 266
f 266 285 267
f 267 285 266
f 267 285 286
f 286 285 267
f 267 286 268
f 268 286 267
f 268 286 287
f 287 286 268
f 268 287 269
f 269 287 268
f 269 287 288
f 288 287 269
f 269 288 270
f 270 288 269
f 270 288 271
f 271 288 270
f 270 271 253
f 253 271 270
f 271 289 290
f 290 289 271
f 271 290 272
f 272 290 271
f 272 290 291
f 291 290 272
f 272 291 273
f 273 291 272
f 273 291 292
f 292 291 273
f 273 292 274
f 274 292 273
f 274 292 293
f 293 292 274
f 274 293 275
f 275 293 274
f 275 293 294
f 294 293 275
f 275 294 276
f 276 294 275
f 276 294 295
f 295 294 276
f 276 295 277
f 277 295 276
f 277 295 296
f 296 295 277
f 277 296 278
f 278 296 277
f 278 296 297
f 297 296 278
f 278 297 279
f 279 297 278
f 279 297 298
f 298 297 279
f 279 298 280
f 280 298 279
f 280 298 299
f 299 298 280
f 280 299 281
f 281 299 280
f 281 299 300
f 300 299 281
f 281 300 282
f 282 300 281
f 282 300 301
f 301 300 282
f 282 301 283
f 283 301 282
f 283 301 302
f 302 301 283
f 283 302 284
f 284 302 283
f 284 302 303
f 303 302 284
f 284 303 285
f 285 303 284
f 285 303 304
f 304 303 285
f 285 304 286
f 286 304 285
f 286 304 305
f 305 304 286
f 286 305 287
f 287 305 286
f 287 305 306
f 306 305 287
f 287 306 288
f 288 306 287
f 288 306 289
f 289 306 288
f 288 289 271
f 271 289 288
