mtllib fan.mtl
v 0.0000 0.0000 -0.5000
v -0.1294 0.0000 -0.4830
v -0.2500 0.0000 -0.4330
v -0.3536 0.0000 -0.3536
v -0.4330 0.0000 -0.2500
v -0.4830 0.0000 -0.1294
v -0.5000 0.0000 -0.0000
v -0.4830 0.0000 0.1294
v -0.4330 0.0000 0.2500
v -0.3536 0.0000 0.3536
v -0.2500 0.0000 0.4330
v -0.1294 0.0000 0.4830
v -0.0000 0.0000 0.5000
v 0.1294 0.0000 0.4830
v 0.2500 0.0000 0.4330
v 0.3536 0.0000 0.3536
v 0.4330 0.0000 0.2500
v 0.4830 0.0000 0.1294
v 0.5000 0.0000 0.0000
v 0.4830 0.0000 -0.1294
v 0.4330 0.0000 -0.2500
v 0.3536 0.0000 -0.3536
v 0.2500 0.0000 -0.4330
v 0.1294 0.0000 -0.4830
v 0.0000 0.1200 -0.4600
v -0.1191 0.1200 -0.4443
v -0.2300 0.1200 -0.3984
v -0.3253 0.1200 -0.3253
v -0.3984 0.1200 -0.2300
v -0.4443 0.1200 -0.1191
v -0.4600 0.1200 -0.0000
v -0.4443 0.1200 0.1191
v -0.3984 0.1200 0.2300
v -0.3253 0.1200 0.3253
v -0.2300 0.1200 0.3984
v -0.1191 0.1200 0.4443
v -0.0000 0.1200 0.4600
v 0.1191 0.1200 0.4443
v 0.2300 0.1200 0.3984
v 0.3253 0.1200 0.3253
v 0.3984 0.1200 0.2300
v 0.4443 0.1200 0.1191
v 0.4600 0.1200 0.0000
v 0.4443 0.1200 -0.1191
v 0.3984 0.1200 -0.2300
v 0.3253 0.1200 -0.3253
v 0.2300 0.1200 -0.3984
v 0.1191 0.1200 -0.4443
v 0.0000 0.0000 0.0000
v 0.0000 0.1200 0.0000
v 0.0000 0.1000 -0.0700
v -0.0268 0.1000 -0.0647
v -0.0495 0.1000 -0.0495
v -0.0647 0.1000 -0.0268
v -0.0700 0.1000 -0.0000
v -0.0647 0.1000 0.0268
v -0.0495 0.1000 0.0495
v -0.0268 0.1000 0.0647
v -0.0000 0.1000 0.0700
v 0.0268 0.1000 0.0647
v 0.0495 0.1000 0.0495
v 0.0647 0.1000 0.0268
v 0.0700 0.1000 0.0000
v 0.0647 0.1000 -0.0268
v 0.0495 0.1000 -0.0495
v 0.0268 0.1000 -0.0647
v 0.0000 1.2500 -0.0600
v -0.0230 1.2500 -0.0554
v -0.0424 1.2500 -0.0424
v -0.0554 1.2500 -0.0230
v -0.0600 1.2500 -0.0000
v -0.0554 1.2500 0.0230
v -0.0424 1.2500 0.0424
v -0.0230 1.2500 0.0554
v -0.0000 1.2500 0.0600
v 0.0230 1.2500 0.0554
v 0.0424 1.2500 0.0424
v 0.0554 1.2500 0.0230
v 0.0600 1.2500 0.0000
v 0.0554 1.2500 -0.0230
v 0.0424 1.2500 -0.0424
v 0.0230 1.2500 -0.0554
v 0.0000 0.1000 0.0000
v 0.0000 1.2500 0.0000
v 0.0000 1.1843 -0.0784
v -0.0347 1.1859 -0.0707
v -0.0625 1.1902 -0.0489
v -0.0780 1.1965 -0.0175
v -0.0780 1.2035 0.0175
v -0.0625 1.2098 0.0489
v -0.0347 1.2141 0.0707
v -0.0000 1.2157 0.0784
v 0.0347 1.2141 0.0707
v 0.0625 1.2098 0.0489
v 0.0780 1.2035 0.0175
v 0.0780 1.1965 -0.0175
v 0.0625 1.1902 -0.0489
v 0.0347 1.1859 -0.0707
v 0.0700 1.4500 -0.0500
v 0.0631 1.4217 -0.0609
v 0.0436 1.3989 -0.0696
v 0.0156 1.3863 -0.0745
v -0.0156 1.3863 -0.0745
v -0.0436 1.3989 -0.0696
v -0.0631 1.4217 -0.0609
v -0.0700 1.4500 -0.0500
v -0.0631 1.4783 -0.0391
v -0.0436 1.5011 -0.0304
v -0.0156 1.5137 -0.0255
v 0.0156 1.5137 -0.0255
v 0.0436 1.5011 -0.0304
v 0.0631 1.4783 -0.0391
v 0.0900 1.5000 -0.1800
v 0.0811 1.4636 -0.1940
v 0.0561 1.4343 -0.2053
v 0.0200 1.4181 -0.2115
v -0.0200 1.4181 -0.2115
v -0.0561 1.4343 -0.2053
v -0.0811 1.4636 -0.1940
v -0.0900 1.5000 -0.1800
v -0.0811 1.5364 -0.1660
v -0.0561 1.5657 -0.1547
v -0.0200 1.5819 -0.1485
v 0.0200 1.5819 -0.1485
v 0.0561 1.5657 -0.1547
v 0.0811 1.5364 -0.1660
v 0.0000 1.2000 0.0000
v 0.0000 1.5000 -0.1800
v 0.6600 1.5000 0.0000
v 0.6524 1.5000 0.0235
v 0.6324 1.5000 0.0380
v 0.6076 1.5000 0.0380
v 0.5876 1.5000 0.0235
v 0.5800 1.5000 0.0000
v 0.5876 1.5000 -0.0235
v 0.6076 1.5000 -0.0380
v 0.6324 1.5000 -0.0380
v 0.6524 1.5000 -0.0235
v 0.6456 1.6372 0.0000
v 0.6381 1.6356 0.0235
v 0.6185 1.6315 0.0380
v 0.5944 1.6263 0.0380
v 0.5748 1.6222 0.0235
v 0.5673 1.6206 0.0000
v 0.5748 1.6222 -0.0235
v 0.5944 1.6263 -0.0380
v 0.6185 1.6315 -0.0380
v 0.6381 1.6356 -0.0235
v 0.6029 1.7684 0.0000
v 0.5960 1.7653 0.0235
v 0.5777 1.7572 0.0380
v 0.5551 1.7471 0.0380
v 0.5368 1.7390 0.0235
v 0.5299 1.7359 0.0000
v 0.5368 1.7390 -0.0235
v 0.5551 1.7471 -0.0380
v 0.5777 1.7572 -0.0380
v 0.5960 1.7653 -0.0235
v 0.5340 1.8879 0.0000
v 0.5278 1.8834 0.0235
v 0.5116 1.8717 0.0380
v 0.4916 1.8572 0.0380
v 0.4754 1.8454 0.0235
v 0.4692 1.8409 0.0000
v 0.4754 1.8454 -0.0235
v 0.4916 1.8572 -0.0380
v 0.5116 1.8717 -0.0380
v 0.5278 1.8834 -0.0235
v 0.4416 1.9905 0.0000
v 0.4365 1.9848 0.0235
v 0.4231 1.9699 0.0380
v 0.4066 1.9516 0.0380
v 0.3932 1.9367 0.0235
v 0.3881 1.9310 0.0000
v 0.3932 1.9367 -0.0235
v 0.4066 1.9516 -0.0380
v 0.4231 1.9699 -0.0380
v 0.4365 1.9848 -0.0235
v 0.3300 2.0716 0.0000
v 0.3262 2.0650 0.0235
v 0.3162 2.0476 0.0380
v 0.3038 2.0262 0.0380
v 0.2938 2.0089 0.0235
v 0.2900 2.0023 0.0000
v 0.2938 2.0089 -0.0235
v 0.3038 2.0262 -0.0380
v 0.3162 2.0476 -0.0380
v 0.3262 2.0650 -0.0235
v 0.2040 2.1277 0.0000
v 0.2016 2.1204 0.0235
v 0.1954 2.1014 0.0380
v 0.1878 2.0779 0.0380
v 0.1816 2.0589 0.0235
v 0.1792 2.0516 0.0000
v 0.1816 2.0589 -0.0235
v 0.1878 2.0779 -0.0380
v 0.1954 2.1014 -0.0380
v 0.2016 2.1204 -0.0235
v 0.0690 2.1564 0.0000
v 0.0682 2.1488 0.0235
v 0.0661 2.1289 0.0380
v 0.0635 2.1043 0.0380
v 0.0614 2.0844 0.0235
v 0.0606 2.0768 0.0000
v 0.0614 2.0844 -0.0235
v 0.0635 2.1043 -0.0380
v 0.0661 2.1289 -0.0380
v 0.0682 2.1488 -0.0235
v -0.0690 2.1564 0.0000
v -0.0682 2.1488 0.0235
v -0.0661 2.1289 0.0380
v -0.0635 2.1043 0.0380
v -0.0614 2.0844 0.0235
v -0.0606 2.0768 0.0000
v -0.0614 2.0844 -0.0235
v -0.0635 2.1043 -0.0380
v -0.0661 2.1289 -0.0380
v -0.0682 2.1488 -0.0235
v -0.2040 2.1277 0.0000
v -0.2016 2.1204 0.0235
v -0.1954 2.1014 0.0380
v -0.1878 2.0779 0.0380
v -0.1816 2.0589 0.0235
v -0.1792 2.0516 0.0000
v -0.1816 2.0589 -0.0235
v -0.1878 2.0779 -0.0380
v -0.1954 2.1014 -0.0380
v -0.2016 2.1204 -0.0235
v -0.3300 2.0716 0.0000
v -0.3262 2.0650 0.0235
v -0.3162 2.0476 0.0380
v -0.3038 2.0262 0.0380
v -0.2938 2.0089 0.0235
v -0.2900 2.0023 0.0000
v -0.2938 2.0089 -0.0235
v -0.3038 2.0262 -0.0380
v -0.3162 2.0476 -0.0380
v -0.3262 2.0650 -0.0235
v -0.4416 1.9905 0.0000
v -0.4365 1.9848 0.0235
v -0.4231 1.9699 0.0380
v -0.4066 1.9516 0.0380
v -0.3932 1.9367 0.0235
v -0.3881 1.9310 0.0000
v -0.3932 1.9367 -0.0235
v -0.4066 1.9516 -0.0380
v -0.4231 1.9699 -0.0380
v -0.4365 1.9848 -0.0235
v -0.5340 1.8879 0.0000
v -0.5278 1.8834 0.0235
v -0.5116 1.8717 0.0380
v -0.4916 1.8572 0.0380
v -0.4754 1.8454 0.0235
v -0.4692 1.8409 0.0000
v -0.4754 1.8454 -0.0235
v -0.4916 1.8572 -0.0380
v -0.5116 1.8717 -0.0380
v -0.5278 1.8834 -0.0235
v -0.6029 1.7684 0.0000
v -0.5960 1.7653 0.0235
v -0.5777 1.7572 0.0380
v -0.5551 1.7471 0.0380
v -0.5368 1.7390 0.0235
v -0.5299 1.7359 0.0000
v -0.5368 1.7390 -0.0235
v -0.5551 1.7471 -0.0380
v -0.5777 1.7572 -0.0380
v -0.5960 1.7653 -0.0235
v -0.6456 1.6372 0.0000
v -0.6381 1.6356 0.0235
v -0.6185 1.6315 0.0380
v -0.5944 1.6263 0.0380
v -0.5748 1.6222 0.0235
v -0.5673 1.6206 0.0000
v -0.5748 1.6222 -0.0235
v -0.5944 1.6263 -0.0380
v -0.6185 1.6315 -0.0380
v -0.6381 1.6356 -0.0235
v -0.6600 1.5000 0.0000
v -0.6524 1.5000 0.0235
v -0.6324 1.5000 0.0380
v -0.6076 1.5000 0.0380
v -0.5876 1.5000 0.0235
v -0.5800 1.5000 0.0000
v -0.5876 1.5000 -0.0235
v -0.6076 1.5000 -0.0380
v -0.6324 1.5000 -0.0380
v -0.6524 1.5000 -0.0235
v -0.6456 1.3628 0.0000
v -0.6381 1.3644 0.0235
v -0.6185 1.3685 0.0380
v -0.5944 1.3737 0.0380
v -0.5748 1.3778 0.0235
v -0.5673 1.3794 0.0000
v -0.5748 1.3778 -0.0235
v -0.5944 1.3737 -0.0380
v -0.6185 1.3685 -0.0380
v -0.6381 1.3644 -0.0235
v -0.6029 1.2316 0.0000
v -0.5960 1.2347 0.0235
v -0.5777 1.2428 0.0380
v -0.5551 1.2529 0.0380
v -0.5368 1.2610 0.0235
v -0.5299 1.2641 0.0000
v -0.5368 1.2610 -0.0235
v -0.5551 1.2529 -0.0380
v -0.5777 1.2428 -0.0380
v -0.5960 1.2347 -0.0235
v -0.5340 1.1121 0.0000
v -0.5278 1.1166 0.0235
v -0.5116 1.1283 0.0380
v -0.4916 1.1428 0.0380
v -0.4754 1.1546 0.0235
v -0.4692 1.1591 0.0000
v -0.4754 1.1546 -0.0235
v -0.4916 1.1428 -0.0380
v -0.5116 1.1283 -0.0380
v -0.5278 1.1166 -0.0235
v -0.4416 1.0095 0.0000
v -0.4365 1.0152 0.0235
v -0.4231 1.0301 0.0380
v -0.4066 1.0484 0.0380
v -0.3932 1.0633 0.0235
v -0.3881 1.0690 0.0000
v -0.3932 1.0633 -0.0235
v -0.4066 1.0484 -0.0380
v -0.4231 1.0301 -0.0380
v -0.4365 1.0152 -0.0235
v -0.3300 0.9284 0.0000
v -0.3262 0.9350 0.0235
v -0.3162 0.9524 0.0380
v -0.3038 0.9738 0.0380
v -0.2938 0.9911 0.0235
v -0.2900 0.9977 0.0000
v -0.2938 0.9911 -0.0235
v -0.3038 0.9738 -0.0380
v -0.3162 0.9524 -0.0380
v -0.3262 0.9350 -0.0235
v -0.2040 0.8723 0.0000
v -0.2016 0.8796 0.0235
v -0.1954 0.8986 0.0380
v -0.1878 0.9221 0.0380
v -0.1816 0.9411 0.0235
v -0.1792 0.9484 0.0000
v -0.1816 0.9411 -0.0235
v -0.1878 0.9221 -0.0380
v -0.1954 0.8986 -0.0380
v -0.2016 0.8796 -0.0235
v -0.0690 0.8436 0.0000
v -0.0682 0.8512 0.0235
v -0.0661 0.8711 0.0380
v -0.0635 0.8957 0.0380
v -0.0614 0.9156 0.0235
v -0.0606 0.9232 0.0000
v -0.0614 0.9156 -0.0235
v -0.0635 0.8957 -0.0380
v -0.0661 0.8711 -0.0380
v -0.0682 0.8512 -0.0235
v 0.0690 0.8436 0.0000
v 0.0682 0.8512 0.0235
v 0.0661 0.8711 0.0380
v 0.0635 0.8957 0.0380
v 0.0614 0.9156 0.0235
v 0.0606 0.9232 0.0000
v 0.0614 0.9156 -0.0235
v 0.0635 0.8957 -0.0380
v 0.0661 0.8711 -0.0380
v 0.0682 0.8512 -0.0235
v 0.2040 0.8723 0.0000
v 0.2016 0.8796 0.0235
v 0.1954 0.8986 0.0380
v 0.1878 0.9221 0.0380
v 0.1816 0.9411 0.0235
v 0.1792 0.9484 0.0000
v 0.1816 0.9411 -0.0235
v 0.1878 0.9221 -0.0380
v 0.1954 0.8986 -0.0380
v 0.2016 0.8796 -0.0235
v 0.3300 0.9284 0.0000
v 0.3262 0.9350 0.0235
v 0.3162 0.9524 0.0380
v 0.3038 0.9738 0.0380
v 0.2938 0.9911 0.0235
v 0.2900 0.9977 0.0000
v 0.2938 0.9911 -0.0235
v 0.3038 0.9738 -0.0380
v 0.3162 0.9524 -0.0380
v 0.3262 0.9350 -0.0235
v 0.4416 1.0095 0.0000
v 0.4365 1.0152 0.0235
v 0.4231 1.0301 0.0380
v 0.4066 1.0484 0.0380
v 0.3932 1.0633 0.0235
v 0.3881 1.0690 0.0000
v 0.3932 1.0633 -0.0235
v 0.4066 1.0484 -0.0380
v 0.4231 1.0301 -0.0380
v 0.4365 1.0152 -0.0235
v 0.5340 1.1121 0.0000
v 0.5278 1.1166 0.0235
v 0.5116 1.1283 0.0380
v 0.4916 1.1428 0.0380
v 0.4754 1.1546 0.0235
v 0.4692 1.1591 0.0000
v 0.4754 1.1546 -0.0235
v 0.4916 1.1428 -0.0380
v 0.5116 1.1283 -0.0380
v 0.5278 1.1166 -0.0235
v 0.6029 1.2316 0.0000
v 0.5960 1.2347 0.0235
v 0.5777 1.2428 0.0380
v 0.5551 1.2529 0.0380
v 0.5368 1.2610 0.0235
v 0.5299 1.2641 0.0000
v 0.5368 1.2610 -0.0235
v 0.5551 1.2529 -0.0380
v 0.5777 1.2428 -0.0380
v 0.5960 1.2347 -0.0235
v 0.6456 1.3628 0.0000
v 0.6381 1.3644 0.0235
v 0.6185 1.3685 0.0380
v 0.5944 1.3737 0.0380
v 0.5748 1.3778 0.0235
v 0.5673 1.3794 0.0000
v 0.5748 1.3778 -0.0235
v 0.5944 1.3737 -0.0380
v 0.6185 1.3685 -0.0380
v 0.6381 1.3644 -0.0235
v 0.5300 1.5000 -0.0800
v 0.5212 1.5000 -0.0588
v 0.5000 1.5000 -0.0500
v 0.4788 1.5000 -0.0588
v 0.4700 1.5000 -0.0800
v 0.4788 1.5000 -0.1012
v 0.5000 1.5000 -0.1100
v 0.5212 1.5000 -0.1012
v 0.5146 1.6268 -0.0800
v 0.5061 1.6247 -0.0588
v 0.4855 1.6197 -0.0500
v 0.4649 1.6146 -0.0588
v 0.4563 1.6125 -0.0800
v 0.4649 1.6146 -0.1012
v 0.4855 1.6197 -0.1100
v 0.5061 1.6247 -0.1012
v 0.4693 1.7463 -0.0800
v 0.4615 1.7422 -0.0588
v 0.4427 1.7324 -0.0500
v 0.4239 1.7225 -0.0588
v 0.4162 1.7184 -0.0800
v 0.4239 1.7225 -0.1012
v 0.4427 1.7324 -0.1100
v 0.4615 1.7422 -0.1012
v 0.3967 1.8515 -0.0800
v 0.3901 1.8456 -0.0588
v 0.3743 1.8316 -0.0500
v 0.3584 1.8175 -0.0588
v 0.3518 1.8117 -0.0800
v 0.3584 1.8175 -0.1012
v 0.3743 1.8316 -0.1100
v 0.3901 1.8456 -0.1012
v 0.3011 1.9362 -0.0800
v 0.2961 1.9290 -0.0588
v 0.2840 1.9115 -0.0500
v 0.2720 1.8940 -0.0588
v 0.2670 1.8868 -0.0800
v 0.2720 1.8940 -0.1012
v 0.2840 1.9115 -0.1100
v 0.2961 1.9290 -0.1012
v 0.1879 1.9956 -0.0800
v 0.1848 1.9873 -0.0588
v 0.1773 1.9675 -0.0500
v 0.1698 1.9477 -0.0588
v 0.1667 1.9395 -0.0800
v 0.1698 1.9477 -0.1012
v 0.1773 1.9675 -0.1100
v 0.1848 1.9873 -0.1012
v 0.0639 2.0261 -0.0800
v 0.0628 2.0174 -0.0588
v 0.0603 1.9964 -0.0500
v 0.0577 1.9753 -0.0588
v 0.0567 1.9666 -0.0800
v 0.0577 1.9753 -0.1012
v 0.0603 1.9964 -0.1100
v 0.0628 2.0174 -0.1012
v -0.0639 2.0261 -0.0800
v -0.0628 2.0174 -0.0588
v -0.0603 1.9964 -0.0500
v -0.0577 1.9753 -0.0588
v -0.0567 1.9666 -0.0800
v -0.0577 1.9753 -0.1012
v -0.0603 1.9964 -0.1100
v -0.0628 2.0174 -0.1012
v -0.1879 1.9956 -0.0800
v -0.1848 1.9873 -0.0588
v -0.1773 1.9675 -0.0500
v -0.1698 1.9477 -0.0588
v -0.1667 1.9395 -0.0800
v -0.1698 1.9477 -0.1012
v -0.1773 1.9675 -0.1100
v -0.1848 1.9873 -0.1012
v -0.3011 1.9362 -0.0800
v -0.2961 1.9290 -0.0588
v -0.2840 1.9115 -0.0500
v -0.2720 1.8940 -0.0588
v -0.2670 1.8868 -0.0800
v -0.2720 1.8940 -0.1012
v -0.2840 1.9115 -0.1100
v -0.2961 1.9290 -0.1012
v -0.3967 1.8515 -0.0800
v -0.3901 1.8456 -0.0588
v -0.3743 1.8316 -0.0500
v -0.3584 1.8175 -0.0588
v -0.3518 1.8117 -0.0800
v -0.3584 1.8175 -0.1012
v -0.3743 1.8316 -0.1100
v -0.3901 1.8456 -0.1012
v -0.4693 1.7463 -0.0800
v -0.4615 1.7422 -0.0588
v -0.4427 1.7324 -0.0500
v -0.4239 1.7225 -0.0588
v -0.4162 1.7184 -0.0800
v -0.4239 1.7225 -0.1012
v -0.4427 1.7324 -0.1100
v -0.4615 1.7422 -0.1012
v -0.5146 1.6268 -0.0800
v -0.5061 1.6247 -0.0588
v -0.4855 1.6197 -0.0500
v -0.4649 1.6146 -0.0588
v -0.4563 1.6125 -0.0800
v -0.4649 1.6146 -0.1012
v -0.4855 1.6197 -0.1100
v -0.5061 1.6247 -0.1012
v -0.5300 1.5000 -0.0800
v -0.5212 1.5000 -0.0588
v -0.5000 1.5000 -0.0500
v -0.4788 1.5000 -0.0588
v -0.4700 1.5000 -0.0800
v -0.4788 1.5000 -0.1012
v -0.5000 1.5000 -0.1100
v -0.5212 1.5000 -0.1012
v -0.5146 1.3732 -0.0800
v -0.5061 1.3753 -0.0588
v -0.4855 1.3803 -0.0500
v -0.4649 1.3854 -0.0588
v -0.4563 1.3875 -0.0800
v -0.4649 1.3854 -0.1012
v -0.4855 1.3803 -0.1100
v -0.5061 1.3753 -0.1012
v -0.4693 1.2537 -0.0800
v -0.4615 1.2578 -0.0588
v -0.4427 1.2676 -0.0500
v -0.4239 1.2775 -0.0588
v -0.4162 1.2816 -0.0800
v -0.4239 1.2775 -0.1012
v -0.4427 1.2676 -0.1100
v -0.4615 1.2578 -0.1012
v -0.3967 1.1485 -0.0800
v -0.3901 1.1544 -0.0588
v -0.3743 1.1684 -0.0500
v -0.3584 1.1825 -0.0588
v -0.3518 1.1883 -0.0800
v -0.3584 1.1825 -0.1012
v -0.3743 1.1684 -0.1100
v -0.3901 1.1544 -0.1012
v -0.3011 1.0638 -0.0800
v -0.2961 1.0710 -0.0588
v -0.2840 1.0885 -0.0500
v -0.2720 1.1060 -0.0588
v -0.2670 1.1132 -0.0800
v -0.2720 1.1060 -0.1012
v -0.2840 1.0885 -0.1100
v -0.2961 1.0710 -0.1012
v -0.1879 1.0044 -0.0800
v -0.1848 1.0127 -0.0588
v -0.1773 1.0325 -0.0500
v -0.1698 1.0523 -0.0588
v -0.1667 1.0605 -0.0800
v -0.1698 1.0523 -0.1012
v -0.1773 1.0325 -0.1100
v -0.1848 1.0127 -0.1012
v -0.0639 0.9739 -0.0800
v -0.0628 0.9826 -0.0588
v -0.0603 1.0036 -0.0500
v -0.0577 1.0247 -0.0588
v -0.0567 1.0334 -0.0800
v -0.0577 1.0247 -0.1012
v -0.0603 1.0036 -0.1100
v -0.0628 0.9826 -0.1012
v 0.0639 0.9739 -0.0800
v 0.0628 0.9826 -0.0588
v 0.0603 1.0036 -0.0500
v 0.0577 1.0247 -0.0588
v 0.0567 1.0334 -0.0800
v 0.0577 1.0247 -0.1012
v 0.0603 1.0036 -0.1100
v 0.0628 0.9826 -0.1012
v 0.1879 1.0044 -0.0800
v 0.1848 1.0127 -0.0588
v 0.1773 1.0325 -0.0500
v 0.1698 1.0523 -0.0588
v 0.1667 1.0605 -0.0800
v 0.1698 1.0523 -0.1012
v 0.1773 1.0325 -0.1100
v 0.1848 1.0127 -0.1012
v 0.3011 1.0638 -0.0800
v 0.2961 1.0710 -0.0588
v 0.2840 1.0885 -0.0500
v 0.2720 1.1060 -0.0588
v 0.2670 1.1132 -0.0800
v 0.2720 1.1060 -0.1012
v 0.2840 1.0885 -0.1100
v 0.2961 1.0710 -0.1012
v 0.3967 1.1485 -0.0800
v 0.3901 1.1544 -0.0588
v 0.3743 1.1684 -0.0500
v 0.3584 1.1825 -0.0588
v 0.3518 1.1883 -0.0800
v 0.3584 1.1825 -0.1012
v 0.3743 1.1684 -0.1100
v 0.3901 1.1544 -0.1012
v 0.4693 1.2537 -0.0800
v 0.4615 1.2578 -0.0588
v 0.4427 1.2676 -0.0500
v 0.4239 1.2775 -0.0588
v 0.4162 1.2816 -0.0800
v 0.4239 1.2775 -0.1012
v 0.4427 1.2676 -0.1100
v 0.4615 1.2578 -0.1012
v 0.5146 1.3732 -0.0800
v 0.5061 1.3753 -0.0588
v 0.4855 1.3803 -0.0500
v 0.4649 1.3854 -0.0588
v 0.4563 1.3875 -0.0800
v 0.4649 1.3854 -0.1012
v 0.4855 1.3803 -0.1100
v 0.5061 1.3753 -0.1012
v -0.1200 1.5000 -0.1200
v -0.1109 1.4541 -0.1200
v -0.0849 1.4151 -0.1200
v -0.0459 1.3891 -0.1200
v -0.0000 1.3800 -0.1200
v 0.0459 1.3891 -0.1200
v 0.0849 1.4151 -0.1200
v 0.1109 1.4541 -0.1200
v 0.1200 1.5000 -0.1200
v 0.1109 1.5459 -0.1200
v 0.0849 1.5849 -0.1200
v 0.0459 1.6109 -0.1200
v 0.0000 1.6200 -0.1200
v -0.0459 1.6109 -0.1200
v -0.0849 1.5849 -0.1200
v -0.1109 1.5459 -0.1200
v -0.1200 1.5000 0.0600
v -0.1109 1.4541 0.0600
v -0.0849 1.4151 0.0600
v -0.0459 1.3891 0.0600
v -0.0000 1.3800 0.0600
v 0.0459 1.3891 0.0600
v 0.0849 1.4151 0.0600
v 0.1109 1.4541 0.0600
v 0.1200 1.5000 0.0600
v 0.1109 1.5459 0.0600
v 0.0849 1.5849 0.0600
v 0.0459 1.6109 0.0600
v 0.0000 1.6200 0.0600
v -0.0459 1.6109 0.0600
v -0.0849 1.5849 0.0600
v -0.1109 1.5459 0.0600
v 0.0000 1.5000 -0.1200
v 0.0000 1.5000 0.0600
v 0.0392 1.6846 -0.0200
v 0.1487 1.3839 -0.0200
v 0.5168 1.6881 0.0200
v -0.1846 1.5392 -0.0200
v 0.1161 1.6487 -0.0200
v -0.1881 2.0168 0.0200
v -0.0392 1.3154 -0.0200
v -0.1487 1.6161 -0.0200
v -0.5168 1.3119 0.0200
v 0.1846 1.4608 -0.0200
v -0.1161 1.3513 -0.0200
v 0.1881 0.9832 0.0200
usemtl fan_white
f 1 25 26
f 1 26 2
f 2 26 27
f 2 27 3
f 3 27 28
f 3 28 4
f 4 28 29
f 4 29 5
f 5 29 30
f 5 30 6
f 6 30 31
f 6 31 7
f 7 31 32
f 7 32 8
f 8 32 33
f 8 33 9
f 9 33 34
f 9 34 10
f 10 34 35
f 10 35 11
f 11 35 36
f 11 36 12
f 12 36 37
f 12 37 13
f 13 37 38
f 13 38 14
f 14 38 39
f 14 39 15
f 15 39 40
f 15 40 16
f 16 40 41
f 16 41 17
f 17 41 42
f 17 42 18
f 18 42 43
f 18 43 19
f 19 43 44
f 19 44 20
f 20 44 45
f 20 45 21
f 21 45 46
f 21 46 22
f 22 46 47
f 22 47 23
f 23 47 48
f 23 48 24
f 24 48 25
f 24 25 1
f 49 2 1
f 49 3 2
f 49 4 3
f 49 5 4
f 49 6 5
f 49 7 6
f 49 8 7
f 49 9 8
f 49 10 9
f 49 11 10
f 49 12 11
f 49 13 12
f 49 14 13
f 49 15 14
f 49 16 15
f 49 17 16
f 49 18 17
f 49 19 18
f 49 20 19
f 49 21 20
f 49 22 21
f 49 23 22
f 49 24 23
f 49 1 24
f 50 25 26
f 50 26 27
f 50 27 28
f 50 28 29
f 50 29 30
f 50 30 31
f 50 31 32
f 50 32 33
f 50 33 34
f 50 34 35
f 50 35 36
f 50 36 37
f 50 37 38
f 50 38 39
f 50 39 40
f 50 40 41
f 50 41 42
f 50 42 43
f 50 43 44
f 50 44 45
f 50 45 46
f 50 46 47
f 50 47 48
f 50 48 25
f 51 67 68
f 51 68 52
f 52 68 69
f 52 69 53
f 53 69 70
f 53 70 54
f 54 70 71
f 54 71 55
f 55 71 72
f 55 72 56
f 56 72 73
f 56 73 57
f 57 73 74
f 57 74 58
f 58 74 75
f 58 75 59
f 59 75 76
f 59 76 60
f 60 76 77
f 60 77 61
f 61 77 78
f 61 78 62
f 62 78 79
f 62 79 63
f 63 79 80
f 63 80 64
f 64 80 81
f 64 81 65
f 65 81 82
f 65 82 66
f 66 82 67
f 66 67 51
f 83 52 51
f 83 53 52
f 83 54 53
f 83 55 54
f 83 56 55
f 83 57 56
f 83 58 57
f 83 59 58
f 83 60 59
f 83 61 60
f 83 62 61
f 83 63 62
f 83 64 63
f 83 65 64
f 83 66 65
f 83 51 66
f 84 67 68
f 84 68 69
f 84 69 70
f 84 70 71
f 84 71 72
f 84 72 73
f 84 73 74
f 84 74 75
f 84 75 76
f 84 76 77
f 84 77 78
f 84 78 79
f 84 79 80
f 84 80 81
f 84 81 82
f 84 82 67
f 85 99 100
f 85 100 86
f 86 100 101
f 86 101 87
f 87 101 102
f 87 102 88
f 88 102 103
f 88 103 89
f 89 103 104
f 89 104 90
f 90 104 105
f 90 105 91
f 91 105 106
f 91 106 92
f 92 106 107
f 92 107 93
f 93 107 108
f 93 108 94
f 94 108 109
f 94 109 95
f 95 109 110
f 95 110 96
f 96 110 111
f 96 111 97
f 97 111 112
f 97 112 98
f 98 112 99
f 98 99 85
f 99 113 114
f 99 114 100
f 100 114 115
f 100 115 101
f 101 115 116
f 101 116 102
f 102 116 117
f 102 117 103
f 103 117 118
f 103 118 104
f 104 118 119
f 104 119 105
f 105 119 120
f 105 120 106
f 106 120 121
f 106 121 107
f 107 121 122
f 107 122 108
f 108 122 123
f 108 123 109
f 109 123 124
f 109 124 110
f 110 124 125
f 110 125 111
f 111 125 126
f 111 126 112
f 112 126 113
f 112 113 99
f 127 86 85
f 127 87 86
f 127 88 87
f 127 89 88
f 127 90 89
f 127 91 90
f 127 92 91
f 127 93 92
f 127 94 93
f 127 95 94
f 127 96 95
f 127 97 96
f 127 98 97
f 127 85 98
f 128 113 114
f 128 114 115
f 128 115 116
f 128 116 117
f 128 117 118
f 128 118 119
f 128 119 120
f 128 120 121
f 128 121 122
f 128 122 123
f 128 123 124
f 128 124 125
f 128 125 126
f 128 126 113
f 671 672 673
f 671 673 672
f 674 675 676
f 674 676 675
f 677 678 679
f 677 679 678
f 680 681 682
f 680 682 681
usemtl fan_grey
f 129 139 140
f 129 140 130
f 130 140 141
f 130 141 131
f 131 141 142
f 131 142 132
f 132 142 143
f 132 143 133
f 133 143 144
f 133 144 134
f 134 144 145
f 134 145 135
f 135 145 146
f 135 146 136
f 136 146 147
f 136 147 137
f 137 147 148
f 137 148 138
f 138 148 139
f 138 139 129
f 139 149 150
f 139 150 140
f 140 150 151
f 140 151 141
f 141 151 152
f 141 152 142
f 142 152 153
f 142 153 143
f 143 153 154
f 143 154 144
f 144 154 155
f 144 155 145
f 145 155 156
f 145 156 146
f 146 156 157
f 146 157 147
f 147 157 158
f 147 158 148
f 148 158 149
f 148 149 139
f 149 159 160
f 149 160 150
f 150 160 161
f 150 161 151
f 151 161 162
f 151 162 152
f 152 162 163
f 152 163 153
f 153 163 164
f 153 164 154
f 154 164 165
f 154 165 155
f 155 165 166
f 155 166 156
f 156 166 167
f 156 167 157
f 157 167 168
f 157 168 158
f 158 168 159
f 158 159 149
f 159 169 170
f 159 170 160
f 160 170 171
f 160 171 161
f 161 171 172
f 161 172 162
f 162 172 173
f 162 173 163
f 163 173 174
f 163 174 164
f 164 174 175
f 164 175 165
f 165 175 176
f 165 176 166
f 166 176 177
f 166 177 167
f 167 177 178
f 167 178 168
f 168 178 169
f 168 169 159
f 169 179 180
f 169 180 170
f 170 180 181
f 170 181 171
f 171 181 182
f 171 182 172
f 172 182 183
f 172 183 173
f 173 183 184
f 173 184 174
f 174 184 185
f 174 185 175
f 175 185 186
f 175 186 176
f 176 186 187
f 176 187 177
f 177 187 188
f 177 188 178
f 178 188 179
f 178 179 169
f 179 189 190
f 179 190 180
f 180 190 191
f 180 191 181
f 181 191 192
f 181 192 182
f 182 192 193
f 182 193 183
f 183 193 194
f 183 194 184
f 184 194 195
f 184 195 185
f 185 195 196
f 185 196 186
f 186 196 197
f 186 197 187
f 187 197 198
f 187 198 188
f 188 198 189
f 188 189 179
f 189 199 200
f 189 200 190
f 190 200 201
f 190 201 191
f 191 201 202
f 191 202 192
f 192 202 203
f 192 203 193
f 193 203 204
f 193 204 194
f 194 204 205
f 194 205 195
f 195 205 206
f 195 206 196
f 196 206 207
f 196 207 197
f 197 207 208
f 197 208 198
f 198 208 199
f 198 199 189
f 199 209 210
f 199 210 200
f 200 210 211
f 200 211 201
f 201 211 212
f 201 212 202
f 202 212 213
f 202 213 203
f 203 213 214
f 203 214 204
f 204 214 215
f 204 215 205
f 205 215 216
f 205 216 206
f 206 216 217
f 206 217 207
f 207 217 218
f 207 218 208
f 208 218 209
f 208 209 199
f 209 219 220
f 209 220 210
f 210 220 221
f 210 221 211
f 211 221 222
f 211 222 212
f 212 222 223
f 212 223 213
f 213 223 224
f 213 224 214
f 214 224 225
f 214 225 215
f 215 225 226
f 215 226 216
f 216 226 227
f 216 227 217
f 217 227 228
f 217 228 218
f 218 228 219
f 218 219 209
f 219 229 230
f 219 230 220
f 220 230 231
f 220 231 221
f 221 231 232
f 221 232 222
f 222 232 233
f 222 233 223
f 223 233 234
f 223 234 224
f 224 234 235
f 224 235 225
f 225 235 236
f 225 236 226
f 226 236 237
f 226 237 227
f 227 237 238
f 227 238 228
f 228 238 229
f 228 229 219
f 229 239 240
f 229 240 230
f 230 240 241
f 230 241 231
f 231 241 242
f 231 242 232
f 232 242 243
f 232 243 233
f 233 243 244
f 233 244 234
f 234 244 245
f 234 245 235
f 235 245 246
f 235 246 236
f 236 246 247
f 236 247 237
f 237 247 248
f 237 248 238
f 238 248 239
f 238 239 229
f 239 249 250
f 239 250 240
f 240 250 251
f 240 251 241
f 241 251 252
f 241 252 242
f 242 252 253
f 242 253 243
f 243 253 254
f 243 254 244
f 244 254 255
f 244 255 245
f 245 255 256
f 245 256 246
f 246 256 257
f 246 257 247
f 247 257 258
f 247 258 248
f 248 258 249
f 248 249 239
f 249 259 260
f 249 260 250
f 250 260 261
f 250 261 251
f 251 261 262
f 251 262 252
f 252 262 263
f 252 263 253
f 253 263 264
f 253 264 254
f 254 264 265
f 254 265 255
f 255 265 266
f 255 266 256
f 256 266 267
f 256 267 257
f 257 267 268
f 257 268 258
f 258 268 259
f 258 259 249
f 259 269 270
f 259 270 260
f 260 270 271
f 260 271 261
f 261 271 272
f 261 272 262
f 262 272 273
f 262 273 263
f 263 273 274
f 263 274 264
f 264 274 275
f 264 275 265
f 265 275 276
f 265 276 266
f 266 276 277
f 266 277 267
f 267 277 278
f 267 278 268
f 268 278 269
f 268 269 259
f 269 279 280
f 269 280 270
f 270 280 281
f 270 281 271
f 271 281 282
f 271 282 272
f 272 282 283
f 272 283 273
f 273 283 284
f 273 284 274
f 274 284 285
f 274 285 275
f 275 285 286
f 275 286 276
f 276 286 287
f 276 287 277
f 277 287 288
f 277 288 278
f 278 288 279
f 278 279 269
f 279 289 290
f 279 290 280
f 280 290 291
f 280 291 281
f 281 291 292
f 281 292 282
f 282 292 293
f 282 293 283
f 283 293 294
f 283 294 284
f 284 294 295
f 284 295 285
f 285 295 296
f 285 296 286
f 286 296 297
f 286 297 287
f 287 297 298
f 287 298 288
f 288 298 289
f 288 289 279
f 289 299 300
f 289 300 290
f 290 300 301
f 290 301 291
f 291 301 302
f 291 302 292
f 292 302 303
f 292 303 293
f 293 303 304
f 293 304 294
f 294 304 305
f 294 305 295
f 295 305 306
f 295 306 296
f 296 306 307
f 296 307 297
f 297 307 308
f 297 308 298
f 298 308 299
f 298 299 289
f 299 309 310
f 299 310 300
f 300 310 311
f 300 311 301
f 301 311 312
f 301 312 302
f 302 312 313
f 302 313 303
f 303 313 314
f 303 314 304
f 304 314 315
f 304 315 305
f 305 315 316
f 305 316 306
f 306 316 317
f 306 317 307
f 307 317 318
f 307 318 308
f 308 318 309
f 308 309 299
f 309 319 320
f 309 320 310
f 310 320 321
f 310 321 311
f 311 321 322
f 311 322 312
f 312 322 323
f 312 323 313
f 313 323 324
f 313 324 314
f 314 324 325
f 314 325 315
f 315 325 326
f 315 326 316
f 316 326 327
f 316 327 317
f 317 327 328
f 317 328 318
f 318 328 319
f 318 319 309
f 319 329 330
f 319 330 320
f 320 330 331
f 320 331 321
f 321 331 332
f 321 332 322
f 322 332 333
f 322 333 323
f 323 333 334
f 323 334 324
f 324 334 335
f 324 335 325
f 325 335 336
f 325 336 326
f 326 336 337
f 326 337 327
f 327 337 338
f 327 338 328
f 328 338 329
f 328 329 319
f 329 339 340
f 329 340 330
f 330 340 341
f 330 341 331
f 331 341 342
f 331 342 332
f 332 342 343
f 332 343 333
f 333 343 344
f 333 344 334
f 334 344 345
f 334 345 335
f 335 345 346
f 335 346 336
f 336 346 347
f 336 347 337
f 337 347 348
f 337 348 338
f 338 348 339
f 338 339 329
f 339 349 350
f 339 350 340
f 340 350 351
f 340 351 341
f 341 351 352
f 341 352 342
f 342 352 353
f 342 353 343
f 343 353 354
f 343 354 344
f 344 354 355
f 344 355 345
f 345 355 356
f 345 356 346
f 346 356 357
f 346 357 347
f 347 357 358
f 347 358 348
f 348 358 349
f 348 349 339
f 349 359 360
f 349 360 350
f 350 360 361
f 350 361 351
f 351 361 362
f 351 362 352
f 352 362 363
f 352 363 353
f 353 363 364
f 353 364 354
f 354 364 365
f 354 365 355
f 355 365 366
f 355 366 356
f 356 366 367
f 356 367 357
f 357 367 368
f 357 368 358
f 358 368 359
f 358 359 349
f 359 369 370
f 359 370 360
f 360 370 371
f 360 371 361
f 361 371 372
f 361 372 362
f 362 372 373
f 362 373 363
f 363 373 374
f 363 374 364
f 364 374 375
f 364 375 365
f 365 375 376
f 365 376 366
f 366 376 377
f 366 377 367
f 367 377 378
f 367 378 368
f 368 378 369
f 368 369 359
f 369 379 380
f 369 380 370
f 370 380 381
f 370 381 371
f 371 381 382
f 371 382 372
f 372 382 383
f 372 383 373
f 373 383 384
f 373 384 374
f 374 384 385
f 374 385 375
f 375 385 386
f 375 386 376
f 376 386 387
f 376 387 377
f 377 387 388
f 377 388 378
f 378 388 379
f 378 379 369
f 379 389 390
f 379 390 380
f 380 390 391
f 380 391 381
f 381 391 392
f 381 392 382
f 382 392 393
f 382 393 383
f 383 393 394
f 383 394 384
f 384 394 395
f 384 395 385
f 385 395 396
f 385 396 386
f 386 396 397
f 386 397 387
f 387 397 398
f 387 398 388
f 388 398 389
f 388 389 379
f 389 399 400
f 389 400 390
f 390 400 401
f 390 401 391
f 391 401 402
f 391 402 392
f 392 402 403
f 392 403 393
f 393 403 404
f 393 404 394
f 394 404 405
f 394 405 395
f 395 405 406
f 395 406 396
f 396 406 407
f 396 407 397
f 397 407 408
f 397 408 398
f 398 408 399
f 398 399 389
f 399 409 410
f 399 410 400
f 400 410 411
f 400 411 401
f 401 411 412
f 401 412 402
f 402 412 413
f 402 413 403
f 403 413 414
f 403 414 404
f 404 414 415
f 404 415 405
f 405 415 416
f 405 416 406
f 406 416 417
f 406 417 407
f 407 417 418
f 407 418 408
f 408 418 409
f 408 409 399
f 409 419 420
f 409 420 410
f 410 420 421
f 410 421 411
f 411 421 422
f 411 422 412
f 412 422 423
f 412 423 413
f 413 423 424
f 413 424 414
f 414 424 425
f 414 425 415
f 415 425 426
f 415 426 416
f 416 426 427
f 416 427 417
f 417 427 428
f 417 428 418
f 418 428 419
f 418 419 409
f 419 129 130
f 419 130 420
f 420 130 131
f 420 131 421
f 421 131 132
f 421 132 422
f 422 132 133
f 422 133 423
f 423 133 134
f 423 134 424
f 424 134 135
f 424 135 425
f 425 135 136
f 425 136 426
f 426 136 137
f 426 137 427
f 427 137 138
f 427 138 428
f 428 138 129
f 428 129 419
f 429 437 438
f 429 438 430
f 430 438 439
f 430 439 431
f 431 439 440
f 431 440 432
f 432 440 441
f 432 441 433
f 433 441 442
f 433 442 434
f 434 442 443
f 434 443 435
f 435 443 444
f 435 444 436
f 436 444 437
f 436 437 429
f 437 445 446
f 437 446 438
f 438 446 447
f 438 447 439
f 439 447 448
f 439 448 440
f 440 448 449
f 440 449 441
f 441 449 450
f 441 450 442
f 442 450 451
f 442 451 443
f 443 451 452
f 443 452 444
f 444 452 445
f 444 445 437
f 445 453 454
f 445 454 446
f 446 454 455
f 446 455 447
f 447 455 456
f 447 456 448
f 448 456 457
f 448 457 449
f 449 457 458
f 449 458 450
f 450 458 459
f 450 459 451
f 451 459 460
f 451 460 452
f 452 460 453
f 452 453 445
f 453 461 462
f 453 462 454
f 454 462 463
f 454 463 455
f 455 463 464
f 455 464 456
f 456 464 465
f 456 465 457
f 457 465 466
f 457 466 458
f 458 466 467
f 458 467 459
f 459 467 468
f 459 468 460
f 460 468 461
f 460 461 453
f 461 469 470
f 461 470 462
f 462 470 471
f 462 471 463
f 463 471 472
f 463 472 464
f 464 472 473
f 464 473 465
f 465 473 474
f 465 474 466
f 466 474 475
f 466 475 467
f 467 475 476
f 467 476 468
f 468 476 469
f 468 469 461
f 469 477 478
f 469 478 470
f 470 478 479
f 470 479 471
f 471 479 480
f 471 480 472
f 472 480 481
f 472 481 473
f 473 481 482
f 473 482 474
f 474 482 483
f 474 483 475
f 475 483 484
f 475 484 476
f 476 484 477
f 476 477 469
f 477 485 486
f 477 486 478
f 478 486 487
f 478 487 479
f 479 487 488
f 479 488 480
f 480 488 489
f 480 489 481
f 481 489 490
f 481 490 482
f 482 490 491
f 482 491 483
f 483 491 492
f 483 492 484
f 484 492 485
f 484 485 477
f 485 493 494
f 485 494 486
f 486 494 495
f 486 495 487
f 487 495 496
f 487 496 488
f 488 496 497
f 488 497 489
f 489 497 498
f 489 498 490
f 490 498 499
f 490 499 491
f 491 499 500
f 491 500 492
f 492 500 493
f 492 493 485
f 493 501 502
f 493 502 494
f 494 502 503
f 494 503 495
f 495 503 504
f 495 504 496
f 496 504 505
f 496 505 497
f 497 505 506
f 497 506 498
f 498 506 507
f 498 507 499
f 499 507 508
f 499 508 500
f 500 508 501
f 500 501 493
f 501 509 510
f 501 510 502
f 502 510 511
f 502 511 503
f 503 511 512
f 503 512 504
f 504 512 513
f 504 513 505
f 505 513 514
f 505 514 506
f 506 514 515
f 506 515 507
f 507 515 516
f 507 516 508
f 508 516 509
f 508 509 501
f 509 517 518
f 509 518 510
f 510 518 519
f 510 519 511
f 511 519 520
f 511 520 512
f 512 520 521
f 512 521 513
f 513 521 522
f 513 522 514
f 514 522 523
f 514 523 515
f 515 523 524
f 515 524 516
f 516 524 517
f 516 517 509
f 517 525 526
f 517 526 518
f 518 526 527
f 518 527 519
f 519 527 528
f 519 528 520
f 520 528 529
f 520 529 521
f 521 529 530
f 521 530 522
f 522 530 531
f 522 531 523
f 523 531 532
f 523 532 524
f 524 532 525
f 524 525 517
f 525 533 534
f 525 534 526
f 526 534 535
f 526 535 527
f 527 535 536
f 527 536 528
f 528 536 537
f 528 537 529
f 529 537 538
f 529 538 530
f 530 538 539
f 530 539 531
f 531 539 540
f 531 540 532
f 532 540 533
f 532 533 525
f 533 541 542
f 533 542 534
f 534 542 543
f 534 543 535
f 535 543 544
f 535 544 536
f 536 544 545
f 536 545 537
f 537 545 546
f 537 546 538
f 538 546 547
f 538 547 539
f 539 547 548
f 539 548 540
f 540 548 541
f 540 541 533
f 541 549 550
f 541 550 542
f 542 550 551
f 542 551 543
f 543 551 552
f 543 552 544
f 544 552 553
f 544 553 545
f 545 553 554
f 545 554 546
f 546 554 555
f 546 555 547
f 547 555 556
f 547 556 548
f 548 556 549
f 548 549 541
f 549 557 558
f 549 558 550
f 550 558 559
f 550 559 551
f 551 559 560
f 551 560 552
f 552 560 561
f 552 561 553
f 553 561 562
f 553 562 554
f 554 562 563
f 554 563 555
f 555 563 564
f 555 564 556
f 556 564 557
f 556 557 549
f 557 565 566
f 557 566 558
f 558 566 567
f 558 567 559
f 559 567 568
f 559 568 560
f 560 568 569
f 560 569 561
f 561 569 570
f 561 570 562
f 562 570 571
f 562 571 563
f 563 571 572
f 563 572 564
f 564 572 565
f 564 565 557
f 565 573 574
f 565 574 566
f 566 574 575
f 566 575 567
f 567 575 576
f 567 576 568
f 568 576 577
f 568 577 569
f 569 577 578
f 569 578 570
f 570 578 579
f 570 579 571
f 571 579 580
f 571 580 572
f 572 580 573
f 572 573 565
f 573 581 582
f 573 582 574
f 574 582 583
f 574 583 575
f 575 583 584
f 575 584 576
f 576 584 585
f 576 585 577
f 577 585 586
f 577 586 578
f 578 586 587
f 578 587 579
f 579 587 588
f 579 588 580
f 580 588 581
f 580 581 573
f 581 589 590
f 581 590 582
f 582 590 591
f 582 591 583
f 583 591 592
f 583 592 584
f 584 592 593
f 584 593 585
f 585 593 594
f 585 594 586
f 586 594 595
f 586 595 587
f 587 595 596
f 587 596 588
f 588 596 589
f 588 589 581
f 589 597 598
f 589 598 590
f 590 598 599
f 590 599 591
f 591 599 600
f 591 600 592
f 592 600 601
f 592 601 593
f 593 601 602
f 593 602 594
f 594 602 603
f 594 603 595
f 595 603 604
f 595 604 596
f 596 604 597
f 596 597 589
f 597 605 606
f 597 606 598
f 598 606 607
f 598 607 599
f 599 607 608
f 599 608 600
f 600 608 609
f 600 609 601
f 601 609 610
f 601 610 602
f 602 610 611
f 602 611 603
f 603 611 612
f 603 612 604
f 604 612 605
f 604 605 597
f 605 613 614
f 605 614 606
f 606 614 615
f 606 615 607
f 607 615 616
f 607 616 608
f 608 616 617
f 608 617 609
f 609 617 618
f 609 618 610
f 610 618 619
f 610 619 611
f 611 619 620
f 611 620 612
f 612 620 613
f 612 613 605
f 613 621 622
f 613 622 614
f 614 622 623
f 614 623 615
f 615 623 624
f 615 624 616
f 616 624 625
f 616 625 617
f 617 625 626
f 617 626 618
f 618 626 627
f 618 627 619
f 619 627 628
f 619 628 620
f 620 628 621
f 620 621 613
f 621 629 630
f 621 630 622
f 622 630 631
f 622 631 623
f 623 631 632
f 623 632 624
f 624 632 633
f 624 633 625
f 625 633 634
f 625 634 626
f 626 634 635
f 626 635 627
f 627 635 636
f 627 636 628
f 628 636 629
f 628 629 621
f 629 429 430
f 629 430 630
f 630 430 431
f 630 431 631
f 631 431 432
f 631 432 632
f 632 432 433
f 632 433 633
f 633 433 434
f 633 434 634
f 634 434 435
f 634 435 635
f 635 435 436
f 635 436 636
f 636 436 429
f 636 429 629
usemtl hub_grey
f 637 653 654
f 637 654 638
f 638 654 655
f 638 655 639
f 639 655 656
f 639 656 640
f 640 656 657
f 640 657 641
f 641 657 658
f 641 658 642
f 642 658 659
f 642 659 643
f 643 659 660
f 643 660 644
f 644 660 661
f 644 661 645
f 645 661 662
f 645 662 646
f 646 662 663
f 646 663 647
f 647 663 664
f 647 664 648
f 648 664 665
f 648 665 649
f 649 665 666
f 649 666 650
f 650 666 667
f 650 667 651
f 651 667 668
f 651 668 652
f 652 668 653
f 652 653 637
f 669 638 637
f 669 639 638
f 669 640 639
f 669 641 640
f 669 642 641
f 669 643 642
f 669 644 643
f 669 645 644
f 669 646 645
f 669 647 646
f 669 648 647
f 669 649 648
f 669 650 649
f 669 651 650
f 669 652 651
f 669 637 652
f 670 653 654
f 670 654 655
f 670 655 656
f 670 656 657
f 670 657 658
f 670 658 659
f 670 659 660
f 670 660 661
f 670 661 662
f 670 662 663
f 670 663 664
f 670 664 665
f 670 665 666
f 670 666 667
f 670 667 668
f 670 668 653
