mtllib green_onion.mtl
v 0.0000 0.0000 -0.1100
v -0.0647 0.0000 -0.0890
v -0.1046 0.0000 -0.0340
v -0.1046 0.0000 0.0340
v -0.0647 0.0000 0.0890
v -0.0000 0.0000 0.1100
v 0.0647 0.0000 0.0890
v 0.1046 0.0000 0.0340
v 0.1046 0.0000 -0.0340
v 0.0647 0.0000 -0.0890
v 0.0000 0.5000 -0.0900
v -0.0529 0.5000 -0.0728
v -0.0856 0.5000 -0.0278
v -0.0856 0.5000 0.0278
v -0.0529 0.5000 0.0728
v -0.0000 0.5000 0.0900
v 0.0529 0.5000 0.0728
v 0.0856 0.5000 0.0278
v 0.0856 0.5000 -0.0278
v 0.0529 0.5000 -0.0728
v 0.0000 1.1000 -0.0750
v -0.0441 1.1000 -0.0607
v -0.0713 1.1000 -0.0232
v -0.0713 1.1000 0.0232
v -0.0441 1.1000 0.0607
v -0.0000 1.1000 0.0750
v 0.0441 1.1000 0.0607
v 0.0713 1.1000 0.0232
v 0.0713 1.1000 -0.0232
v 0.0441 1.1000 -0.0607
v 0.0000 1.0062 -0.0747
v -0.0441 1.0050 -0.0605
v -0.0713 1.0019 -0.0231
v -0.0713 0.9981 0.0231
v -0.0441 0.9950 0.0605
v -0.0000 0.9938 0.0747
v 0.0441 0.9950 0.0605
v 0.0713 0.9981 0.0231
v 0.0713 1.0019 -0.0231
v 0.0441 1.0050 -0.0605
v 0.0000 1.6092 -0.0093
v -0.0353 1.6075 0.0020
v -0.0571 1.6028 0.0317
v -0.0571 1.5972 0.0683
v -0.0353 1.5925 0.0980
v -0.0000 1.5908 0.1093
v 0.0353 1.5925 0.0980
v 0.0571 1.5972 0.0683
v 0.0571 1.6028 0.0317
v 0.0353 1.6075 0.0020
v 0.0000 2.0546 0.0904
v -0.0176 2.0537 0.0960
v -0.0285 2.0514 0.1108
v -0.0285 2.0486 0.1292
v -0.0176 2.0463 0.1440
v -0.0000 2.0454 0.1496
v 0.0176 2.0463 0.1440
v 0.0285 2.0486 0.1292
v 0.0285 2.0514 0.1108
v 0.0176 2.0537 0.0960
v 0.0000 1.5056 -0.0447
v -0.0305 1.4949 -0.0327
v -0.0431 1.4873 -0.0016
v -0.0305 1.4870 0.0304
v -0.0000 1.4944 0.0447
v 0.0305 1.5051 0.0327
v 0.0431 1.5127 0.0016
v 0.0305 1.5130 -0.0304
v -0.1200 1.9049 0.0204
v -0.1405 1.8982 0.0282
v -0.1490 1.8925 0.0487
v -0.1405 1.8912 0.0700
v -0.1200 1.8951 0.0796
v -0.0995 1.9018 0.0718
v -0.0910 1.9075 0.0513
v -0.0995 1.9088 0.0300
v -0.2000 2.2025 0.0852
v -0.2103 2.1991 0.0891
v -0.2145 2.1962 0.0994
v -0.2103 2.1956 0.1100
v -0.2000 2.1975 0.1148
v -0.1897 2.2009 0.1109
v -0.1855 2.2038 0.1006
v -0.1897 2.2044 0.0900
v 0.0000 1.5056 -0.0447
v -0.0305 1.5130 -0.0304
v -0.0431 1.5127 0.0016
v -0.0305 1.5051 0.0327
v -0.0000 1.4944 0.0447
v 0.0305 1.4870 0.0304
v 0.0431 1.4873 -0.0016
v 0.0305 1.4949 -0.0327
v 0.1200 1.9049 0.0204
v 0.0995 1.9088 0.0300
v 0.0910 1.9075 0.0513
v 0.0995 1.9018 0.0718
v 0.1200 1.8951 0.0796
v 0.1405 1.8912 0.0700
v 0.1490 1.8925 0.0487
v 0.1405 1.8982 0.0282
v 0.2000 2.2025 0.0852
v 0.1897 2.2044 0.0900
v 0.1855 2.2038 0.1006
v 0.1897 2.2009 0.1109
v 0.2000 2.1975 0.1148
v 0.2103 2.1956 0.1100
v 0.2145 2.1962 0.0994
v 0.2103 2.1991 0.0891
usemtl onion_white
f 1 11 12
f 12 11 1
f 1 12 2
f 2 12 1
f 2 12 13
f 13 12 2
f 2 13 3
f 3 13 2
f 3 13 14
f 14 13 3
f 3 14 4
f 4 14 3
f 4 14 15
f 15 14 4
f 4 15 5
f 5 15 4
f 5 15 16
f 16 15 5
f 5 16 6
f 6 16 5
f 6 16 17
f 17 16 6
f 6 17 7
f 7 17 6
f 7 17 18
f 18 17 7
f 7 18 8
f 8 18 7
f 8 18 19
f 19 18 8
f 8 19 9
f 9 19 8
f 9 19 20
f 20 19 9
f 9 20 10
f 10 20 9
f 10 20 11
f 11 20 10
f 10 11 1
f 1 11 10
f 11 21 22
f 22 21 11
f 11 22 12
f 12 22 11
f 12 22 23
f 23 22 12
f 12 23 13
f 13 23 12
f 13 23 24
f 24 23 13
f 13 24 14
f 14 24 13
f 14 24 25
f 25 24 14
f 14 25 15
f 15 25 14
f 15 25 26
f 26 25 15
f 15 26 16
f 16 26 15
f 16 26 27
f 27 26 16
f 16 27 17
f 17 27 16
f 17 27 28
f 28 27 17
f 17 28 18
f 18 28 17
f 18 28 29
f 29 28 18
f 18 29 19
f 19 29 18
f 19 29 30
f 30 29 19
f 19 30 20
f 20 30 19
f 20 30 21
f 21 30 20
f 20 21 11
f 11 21 20
usemtl onion_green
f 31 41 42
f 42 41 31
f 31 42 32
f 32 42 31
f 32 42 43
f 43 42 32
f 32 43 33
f 33 43 32
f 33 43 44
f 44 43 33
f 33 44 34
f 34 44 33
f 34 44 45
f 45 44 34
f 34 45 35
f 35 45 34
f 35 45 46
f 46 45 35
f 35 46 36
f 36 46 35
f 36 46 47
f 47 46 36
f 36 47 37
f 37 47 36
f 37 47 48
f 48 47 37
f 37 48 38
f 38 48 37
f 38 48 49
f 49 48 38
f 38 49 39
f 39 49 38
f 39 49 50
f 50 49 39
f 39 50 40
f 40 50 39
f 40 50 41
f 41 50 40
f 40 41 31
f 31 41 40
f 41 51 52
f 52 51 41
f 41 52 42
f 42 52 41
f 42 52 53
f 53 52 42
f 42 53 43
f 43 53 42
f 43 53 54
f 54 53 43
f 43 54 44
f 44 54 43
f 44 54 55
f 55 54 44
f 44 55 45
f 45 55 44
f 45 55 56
f 56 55 45
f 45 56 46
f 46 56 45
f 46 56 57
f 57 56 46
f 46 57 47
f 47 57 46
f 47 57 58
f 58 57 47
f 47 58 48
f 48 58 47
f 48 58 59
f 59 58 48
f 48 59 49
f 49 59 48
f 49 59 60
f 60 59 49
f 49 60 50
f 50 60 49
f 50 60 51
f 51 60 50
f 50 51 41
f 41 51 50
f 61 69 70
f 70 69 61
f 61 70 62
f 62 70 61
f 62 70 71
f 71 70 62
f 62 71 63
f 63 71 62
f 63 71 72
f 72 71 63
f 63 72 64
f 64 72 63
f 64 72 73
f 73 72 64
f 64 73 65
f 65 73 64
f 65 73 74
f 74 73 65
f 65 74 66
f 66 74 65
f 66 74 75
f 75 74 66
f 66 75 67
f 67 75 66
f 67 75 76
f 76 75 67
f 67 76 68
f 68 76 67
f 68 76 69
f 69 76 68
f 68 69 61
f 61 69 68
f 69 77 78
f 78 77 69
f 69 78 70
f 70 78 69
f 70 78 79
f 79 78 70
f 70 79 71
f 71 79 70
f 71 79 80
f 80 79 71
f 71 80 72
f 72 80 71
f 72 80 81
f 81 80 72
f 72 81 73
f 73 81 72
f 73 81 82
f 82 81 73
f 73 82 74
f 74 82 73
f 74 82 83
f 83 82 74
f 74 83 75
f 75 83 74
f 75 83 84
f 84 83 75
f 75 84 76
f 76 84 75
f 76 84 77
f 77 84 76
f 76 77 69
f 69 77 76
f 85 93 94
f 94 93 85
f 85 94 86
f 86 94 85
f 86 94 95
f 95 94 86
f 86 95 87
f 87 95 86
f 87 95 96
f 96 95 87
f 87 96 88
f 88 96 87
f 88 96 97
f 97 96 88
f 88 97 89
f 89 97 88
f 89 97 98
f 98 97 89
f 89 98 90
f 90 98 89
f 90 98 99
f 99 98 90
f 90 99 91
f 91 99 90
f 91 99 100
f 100 99 91
f 91 100 92
f 92 100 91
f 92 100 93
f 93 100 92
f 92 93 85
f 85 93 92
f 93 101 102
f 102 101 93
f 93 102 94
f 94 102 93
f 94 102 103
f 103 102 94
f 94 103 95
f 95 103 94
f 95 103 104
f 104 103 95
f 95 104 96
f 96 104 95
f 96 104 105
f 105 104 96
f 96 105 97
f 97 105 96
f 97 105 106
f 106 105 97
f 97 106 98
f 98 106 97
f 98 106 107
f 107 106 98
f 98 107 99
f 99 107 98
f 99 107 108
f 108 107 99
f 99 108 100
f 100 108 99
f 100 108 101
f 101 108 100
f 100 101 93
f 93 101 100
