mtllib peach.mtl
v 0.0000 0.4900 0.0000
v 0.0000 0.4900 0.0000
v 0.0000 0.4900 0.0000
v 0.0000 0.4900 0.0000
v 0.0000 0.4900 0.0000
v 0.0000 0.4900 0.0000
v 0.0000 0.4900 0.0000
v 0.0000 0.4900 0.0000
v 0.0000 0.4900 0.0000
v 0.0000 0.4900 0.0000
v 0.0000 0.4900 0.0000
v 0.0000 0.4900 0.0000
v 0.0000 0.4900 0.0000
v 0.0000 0.4900 0.0000
v 0.0000 0.4900 0.0000
v 0.0000 0.4900 0.0000
v 0.0000 0.4900 0.0000
v 0.0000 0.4900 0.0000
v 0.0000 0.4900 0.0000
v 0.0000 0.4900 0.0000
v 0.0000 0.4900 0.0000
v 0.0000 0.4900 0.0000
v 0.0868 0.4826 0.0000
v 0.0833 0.4826 0.0245
v 0.0730 0.4826 0.0469
v 0.0569 0.4826 0.0656
v 0.0361 0.4826 0.0790
v 0.0124 0.4826 0.0859
v -0.0124 0.4826 0.0859
v -0.0361 0.4826 0.0790
v -0.0569 0.4826 0.0656
v -0.0730 0.4826 0.0469
v -0.0833 0.4826 0.0245
v -0.0868 0.4826 0.0000
v -0.0833 0.4826 -0.0245
v -0.0730 0.4826 -0.0469
v -0.0569 0.4826 -0.0656
v -0.0361 0.4826 -0.0790
v -0.0124 0.4826 -0.0859
v 0.0124 0.4826 -0.0859
v 0.0361 0.4826 -0.0790
v 0.0569 0.4826 -0.0656
v 0.0730 0.4826 -0.0469
v 0.0833 0.4826 -0.0245
v 0.1710 0.4604 0.0000
v 0.1641 0.4604 0.0482
v 0.1439 0.4604 0.0925
v 0.1120 0.4604 0.1292
v 0.0710 0.4604 0.1556
v 0.0243 0.4604 0.1693
v -0.0243 0.4604 0.1693
v -0.0710 0.4604 0.1556
v -0.1120 0.4604 0.1292
v -0.1439 0.4604 0.0925
v -0.1641 0.4604 0.0482
v -0.1710 0.4604 0.0000
v -0.1641 0.4604 -0.0482
v -0.1439 0.4604 -0.0925
v -0.1120 0.4604 -0.1292
v -0.0710 0.4604 -0.1556
v -0.0243 0.4604 -0.1693
v 0.0243 0.4604 -0.1693
v 0.0710 0.4604 -0.1556
v 0.1120 0.4604 -0.1292
v 0.1439 0.4604 -0.0925
v 0.1641 0.4604 -0.0482
v 0.2500 0.4244 0.0000
v 0.2399 0.4244 0.0704
v 0.2103 0.4244 0.1352
v 0.1637 0.4244 0.1889
v 0.1039 0.4244 0.2274
v 0.0356 0.4244 0.2475
v -0.0356 0.4244 0.2475
v -0.1039 0.4244 0.2274
v -0.1637 0.4244 0.1889
v -0.2103 0.4244 0.1352
v -0.2399 0.4244 0.0704
v -0.2500 0.4244 0.0000
v -0.2399 0.4244 -0.0704
v -0.2103 0.4244 -0.1352
v -0.1637 0.4244 -0.1889
v -0.1039 0.4244 -0.2274
v -0.0356 0.4244 -0.2475
v 0.0356 0.4244 -0.2475
v 0.1039 0.4244 -0.2274
v 0.1637 0.4244 -0.1889
v 0.2103 0.4244 -0.1352
v 0.2399 0.4244 -0.0704
v 0.3214 0.3754 0.0000
v 0.3084 0.3754 0.0905
v 0.2704 0.3754 0.1738
v 0.2105 0.3754 0.2429
v 0.1335 0.3754 0.2924
v 0.0457 0.3754 0.3181
v -0.0457 0.3754 0.3181
v -0.1335 0.3754 0.2924
v -0.2105 0.3754 0.2429
v -0.2704 0.3754 0.1738
v -0.3084 0.3754 0.0905
v -0.3214 0.3754 0.0000
v -0.3084 0.3754 -0.0905
v -0.2704 0.3754 -0.1738
v -0.2105 0.3754 -0.2429
v -0.1335 0.3754 -0.2924
v -0.0457 0.3754 -0.3181
v 0.0457 0.3754 -0.3181
v 0.1335 0.3754 -0.2924
v 0.2105 0.3754 -0.2429
v 0.2704 0.3754 -0.1738
v 0.3084 0.3754 -0.0905
v 0.3830 0.3150 0.0000
v 0.3675 0.3150 0.1079
v 0.3222 0.3150 0.2071
v 0.2508 0.3150 0.2895
v 0.1591 0.3150 0.3484
v 0.0545 0.3150 0.3791
v -0.0545 0.3150 0.3791
v -0.1591 0.3150 0.3484
v -0.2508 0.3150 0.2895
v -0.3222 0.3150 0.2071
v -0.3675 0.3150 0.1079
v -0.3830 0.3150 0.0000
v -0.3675 0.3150 -0.1079
v -0.3222 0.3150 -0.2071
v -0.2508 0.3150 -0.2895
v -0.1591 0.3150 -0.3484
v -0.0545 0.3150 -0.3791
v 0.0545 0.3150 -0.3791
v 0.1591 0.3150 -0.3484
v 0.2508 0.3150 -0.2895
v 0.3222 0.3150 -0.2071
v 0.3675 0.3150 -0.1079
v 0.4330 0.2450 0.0000
v 0.4155 0.2450 0.1220
v 0.3643 0.2450 0.2341
v 0.2836 0.2450 0.3272
v 0.1799 0.2450 0.3939
v 0.0616 0.2450 0.4286
v -0.0616 0.2450 0.4286
v -0.1799 0.2450 0.3939
v -0.2836 0.2450 0.3272
v -0.3643 0.2450 0.2341
v -0.4155 0.2450 0.1220
v -0.4330 0.2450 0.0000
v -0.4155 0.2450 -0.1220
v -0.3643 0.2450 -0.2341
v -0.2836 0.2450 -0.3272
v -0.1799 0.2450 -0.3939
v -0.0616 0.2450 -0.4286
v 0.0616 0.2450 -0.4286
v 0.1799 0.2450 -0.3939
v 0.2836 0.2450 -0.3272
v 0.3643 0.2450 -0.2341
v 0.4155 0.2450 -0.1220
v 0.4698 0.1676 0.0000
v 0.4508 0.1676 0.1324
v 0.3953 0.1676 0.2540
v 0.3077 0.1676 0.3551
v 0.1952 0.1676 0.4274
v 0.0669 0.1676 0.4651
v -0.0669 0.1676 0.4651
v -0.1952 0.1676 0.4274
v -0.3077 0.1676 0.3551
v -0.3953 0.1676 0.2540
v -0.4508 0.1676 0.1324
v -0.4698 0.1676 0.0000
v -0.4508 0.1676 -0.1324
v -0.3953 0.1676 -0.2540
v -0.3077 0.1676 -0.3551
v -0.1952 0.1676 -0.4274
v -0.0669 0.1676 -0.4651
v 0.0669 0.1676 -0.4651
v 0.1952 0.1676 -0.4274
v 0.3077 0.1676 -0.3551
v 0.3953 0.1676 -0.2540
v 0.4508 0.1676 -0.1324
v 0.4924 0.0851 0.0000
v 0.4725 0.0851 0.1387
v 0.4142 0.0851 0.2662
v 0.3225 0.0851 0.3721
v 0.2046 0.0851 0.4479
v 0.0701 0.0851 0.4874
v -0.0701 0.0851 0.4874
v -0.2046 0.0851 0.4479
v -0.3225 0.0851 0.3721
v -0.4142 0.0851 0.2662
v -0.4725 0.0851 0.1387
v -0.4924 0.0851 0.0000
v -0.4725 0.0851 -0.1387
v -0.4142 0.0851 -0.2662
v -0.3225 0.0851 -0.3721
v -0.2046 0.0851 -0.4479
v -0.0701 0.0851 -0.4874
v 0.0701 0.0851 -0.4874
v 0.2046 0.0851 -0.4479
v 0.3225 0.0851 -0.3721
v 0.4142 0.0851 -0.2662
v 0.4725 0.0851 -0.1387
v 0.5000 0.0000 0.0000
v 0.4797 0.0000 0.1409
v 0.4206 0.0000 0.2703
v 0.3274 0.0000 0.3779
v 0.2077 0.0000 0.4548
v 0.0712 0.0000 0.4949
v -0.0712 0.0000 0.4949
v -0.2077 0.0000 0.4548
v -0.3274 0.0000 0.3779
v -0.4206 0.0000 0.2703
v -0.4797 0.0000 0.1409
v -0.5000 0.0000 0.0000
v -0.4797 0.0000 -0.1409
v -0.4206 0.0000 -0.2703
v -0.3274 0.0000 -0.3779
v -0.2077 0.0000 -0.4548
v -0.0712 0.0000 -0.4949
v 0.0712 0.0000 -0.4949
v 0.2077 0.0000 -0.4548
v 0.3274 0.0000 -0.3779
v 0.4206 0.0000 -0.2703
v 0.4797 0.0000 -0.1409
v 0.4924 -0.0851 0.0000
v 0.4725 -0.0851 0.1387
v 0.4142 -0.0851 0.2662
v 0.3225 -0.0851 0.3721
v 0.2046 -0.0851 0.4479
v 0.0701 -0.0851 0.4874
v -0.0701 -0.0851 0.4874
v -0.2046 -0.0851 0.4479
v -0.3225 -0.0851 0.3721
v -0.4142 -0.0851 0.2662
v -0.4725 -0.0851 0.1387
v -0.4924 -0.0851 0.0000
v -0.4725 -0.0851 -0.1387
v -0.4142 -0.0851 -0.2662
v -0.3225 -0.0851 -0.3721
v -0.2046 -0.0851 -0.4479
v -0.0701 -0.0851 -0.4874
v 0.0701 -0.0851 -0.4874
v 0.2046 -0.0851 -0.4479
v 0.3225 -0.0851 -0.3721
v 0.4142 -0.0851 -0.2662
v 0.4725 -0.0851 -0.1387
v 0.4698 -0.1676 0.0000
v 0.4508 -0.1676 0.1324
v 0.3953 -0.1676 0.2540
v 0.3077 -0.1676 0.3551
v 0.1952 -0.1676 0.4274
v 0.0669 -0.1676 0.4651
v -0.0669 -0.1676 0.4651
v -0.1952 -0.1676 0.4274
v -0.3077 -0.1676 0.3551
v -0.3953 -0.1676 0.2540
v -0.4508 -0.1676 0.1324
v -0.4698 -0.1676 0.0000
v -0.4508 -0.1676 -0.1324
v -0.3953 -0.1676 -0.2540
v -0.3077 -0.1676 -0.3551
v -0.1952 -0.1676 -0.4274
v -0.0669 -0.1676 -0.4651
v 0.0669 -0.1676 -0.4651
v 0.1952 -0.1676 -0.4274
v 0.3077 -0.1676 -0.3551
v 0.3953 -0.1676 -0.2540
v 0.4508 -0.1676 -0.1324
v 0.4330 -0.2450 0.0000
v 0.4155 -0.2450 0.1220
v 0.3643 -0.2450 0.2341
v 0.2836 -0.2450 0.3272
v 0.1799 -0.2450 0.3939
v 0.0616 -0.2450 0.4286
v -0.0616 -0.2450 0.4286
v -0.1799 -0.2450 0.3939
v -0.2836 -0.2450 0.3272
v -0.3643 -0.2450 0.2341
v -0.4155 -0.2450 0.1220
v -0.4330 -0.2450 0.0000
v -0.4155 -0.2450 -0.1220
v -0.3643 -0.2450 -0.2341
v -0.2836 -0.2450 -0.3272
v -0.1799 -0.2450 -0.3939
v -0.0616 -0.2450 -0.4286
v 0.0616 -0.2450 -0.4286
v 0.1799 -0.2450 -0.3939
v 0.2836 -0.2450 -0.3272
v 0.3643 -0.2450 -0.2341
v 0.4155 -0.2450 -0.1220
v 0.3830 -0.3150 0.0000
v 0.3675 -0.3150 0.1079
v 0.3222 -0.3150 0.2071
v 0.2508 -0.3150 0.2895
v 0.1591 -0.3150 0.3484
v 0.0545 -0.3150 0.3791
v -0.0545 -0.3150 0.3791
v -0.1591 -0.3150 0.3484
v -0.2508 -0.3150 0.2895
v -0.3222 -0.3150 0.2071
v -0.3675 -0.3150 0.1079
v -0.3830 -0.3150 0.0000
v -0.3675 -0.3150 -0.1079
v -0.3222 -0.3150 -0.2071
v -0.2508 -0.3150 -0.2895
v -0.1591 -0.3150 -0.3484
v -0.0545 -0.3150 -0.3791
v 0.0545 -0.3150 -0.3791
v 0.1591 -0.3150 -0.3484
v 0.2508 -0.3150 -0.2895
v 0.3222 -0.3150 -0.2071
v 0.3675 -0.3150 -0.1079
v 0.3214 -0.3754 0.0000
v 0.3084 -0.3754 0.0905
v 0.2704 -0.3754 0.1738
v 0.2105 -0.3754 0.2429
v 0.1335 -0.3754 0.2924
v 0.0457 -0.3754 0.3181
v -0.0457 -0.3754 0.3181
v -0.1335 -0.3754 0.2924
v -0.2105 -0.3754 0.2429
v -0.2704 -0.3754 0.1738
v -0.3084 -0.3754 0.0905
v -0.3214 -0.3754 0.0000
v -0.3084 -0.3754 -0.0905
v -0.2704 -0.3754 -0.1738
v -0.2105 -0.3754 -0.2429
v -0.1335 -0.3754 -0.2924
v -0.0457 -0.3754 -0.3181
v 0.0457 -0.3754 -0.3181
v 0.1335 -0.3754 -0.2924
v 0.2105 -0.3754 -0.2429
v 0.2704 -0.3754 -0.1738
v 0.3084 -0.3754 -0.0905
v 0.2500 -0.4244 0.0000
v 0.2399 -0.4244 0.0704
v 0.2103 -0.4244 0.1352
v 0.1637 -0.4244 0.1889
v 0.1039 -0.4244 0.2274
v 0.0356 -0.4244 0.2475
v -0.0356 -0.4244 0.2475
v -0.1039 -0.4244 0.2274
v -0.1637 -0.4244 0.1889
v -0.2103 -0.4244 0.1352
v -0.2399 -0.4244 0.0704
v -0.2500 -0.4244 0.0000
v -0.2399 -0.4244 -0.0704
v -0.2103 -0.4244 -0.1352
v -0.1637 -0.4244 -0.1889
v -0.1039 -0.4244 -0.2274
v -0.0356 -0.4244 -0.2475
v 0.0356 -0.4244 -0.2475
v 0.1039 -0.4244 -0.2274
v 0.1637 -0.4244 -0.1889
v 0.2103 -0.4244 -0.1352
v 0.2399 -0.4244 -0.0704
v 0.1710 -0.4604 0.0000
v 0.1641 -0.4604 0.0482
v 0.1439 -0.4604 0.0925
v 0.1120 -0.4604 0.1292
v 0.0710 -0.4604 0.1556
v 0.0243 -0.4604 0.1693
v -0.0243 -0.4604 0.1693
v -0.0710 -0.4604 0.1556
v -0.1120 -0.4604 0.1292
v -0.1439 -0.4604 0.0925
v -0.1641 -0.4604 0.0482
v -0.1710 -0.4604 0.0000
v -0.1641 -0.4604 -0.0482
v -0.1439 -0.4604 -0.0925
v -0.1120 -0.4604 -0.1292
v -0.0710 -0.4604 -0.1556
v -0.0243 -0.4604 -0.1693
v 0.0243 -0.4604 -0.1693
v 0.0710 -0.4604 -0.1556
v 0.1120 -0.4604 -0.1292
v 0.1439 -0.4604 -0.0925
v 0.1641 -0.4604 -0.0482
v 0.0868 -0.4826 0.0000
v 0.0833 -0.4826 0.0245
v 0.0730 -0.4826 0.0469
v 0.0569 -0.4826 0.0656
v 0.0361 -0.4826 0.0790
v 0.0124 -0.4826 0.0859
v -0.0124 -0.4826 0.0859
v -0.0361 -0.4826 0.0790
v -0.0569 -0.4826 0.0656
v -0.0730 -0.4826 0.0469
v -0.0833 -0.4826 0.0245
v -0.0868 -0.4826 0.0000
v -0.0833 -0.4826 -0.0245
v -0.0730 -0.4826 -0.0469
v -0.0569 -0.4826 -0.0656
v -0.0361 -0.4826 -0.0790
v -0.0124 -0.4826 -0.0859
v 0.0124 -0.4826 -0.0859
v 0.0361 -0.4826 -0.0790
v 0.0569 -0.4826 -0.0656
v 0.0730 -0.4826 -0.0469
v 0.0833 -0.4826 -0.0245
v 0.0000 -0.4900 0.0000
v 0.0000 -0.4900 0.0000
v 0.0000 -0.4900 0.0000
v 0.0000 -0.4900 0.0000
v 0.0000 -0.4900 0.0000
v 0.0000 -0.4900 0.0000
v -0.0000 -0.4900 0.0000
v -0.0000 -0.4900 0.0000
v -0.0000 -0.4900 0.0000
v -0.0000 -0.4900 0.0000
v -0.0000 -0.4900 0.0000
v -0.0000 -0.4900 0.0000
v -0.0000 -0.4900 -0.0000
v -0.0000 -0.4900 -0.0000
v -0.0000 -0.4900 -0.0000
v -0.0000 -0.4900 -0.0000
v -0.0000 -0.4900 -0.0000
v 0.0000 -0.4900 -0.0000
v 0.0000 -0.4900 -0.0000
v 0.0000 -0.4900 -0.0000
v 0.0000 -0.4900 -0.0000
v 0.0000 -0.4900 -0.0000
v 0.1800 0.3900 0.2800
v 0.1800 0.3900 0.2800
v 0.1800 0.3900 0.2800
v 0.1800 0.3900 0.2800
v 0.1800 0.3900 0.2800
v 0.1800 0.3900 0.2800
v 0.1800 0.3900 0.2800
v 0.1800 0.3900 0.2800
v 0.1800 0.3900 0.2800
v 0.1800 0.3900 0.2800
v 0.1800 0.3900 0.2800
v 0.1800 0.3900 0.2800
v 0.2851 0.3734 0.2800
v 0.2710 0.3734 0.3325
v 0.2325 0.3734 0.3710
v 0.1800 0.3734 0.3851
v 0.1275 0.3734 0.3710
v 0.0890 0.3734 0.3325
v 0.0749 0.3734 0.2800
v 0.0890 0.3734 0.2275
v 0.1275 0.3734 0.1890
v 0.1800 0.3734 0.1749
v 0.2325 0.3734 0.1890
v 0.2710 0.3734 0.2275
v 0.3798 0.3251 0.2800
v 0.3531 0.3251 0.3799
v 0.2799 0.3251 0.4531
v 0.1800 0.3251 0.4798
v 0.0801 0.3251 0.4531
v 0.0069 0.3251 0.3799
v -0.0198 0.3251 0.2800
v 0.0069 0.3251 0.1801
v 0.0801 0.3251 0.1069
v 0.1800 0.3251 0.0802
v 0.2799 0.3251 0.1069
v 0.3531 0.3251 0.1801
v 0.4551 0.2498 0.2800
v 0.4182 0.2498 0.4175
v 0.3175 0.2498 0.5182
v 0.1800 0.2498 0.5551
v 0.0425 0.2498 0.5182
v -0.0582 0.2498 0.4175
v -0.0951 0.2498 0.2800
v -0.0582 0.2498 0.1425
v 0.0425 0.2498 0.0418
v 0.1800 0.2498 0.0049
v 0.3175 0.2498 0.0418
v 0.4182 0.2498 0.1425
v 0.5034 0.1551 0.2800
v 0.4600 0.1551 0.4417
v 0.3417 0.1551 0.5600
v 0.1800 0.1551 0.6034
v 0.0183 0.1551 0.5600
v -0.1000 0.1551 0.4417
v -0.1434 0.1551 0.2800
v -0.1000 0.1551 0.1183
v 0.0183 0.1551 -0.0000
v 0.1800 0.1551 -0.0434
v 0.3417 0.1551 -0.0000
v 0.4600 0.1551 0.1183
v 0.5200 0.0500 0.2800
v 0.4744 0.0500 0.4500
v 0.3500 0.0500 0.5744
v 0.1800 0.0500 0.6200
v 0.0100 0.0500 0.5744
v -0.1144 0.0500 0.4500
v -0.1600 0.0500 0.2800
v -0.1144 0.0500 0.1100
v 0.0100 0.0500 -0.0144
v 0.1800 0.0500 -0.0600
v 0.3500 0.0500 -0.0144
v 0.4744 0.0500 0.1100
v 0.5034 -0.0551 0.2800
v 0.4600 -0.0551 0.4417
v 0.3417 -0.0551 0.5600
v 0.1800 -0.0551 0.6034
v 0.0183 -0.0551 0.5600
v -0.1000 -0.0551 0.4417
v -0.1434 -0.0551 0.2800
v -0.1000 -0.0551 0.1183
v 0.0183 -0.0551 -0.0000
v 0.1800 -0.0551 -0.0434
v 0.3417 -0.0551 -0.0000
v 0.4600 -0.0551 0.1183
v 0.4551 -0.1498 0.2800
v 0.4182 -0.1498 0.4175
v 0.3175 -0.1498 0.5182
v 0.1800 -0.1498 0.5551
v 0.0425 -0.1498 0.5182
v -0.0582 -0.1498 0.4175
v -0.0951 -0.1498 0.2800
v -0.0582 -0.1498 0.1425
v 0.0425 -0.1498 0.0418
v 0.1800 -0.1498 0.0049
v 0.3175 -0.1498 0.0418
v 0.4182 -0.1498 0.1425
v 0.3798 -0.2251 0.2800
v 0.3531 -0.2251 0.3799
v 0.2799 -0.2251 0.4531
v 0.1800 -0.2251 0.4798
v 0.0801 -0.2251 0.4531
v 0.0069 -0.2251 0.3799
v -0.0198 -0.2251 0.2800
v 0.0069 -0.2251 0.1801
v 0.0801 -0.2251 0.1069
v 0.1800 -0.2251 0.0802
v 0.2799 -0.2251 0.1069
v 0.3531 -0.2251 0.1801
v 0.2851 -0.2734 0.2800
v 0.2710 -0.2734 0.3325
v 0.2325 -0.2734 0.3710
v 0.1800 -0.2734 0.3851
v 0.1275 -0.2734 0.3710
v 0.0890 -0.2734 0.3325
v 0.0749 -0.2734 0.2800
v 0.0890 -0.2734 0.2275
v 0.1275 -0.2734 0.1890
v 0.1800 -0.2734 0.1749
v 0.2325 -0.2734 0.1890
v 0.2710 -0.2734 0.2275
v 0.1800 -0.2900 0.2800
v 0.1800 -0.2900 0.2800
v 0.1800 -0.2900 0.2800
v 0.1800 -0.2900 0.2800
v 0.1800 -0.2900 0.2800
v 0.1800 -0.2900 0.2800
v 0.1800 -0.2900 0.2800
v 0.1800 -0.2900 0.2800
v 0.1800 -0.2900 0.2800
v 0.1800 -0.2900 0.2800
v 0.1800 -0.2900 0.2800
v 0.1800 -0.2900 0.2800
v 0.1386 0.4900 0.0800
v 0.1386 0.4900 0.0800
v 0.1386 0.4900 0.0800
v 0.1386 0.4900 0.0800
v 0.1386 0.4900 0.0800
v 0.1386 0.4900 0.0800
v 0.1386 0.4900 0.0800
v 0.1386 0.4900 0.0800
v 0.2186 0.4860 0.0800
v 0.1951 0.4860 0.1047
v 0.1386 0.4860 0.1150
v 0.0820 0.4860 0.1047
v 0.0586 0.4860 0.0800
v 0.0820 0.4860 0.0553
v 0.1386 0.4860 0.0450
v 0.1951 0.4860 0.0553
v 0.2771 0.4750 0.0800
v 0.2365 0.4750 0.1229
v 0.1386 0.4750 0.1406
v 0.0406 0.4750 0.1229
v 0.0000 0.4750 0.0800
v 0.0406 0.4750 0.0371
v 0.1386 0.4750 0.0194
v 0.2365 0.4750 0.0371
v 0.2986 0.4600 0.0800
v 0.2517 0.4600 0.1295
v 0.1386 0.4600 0.1500
v 0.0254 0.4600 0.1295
v -0.0214 0.4600 0.0800
v 0.0254 0.4600 0.0305
v 0.1386 0.4600 0.0100
v 0.2517 0.4600 0.0305
v 0.2771 0.4450 0.0800
v 0.2365 0.4450 0.1229
v 0.1386 0.4450 0.1406
v 0.0406 0.4450 0.1229
v -0.0000 0.4450 0.0800
v 0.0406 0.4450 0.0371
v 0.1386 0.4450 0.0194
v 0.2365 0.4450 0.0371
v 0.2186 0.4340 0.0800
v 0.1951 0.4340 0.1047
v 0.1386 0.4340 0.1150
v 0.0820 0.4340 0.1047
v 0.0586 0.4340 0.0800
v 0.0820 0.4340 0.0553
v 0.1386 0.4340 0.0450
v 0.1951 0.4340 0.0553
v 0.1386 0.4300 0.0800
v 0.1386 0.4300 0.0800
v 0.1386 0.4300 0.0800
v 0.1386 0.4300 0.0800
v 0.1386 0.4300 0.0800
v 0.1386 0.4300 0.0800
v 0.1386 0.4300 0.0800
v 0.1386 0.4300 0.0800
v 0.0547 0.4900 0.1504
v 0.0547 0.4900 0.1504
v 0.0547 0.4900 0.1504
v 0.0547 0.4900 0.1504
v 0.0547 0.4900 0.1504
v 0.0547 0.4900 0.1504
v 0.0547 0.4900 0.1504
v 0.0547 0.4900 0.1504
v 0.1347 0.4860 0.1504
v 0.1113 0.4860 0.1751
v 0.0547 0.4860 0.1854
v -0.0018 0.4860 0.1751
v -0.0253 0.4860 0.1504
v -0.0018 0.4860 0.1256
v 0.0547 0.4860 0.1154
v 0.1113 0.4860 0.1256
v 0.1933 0.4750 0.1504
v 0.1527 0.4750 0.1932
v 0.0547 0.4750 0.2110
v -0.0433 0.4750 0.1932
v -0.0838 0.4750 0.1504
v -0.0433 0.4750 0.1075
v 0.0547 0.4750 0.0897
v 0.1527 0.4750 0.1075
v 0.2147 0.4600 0.1504
v 0.1679 0.4600 0.1998
v 0.0547 0.4600 0.2204
v -0.0584 0.4600 0.1998
v -0.1053 0.4600 0.1504
v -0.0584 0.4600 0.1009
v 0.0547 0.4600 0.0804
v 0.1679 0.4600 0.1009
v 0.1933 0.4450 0.1504
v 0.1527 0.4450 0.1932
v 0.0547 0.4450 0.2110
v -0.0433 0.4450 0.1932
v -0.0838 0.4450 0.1504
v -0.0433 0.4450 0.1075
v 0.0547 0.4450 0.0897
v 0.1527 0.4450 0.1075
v 0.1347 0.4340 0.1504
v 0.1113 0.4340 0.1751
v 0.0547 0.4340 0.1854
v -0.0018 0.4340 0.1751
v -0.0253 0.4340 0.1504
v -0.0018 0.4340 0.1256
v 0.0547 0.4340 0.1154
v 0.1113 0.4340 0.1256
v 0.0547 0.4300 0.1504
v 0.0547 0.4300 0.1504
v 0.0547 0.4300 0.1504
v 0.0547 0.4300 0.1504
v 0.0547 0.4300 0.1504
v 0.0547 0.4300 0.1504
v 0.0547 0.4300 0.1504
v 0.0547 0.4300 0.1504
v -0.0547 0.4900 0.1504
v -0.0547 0.4900 0.1504
v -0.0547 0.4900 0.1504
v -0.0547 0.4900 0.1504
v -0.0547 0.4900 0.1504
v -0.0547 0.4900 0.1504
v -0.0547 0.4900 0.1504
v -0.0547 0.4900 0.1504
v 0.0253 0.4860 0.1504
v 0.0018 0.4860 0.1751
v -0.0547 0.4860 0.1854
v -0.1113 0.4860 0.1751
v -0.1347 0.4860 0.1504
v -0.1113 0.4860 0.1256
v -0.0547 0.4860 0.1154
v 0.0018 0.4860 0.1256
v 0.0838 0.4750 0.1504
v 0.0433 0.4750 0.1932
v -0.0547 0.4750 0.2110
v -0.1527 0.4750 0.1932
v -0.1933 0.4750 0.1504
v -0.1527 0.4750 0.1075
v -0.0547 0.4750 0.0897
v 0.0433 0.4750 0.1075
v 0.1053 0.4600 0.1504
v 0.0584 0.4600 0.1998
v -0.0547 0.4600 0.2204
v -0.1679 0.4600 0.1998
v -0.2147 0.4600 0.1504
v -0.1679 0.4600 0.1009
v -0.0547 0.4600 0.0804
v 0.0584 0.4600 0.1009
v 0.0838 0.4450 0.1504
v 0.0433 0.4450 0.1932
v -0.0547 0.4450 0.2110
v -0.1527 0.4450 0.1932
v -0.1933 0.4450 0.1504
v -0.1527 0.4450 0.1075
v -0.0547 0.4450 0.0897
v 0.0433 0.4450 0.1075
v 0.0253 0.4340 0.1504
v 0.0018 0.4340 0.1751
v -0.0547 0.4340 0.1854
v -0.1113 0.4340 0.1751
v -0.1347 0.4340 0.1504
v -0.1113 0.4340 0.1256
v -0.0547 0.4340 0.1154
v 0.0018 0.4340 0.1256
v -0.0547 0.4300 0.1504
v -0.0547 0.4300 0.1504
v -0.0547 0.4300 0.1504
v -0.0547 0.4300 0.1504
v -0.0547 0.4300 0.1504
v -0.0547 0.4300 0.1504
v -0.0547 0.4300 0.1504
v -0.0547 0.4300 0.1504
v 0.0000 0.4400 -0.0300
v -0.0260 0.4400 -0.0150
v -0.0260 0.4400 0.0150
v -0.0000 0.4400 0.0300
v 0.0260 0.4400 0.0150
v 0.0260 0.4400 -0.0150
v 0.0000 0.6000 -0.0250
v -0.0217 0.6000 -0.0125
v -0.0217 0.6000 0.0125
v -0.0000 0.6000 0.0250
v 0.0217 0.6000 0.0125
v 0.0217 0.6000 -0.0125
usemtl peach
f 1 23 24
f 24 23 1
f 1 24 2
f 2 24 1
f 2 24 25
f 25 24 2
f 2 25 3
f 3 25 2
f 3 25 26
f 26 25 3
f 3 26 4
f 4 26 3
f 4 26 27
f 27 26 4
f 4 27 5
f 5 27 4
f 5 27 28
f 28 27 5
f 5 28 6
f 6 28 5
f 6 28 29
f 29 28 6
f 6 29 7
f 7 29 6
f 7 29 30
f 30 29 7
f 7 30 8
f 8 30 7
f 8 30 31
f 31 30 8
f 8 31 9
f 9 31 8
f 9 31 32
f 32 31 9
f 9 32 10
f 10 32 9
f 10 32 33
f 33 32 10
f 10 33 11
f 11 33 10
f 11 33 34
f 34 33 11
f 11 34 12
f 12 34 11
f 12 34 35
f 35 34 12
f 12 35 13
f 13 35 12
f 13 35 36
f 36 35 13
f 13 36 14
f 14 36 13
f 14 36 37
f 37 36 14
f 14 37 15
f 15 37 14
f 15 37 38
f 38 37 15
f 15 38 16
f 16 38 15
f 16 38 39
f 39 38 16
f 16 39 17
f 17 39 16
f 17 39 40
f 40 39 17
f 17 40 18
f 18 40 17
f 18 40 41
f 41 40 18
f 18 41 19
f 19 41 18
f 19 41 42
f 42 41 19
f 19 42 20
f 20 42 19
f 20 42 43
f 43 42 20
f 20 43 21
f 21 43 20
f 21 43 44
f 44 43 21
f 21 44 22
f 22 44 21
f 22 44 23
f 23 44 22
f 22 23 1
f 1 23 22
f 23 45 46
f 46 45 23
f 23 46 24
f 24 46 23
f 24 46 47
f 47 46 24
f 24 47 25
f 25 47 24
f 25 47 48
f 48 47 25
f 25 48 26
f 26 48 25
f 26 48 49
f 49 48 26
f 26 49 27
f 27 49 26
f 27 49 50
f 50 49 27
f 27 50 28
f 28 50 27
f 28 50 51
f 51 50 28
f 28 51 29
f 29 51 28
f 29 51 52
f 52 51 29
f 29 52 30
f 30 52 29
f 30 52 53
f 53 52 30
f 30 53 31
f 31 53 30
f 31 53 54
f 54 53 31
f 31 54 32
f 32 54 31
f 32 54 55
f 55 54 32
f 32 55 33
f 33 55 32
f 33 55 56
f 56 55 33
f 33 56 34
f 34 56 33
f 34 56 57
f 57 56 34
f 34 57 35
f 35 57 34
f 35 57 58
f 58 57 35
f 35 58 36
f 36 58 35
f 36 58 59
f 59 58 36
f 36 59 37
f 37 59 36
f 37 59 60
f 60 59 37
f 37 60 38
f 38 60 37
f 38 60 61
f 61 60 38
f 38 61 39
f 39 61 38
f 39 61 62
f 62 61 39
f 39 62 40
f 40 62 39
f 40 62 63
f 63 62 40
f 40 63 41
f 41 63 40
f 41 63 64
f 64 63 41
f 41 64 42
f 42 64 41
f 42 64 65
f 65 64 42
f 42 65 43
f 43 65 42
f 43 65 66
f 66 65 43
f 43 66 44
f 44 66 43
f 44 66 45
f 45 66 44
f 44 45 23
f 23 45 44
f 45 67 68
f 68 67 45
f 45 68 46
f 46 68 45
f 46 68 69
f 69 68 46
f 46 69 47
f 47 69 46
f 47 69 70
f 70 69 47
f 47 70 48
f 48 70 47
f 48 70 71
f 71 70 48
f 48 71 49
f 49 71 48
f 49 71 72
f 72 71 49
f 49 72 50
f 50 72 49
f 50 72 73
f 73 72 50
f 50 73 51
f 51 73 50
f 51 73 74
f 74 73 51
f 51 74 52
f 52 74 51
f 52 74 75
f 75 74 52
f 52 75 53
f 53 75 52
f 53 75 76
f 76 75 53
f 53 76 54
f 54 76 53
f 54 76 77
f 77 76 54
f 54 77 55
f 55 77 54
f 55 77 78
f 78 77 55
f 55 78 56
f 56 78 55
f 56 78 79
f 79 78 56
f 56 79 57
f 57 79 56
f 57 79 80
f 80 79 57
f 57 80 58
f 58 80 57
f 58 80 81
f 81 80 58
f 58 81 59
f 59 81 58
f 59 81 82
f 82 81 59
f 59 82 60
f 60 82 59
f 60 82 83
f 83 82 60
f 60 83 61
f 61 83 60
f 61 83 84
f 84 83 61
f 61 84 62
f 62 84 61
f 62 84 85
f 85 84 62
f 62 85 63
f 63 85 62
f 63 85 86
f 86 85 63
f 63 86 64
f 64 86 63
f 64 86 87
f 87 86 64
f 64 87 65
f 65 87 64
f 65 87 88
f 88 87 65
f 65 88 66
f 66 88 65
f 66 88 67
f 67 88 66
f 66 67 45
f 45 67 66
f 67 89 90
f 90 89 67
f 67 90 68
f 68 90 67
f 68 90 91
f 91 90 68
f 68 91 69
f 69 91 68
f 69 91 92
f 92 91 69
f 69 92 70
f 70 92 69
f 70 92 93
f 93 92 70
f 70 93 71
f 71 93 70
f 71 93 94
f 94 93 71
f 71 94 72
f 72 94 71
f 72 94 95
f 95 94 72
f 72 95 73
f 73 95 72
f 73 95 96
f 96 95 73
f 73 96 74
f 74 96 73
f 74 96 97
f 97 96 74
f 74 97 75
f 75 97 74
f 75 97 98
f 98 97 75
f 75 98 76
f 76 98 75
f 76 98 99
f 99 98 76
f 76 99 77
f 77 99 76
f 77 99 100
f 100 99 77
f 77 100 78
f 78 100 77
f 78 100 101
f 101 100 78
f 78 101 79
f 79 101 78
f 79 101 102
f 102 101 79
f 79 102 80
f 80 102 79
f 80 102 103
f 103 102 80
f 80 103 81
f 81 103 80
f 81 103 104
f 104 103 81
f 81 104 82
f 82 104 81
f 82 104 105
f 105 104 82
f 82 105 83
f 83 105 82
f 83 105 106
f 106 105 83
f 83 106 84
f 84 106 83
f 84 106 107
f 107 106 84
f 84 107 85
f 85 107 84
f 85 107 108
f 108 107 85
f 85 108 86
f 86 108 85
f 86 108 109
f 109 108 86
f 86 109 87
f 87 109 86
f 87 109 110
f 110 109 87
f 87 110 88
f 88 110 87
f 88 110 89
f 89 110 88
f 88 89 67
f 67 89 88
f 89 111 112
f 112 111 89
f 89 112 90
f 90 112 89
f 90 112 113
f 113 112 90
f 90 113 91
f 91 113 90
f 91 113 114
f 114 113 91
f 91 114 92
f 92 114 91
f 92 114 115
f 115 114 92
f 92 115 93
f 93 115 92
f 93 115 116
f 116 115 93
f 93 116 94
f 94 116 93
f 94 116 117
f 117 116 94
f 94 117 95
f 95 117 94
f 95 117 118
f 118 117 95
f 95 118 96
f 96 118 95
f 96 118 119
f 119 118 96
f 96 119 97
f 97 119 96
f 97 119 120
f 120 119 97
f 97 120 98
f 98 120 97
f 98 120 121
f 121 120 98
f 98 121 99
f 99 121 98
f 99 121 122
f 122 121 99
f 99 122 100
f 100 122 99
f 100 122 123
f 123 122 100
f 100 123 101
f 101 123 100
f 101 123 124
f 124 123 101
f 101 124 102
f 102 124 101
f 102 124 125
f 125 124 102
f 102 125 103
f 103 125 102
f 103 125 126
f 126 125 103
f 103 126 104
f 104 126 103
f 104 126 127
f 127 126 104
f 104 127 105
f 105 127 104
f 105 127 128
f 128 127 105
f 105 128 106
f 106 128 105
f 106 128 129
f 129 128 106
f 106 129 107
f 107 129 106
f 107 129 130
f 130 129 107
f 107 130 108
f 108 130 107
f 108 130 131
f 131 130 108
f 108 131 109
f 109 131 108
f 109 131 132
f 132 131 109
f 109 132 110
f 110 132 109
f 110 132 111
f 111 132 110
f 110 111 89
f 89 111 110
f 111 133 134
f 134 133 111
f 111 134 112
f 112 134 111
f 112 134 135
f 135 134 112
f 112 135 113
f 113 135 112
f 113 135 136
f 136 135 113
f 113 136 114
f 114 136 113
f 114 136 137
f 137 136 114
f 114 137 115
f 115 137 114
f 115 137 138
f 138 137 115
f 115 138 116
f 116 138 115
f 116 138 139
f 139 138 116
f 116 139 117
f 117 139 116
f 117 139 140
f 140 139 117
f 117 140 118
f 118 140 117
f 118 140 141
f 141 140 118
f 118 141 119
f 119 141 118
f 119 141 142
f 142 141 119
f 119 142 120
f 120 142 119
f 120 142 143
f 143 142 120
f 120 143 121
f 121 143 120
f 121 143 144
f 144 143 121
f 121 144 122
f 122 144 121
f 122 144 145
f 145 144 122
f 122 145 123
f 123 145 122
f 123 145 146
f 146 145 123
f 123 146 124
f 124 146 123
f 124 146 147
f 147 146 124
f 124 147 125
f 125 147 124
f 125 147 148
f 148 147 125
f 125 148 126
f 126 148 125
f 126 148 149
f 149 148 126
f 126 149 127
f 127 149 126
f 127 149 150
f 150 149 127
f 127 150 128
f 128 150 127
f 128 150 151
f 151 150 128
f 128 151 129
f 129 151 128
f 129 151 152
f 152 151 129
f 129 152 130
f 130 152 129
f 130 152 153
f 153 152 130
f 130 153 131
f 131 153 130
f 131 153 154
f 154 153 131
f 131 154 132
f 132 154 131
f 132 154 133
f 133 154 132
f 132 133 111
f 111 133 132
f 133 155 156
f 156 155 133
f 133 156 134
f 134 156 133
f 134 156 157
f 157 156 134
f 134 157 135
f 135 157 134
f 135 157 158
f 158 157 135
f 135 158 136
f 136 158 135
f 136 158 159
f 159 158 136
f 136 159 137
f 137 159 136
f 137 159 160
f 160 159 137
f 137 160 138
f 138 160 137
f 138 160 161
f 161 160 138
f 138 161 139
f 139 161 138
f 139 161 162
f 162 161 139
f 139 162 140
f 140 162 139
f 140 162 163
f 163 162 140
f 140 163 141
f 141 163 140
f 141 163 164
f 164 163 141
f 141 164 142
f 142 164 141
f 142 164 165
f 165 164 142
f 142 165 143
f 143 165 142
f 143 165 166
f 166 165 143
f 143 166 144
f 144 166 143
f 144 166 167
f 167 166 144
f 144 167 145
f 145 167 144
f 145 167 168
f 168 167 145
f 145 168 146
f 146 168 145
f 146 168 169
f 169 168 146
f 146 169 147
f 147 169 146
f 147 169 170
f 170 169 147
f 147 170 148
f 148 170 147
f 148 170 171
f 171 170 148
f 148 171 149
f 149 171 148
f 149 171 172
f 172 171 149
f 149 172 150
f 150 172 149
f 150 172 173
f 173 172 150
f 150 173 151
f 151 173 150
f 151 173 174
f 174 173 151
f 151 174 152
f 152 174 151
f 152 174 175
f 175 174 152
f 152 175 153
f 153 175 152
f 153 175 176
f 176 175 153
f 153 176 154
f 154 176 153
f 154 176 155
f 155 176 154
f 154 155 133
f 133 155 154
f 155 177 178
f 178 177 155
f 155 178 156
f 156 178 155
f 156 178 179
f 179 178 156
f 156 179 157
f 157 179 156
f 157 179 180
f 180 179 157
f 157 180 158
f 158 180 157
f 158 180 181
f 181 180 158
f 158 181 159
f 159 181 158
f 159 181 182
f 182 181 159
f 159 182 160
f 160 182 159
f 160 182 183
f 183 182 160
f 160 183 161
f 161 183 160
f 161 183 184
f 184 183 161
f 161 184 162
f 162 184 161
f 162 184 185
f 185 184 162
f 162 185 163
f 163 185 162
f 163 185 186
f 186 185 163
f 163 186 164
f 164 186 163
f 164 186 187
f 187 186 164
f 164 187 165
f 165 187 164
f 165 187 188
f 188 187 165
f 165 188 166
f 166 188 165
f 166 188 189
f 189 188 166
f 166 189 167
f 167 189 166
f 167 189 190
f 190 189 167
f 167 190 168
f 168 190 167
f 168 190 191
f 191 190 168
f 168 191 169
f 169 191 168
f 169 191 192
f 192 191 169
f 169 192 170
f 170 192 169
f 170 192 193
f 193 192 170
f 170 193 171
f 171 193 170
f 171 193 194
f 194 193 171
f 171 194 172
f 172 194 171
f 172 194 195
f 195 194 172
f 172 195 173
f 173 195 172
f 173 195 196
f 196 195 173
f 173 196 174
f 174 196 173
f 174 196 197
f 197 196 174
f 174 197 175
f 175 197 174
f 175 197 198
f 198 197 175
f 175 198 176
f 176 198 175
f 176 198 177
f 177 198 176
f 176 177 155
f 155 177 176
f 177 199 200
f 200 199 177
f 177 200 178
f 178 200 177
f 178 200 201
f 201 200 178
f 178 201 179
f 179 201 178
f 179 201 202
f 202 201 179
f 179 202 180
f 180 202 179
f 180 202 203
f 203 202 180
f 180 203 181
f 181 203 180
f 181 203 204
f 204 203 181
f 181 204 182
f 182 204 181
f 182 204 205
f 205 204 182
f 182 205 183
f 183 205 182
f 183 205 206
f 206 205 183
f 183 206 184
f 184 206 183
f 184 206 207
f 207 206 184
f 184 207 185
f 185 207 184
f 185 207 208
f 208 207 185
f 185 208 186
f 186 208 185
f 186 208 209
f 209 208 186
f 186 209 187
f 187 209 186
f 187 209 210
f 210 209 187
f 187 210 188
f 188 210 187
f 188 210 211
f 211 210 188
f 188 211 189
f 189 211 188
f 189 211 212
f 212 211 189
f 189 212 190
f 190 212 189
f 190 212 213
f 213 212 190
f 190 213 191
f 191 213 190
f 191 213 214
f 214 213 191
f 191 214 192
f 192 214 191
f 192 214 215
f 215 214 192
f 192 215 193
f 193 215 192
f 193 215 216
f 216 215 193
f 193 216 194
f 194 216 193
f 194 216 217
f 217 216 194
f 194 217 195
f 195 217 194
f 195 217 218
f 218 217 195
f 195 218 196
f 196 218 195
f 196 218 219
f 219 218 196
f 196 219 197
f 197 219 196
f 197 219 220
f 220 219 197
f 197 220 198
f 198 220 197
f 198 220 199
f 199 220 198
f 198 199 177
f 177 199 198
f 199 221 222
f 222 221 199
f 199 222 200
f 200 222 199
f 200 222 223
f 223 222 200
f 200 223 201
f 201 223 200
f 201 223 224
f 224 223 201
f 201 224 202
f 202 224 201
f 202 224 225
f 225 224 202
f 202 225 203
f 203 225 202
f 203 225 226
f 226 225 203
f 203 226 204
f 204 226 203
f 204 226 227
f 227 226 204
f 204 227 205
f 205 227 204
f 205 227 228
f 228 227 205
f 205 228 206
f 206 228 205
f 206 228 229
f 229 228 206
f 206 229 207
f 207 229 206
f 207 229 230
f 230 229 207
f 207 230 208
f 208 230 207
f 208 230 231
f 231 230 208
f 208 231 209
f 209 231 208
f 209 231 232
f 232 231 209
f 209 232 210
f 210 232 209
f 210 232 233
f 233 232 210
f 210 233 211
f 211 233 210
f 211 233 234
f 234 233 211
f 211 234 212
f 212 234 211
f 212 234 235
f 235 234 212
f 212 235 213
f 213 235 212
f 213 235 236
f 236 235 213
f 213 236 214
f 214 236 213
f 214 236 237
f 237 236 214
f 214 237 215
f 215 237 214
f 215 237 238
f 238 237 215
f 215 238 216
f 216 238 215
f 216 238 239
f 239 238 216
f 216 239 217
f 217 239 216
f 217 239 240
f 240 239 217
f 217 240 218
f 218 240 217
f 218 240 241
f 241 240 218
f 218 241 219
f 219 241 218
f 219 241 242
f 242 241 219
f 219 242 220
f 220 242 219
f 220 242 221
f 221 242 220
f 220 221 199
f 199 221 220
f 221 243 244
f 244 243 221
f 221 244 222
f 222 244 221
f 222 244 245
f 245 244 222
f 222 245 223
f 223 245 222
f 223 245 246
f 246 245 223
f 223 246 224
f 224 246 223
f 224 246 247
f 247 246 224
f 224 247 225
f 225 247 224
f 225 247 248
f 248 247 225
f 225 248 226
f 226 248 225
f 226 248 249
f 249 248 226
f 226 249 227
f 227 249 226
f 227 249 250
f 250 249 227
f 227 250 228
f 228 250 227
f 228 250 251
f 251 250 228
f 228 251 229
f 229 251 228
f 229 251 252
f 252 251 229
f 229 252 230
f 230 252 229
f 230 252 253
f 253 252 230
f 230 253 231
f 231 253 230
f 231 253 254
f 254 253 231
f 231 254 232
f 232 254 231
f 232 254 255
f 255 254 232
f 232 255 233
f 233 255 232
f 233 255 256
f 256 255 233
f 233 256 234
f 234 256 233
f 234 256 257
f 257 256 234
f 234 257 235
f 235 257 234
f 235 257 258
f 258 257 235
f 235 258 236
f 236 258 235
f 236 258 259
f 259 258 236
f 236 259 237
f 237 259 236
f 237 259 260
f 260 259 237
f 237 260 238
f 238 260 237
f 238 260 261
f 261 260 238
f 238 261 239
f 239 261 238
f 239 261 262
f 262 261 239
f 239 262 240
f 240 262 239
f 240 262 263
f 263 262 240
f 240 263 241
f 241 263 240
f 241 263 264
f 264 263 241
f 241 264 242
f 242 264 241
f 242 264 243
f 243 264 242
f 242 243 221
f 221 243 242
f 243 265 266
f 266 265 243
f 243 266 244
f 244 266 243
f 244 266 267
f 267 266 244
f 244 267 245
f 245 267 244
f 245 267 268
f 268 267 245
f 245 268 246
f 246 268 245
f 246 268 269
f 269 268 246
f 246 269 247
f 247 269 246
f 247 269 270
f 270 269 247
f 247 270 248
f 248 270 247
f 248 270 271
f 271 270 248
f 248 271 249
f 249 271 248
f 249 271 272
f 272 271 249
f 249 272 250
f 250 272 249
f 250 272 273
f 273 272 250
f 250 273 251
f 251 273 250
f 251 273 274
f 274 273 251
f 251 274 252
f 252 274 251
f 252 274 275
f 275 274 252
f 252 275 253
f 253 275 252
f 253 275 276
f 276 275 253
f 253 276 254
f 254 276 253
f 254 276 277
f 277 276 254
f 254 277 255
f 255 277 254
f 255 277 278
f 278 277 255
f 255 278 256
f 256 278 255
f 256 278 279
f 279 278 256
f 256 279 257
f 257 279 256
f 257 279 280
f 280 279 257
f 257 280 258
f 258 280 257
f 258 280 281
f 281 280 258
f 258 281 259
f 259 281 258
f 259 281 282
f 282 281 259
f 259 282 260
f 260 282 259
f 260 282 283
f 283 282 260
f 260 283 261
f 261 283 260
f 261 283 284
f 284 283 261
f 261 284 262
f 262 284 261
f 262 284 285
f 285 284 262
f 262 285 263
f 263 285 262
f 263 285 286
f 286 285 263
f 263 286 264
f 264 286 263
f 264 286 265
f 265 286 264
f 264 265 243
f 243 265 264
f 265 287 288
f 288 287 265
f 265 288 266
f 266 288 265
f 266 288 289
f 289 288 266
f 266 289 267
f 267 289 266
f 267 289 290
f 290 289 267
f 267 290 268
f 268 290 267
f 268 290 291
f 291 290 268
f 268 291 269
f 269 291 268
f 269 291 292
f 292 291 269
f 269 292 270
f 270 292 269
f 270 292 293
f 293 292 270
f 270 293 271
f 271 293 270
f 271 293 294
f 294 293 271
f 271 294 272
f 272 294 271
f 272 294 295
f 295 294 272
f 272 295 273
f 273 295 272
f 273 295 296
f 296 295 273
f 273 296 274
f 274 296 273
f 274 296 297
f 297 296 274
f 274 297 275
f 275 297 274
f 275 297 298
f 298 297 275
f 275 298 276
f 276 298 275
f 276 298 299
f 299 298 276
f 276 299 277
f 277 299 276
f 277 299 300
f 300 299 277
f 277 300 278
f 278 300 277
f 278 300 301
f 301 300 278
f 278 301 279
f 279 301 278
f 279 301 302
f 302 301 279
f 279 302 280
f 280 302 279
f 280 302 303
f 303 302 280
f 280 303 281
f 281 303 280
f 281 303 304
f 304 303 281
f 281 304 282
f 282 304 281
f 282 304 305
f 305 304 282
f 282 305 283
f 283 305 282
f 283 305 306
f 306 305 283
f 283 306 284
f 284 306 283
f 284 306 307
f 307 306 284
f 284 307 285
f 285 307 284
f 285 307 308
f 308 307 285
f 285 308 286
f 286 308 285
f 286 308 287
f 287 308 286
f 286 287 265
f 265 287 286
f 287 309 310
f 310 309 287
f 287 310 288
f 288 310 287
f 288 310 311
f 311 310 288
f 288 311 289
f 289 311 288
f 289 311 312
f 312 311 289
f 289 312 290
f 290 312 289
f 290 312 313
f 313 312 290
f 290 313 291
f 291 313 290
f 291 313 314
f 314 313 291
f 291 314 292
f 292 314 291
f 292 314 315
f 315 314 292
f 292 315 293
f 293 315 292
f 293 315 316
f 316 315 293
f 293 316 294
f 294 316 293
f 294 316 317
f 317 316 294
f 294 317 295
f 295 317 294
f 295 317 318
f 318 317 295
f 295 318 296
f 296 318 295
f 296 318 319
f 319 318 296
f 296 319 297
f 297 319 296
f 297 319 320
f 320 319 297
f 297 320 298
f 298 320 297
f 298 320 321
f 321 320 298
f 298 321 299
f 299 321 298
f 299 321 322
f 322 321 299
f 299 322 300
f 300 322 299
f 300 322 323
f 323 322 300
f 300 323 301
f 301 323 300
f 301 323 324
f 324 323 301
f 301 324 302
f 302 324 301
f 302 324 325
f 325 324 302
f 302 325 303
f 303 325 302
f 303 325 326
f 326 325 303
f 303 326 304
f 304 326 303
f 304 326 327
f 327 326 304
f 304 327 305
f 305 327 304
f 305 327 328
f 328 327 305
f 305 328 306
f 306 328 305
f 306 328 329
f 329 328 306
f 306 329 307
f 307 329 306
f 307 329 330
f 330 329 307
f 307 330 308
f 308 330 307
f 308 330 309
f 309 330 308
f 308 309 287
f 287 309 308
f 309 331 332
f 332 331 309
f 309 332 310
f 310 332 309
f 310 332 333
f 333 332 310
f 310 333 311
f 311 333 310
f 311 333 334
f 334 333 311
f 311 334 312
f 312 334 311
f 312 334 335
f 335 334 312
f 312 335 313
f 313 335 312
f 313 335 336
f 336 335 313
f 313 336 314
f 314 336 313
f 314 336 337
f 337 336 314
f 314 337 315
f 315 337 314
f 315 337 338
f 338 337 315
f 315 338 316
f 316 338 315
f 316 338 339
f 339 338 316
f 316 339 317
f 317 339 316
f 317 339 340
f 340 339 317
f 317 340 318
f 318 340 317
f 318 340 341
f 341 340 318
f 318 341 319
f 319 341 318
f 319 341 342
f 342 341 319
f 319 342 320
f 320 342 319
f 320 342 343
f 343 342 320
f 320 343 321
f 321 343 320
f 321 343 344
f 344 343 321
f 321 344 322
f 322 344 321
f 322 344 345
f 345 344 322
f 322 345 323
f 323 345 322
f 323 345 346
f 346 345 323
f 323 346 324
f 324 346 323
f 324 346 347
f 347 346 324
f 324 347 325
f 325 347 324
f 325 347 348
f 348 347 325
f 325 348 326
f 326 348 325
f 326 348 349
f 349 348 326
f 326 349 327
f 327 349 326
f 327 349 350
f 350 349 327
f 327 350 328
f 328 350 327
f 328 350 351
f 351 350 328
f 328 351 329
f 329 351 328
f 329 351 352
f 352 351 329
f 329 352 330
f 330 352 329
f 330 352 331
f 331 352 330
f 330 331 309
f 309 331 330
f 331 353 354
f 354 353 331
f 331 354 332
f 332 354 331
f 332 354 355
f 355 354 332
f 332 355 333
f 333 355 332
f 333 355 356
f 356 355 333
f 333 356 334
f 334 356 333
f 334 356 357
f 357 356 334
f 334 357 335
f 335 357 334
f 335 357 358
f 358 357 335
f 335 358 336
f 336 358 335
f 336 358 359
f 359 358 336
f 336 359 337
f 337 359 336
f 337 359 360
f 360 359 337
f 337 360 338
f 338 360 337
f 338 360 361
f 361 360 338
f 338 361 339
f 339 361 338
f 339 361 362
f 362 361 339
f 339 362 340
f 340 362 339
f 340 362 363
f 363 362 340
f 340 363 341
f 341 363 340
f 341 363 364
f 364 363 341
f 341 364 342
f 342 364 341
f 342 364 365
f 365 364 342
f 342 365 343
f 343 365 342
f 343 365 366
f 366 365 343
f 343 366 344
f 344 366 343
f 344 366 367
f 367 366 344
f 344 367 345
f 345 367 344
f 345 367 368
f 368 367 345
f 345 368 346
f 346 368 345
f 346 368 369
f 369 368 346
f 346 369 347
f 347 369 346
f 347 369 370
f 370 369 347
f 347 370 348
f 348 370 347
f 348 370 371
f 371 370 348
f 348 371 349
f 349 371 348
f 349 371 372
f 372 371 349
f 349 372 350
f 350 372 349
f 350 372 373
f 373 372 350
f 350 373 351
f 351 373 350
f 351 373 374
f 374 373 351
f 351 374 352
f 352 374 351
f 352 374 353
f 353 374 352
f 352 353 331
f 331 353 352
f 353 375 376
f 376 375 353
f 353 376 354
f 354 376 353
f 354 376 377
f 377 376 354
f 354 377 355
f 355 377 354
f 355 377 378
f 378 377 355
f 355 378 356
f 356 378 355
f 356 378 379
f 379 378 356
f 356 379 357
f 357 379 356
f 357 379 380
f 380 379 357
f 357 380 358
f 358 380 357
f 358 380 381
f 381 380 358
f 358 381 359
f 359 381 358
f 359 381 382
f 382 381 359
f 359 382 360
f 360 382 359
f 360 382 383
f 383 382 360
f 360 383 361
f 361 383 360
f 361 383 384
f 384 383 361
f 361 384 362
f 362 384 361
f 362 384 385
f 385 384 362
f 362 385 363
f 363 385 362
f 363 385 386
f 386 385 363
f 363 386 364
f 364 386 363
f 364 386 387
f 387 386 364
f 364 387 365
f 365 387 364
f 365 387 388
f 388 387 365
f 365 388 366
f 366 388 365
f 366 388 389
f 389 388 366
f 366 389 367
f 367 389 366
f 367 389 390
f 390 389 367
f 367 390 368
f 368 390 367
f 368 390 391
f 391 390 368
f 368 391 369
f 369 391 368
f 369 391 392
f 392 391 369
f 369 392 370
f 370 392 369
f 370 392 393
f 393 392 370
f 370 393 371
f 371 393 370
f 371 393 394
f 394 393 371
f 371 394 372
f 372 394 371
f 372 394 395
f 395 394 372
f 372 395 373
f 373 395 372
f 373 395 396
f 396 395 373
f 373 396 374
f 374 396 373
f 374 396 375
f 375 396 374
f 374 375 353
f 353 375 374
f 375 397 398
f 398 397 375
f 375 398 376
f 376 398 375
f 376 398 399
f 399 398 376
f 376 399 377
f 377 399 376
f 377 399 400
f 400 399 377
f 377 400 378
f 378 400 377
f 378 400 401
f 401 400 378
f 378 401 379
f 379 401 378
f 379 401 402
f 402 401 379
f 379 402 380
f 380 402 379
f 380 402 403
f 403 402 380
f 380 403 381
f 381 403 380
f 381 403 404
f 404 403 381
f 381 404 382
f 382 404 381
f 382 404 405
f 405 404 382
f 382 405 383
f 383 405 382
f 383 405 406
f 406 405 383
f 383 406 384
f 384 406 383
f 384 406 407
f 407 406 384
f 384 407 385
f 385 407 384
f 385 407 408
f 408 407 385
f 385 408 386
f 386 408 385
f 386 408 409
f 409 408 386
f 386 409 387
f 387 409 386
f 387 409 410
f 410 409 387
f 387 410 388
f 388 410 387
f 388 410 411
f 411 410 388
f 388 411 389
f 389 411 388
f 389 411 412
f 412 411 389
f 389 412 390
f 390 412 389
f 390 412 413
f 413 412 390
f 390 413 391
f 391 413 390
f 391 413 414
f 414 413 391
f 391 414 392
f 392 414 391
f 392 414 415
f 415 414 392
f 392 415 393
f 393 415 392
f 393 415 416
f 416 415 393
f 393 416 394
f 394 416 393
f 394 416 417
f 417 416 394
f 394 417 395
f 395 417 394
f 395 417 418
f 418 417 395
f 395 418 396
f 396 418 395
f 396 418 397
f 397 418 396
f 396 397 375
f 375 397 396
usemtl peach_blush
f 419 431 432
f 432 431 419
f 419 432 420
f 420 432 419
f 420 432 433
f 433 432 420
f 420 433 421
f 421 433 420
f 421 433 434
f 434 433 421
f 421 434 422
f 422 434 421
f 422 434 435
f 435 434 422
f 422 435 423
f 423 435 422
f 423 435 436
f 436 435 423
f 423 436 424
f 424 436 423
f 424 436 437
f 437 436 424
f 424 437 425
f 425 437 424
f 425 437 438
f 438 437 425
f 425 438 426
f 426 438 425
f 426 438 439
f 439 438 426
f 426 439 427
f 427 439 426
f 427 439 440
f 440 439 427
f 427 440 428
f 428 440 427
f 428 440 441
f 441 440 428
f 428 441 429
f 429 441 428
f 429 441 442
f 442 441 429
f 429 442 430
f 430 442 429
f 430 442 431
f 431 442 430
f 430 431 419
f 419 431 430
f 431 443 444
f 444 443 431
f 431 444 432
f 432 444 431
f 432 444 445
f 445 444 432
f 432 445 433
f 433 445 432
f 433 445 446
f 446 445 433
f 433 446 434
f 434 446 433
f 434 446 447
f 447 446 434
f 434 447 435
f 435 447 434
f 435 447 448
f 448 447 435
f 435 448 436
f 436 448 435
f 436 448 449
f 449 448 436
f 436 449 437
f 437 449 436
f 437 449 450
f 450 449 437
f 437 450 438
f 438 450 437
f 438 450 451
f 451 450 438
f 438 451 439
f 439 451 438
f 439 451 452
f 452 451 439
f 439 452 440
f 440 452 439
f 440 452 453
f 453 452 440
f 440 453 441
f 441 453 440
f 441 453 454
f 454 453 441
f 441 454 442
f 442 454 441
f 442 454 443
f 443 454 442
f 442 443 431
f 431 443 442
f 443 455 456
f 456 455 443
f 443 456 444
f 444 456 443
f 444 456 457
f 457 456 444
f 444 457 445
f 445 457 444
f 445 457 458
f 458 457 445
f 445 458 446
f 446 458 445
f 446 458 459
f 459 458 446
f 446 459 447
f 447 459 446
f 447 459 460
f 460 459 447
f 447 460 448
f 448 460 447
f 448 460 461
f 461 460 448
f 448 461 449
f 449 461 448
f 449 461 462
f 462 461 449
f 449 462 450
f 450 462 449
f 450 462 463
f 463 462 450
f 450 463 451
f 451 463 450
f 451 463 464
f 464 463 451
f 451 464 452
f 452 464 451
f 452 464 465
f 465 464 452
f 452 465 453
f 453 465 452
f 453 465 466
f 466 465 453
f 453 466 454
f 454 466 453
f 454 466 455
f 455 466 454
f 454 455 443
f 443 455 454
f 455 467 468
f 468 467 455
f 455 468 456
f 456 468 455
f 456 468 469
f 469 468 456
f 456 469 457
f 457 469 456
f 457 469 470
f 470 469 457
f 457 470 458
f 458 470 457
f 458 470 471
f 471 470 458
f 458 471 459
f 459 471 458
f 459 471 472
f 472 471 459
f 459 472 460
f 460 472 459
f 460 472 473
f 473 472 460
f 460 473 461
f 461 473 460
f 461 473 474
f 474 473 461
f 461 474 462
f 462 474 461
f 462 474 475
f 475 474 462
f 462 475 463
f 463 475 462
f 463 475 476
f 476 475 463
f 463 476 464
f 464 476 463
f 464 476 477
f 477 476 464
f 464 477 465
f 465 477 464
f 465 477 478
f 478 477 465
f 465 478 466
f 466 478 465
f 466 478 467
f 467 478 466
f 466 467 455
f 455 467 466
f 467 479 480
f 480 479 467
f 467 480 468
f 468 480 467
f 468 480 481
f 481 480 468
f 468 481 469
f 469 481 468
f 469 481 482
f 482 481 469
f 469 482 470
f 470 482 469
f 470 482 483
f 483 482 470
f 470 483 471
f 471 483 470
f 471 483 484
f 484 483 471
f 471 484 472
f 472 484 471
f 472 484 485
f 485 484 472
f 472 485 473
f 473 485 472
f 473 485 486
f 486 485 473
f 473 486 474
f 474 486 473
f 474 486 487
f 487 486 474
f 474 487 475
f 475 487 474
f 475 487 488
f 488 487 475
f 475 488 476
f 476 488 475
f 476 488 489
f 489 488 476
f 476 489 477
f 477 489 476
f 477 489 490
f 490 489 477
f 477 490 478
f 478 490 477
f 478 490 479
f 479 490 478
f 478 479 467
f 467 479 478
f 479 491 492
f 492 491 479
f 479 492 480
f 480 492 479
f 480 492 493
f 493 492 480
f 480 493 481
f 481 493 480
f 481 493 494
f 494 493 481
f 481 494 482
f 482 494 481
f 482 494 495
f 495 494 482
f 482 495 483
f 483 495 482
f 483 495 496
f 496 495 483
f 483 496 484
f 484 496 483
f 484 496 497
f 497 496 484
f 484 497 485
f 485 497 484
f 485 497 498
f 498 497 485
f 485 498 486
f 486 498 485
f 486 498 499
f 499 498 486
f 486 499 487
f 487 499 486
f 487 499 500
f 500 499 487
f 487 500 488
f 488 500 487
f 488 500 501
f 501 500 488
f 488 501 489
f 489 501 488
f 489 501 502
f 502 501 489
f 489 502 490
f 490 502 489
f 490 502 491
f 491 502 490
f 490 491 479
f 479 491 490
f 491 503 504
f 504 503 491
f 491 504 492
f 492 504 491
f 492 504 505
f 505 504 492
f 492 505 493
f 493 505 492
f 493 505 506
f 506 505 493
f 493 506 494
f 494 506 493
f 494 506 507
f 507 506 494
f 494 507 495
f 495 507 494
f 495 507 508
f 508 507 495
f 495 508 496
f 496 508 495
f 496 508 509
f 509 508 496
f 496 509 497
f 497 509 496
f 497 509 510
f 510 509 497
f 497 510 498
f 498 510 497
f 498 510 511
f 511 510 498
f 498 511 499
f 499 511 498
f 499 511 512
f 512 511 499
f 499 512 500
f 500 512 499
f 500 512 513
f 513 512 500
f 500 513 501
f 501 513 500
f 501 513 514
f 514 513 501
f 501 514 502
f 502 514 501
f 502 514 503
f 503 514 502
f 502 503 491
f 491 503 502
f 503 515 516
f 516 515 503
f 503 516 504
f 504 516 503
f 504 516 517
f 517 516 504
f 504 517 505
f 505 517 504
f 505 517 518
f 518 517 505
f 505 518 506
f 506 518 505
f 506 518 519
f 519 518 506
f 506 519 507
f 507 519 506
f 507 519 520
f 520 519 507
f 507 520 508
f 508 520 507
f 508 520 521
f 521 520 508
f 508 521 509
f 509 521 508
f 509 521 522
f 522 521 509
f 509 522 510
f 510 522 509
f 510 522 523
f 523 522 510
f 510 523 511
f 511 523 510
f 511 523 524
f 524 523 511
f 511 524 512
f 512 524 511
f 512 524 525
f 525 524 512
f 512 525 513
f 513 525 512
f 513 525 526
f 526 525 513
f 513 526 514
f 514 526 513
f 514 526 515
f 515 526 514
f 514 515 503
f 503 515 514
f 515 527 528
f 528 527 515
f 515 528 516
f 516 528 515
f 516 528 529
f 529 528 516
f 516 529 517
f 517 529 516
f 517 529 530
f 530 529 517
f 517 530 518
f 518 530 517
f 518 530 531
f 531 530 518
f 518 531 519
f 519 531 518
f 519 531 532
f 532 531 519
f 519 532 520
f 520 532 519
f 520 532 533
f 533 532 520
f 520 533 521
f 521 533 520
f 521 533 534
f 534 533 521
f 521 534 522
f 522 534 521
f 522 534 535
f 535 534 522
f 522 535 523
f 523 535 522
f 523 535 536
f 536 535 523
f 523 536 524
f 524 536 523
f 524 536 537
f 537 536 524
f 524 537 525
f 525 537 524
f 525 537 538
f 538 537 525
f 525 538 526
f 526 538 525
f 526 538 527
f 527 538 526
f 526 527 515
f 515 527 526
f 527 539 540
f 540 539 527
f 527 540 528
f 528 540 527
f 528 540 541
f 541 540 528
f 528 541 529
f 529 541 528
f 529 541 542
f 542 541 529
f 529 542 530
f 530 542 529
f 530 542 543
f 543 542 530
f 530 543 531
f 531 543 530
f 531 543 544
f 544 543 531
f 531 544 532
f 532 544 531
f 532 544 545
f 545 544 532
f 532 545 533
f 533 545 532
f 533 545 546
f 546 545 533
f 533 546 534
f 534 546 533
f 534 546 547
f 547 546 534
f 534 547 535
f 535 547 534
f 535 547 548
f 548 547 535
f 535 548 536
f 536 548 535
f 536 548 549
f 549 548 536
f 536 549 537
f 537 549 536
f 537 549 550
f 550 549 537
f 537 550 538
f 538 550 537
f 538 550 539
f 539 550 538
f 538 539 527
f 527 539 538
usemtl leaf
f 551 559 560
f 560 559 551
f 551 560 552
f 552 560 551
f 552 560 561
f 561 560 552
f 552 561 553
f 553 561 552
f 553 561 562
f 562 561 553
f 553 562 554
f 554 562 553
f 554 562 563
f 563 562 554
f 554 563 555
f 555 563 554
f 555 563 564
f 564 563 555
f 555 564 556
f 556 564 555
f 556 564 565
f 565 564 556
f 556 565 557
f 557 565 556
f 557 565 566
f 566 565 557
f 557 566 558
f 558 566 557
f 558 566 559
f 559 566 558
f 558 559 551
f 551 559 558
f 559 567 568
f 568 567 559
f 559 568 560
f 560 568 559
f 560 568 569
f 569 568 560
f 560 569 561
f 561 569 560
f 561 569 570
f 570 569 561
f 561 570 562
f 562 570 561
f 562 570 571
f 571 570 562
f 562 571 563
f 563 571 562
f 563 571 572
f 572 571 563
f 563 572 564
f 564 572 563
f 564 572 573
f 573 572 564
f 564 573 565
f 565 573 564
f 565 573 574
f 574 573 565
f 565 574 566
f 566 574 565
f 566 574 567
f 567 574 566
f 566 567 559
f 559 567 566
f 567 575 576
f 576 575 567
f 567 576 568
f 568 576 567
f 568 576 577
f 577 576 568
f 568 577 569
f 569 577 568
f 569 577 578
f 578 577 569
f 569 578 570
f 570 578 569
f 570 578 579
f 579 578 570
f 570 579 571
f 571 579 570
f 571 579 580
f 580 579 571
f 571 580 572
f 572 580 571
f 572 580 581
f 581 580 572
f 572 581 573
f 573 581 572
f 573 581 582
f 582 581 573
f 573 582 574
f 574 582 573
f 574 582 575
f 575 582 574
f 574 575 567
f 567 575 574
f 575 583 584
f 584 583 575
f 575 584 576
f 576 584 575
f 576 584 585
f 585 584 576
f 576 585 577
f 577 585 576
f 577 585 586
f 586 585 577
f 577 586 578
f 578 586 577
f 578 586 587
f 587 586 578
f 578 587 579
f 579 587 578
f 579 587 588
f 588 587 579
f 579 588 580
f 580 588 579
f 580 588 589
f 589 588 580
f 580 589 581
f 581 589 580
f 581 589 590
f 590 589 581
f 581 590 582
f 582 590 581
f 582 590 583
f 583 590 582
f 582 583 575
f 575 583 582
f 583 591 592
f 592 591 583
f 583 592 584
f 584 592 583
f 584 592 593
f 593 592 584
f 584 593 585
f 585 593 584
f 585 593 594
f 594 593 585
f 585 594 586
f 586 594 585
f 586 594 595
f 595 594 586
f 586 595 587
f 587 595 586
f 587 595 596
f 596 595 587
f 587 596 588
f 588 596 587
f 588 596 597
f 597 596 588
f 588 597 589
f 589 597 588
f 589 597 598
f 598 597 589
f 589 598 590
f 590 598 589
f 590 598 591
f 591 598 590
f 590 591 583
f 583 591 590
f 591 599 600
f 600 599 591
f 591 600 592
f 592 600 591
f 592 600 601
f 601 600 592
f 592 601 593
f 593 601 592
f 593 601 602
f 602 601 593
f 593 602 594
f 594 602 593
f 594 602 603
f 603 602 594
f 594 603 595
f 595 603 594
f 595 603 604
f 604 603 595
f 595 604 596
f 596 604 595
f 596 604 605
f 605 604 596
f 596 605 597
f 597 605 596
f 597 605 606
f 606 605 597
f 597 606 598
f 598 606 597
f 598 606 599
f 599 606 598
f 598 599 591
f 591 599 598
f 607 615 616
f 616 615 607
f 607 616 608
f 608 616 607
f 608 616 617
f 617 616 608
f 608 617 609
f 609 617 608
f 609 617 618
f 618 617 609
f 609 618 610
f 610 618 609
f 610 618 619
f 619 618 610
f 610 619 611
f 611 619 610
f 611 619 620
f 620 619 611
f 611 620 612
f 612 620 611
f 612 620 621
f 621 620 612
f 612 621 613
f 613 621 612
f 613 621 622
f 622 621 613
f 613 622 614
f 614 622 613
f 614 622 615
f 615 622 614
f 614 615 607
f 607 615 614
f 615 623 624
f 624 623 615
f 615 624 616
f 616 624 615
f 616 624 625
f 625 624 616
f 616 625 617
f 617 625 616
f 617 625 626
f 626 625 617
f 617 626 618
f 618 626 617
f 618 626 627
f 627 626 618
f 618 627 619
f 619 627 618
f 619 627 628
f 628 627 619
f 619 628 620
f 620 628 619
f 620 628 629
f 629 628 620
f 620 629 621
f 621 629 620
f 621 629 630
f 630 629 621
f 621 630 622
f 622 630 621
f 622 630 623
f 623 630 622
f 622 623 615
f 615 623 622
f 623 631 632
f 632 631 623
f 623 632 624
f 624 632 623
f 624 632 633
f 633 632 624
f 624 633 625
f 625 633 624
f 625 633 634
f 634 633 625
f 625 634 626
f 626 634 625
f 626 634 635
f 635 634 626
f 626 635 627
f 627 635 626
f 627 635 636
f 636 635 627
f 627 636 628
f 628 636 627
f 628 636 637
f 637 636 628
f 628 637 629
f 629 637 628
f 629 637 638
f 638 637 629
f 629 638 630
f 630 638 629
f 630 638 631
f 631 638 630
f 630 631 623
f 623 631 630
f 631 639 640
f 640 639 631
f 631 640 632
f 632 640 631
f 632 640 641
f 641 640 632
f 632 641 633
f 633 641 632
f 633 641 642
f 642 641 633
f 633 642 634
f 634 642 633
f 634 642 643
f 643 642 634
f 634 643 635
f 635 643 634
f 635 643 644
f 644 643 635
f 635 644 636
f 636 644 635
f 636 644 645
f 645 644 636
f 636 645 637
f 637 645 636
f 637 645 646
f 646 645 637
f 637 646 638
f 638 646 637
f 638 646 639
f 639 646 638
f 638 639 631
f 631 639 638
f 639 647 648
f 648 647 639
f 639 648 640
f 640 648 639
f 640 648 649
f 649 648 640
f 640 649 641
f 641 649 640
f 641 649 650
f 650 649 641
f 641 650 642
f 642 650 641
f 642 650 651
f 651 650 642
f 642 651 643
f 643 651 642
f 643 651 652
f 652 651 643
f 643 652 644
f 644 652 643
f 644 652 653
f 653 652 644
f 644 653 645
f 645 653 644
f 645 653 654
f 654 653 645
f 645 654 646
f 646 654 645
f 646 654 647
f 647 654 646
f 646 647 639
f 639 647 646
f 647 655 656
f 656 655 647
f 647 656 648
f 648 656 647
f 648 656 657
f 657 656 648
f 648 657 649
f 649 657 648
f 649 657 658
f 658 657 649
f 649 658 650
f 650 658 649
f 650 658 659
f 659 658 650
f 650 659 651
f 651 659 650
f 651 659 660
f 660 659 651
f 651 660 652
f 652 660 651
f 652 660 661
f 661 660 652
f 652 661 653
f 653 661 652
f 653 661 662
f 662 661 653
f 653 662 654
f 654 662 653
f 654 662 655
f 655 662 654
f 654 655 647
f 647 655 654
f 663 671 672
f 672 671 663
f 663 672 664
f 664 672 663
f 664 672 673
f 673 672 664
f 664 673 665
f 665 673 664
f 665 673 674
f 674 673 665
f 665 674 666
f 666 674 665
f 666 674 675
f 675 674 666
f 666 675 667
f 667 675 666
f 667 675 676
f 676 675 667
f 667 676 668
f 668 676 667
f 668 676 677
f 677 676 668
f 668 677 669
f 669 677 668
f 669 677 678
f 678 677 669
f 669 678 670
f 670 678 669
f 670 678 671
f 671 678 670
f 670 671 663
f 663 671 670
f 671 679 680
f 680 679 671
f 671 680 672
f 672 680 671
f 672 680 681
f 681 680 672
f 672 681 673
f 673 681 672
f 673 681 682
f 682 681 673
f 673 682 674
f 674 682 673
f 674 682 683
f 683 682 674
f 674 683 675
f 675 683 674
f 675 683 684
f 684 683 675
f 675 684 676
f 676 684 675
f 676 684 685
f 685 684 676
f 676 685 677
f 677 685 676
f 677 685 686
f 686 685 677
f 677 686 678
f 678 686 677
f 678 686 679
f 679 686 678
f 678 679 671
f 671 679 678
f 679 687 688
f 688 687 679
f 679 688 680
f 680 688 679
f 680 688 689
f 689 688 680
f 680 689 681
f 681 689 680
f 681 689 690
f 690 689 681
f 681 690 682
f 682 690 681
f 682 690 691
f 691 690 682
f 682 691 683
f 683 691 682
f 683 691 692
f 692 691 683
f 683 692 684
f 684 692 683
f 684 692 693
f 693 692 684
f 684 693 685
f 685 693 684
f 685 693 694
f 694 693 685
f 685 694 686
f 686 694 685
f 686 694 687
f 687 694 686
f 686 687 679
f 679 687 686
f 687 695 696
f 696 695 687
f 687 696 688
f 688 696 687
f 688 696 697
f 697 696 688
f 688 697 689
f 689 697 688
f 689 697 698
f 698 697 689
f 689 698 690
f 690 698 689
f 690 698 699
f 699 698 690
f 690 699 691
f 691 699 690
f 691 699 700
f 700 699 691
f 691 700 692
f 692 700 691
f 692 700 701
f 701 700 692
f 692 701 693
f 693 701 692
f 693 701 702
f 702 701 693
f 693 702 694
f 694 702 693
f 694 702 695
f 695 702 694
f 694 695 687
f 687 695 694
f 695 703 704
f 704 703 695
f 695 704 696
f 696 704 695
f 696 704 705
f 705 704 696
f 696 705 697
f 697 705 696
f 697 705 706
f 706 705 697
f 697 706 698
f 698 706 697
f 698 706 707
f 707 706 698
f 698 707 699
f 699 707 698
f 699 707 708
f 708 707 699
f 699 708 700
f 700 708 699
f 700 708 709
f 709 708 700
f 700 709 701
f 701 709 700
f 701 709 710
f 710 709 701
f 701 710 702
f 702 710 701
f 702 710 703
f 703 710 702
f 702 703 695
f 695 703 702
f 703 711 712
f 712 711 703
f 703 712 704
f 704 712 703
f 704 712 713
f 713 712 704
f 704 713 705
f 705 713 704
f 705 713 714
f 714 713 705
f 705 714 706
f 706 714 705
f 706 714 715
f 715 714 706
f 706 715 707
f 707 715 706
f 707 715 716
f 716 715 707
f 707 716 708
f 708 716 707
f 708 716 717
f 717 716 708
f 708 717 709
f 709 717 708
f 709 717 718
f 718 717 709
f 709 718 710
f 710 718 709
f 710 718 711
f 711 718 710
f 710 711 703
f 703 711 710
usemtl stem
f 719 725 726
f 726 725 719
f 719 726 720
f 720 726 719
f 720 726 727
f 727 726 720
f 720 727 721
f 721 727 720
f 721 727 728
f 728 727 721
f 721 728 722
f 722 728 721
f 722 728 729
f 729 728 722
f 722 729 723
f 723 729 722
f 723 729 730
f 730 729 723
f 723 730 724
f 724 730 723
f 724 730 725
f 725 730 724
f 724 725 719
f 719 725 724
