mtllib soap_bar.mtl
v 0.0000 0.3100 0.0000
v 0.0000 0.3100 0.0000
v 0.0000 0.3100 0.0000
v 0.0000 0.3100 0.0000
v 0.0000 0.3100 0.0000
v 0.0000 0.3100 0.0000
v 0.0000 0.3100 0.0000
v 0.0000 0.3100 0.0000
v 0.0000 0.3100 0.0000
v 0.0000 0.3100 0.0000
v 0.0000 0.3100 0.0000
v 0.0000 0.3100 0.0000
v 0.0000 0.3100 0.0000
v 0.0000 0.3100 0.0000
v 0.0000 0.3100 0.0000
v 0.0000 0.3100 0.0000
v 0.0000 0.3100 0.0000
v 0.0000 0.3100 0.0000
v 0.0000 0.3100 0.0000
v 0.0000 0.3100 0.0000
v 0.0000 0.3100 0.0000
v 0.0000 0.3100 0.0000
v 0.0000 0.3100 0.0000
v 0.0000 0.3100 0.0000
v 0.1853 0.3040 0.0000
v 0.1790 0.3040 0.0278
v 0.1605 0.3040 0.0536
v 0.1311 0.3040 0.0759
v 0.0927 0.3040 0.0929
v 0.0480 0.3040 0.1036
v 0.0000 0.3040 0.1073
v -0.0480 0.3040 0.1036
v -0.0927 0.3040 0.0929
v -0.1311 0.3040 0.0759
v -0.1605 0.3040 0.0536
v -0.1790 0.3040 0.0278
v -0.1853 0.3040 0.0000
v -0.1790 0.3040 -0.0278
v -0.1605 0.3040 -0.0536
v -0.1311 0.3040 -0.0759
v -0.0927 0.3040 -0.0929
v -0.0480 0.3040 -0.1036
v -0.0000 0.3040 -0.1073
v 0.0480 0.3040 -0.1036
v 0.0927 0.3040 -0.0929
v 0.1311 0.3040 -0.0759
v 0.1605 0.3040 -0.0536
v 0.1790 0.3040 -0.0278
v 0.3635 0.2864 0.0000
v 0.3512 0.2864 0.0545
v 0.3148 0.2864 0.1052
v 0.2571 0.2864 0.1488
v 0.1818 0.2864 0.1823
v 0.0941 0.2864 0.2033
v 0.0000 0.2864 0.2105
v -0.0941 0.2864 0.2033
v -0.1818 0.2864 0.1823
v -0.2571 0.2864 0.1488
v -0.3148 0.2864 0.1052
v -0.3512 0.2864 0.0545
v -0.3635 0.2864 0.0000
v -0.3512 0.2864 -0.0545
v -0.3148 0.2864 -0.1052
v -0.2571 0.2864 -0.1488
v -0.1818 0.2864 -0.1823
v -0.0941 0.2864 -0.2033
v -0.0000 0.2864 -0.2105
v 0.0941 0.2864 -0.2033
v 0.1818 0.2864 -0.1823
v 0.2571 0.2864 -0.1488
v 0.3148 0.2864 -0.1052
v 0.3512 0.2864 -0.0545
v 0.5278 0.2578 0.0000
v 0.5098 0.2578 0.0791
v 0.4571 0.2578 0.1528
v 0.3732 0.2578 0.2161
v 0.2639 0.2578 0.2646
v 0.1366 0.2578 0.2952
v 0.0000 0.2578 0.3056
v -0.1366 0.2578 0.2952
v -0.2639 0.2578 0.2646
v -0.3732 0.2578 0.2161
v -0.4571 0.2578 0.1528
v -0.5098 0.2578 0.0791
v -0.5278 0.2578 0.0000
v -0.5098 0.2578 -0.0791
v -0.4571 0.2578 -0.1528
v -0.3732 0.2578 -0.2161
v -0.2639 0.2578 -0.2646
v -0.1366 0.2578 -0.2952
v -0.0000 0.2578 -0.3056
v 0.1366 0.2578 -0.2952
v 0.2639 0.2578 -0.2646
v 0.3732 0.2578 -0.2161
v 0.4571 0.2578 -0.1528
v 0.5098 0.2578 -0.0791
v 0.6718 0.2192 0.0000
v 0.6489 0.2192 0.1007
v 0.5818 0.2192 0.1945
v 0.4750 0.2192 0.2750
v 0.3359 0.2192 0.3368
v 0.1739 0.2192 0.3757
v 0.0000 0.2192 0.3889
v -0.1739 0.2192 0.3757
v -0.3359 0.2192 0.3368
v -0.4750 0.2192 0.2750
v -0.5818 0.2192 0.1945
v -0.6489 0.2192 0.1007
v -0.6718 0.2192 0.0000
v -0.6489 0.2192 -0.1007
v -0.5818 0.2192 -0.1945
v -0.4750 0.2192 -0.2750
v -0.3359 0.2192 -0.3368
v -0.1739 0.2192 -0.3757
v -0.0000 0.2192 -0.3889
v 0.1739 0.2192 -0.3757
v 0.3359 0.2192 -0.3368
v 0.4750 0.2192 -0.2750
v 0.5818 0.2192 -0.1945
v 0.6489 0.2192 -0.1007
v 0.7899 0.1722 0.0000
v 0.7630 0.1722 0.1184
v 0.6841 0.1722 0.2287
v 0.5585 0.1722 0.3234
v 0.3949 0.1722 0.3960
v 0.2044 0.1722 0.4417
v 0.0000 0.1722 0.4573
v -0.2044 0.1722 0.4417
v -0.3949 0.1722 0.3960
v -0.5585 0.1722 0.3234
v -0.6841 0.1722 0.2287
v -0.7630 0.1722 0.1184
v -0.7899 0.1722 0.0000
v -0.7630 0.1722 -0.1184
v -0.6841 0.1722 -0.2287
v -0.5585 0.1722 -0.3234
v -0.3949 0.1722 -0.3960
v -0.2044 0.1722 -0.4417
v -0.0000 0.1722 -0.4573
v 0.2044 0.1722 -0.4417
v 0.3949 0.1722 -0.3960
v 0.5585 0.1722 -0.3234
v 0.6841 0.1722 -0.2287
v 0.7630 0.1722 -0.1184
v 0.8777 0.1186 0.0000
v 0.8478 0.1186 0.1315
v 0.7601 0.1186 0.2541
v 0.6206 0.1186 0.3593
v 0.4388 0.1186 0.4401
v 0.2272 0.1186 0.4908
v 0.0000 0.1186 0.5081
v -0.2272 0.1186 0.4908
v -0.4388 0.1186 0.4401
v -0.6206 0.1186 0.3593
v -0.7601 0.1186 0.2541
v -0.8478 0.1186 0.1315
v -0.8777 0.1186 0.0000
v -0.8478 0.1186 -0.1315
v -0.7601 0.1186 -0.2541
v -0.6206 0.1186 -0.3593
v -0.4388 0.1186 -0.4401
v -0.2272 0.1186 -0.4908
v -0.0000 0.1186 -0.5081
v 0.2272 0.1186 -0.4908
v 0.4388 0.1186 -0.4401
v 0.6206 0.1186 -0.3593
v 0.7601 0.1186 -0.2541
v 0.8478 0.1186 -0.1315
v 0.9317 0.0605 0.0000
v 0.9000 0.0605 0.1396
v 0.8069 0.0605 0.2697
v 0.6588 0.0605 0.3814
v 0.4659 0.0605 0.4672
v 0.2412 0.0605 0.5211
v 0.0000 0.0605 0.5394
v -0.2412 0.0605 0.5211
v -0.4659 0.0605 0.4672
v -0.6588 0.0605 0.3814
v -0.8069 0.0605 0.2697
v -0.9000 0.0605 0.1396
v -0.9317 0.0605 0.0000
v -0.9000 0.0605 -0.1396
v -0.8069 0.0605 -0.2697
v -0.6588 0.0605 -0.3814
v -0.4659 0.0605 -0.4672
v -0.2412 0.0605 -0.5211
v -0.0000 0.0605 -0.5394
v 0.2412 0.0605 -0.5211
v 0.4659 0.0605 -0.4672
v 0.6588 0.0605 -0.3814
v 0.8069 0.0605 -0.2697
v 0.9000 0.0605 -0.1396
v 0.9500 0.0000 0.0000
v 0.9176 0.0000 0.1424
v 0.8227 0.0000 0.2750
v 0.6718 0.0000 0.3889
v 0.4750 0.0000 0.4763
v 0.2459 0.0000 0.5313
v 0.0000 0.0000 0.5500
v -0.2459 0.0000 0.5313
v -0.4750 0.0000 0.4763
v -0.6718 0.0000 0.3889
v -0.8227 0.0000 0.2750
v -0.9176 0.0000 0.1424
v -0.9500 0.0000 0.0000
v -0.9176 0.0000 -0.1424
v -0.8227 0.0000 -0.2750
v -0.6718 0.0000 -0.3889
v -0.4750 0.0000 -0.4763
v -0.2459 0.0000 -0.5313
v -0.0000 0.0000 -0.5500
v 0.2459 0.0000 -0.5313
v 0.4750 0.0000 -0.4763
v 0.6718 0.0000 -0.3889
v 0.8227 0.0000 -0.2750
v 0.9176 0.0000 -0.1424
v 0.9317 -0.0605 0.0000
v 0.9000 -0.0605 0.1396
v 0.8069 -0.0605 0.2697
v 0.6588 -0.0605 0.3814
v 0.4659 -0.0605 0.4672
v 0.2412 -0.0605 0.5211
v 0.0000 -0.0605 0.5394
v -0.2412 -0.0605 0.5211
v -0.4659 -0.0605 0.4672
v -0.6588 -0.0605 0.3814
v -0.8069 -0.0605 0.2697
v -0.9000 -0.0605 0.1396
v -0.9317 -0.0605 0.0000
v -0.9000 -0.0605 -0.1396
v -0.8069 -0.0605 -0.2697
v -0.6588 -0.0605 -0.3814
v -0.4659 -0.0605 -0.4672
v -0.2412 -0.0605 -0.5211
v -0.0000 -0.0605 -0.5394
v 0.2412 -0.0605 -0.5211
v 0.4659 -0.0605 -0.4672
v 0.6588 -0.0605 -0.3814
v 0.8069 -0.0605 -0.2697
v 0.9000 -0.0605 -0.1396
v 0.8777 -0.1186 0.0000
v 0.8478 -0.1186 0.1315
v 0.7601 -0.1186 0.2541
v 0.6206 -0.1186 0.3593
v 0.4388 -0.1186 0.4401
v 0.2272 -0.1186 0.4908
v 0.0000 -0.1186 0.5081
v -0.2272 -0.1186 0.4908
v -0.4388 -0.1186 0.4401
v -0.6206 -0.1186 0.3593
v -0.7601 -0.1186 0.2541
v -0.8478 -0.1186 0.1315
v -0.8777 -0.1186 0.0000
v -0.8478 -0.1186 -0.1315
v -0.7601 -0.1186 -0.2541
v -0.6206 -0.1186 -0.3593
v -0.4388 -0.1186 -0.4401
v -0.2272 -0.1186 -0.4908
v -0.0000 -0.1186 -0.5081
v 0.2272 -0.1186 -0.4908
v 0.4388 -0.1186 -0.4401
v 0.6206 -0.1186 -0.3593
v 0.7601 -0.1186 -0.2541
v 0.8478 -0.1186 -0.1315
v 0.7899 -0.1722 0.0000
v 0.7630 -0.1722 0.1184
v 0.6841 -0.1722 0.2287
v 0.5585 -0.1722 0.3234
v 0.3949 -0.1722 0.3960
v 0.2044 -0.1722 0.4417
v 0.0000 -0.1722 0.4573
v -0.2044 -0.1722 0.4417
v -0.3949 -0.1722 0.3960
v -0.5585 -0.1722 0.3234
v -0.6841 -0.1722 0.2287
v -0.7630 -0.1722 0.1184
v -0.7899 -0.1722 0.0000
v -0.7630 -0.1722 -0.1184
v -0.6841 -0.1722 -0.2287
v -0.5585 -0.1722 -0.3234
v -0.3949 -0.1722 -0.3960
v -0.2044 -0.1722 -0.4417
v -0.0000 -0.1722 -0.4573
v 0.2044 -0.1722 -0.4417
v 0.3949 -0.1722 -0.3960
v 0.5585 -0.1722 -0.3234
v 0.6841 -0.1722 -0.2287
v 0.7630 -0.1722 -0.1184
v 0.6718 -0.2192 0.0000
v 0.6489 -0.2192 0.1007
v 0.5818 -0.2192 0.1945
v 0.4750 -0.2192 0.2750
v 0.3359 -0.2192 0.3368
v 0.1739 -0.2192 0.3757
v 0.0000 -0.2192 0.3889
v -0.1739 -0.2192 0.3757
v -0.3359 -0.2192 0.3368
v -0.4750 -0.2192 0.2750
v -0.5818 -0.2192 0.1945
v -0.6489 -0.2192 0.1007
v -0.6718 -0.2192 0.0000
v -0.6489 -0.2192 -0.1007
v -0.5818 -0.2192 -0.1945
v -0.4750 -0.2192 -0.2750
v -0.3359 -0.2192 -0.3368
v -0.1739 -0.2192 -0.3757
v -0.0000 -0.2192 -0.3889
v 0.1739 -0.2192 -0.3757
v 0.3359 -0.2192 -0.3368
v 0.4750 -0.2192 -0.2750
v 0.5818 -0.2192 -0.1945
v 0.6489 -0.2192 -0.1007
v 0.5278 -0.2578 0.0000
v 0.5098 -0.2578 0.0791
v 0.4571 -0.2578 0.1528
v 0.3732 -0.2578 0.2161
v 0.2639 -0.2578 0.2646
v 0.1366 -0.2578 0.2952
v 0.0000 -0.2578 0.3056
v -0.1366 -0.2578 0.2952
v -0.2639 -0.2578 0.2646
v -0.3732 -0.2578 0.2161
v -0.4571 -0.2578 0.1528
v -0.5098 -0.2578 0.0791
v -0.5278 -0.2578 0.0000
v -0.5098 -0.2578 -0.0791
v -0.4571 -0.2578 -0.1528
v -0.3732 -0.2578 -0.2161
v -0.2639 -0.2578 -0.2646
v -0.1366 -0.2578 -0.2952
v -0.0000 -0.2578 -0.3056
v 0.1366 -0.2578 -0.2952
v 0.2639 -0.2578 -0.2646
v 0.3732 -0.2578 -0.2161
v 0.4571 -0.2578 -0.1528
v 0.5098 -0.2578 -0.0791
v 0.3635 -0.2864 0.0000
v 0.3512 -0.2864 0.0545
v 0.3148 -0.2864 0.1052
v 0.2571 -0.2864 0.1488
v 0.1818 -0.2864 0.1823
v 0.0941 -0.2864 0.2033
v 0.0000 -0.2864 0.2105
v -0.0941 -0.2864 0.2033
v -0.1818 -0.2864 0.1823
v -0.2571 -0.2864 0.1488
v -0.3148 -0.2864 0.1052
v -0.3512 -0.2864 0.0545
v -0.3635 -0.2864 0.0000
v -0.3512 -0.2864 -0.0545
v -0.3148 -0.2864 -0.1052
v -0.2571 -0.2864 -0.1488
v -0.1818 -0.2864 -0.1823
v -0.0941 -0.2864 -0.2033
v -0.0000 -0.2864 -0.2105
v 0.0941 -0.2864 -0.2033
v 0.1818 -0.2864 -0.1823
v 0.2571 -0.2864 -0.1488
v 0.3148 -0.2864 -0.1052
v 0.3512 -0.2864 -0.0545
v 0.1853 -0.3040 0.0000
v 0.1790 -0.3040 0.0278
v 0.1605 -0.3040 0.0536
v 0.1311 -0.3040 0.0759
v 0.0927 -0.3040 0.0929
v 0.0480 -0.3040 0.1036
v 0.0000 -0.3040 0.1073
v -0.0480 -0.3040 0.1036
v -0.0927 -0.3040 0.0929
v -0.1311 -0.3040 0.0759
v -0.1605 -0.3040 0.0536
v -0.1790 -0.3040 0.0278
v -0.1853 -0.3040 0.0000
v -0.1790 -0.3040 -0.0278
v -0.1605 -0.3040 -0.0536
v -0.1311 -0.3040 -0.0759
v -0.0927 -0.3040 -0.0929
v -0.0480 -0.3040 -0.1036
v -0.0000 -0.3040 -0.1073
v 0.0480 -0.3040 -0.1036
v 0.0927 -0.3040 -0.0929
v 0.1311 -0.3040 -0.0759
v 0.1605 -0.3040 -0.0536
v 0.1790 -0.3040 -0.0278
v 0.0000 -0.3100 0.0000
v 0.0000 -0.3100 0.0000
v 0.0000 -0.3100 0.0000
v 0.0000 -0.3100 0.0000
v 0.0000 -0.3100 0.0000
v 0.0000 -0.3100 0.0000
v 0.0000 -0.3100 0.0000
v -0.0000 -0.3100 0.0000
v -0.0000 -0.3100 0.0000
v -0.0000 -0.3100 0.0000
v -0.0000 -0.3100 0.0000
v -0.0000 -0.3100 0.0000
v -0.0000 -0.3100 0.0000
v -0.0000 -0.3100 -0.0000
v -0.0000 -0.3100 -0.0000
v -0.0000 -0.3100 -0.0000
v -0.0000 -0.3100 -0.0000
v -0.0000 -0.3100 -0.0000
v -0.0000 -0.3100 -0.0000
v 0.0000 -0.3100 -0.0000
v 0.0000 -0.3100 -0.0000
v 0.0000 -0.3100 -0.0000
v 0.0000 -0.3100 -0.0000
v 0.0000 -0.3100 -0.0000
v 0.0000 0.3800 0.0000
v 0.0000 0.3800 0.0000
v 0.0000 0.3800 0.0000
v 0.0000 0.3800 0.0000
v 0.0000 0.3800 0.0000
v 0.0000 0.3800 0.0000
v 0.0000 0.3800 0.0000
v 0.0000 0.3800 0.0000
v 0.0000 0.3800 0.0000
v 0.0000 0.3800 0.0000
v 0.0000 0.3800 0.0000
v 0.0000 0.3800 0.0000
v 0.0000 0.3800 0.0000
v 0.0000 0.3800 0.0000
v 0.0000 0.3800 0.0000
v 0.0000 0.3800 0.0000
v 0.0000 0.3800 0.0000
v 0.0000 0.3800 0.0000
v 0.0000 0.3800 0.0000
v 0.0000 0.3800 0.0000
v 0.1941 0.3773 0.0000
v 0.1846 0.3773 0.0320
v 0.1570 0.3773 0.0609
v 0.1141 0.3773 0.0838
v 0.0600 0.3773 0.0985
v 0.0000 0.3773 0.1035
v -0.0600 0.3773 0.0985
v -0.1141 0.3773 0.0838
v -0.1570 0.3773 0.0609
v -0.1846 0.3773 0.0320
v -0.1941 0.3773 0.0000
v -0.1846 0.3773 -0.0320
v -0.1570 0.3773 -0.0609
v -0.1141 0.3773 -0.0838
v -0.0600 0.3773 -0.0985
v -0.0000 0.3773 -0.1035
v 0.0600 0.3773 -0.0985
v 0.1141 0.3773 -0.0838
v 0.1570 0.3773 -0.0609
v 0.1846 0.3773 -0.0320
v 0.3750 0.3693 0.0000
v 0.3566 0.3693 0.0618
v 0.3034 0.3693 0.1176
v 0.2204 0.3693 0.1618
v 0.1159 0.3693 0.1902
v 0.0000 0.3693 0.2000
v -0.1159 0.3693 0.1902
v -0.2204 0.3693 0.1618
v -0.3034 0.3693 0.1176
v -0.3566 0.3693 0.0618
v -0.3750 0.3693 0.0000
v -0.3566 0.3693 -0.0618
v -0.3034 0.3693 -0.1176
v -0.2204 0.3693 -0.1618
v -0.1159 0.3693 -0.1902
v -0.0000 0.3693 -0.2000
v 0.1159 0.3693 -0.1902
v 0.2204 0.3693 -0.1618
v 0.3034 0.3693 -0.1176
v 0.3566 0.3693 -0.0618
v 0.5303 0.3566 0.0000
v 0.5044 0.3566 0.0874
v 0.4290 0.3566 0.1663
v 0.3117 0.3566 0.2288
v 0.1639 0.3566 0.2690
v 0.0000 0.3566 0.2828
v -0.1639 0.3566 0.2690
v -0.3117 0.3566 0.2288
v -0.4290 0.3566 0.1663
v -0.5044 0.3566 0.0874
v -0.5303 0.3566 0.0000
v -0.5044 0.3566 -0.0874
v -0.4290 0.3566 -0.1663
v -0.3117 0.3566 -0.2288
v -0.1639 0.3566 -0.2690
v -0.0000 0.3566 -0.2828
v 0.1639 0.3566 -0.2690
v 0.3117 0.3566 -0.2288
v 0.4290 0.3566 -0.1663
v 0.5044 0.3566 -0.0874
v 0.6495 0.3400 0.0000
v 0.6177 0.3400 0.1070
v 0.5255 0.3400 0.2036
v 0.3818 0.3400 0.2803
v 0.2007 0.3400 0.3295
v 0.0000 0.3400 0.3464
v -0.2007 0.3400 0.3295
v -0.3818 0.3400 0.2803
v -0.5255 0.3400 0.2036
v -0.6177 0.3400 0.1070
v -0.6495 0.3400 0.0000
v -0.6177 0.3400 -0.1070
v -0.5255 0.3400 -0.2036
v -0.3818 0.3400 -0.2803
v -0.2007 0.3400 -0.3295
v -0.0000 0.3400 -0.3464
v 0.2007 0.3400 -0.3295
v 0.3818 0.3400 -0.2803
v 0.5255 0.3400 -0.2036
v 0.6177 0.3400 -0.1070
v 0.7244 0.3207 0.0000
v 0.6890 0.3207 0.1194
v 0.5861 0.3207 0.2271
v 0.4258 0.3207 0.3126
v 0.2239 0.3207 0.3675
v 0.0000 0.3207 0.3864
v -0.2239 0.3207 0.3675
v -0.4258 0.3207 0.3126
v -0.5861 0.3207 0.2271
v -0.6890 0.3207 0.1194
v -0.7244 0.3207 0.0000
v -0.6890 0.3207 -0.1194
v -0.5861 0.3207 -0.2271
v -0.4258 0.3207 -0.3126
v -0.2239 0.3207 -0.3675
v -0.0000 0.3207 -0.3864
v 0.2239 0.3207 -0.3675
v 0.4258 0.3207 -0.3126
v 0.5861 0.3207 -0.2271
v 0.6890 0.3207 -0.1194
v 0.7500 0.3000 0.0000
v 0.7133 0.3000 0.1236
v 0.6068 0.3000 0.2351
v 0.4408 0.3000 0.3236
v 0.2318 0.3000 0.3804
v 0.0000 0.3000 0.4000
v -0.2318 0.3000 0.3804
v -0.4408 0.3000 0.3236
v -0.6068 0.3000 0.2351
v -0.7133 0.3000 0.1236
v -0.7500 0.3000 0.0000
v -0.7133 0.3000 -0.1236
v -0.6068 0.3000 -0.2351
v -0.4408 0.3000 -0.3236
v -0.2318 0.3000 -0.3804
v -0.0000 0.3000 -0.4000
v 0.2318 0.3000 -0.3804
v 0.4408 0.3000 -0.3236
v 0.6068 0.3000 -0.2351
v 0.7133 0.3000 -0.1236
v 0.7244 0.2793 0.0000
v 0.6890 0.2793 0.1194
v 0.5861 0.2793 0.2271
v 0.4258 0.2793 0.3126
v 0.2239 0.2793 0.3675
v 0.0000 0.2793 0.3864
v -0.2239 0.2793 0.3675
v -0.4258 0.2793 0.3126
v -0.5861 0.2793 0.2271
v -0.6890 0.2793 0.1194
v -0.7244 0.2793 0.0000
v -0.6890 0.2793 -0.1194
v -0.5861 0.2793 -0.2271
v -0.4258 0.2793 -0.3126
v -0.2239 0.2793 -0.3675
v -0.0000 0.2793 -0.3864
v 0.2239 0.2793 -0.3675
v 0.4258 0.2793 -0.3126
v 0.5861 0.2793 -0.2271
v 0.6890 0.2793 -0.1194
v 0.6495 0.2600 0.0000
v 0.6177 0.2600 0.1070
v 0.5255 0.2600 0.2036
v 0.3818 0.2600 0.2803
v 0.2007 0.2600 0.3295
v 0.0000 0.2600 0.3464
v -0.2007 0.2600 0.3295
v -0.3818 0.2600 0.2803
v -0.5255 0.2600 0.2036
v -0.6177 0.2600 0.1070
v -0.6495 0.2600 0.0000
v -0.6177 0.2600 -0.1070
v -0.5255 0.2600 -0.2036
v -0.3818 0.2600 -0.2803
v -0.2007 0.2600 -0.3295
v -0.0000 0.2600 -0.3464
v 0.2007 0.2600 -0.3295
v 0.3818 0.2600 -0.2803
v 0.5255 0.2600 -0.2036
v 0.6177 0.2600 -0.1070
v 0.5303 0.2434 0.0000
v 0.5044 0.2434 0.0874
v 0.4290 0.2434 0.1663
v 0.3117 0.2434 0.2288
v 0.1639 0.2434 0.2690
v 0.0000 0.2434 0.2828
v -0.1639 0.2434 0.2690
v -0.3117 0.2434 0.2288
v -0.4290 0.2434 0.1663
v -0.5044 0.2434 0.0874
v -0.5303 0.2434 0.0000
v -0.5044 0.2434 -0.0874
v -0.4290 0.2434 -0.1663
v -0.3117 0.2434 -0.2288
v -0.1639 0.2434 -0.2690
v -0.0000 0.2434 -0.2828
v 0.1639 0.2434 -0.2690
v 0.3117 0.2434 -0.2288
v 0.4290 0.2434 -0.1663
v 0.5044 0.2434 -0.0874
v 0.3750 0.2307 0.0000
v 0.3566 0.2307 0.0618
v 0.3034 0.2307 0.1176
v 0.2204 0.2307 0.1618
v 0.1159 0.2307 0.1902
v 0.0000 0.2307 0.2000
v -0.1159 0.2307 0.1902
v -0.2204 0.2307 0.1618
v -0.3034 0.2307 0.1176
v -0.3566 0.2307 0.0618
v -0.3750 0.2307 0.0000
v -0.3566 0.2307 -0.0618
v -0.3034 0.2307 -0.1176
v -0.2204 0.2307 -0.1618
v -0.1159 0.2307 -0.1902
v -0.0000 0.2307 -0.2000
v 0.1159 0.2307 -0.1902
v 0.2204 0.2307 -0.1618
v 0.3034 0.2307 -0.1176
v 0.3566 0.2307 -0.0618
v 0.1941 0.2227 0.0000
v 0.1846 0.2227 0.0320
v 0.1570 0.2227 0.0609
v 0.1141 0.2227 0.0838
v 0.0600 0.2227 0.0985
v 0.0000 0.2227 0.1035
v -0.0600 0.2227 0.0985
v -0.1141 0.2227 0.0838
v -0.1570 0.2227 0.0609
v -0.1846 0.2227 0.0320
v -0.1941 0.2227 0.0000
v -0.1846 0.2227 -0.0320
v -0.1570 0.2227 -0.0609
v -0.1141 0.2227 -0.0838
v -0.0600 0.2227 -0.0985
v -0.0000 0.2227 -0.1035
v 0.0600 0.2227 -0.0985
v 0.1141 0.2227 -0.0838
v 0.1570 0.2227 -0.0609
v 0.1846 0.2227 -0.0320
v 0.0000 0.2200 0.0000
v 0.0000 0.2200 0.0000
v 0.0000 0.2200 0.0000
v 0.0000 0.2200 0.0000
v 0.0000 0.2200 0.0000
v 0.0000 0.2200 0.0000
v -0.0000 0.2200 0.0000
v -0.0000 0.2200 0.0000
v -0.0000 0.2200 0.0000
v -0.0000 0.2200 0.0000
v -0.0000 0.2200 0.0000
v -0.0000 0.2200 -0.0000
v -0.0000 0.2200 -0.0000
v -0.0000 0.2200 -0.0000
v -0.0000 0.2200 -0.0000
v -0.0000 0.2200 -0.0000
v 0.0000 0.2200 -0.0000
v 0.0000 0.2200 -0.0000
v 0.0000 0.2200 -0.0000
v 0.0000 0.2200 -0.0000
usemtl soap
f 1 25 26
f 26 25 1
f 1 26 2
f 2 26 1
f 2 26 27
f 27 26 2
f 2 27 3
f 3 27 2
f 3 27 28
f 28 27 3
f 3 28 4
f 4 28 3
f 4 28 29
f 29 28 4
f 4 29 5
f 5 29 4
f 5 29 30
f 30 29 5
f 5 30 6
f 6 30 5
f 6 30 31
f 31 30 6
f 6 31 7
f 7 31 6
f 7 31 32
f 32 31 7
f 7 32 8
f 8 32 7
f 8 32 33
f 33 32 8
f 8 33 9
f 9 33 8
f 9 33 34
f 34 33 9
f 9 34 10
f 10 34 9
f 10 34 35
f 35 34 10
f 10 35 11
f 11 35 10
f 11 35 36
f 36 35 11
f 11 36 12
f 12 36 11
f 12 36 37
f 37 36 12
f 12 37 13
f 13 37 12
f 13 37 38
f 38 37 13
f 13 38 14
f 14 38 13
f 14 38 39
f 39 38 14
f 14 39 15
f 15 39 14
f 15 39 40
f 40 39 15
f 15 40 16
f 16 40 15
f 16 40 41
f 41 40 16
f 16 41 17
f 17 41 16
f 17 41 42
f 42 41 17
f 17 42 18
f 18 42 17
f 18 42 43
f 43 42 18
f 18 43 19
f 19 43 18
f 19 43 44
f 44 43 19
f 19 44 20
f 20 44 19
f 20 44 45
f 45 44 20
f 20 45 21
f 21 45 20
f 21 45 46
f 46 45 21
f 21 46 22
f 22 46 21
f 22 46 47
f 47 46 22
f 22 47 23
f 23 47 22
f 23 47 48
f 48 47 23
f 23 48 24
f 24 48 23
f 24 48 25
f 25 48 24
f 24 25 1
f 1 25 24
f 25 49 50
f 50 49 25
f 25 50 26
f 26 50 25
f 26 50 51
f 51 50 26
f 26 51 27
f 27 51 26
f 27 51 52
f 52 51 27
f 27 52 28
f 28 52 27
f 28 52 53
f 53 52 28
f 28 53 29
f 29 53 28
f 29 53 54
f 54 53 29
f 29 54 30
f 30 54 29
f 30 54 55
f 55 54 30
f 30 55 31
f 31 55 30
f 31 55 56
f 56 55 31
f 31 56 32
f 32 56 31
f 32 56 57
f 57 56 32
f 32 57 33
f 33 57 32
f 33 57 58
f 58 57 33
f 33 58 34
f 34 58 33
f 34 58 59
f 59 58 34
f 34 59 35
f 35 59 34
f 35 59 60
f 60 59 35
f 35 60 36
f 36 60 35
f 36 60 61
f 61 60 36
f 36 61 37
f 37 61 36
f 37 61 62
f 62 61 37
f 37 62 38
f 38 62 37
f 38 62 63
f 63 62 38
f 38 63 39
f 39 63 38
f 39 63 64
f 64 63 39
f 39 64 40
f 40 64 39
f 40 64 65
f 65 64 40
f 40 65 41
f 41 65 40
f 41 65 66
f 66 65 41
f 41 66 42
f 42 66 41
f 42 66 67
f 67 66 42
f 42 67 43
f 43 67 42
f 43 67 68
f 68 67 43
f 43 68 44
f 44 68 43
f 44 68 69
f 69 68 44
f 44 69 45
f 45 69 44
f 45 69 70
f 70 69 45
f 45 70 46
f 46 70 45
f 46 70 71
f 71 70 46
f 46 71 47
f 47 71 46
f 47 71 72
f 72 71 47
f 47 72 48
f 48 72 47
f 48 72 49
f 49 72 48
f 48 49 25
f 25 49 48
f 49 73 74
f 74 73 49
f 49 74 50
f 50 74 49
f 50 74 75
f 75 74 50
f 50 75 51
f 51 75 50
f 51 75 76
f 76 75 51
f 51 76 52
f 52 76 51
f 52 76 77
f 77 76 52
f 52 77 53
f 53 77 52
f 53 77 78
f 78 77 53
f 53 78 54
f 54 78 53
f 54 78 79
f 79 78 54
f 54 79 55
f 55 79 54
f 55 79 80
f 80 79 55
f 55 80 56
f 56 80 55
f 56 80 81
f 81 80 56
f 56 81 57
f 57 81 56
f 57 81 82
f 82 81 57
f 57 82 58
f 58 82 57
f 58 82 83
f 83 82 58
f 58 83 59
f 59 83 58
f 59 83 84
f 84 83 59
f 59 84 60
f 60 84 59
f 60 84 85
f 85 84 60
f 60 85 61
f 61 85 60
f 61 85 86
f 86 85 61
f 61 86 62
f 62 86 61
f 62 86 87
f 87 86 62
f 62 87 63
f 63 87 62
f 63 87 88
f 88 87 63
f 63 88 64
f 64 88 63
f 64 88 89
f 89 88 64
f 64 89 65
f 65 89 64
f 65 89 90
f 90 89 65
f 65 90 66
f 66 90 65
f 66 90 91
f 91 90 66
f 66 91 67
f 67 91 66
f 67 91 92
f 92 91 67
f 67 92 68
f 68 92 67
f 68 92 93
f 93 92 68
f 68 93 69
f 69 93 68
f 69 93 94
f 94 93 69
f 69 94 70
f 70 94 69
f 70 94 95
f 95 94 70
f 70 95 71
f 71 95 70
f 71 95 96
f 96 95 71
f 71 96 72
f 72 96 71
f 72 96 73
f 73 96 72
f 72 73 49
f 49 73 72
f 73 97 98
f 98 97 73
f 73 98 74
f 74 98 73
f 74 98 99
f 99 98 74
f 74 99 75
f 75 99 74
f 75 99 100
f 100 99 75
f 75 100 76
f 76 100 75
f 76 100 101
f 101 100 76
f 76 101 77
f 77 101 76
f 77 101 102
f 102 101 77
f 77 102 78
f 78 102 77
f 78 102 103
f 103 102 78
f 78 103 79
f 79 103 78
f 79 103 104
f 104 103 79
f 79 104 80
f 80 104 79
f 80 104 105
f 105 104 80
f 80 105 81
f 81 105 80
f 81 105 106
f 106 105 81
f 81 106 82
f 82 106 81
f 82 106 107
f 107 106 82
f 82 107 83
f 83 107 82
f 83 107 108
f 108 107 83
f 83 108 84
f 84 108 83
f 84 108 109
f 109 108 84
f 84 109 85
f 85 109 84
f 85 109 110
f 110 109 85
f 85 110 86
f 86 110 85
f 86 110 111
f 111 110 86
f 86 111 87
f 87 111 86
f 87 111 112
f 112 111 87
f 87 112 88
f 88 112 87
f 88 112 113
f 113 112 88
f 88 113 89
f 89 113 88
f 89 113 114
f 114 113 89
f 89 114 90
f 90 114 89
f 90 114 115
f 115 114 90
f 90 115 91
f 91 115 90
f 91 115 116
f 116 115 91
f 91 116 92
f 92 116 91
f 92 116 117
f 117 116 92
f 92 117 93
f 93 117 92
f 93 117 118
f 118 117 93
f 93 118 94
f 94 118 93
f 94 118 119
f 119 118 94
f 94 119 95
f 95 119 94
f 95 119 120
f 120 119 95
f 95 120 96
f 96 120 95
f 96 120 97
f 97 120 96
f 96 97 73
f 73 97 96
f 97 121 122
f 122 121 97
f 97 122 98
f 98 122 97
f 98 122 123
f 123 122 98
f 98 123 99
f 99 123 98
f 99 123 124
f 124 123 99
f 99 124 100
f 100 124 99
f 100 124 125
f 125 124 100
f 100 125 101
f 101 125 100
f 101 125 126
f 126 125 101
f 101 126 102
f 102 126 101
f 102 126 127
f 127 126 102
f 102 127 103
f 103 127 102
f 103 127 128
f 128 127 103
f 103 128 104
f 104 128 103
f 104 128 129
f 129 128 104
f 104 129 105
f 105 129 104
f 105 129 130
f 130 129 105
f 105 130 106
f 106 130 105
f 106 130 131
f 131 130 106
f 106 131 107
f 107 131 106
f 107 131 132
f 132 131 107
f 107 132 108
f 108 132 107
f 108 132 133
f 133 132 108
f 108 133 109
f 109 133 108
f 109 133 134
f 134 133 109
f 109 134 110
f 110 134 109
f 110 134 135
f 135 134 110
f 110 135 111
f 111 135 110
f 111 135 136
f 136 135 111
f 111 136 112
f 112 136 111
f 112 136 137
f 137 136 112
f 112 137 113
f 113 137 112
f 113 137 138
f 138 137 113
f 113 138 114
f 114 138 113
f 114 138 139
f 139 138 114
f 114 139 115
f 115 139 114
f 115 139 140
f 140 139 115
f 115 140 116
f 116 140 115
f 116 140 141
f 141 140 116
f 116 141 117
f 117 141 116
f 117 141 142
f 142 141 117
f 117 142 118
f 118 142 117
f 118 142 143
f 143 142 118
f 118 143 119
f 119 143 118
f 119 143 144
f 144 143 119
f 119 144 120
f 120 144 119
f 120 144 121
f 121 144 120
f 120 121 97
f 97 121 120
f 121 145 146
f 146 145 121
f 121 146 122
f 122 146 121
f 122 146 147
f 147 146 122
f 122 147 123
f 123 147 122
f 123 147 148
f 148 147 123
f 123 148 124
f 124 148 123
f 124 148 149
f 149 148 124
f 124 149 125
f 125 149 124
f 125 149 150
f 150 149 125
f 125 150 126
f 126 150 125
f 126 150 151
f 151 150 126
f 126 151 127
f 127 151 126
f 127 151 152
f 152 151 127
f 127 152 128
f 128 152 127
f 128 152 153
f 153 152 128
f 128 153 129
f 129 153 128
f 129 153 154
f 154 153 129
f 129 154 130
f 130 154 129
f 130 154 155
f 155 154 130
f 130 155 131
f 131 155 130
f 131 155 156
f 156 155 131
f 131 156 132
f 132 156 131
f 132 156 157
f 157 156 132
f 132 157 133
f 133 157 132
f 133 157 158
f 158 157 133
f 133 158 134
f 134 158 133
f 134 158 159
f 159 158 134
f 134 159 135
f 135 159 134
f 135 159 160
f 160 159 135
f 135 160 136
f 136 160 135
f 136 160 161
f 161 160 136
f 136 161 137
f 137 161 136
f 137 161 162
f 162 161 137
f 137 162 138
f 138 162 137
f 138 162 163
f 163 162 138
f 138 163 139
f 139 163 138
f 139 163 164
f 164 163 139
f 139 164 140
f 140 164 139
f 140 164 165
f 165 164 140
f 140 165 141
f 141 165 140
f 141 165 166
f 166 165 141
f 141 166 142
f 142 166 141
f 142 166 167
f 167 166 142
f 142 167 143
f 143 167 142
f 143 167 168
f 168 167 143
f 143 168 144
f 144 168 143
f 144 168 145
f 145 168 144
f 144 145 121
f 121 145 144
f 145 169 170
f 170 169 145
f 145 170 146
f 146 170 145
f 146 170 171
f 171 170 146
f 146 171 147
f 147 171 146
f 147 171 172
f 172 171 147
f 147 172 148
f 148 172 147
f 148 172 173
f 173 172 148
f 148 173 149
f 149 173 148
f 149 173 174
f 174 173 149
f 149 174 150
f 150 174 149
f 150 174 175
f 175 174 150
f 150 175 151
f 151 175 150
f 151 175 176
f 176 175 151
f 151 176 152
f 152 176 151
f 152 176 177
f 177 176 152
f 152 177 153
f 153 177 152
f 153 177 178
f 178 177 153
f 153 178 154
f 154 178 153
f 154 178 179
f 179 178 154
f 154 179 155
f 155 179 154
f 155 179 180
f 180 179 155
f 155 180 156
f 156 180 155
f 156 180 181
f 181 180 156
f 156 181 157
f 157 181 156
f 157 181 182
f 182 181 157
f 157 182 158
f 158 182 157
f 158 182 183
f 183 182 158
f 158 183 159
f 159 183 158
f 159 183 184
f 184 183 159
f 159 184 160
f 160 184 159
f 160 184 185
f 185 184 160
f 160 185 161
f 161 185 160
f 161 185 186
f 186 185 161
f 161 186 162
f 162 186 161
f 162 186 187
f 187 186 162
f 162 187 163
f 163 187 162
f 163 187 188
f 188 187 163
f 163 188 164
f 164 188 163
f 164 188 189
f 189 188 164
f 164 189 165
f 165 189 164
f 165 189 190
f 190 189 165
f 165 190 166
f 166 190 165
f 166 190 191
f 191 190 166
f 166 191 167
f 167 191 166
f 167 191 192
f 192 191 167
f 167 192 168
f 168 192 167
f 168 192 169
f 169 192 168
f 168 169 145
f 145 169 168
f 169 193 194
f 194 193 169
f 169 194 170
f 170 194 169
f 170 194 195
f 195 194 170
f 170 195 171
f 171 195 170
f 171 195 196
f 196 195 171
f 171 196 172
f 172 196 171
f 172 196 197
f 197 196 172
f 172 197 173
f 173 197 172
f 173 197 198
f 198 197 173
f 173 198 174
f 174 198 173
f 174 198 199
f 199 198 174
f 174 199 175
f 175 199 174
f 175 199 200
f 200 199 175
f 175 200 176
f 176 200 175
f 176 200 201
f 201 200 176
f 176 201 177
f 177 201 176
f 177 201 202
f 202 201 177
f 177 202 178
f 178 202 177
f 178 202 203
f 203 202 178
f 178 203 179
f 179 203 178
f 179 203 204
f 204 203 179
f 179 204 180
f 180 204 179
f 180 204 205
f 205 204 180
f 180 205 181
f 181 205 180
f 181 205 206
f 206 205 181
f 181 206 182
f 182 206 181
f 182 206 207
f 207 206 182
f 182 207 183
f 183 207 182
f 183 207 208
f 208 207 183
f 183 208 184
f 184 208 183
f 184 208 209
f 209 208 184
f 184 209 185
f 185 209 184
f 185 209 210
f 210 209 185
f 185 210 186
f 186 210 185
f 186 210 211
f 211 210 186
f 186 211 187
f 187 211 186
f 187 211 212
f 212 211 187
f 187 212 188
f 188 212 187
f 188 212 213
f 213 212 188
f 188 213 189
f 189 213 188
f 189 213 214
f 214 213 189
f 189 214 190
f 190 214 189
f 190 214 215
f 215 214 190
f 190 215 191
f 191 215 190
f 191 215 216
f 216 215 191
f 191 216 192
f 192 216 191
f 192 216 193
f 193 216 192
f 192 193 169
f 169 193 192
f 193 217 218
f 218 217 193
f 193 218 194
f 194 218 193
f 194 218 219
f 219 218 194
f 194 219 195
f 195 219 194
f 195 219 220
f 220 219 195
f 195 220 196
f 196 220 195
f 196 220 221
f 221 220 196
f 196 221 197
f 197 221 196
f 197 221 222
f 222 221 197
f 197 222 198
f 198 222 197
f 198 222 223
f 223 222 198
f 198 223 199
f 199 223 198
f 199 223 224
f 224 223 199
f 199 224 200
f 200 224 199
f 200 224 225
f 225 224 200
f 200 225 201
f 201 225 200
f 201 225 226
f 226 225 201
f 201 226 202
f 202 226 201
f 202 226 227
f 227 226 202
f 202 227 203
f 203 227 202
f 203 227 228
f 228 227 203
f 203 228 204
f 204 228 203
f 204 228 229
f 229 228 204
f 204 229 205
f 205 229 204
f 205 229 230
f 230 229 205
f 205 230 206
f 206 230 205
f 206 230 231
f 231 230 206
f 206 231 207
f 207 231 206
f 207 231 232
f 232 231 207
f 207 232 208
f 208 232 207
f 208 232 233
f 233 232 208
f 208 233 209
f 209 233 208
f 209 233 234
f 234 233 209
f 209 234 210
f 210 234 209
f 210 234 235
f 235 234 210
f 210 235 211
f 211 235 210
f 211 235 236
f 236 235 211
f 211 236 212
f 212 236 211
f 212 236 237
f 237 236 212
f 212 237 213
f 213 237 212
f 213 237 238
f 238 237 213
f 213 238 214
f 214 238 213
f 214 238 239
f 239 238 214
f 214 239 215
f 215 239 214
f 215 239 240
f 240 239 215
f 215 240 216
f 216 240 215
f 216 240 217
f 217 240 216
f 216 217 193
f 193 217 216
f 217 241 242
f 242 241 217
f 217 242 218
f 218 242 217
f 218 242 243
f 243 242 218
f 218 243 219
f 219 243 218
f 219 243 244
f 244 243 219
f 219 244 220
f 220 244 219
f 220 244 245
f 245 244 220
f 220 245 221
f 221 245 220
f 221 245 246
f 246 245 221
f 221 246 222
f 222 246 221
f 222 246 247
f 247 246 222
f 222 247 223
f 223 247 222
f 223 247 248
f 248 247 223
f 223 248 224
f 224 248 223
f 224 248 249
f 249 248 224
f 224 249 225
f 225 249 224
f 225 249 250
f 250 249 225
f 225 250 226
f 226 250 225
f 226 250 251
f 251 250 226
f 226 251 227
f 227 251 226
f 227 251 252
f 252 251 227
f 227 252 228
f 228 252 227
f 228 252 253
f 253 252 228
f 228 253 229
f 229 253 228
f 229 253 254
f 254 253 229
f 229 254 230
f 230 254 229
f 230 254 255
f 255 254 230
f 230 255 231
f 231 255 230
f 231 255 256
f 256 255 231
f 231 256 232
f 232 256 231
f 232 256 257
f 257 256 232
f 232 257 233
f 233 257 232
f 233 257 258
f 258 257 233
f 233 258 234
f 234 258 233
f 234 258 259
f 259 258 234
f 234 259 235
f 235 259 234
f 235 259 260
f 260 259 235
f 235 260 236
f 236 260 235
f 236 260 261
f 261 260 236
f 236 261 237
f 237 261 236
f 237 261 262
f 262 261 237
f 237 262 238
f 238 262 237
f 238 262 263
f 263 262 238
f 238 263 239
f 239 263 238
f 239 263 264
f 264 263 239
f 239 264 240
f 240 264 239
f 240 264 241
f 241 264 240
f 240 241 217
f 217 241 240
f 241 265 266
f 266 265 241
f 241 266 242
f 242 266 241
f 242 266 267
f 267 266 242
f 242 267 243
f 243 267 242
f 243 267 268
f 268 267 243
f 243 268 244
f 244 268 243
f 244 268 269
f 269 268 244
f 244 269 245
f 245 269 244
f 245 269 270
f 270 269 245
f 245 270 246
f 246 270 245
f 246 270 271
f 271 270 246
f 246 271 247
f 247 271 246
f 247 271 272
f 272 271 247
f 247 272 248
f 248 272 247
f 248 272 273
f 273 272 248
f 248 273 249
f 249 273 248
f 249 273 274
f 274 273 249
f 249 274 250
f 250 274 249
f 250 274 275
f 275 274 250
f 250 275 251
f 251 275 250
f 251 275 276
f 276 275 251
f 251 276 252
f 252 276 251
f 252 276 277
f 277 276 252
f 252 277 253
f 253 277 252
f 253 277 278
f 278 277 253
f 253 278 254
f 254 278 253
f 254 278 279
f 279 278 254
f 254 279 255
f 255 279 254
f 255 279 280
f 280 279 255
f 255 280 256
f 256 280 255
f 256 280 281
f 281 280 256
f 256 281 257
f 257 281 256
f 257 281 282
f 282 281 257
f 257 282 258
f 258 282 257
f 258 282 283
f 283 282 258
f 258 283 259
f 259 283 258
f 259 283 284
f 284 283 259
f 259 284 260
f 260 284 259
f 260 284 285
f 285 284 260
f 260 285 261
f 261 285 260
f 261 285 286
f 286 285 261
f 261 286 262
f 262 286 261
f 262 286 287
f 287 286 262
f 262 287 263
f 263 287 262
f 263 287 288
f 288 287 263
f 263 288 264
f 264 288 263
f 264 288 265
f 265 288 264
f 264 265 241
f 241 265 264
f 265 289 290
f 290 289 265
f 265 290 266
f 266 290 265
f 266 290 291
f 291 290 266
f 266 291 267
f 267 291 266
f 267 291 292
f 292 291 267
f 267 292 268
f 268 292 267
f 268 292 293
f 293 292 268
f 268 293 269
f 269 293 268
f 269 293 294
f 294 293 269
f 269 294 270
f 270 294 269
f 270 294 295
f 295 294 270
f 270 295 271
f 271 295 270
f 271 295 296
f 296 295 271
f 271 296 272
f 272 296 271
f 272 296 297
f 297 296 272
f 272 297 273
f 273 297 272
f 273 297 298
f 298 297 273
f 273 298 274
f 274 298 273
f 274 298 299
f 299 298 274
f 274 299 275
f 275 299 274
f 275 299 300
f 300 299 275
f 275 300 276
f 276 300 275
f 276 300 301
f 301 300 276
f 276 301 277
f 277 301 276
f 277 301 302
f 302 301 277
f 277 302 278
f 278 302 277
f 278 302 303
f 303 302 278
f 278 303 279
f 279 303 278
f 279 303 304
f 304 303 279
f 279 304 280
f 280 304 279
f 280 304 305
f 305 304 280
f 280 305 281
f 281 305 280
f 281 305 306
f 306 305 281
f 281 306 282
f 282 306 281
f 282 306 307
f 307 306 282
f 282 307 283
f 283 307 282
f 283 307 308
f 308 307 283
f 283 308 284
f 284 308 283
f 284 308 309
f 309 308 284
f 284 309 285
f 285 309 284
f 285 309 310
f 310 309 285
f 285 310 286
f 286 310 285
f 286 310 311
f 311 310 286
f 286 311 287
f 287 311 286
f 287 311 312
f 312 311 287
f 287 312 288
f 288 312 287
f 288 312 289
f 289 312 288
f 288 289 265
f 265 289 288
f 289 313 314
f 314 313 289
f 289 314 290
f 290 314 289
f 290 314 315
f 315 314 290
f 290 315 291
f 291 315 290
f 291 315 316
f 316 315 291
f 291 316 292
f 292 316 291
f 292 316 317
f 317 316 292
f 292 317 293
f 293 317 292
f 293 317 318
f 318 317 293
f 293 318 294
f 294 318 293
f 294 318 319
f 319 318 294
f 294 319 295
f 295 319 294
f 295 319 320
f 320 319 295
f 295 320 296
f 296 320 295
f 296 320 321
f 321 320 296
f 296 321 297
f 297 321 296
f 297 321 322
f 322 321 297
f 297 322 298
f 298 322 297
f 298 322 323
f 323 322 298
f 298 323 299
f 299 323 298
f 299 323 324
f 324 323 299
f 299 324 300
f 300 324 299
f 300 324 325
f 325 324 300
f 300 325 301
f 301 325 300
f 301 325 326
f 326 325 301
f 301 326 302
f 302 326 301
f 302 326 327
f 327 326 302
f 302 327 303
f 303 327 302
f 303 327 328
f 328 327 303
f 303 328 304
f 304 328 303
f 304 328 329
f 329 328 304
f 304 329 305
f 305 329 304
f 305 329 330
f 330 329 305
f 305 330 306
f 306 330 305
f 306 330 331
f 331 330 306
f 306 331 307
f 307 331 306
f 307 331 332
f 332 331 307
f 307 332 308
f 308 332 307
f 308 332 333
f 333 332 308
f 308 333 309
f 309 333 308
f 309 333 334
f 334 333 309
f 309 334 310
f 310 334 309
f 310 334 335
f 335 334 310
f 310 335 311
f 311 335 310
f 311 335 336
f 336 335 311
f 311 336 312
f 312 336 311
f 312 336 313
f 313 336 312
f 312 313 289
f 289 313 312
f 313 337 338
f 338 337 313
f 313 338 314
f 314 338 313
f 314 338 339
f 339 338 314
f 314 339 315
f 315 339 314
f 315 339 340
f 340 339 315
f 315 340 316
f 316 340 315
f 316 340 341
f 341 340 316
f 316 341 317
f 317 341 316
f 317 341 342
f 342 341 317
f 317 342 318
f 318 342 317
f 318 342 343
f 343 342 318
f 318 343 319
f 319 343 318
f 319 343 344
f 344 343 319
f 319 344 320
f 320 344 319
f 320 344 345
f 345 344 320
f 320 345 321
f 321 345 320
f 321 345 346
f 346 345 321
f 321 346 322
f 322 346 321
f 322 346 347
f 347 346 322
f 322 347 323
f 323 347 322
f 323 347 348
f 348 347 323
f 323 348 324
f 324 348 323
f 324 348 349
f 349 348 324
f 324 349 325
f 325 349 324
f 325 349 350
f 350 349 325
f 325 350 326
f 326 350 325
f 326 350 351
f 351 350 326
f 326 351 327
f 327 351 326
f 327 351 352
f 352 351 327
f 327 352 328
f 328 352 327
f 328 352 353
f 353 352 328
f 328 353 329
f 329 353 328
f 329 353 354
f 354 353 329
f 329 354 330
f 330 354 329
f 330 354 355
f 355 354 330
f 330 355 331
f 331 355 330
f 331 355 356
f 356 355 331
f 331 356 332
f 332 356 331
f 332 356 357
f 357 356 332
f 332 357 333
f 333 357 332
f 333 357 358
f 358 357 333
f 333 358 334
f 334 358 333
f 334 358 359
f 359 358 334
f 334 359 335
f 335 359 334
f 335 359 360
f 360 359 335
f 335 360 336
f 336 360 335
f 336 360 337
f 337 360 336
f 336 337 313
f 313 337 336
f 337 361 362
f 362 361 337
f 337 362 338
f 338 362 337
f 338 362 363
f 363 362 338
f 338 363 339
f 339 363 338
f 339 363 364
f 364 363 339
f 339 364 340
f 340 364 339
f 340 364 365
f 365 364 340
f 340 365 341
f 341 365 340
f 341 365 366
f 366 365 341
f 341 366 342
f 342 366 341
f 342 366 367
f 367 366 342
f 342 367 343
f 343 367 342
f 343 367 368
f 368 367 343
f 343 368 344
f 344 368 343
f 344 368 369
f 369 368 344
f 344 369 345
f 345 369 344
f 345 369 370
f 370 369 345
f 345 370 346
f 346 370 345
f 346 370 371
f 371 370 346
f 346 371 347
f 347 371 346
f 347 371 372
f 372 371 347
f 347 372 348
f 348 372 347
f 348 372 373
f 373 372 348
f 348 373 349
f 349 373 348
f 349 373 374
f 374 373 349
f 349 374 350
f 350 374 349
f 350 374 375
f 375 374 350
f 350 375 351
f 351 375 350
f 351 375 376
f 376 375 351
f 351 376 352
f 352 376 351
f 352 376 377
f 377 376 352
f 352 377 353
f 353 377 352
f 353 377 378
f 378 377 353
f 353 378 354
f 354 378 353
f 354 378 379
f 379 378 354
f 354 379 355
f 355 379 354
f 355 379 380
f 380 379 355
f 355 380 356
f 356 380 355
f 356 380 381
f 381 380 356
f 356 381 357
f 357 381 356
f 357 381 382
f 382 381 357
f 357 382 358
f 358 382 357
f 358 382 383
f 383 382 358
f 358 383 359
f 359 383 358
f 359 383 384
f 384 383 359
f 359 384 360
f 360 384 359
f 360 384 361
f 361 384 360
f 360 361 337
f 337 361 360
f 361 385 386
f 386 385 361
f 361 386 362
f 362 386 361
f 362 386 387
f 387 386 362
f 362 387 363
f 363 387 362
f 363 387 388
f 388 387 363
f 363 388 364
f 364 388 363
f 364 388 389
f 389 388 364
f 364 389 365
f 365 389 364
f 365 389 390
f 390 389 365
f 365 390 366
f 366 390 365
f 366 390 391
f 391 390 366
f 366 391 367
f 367 391 366
f 367 391 392
f 392 391 367
f 367 392 368
f 368 392 367
f 368 392 393
f 393 392 368
f 368 393 369
f 369 393 368
f 369 393 394
f 394 393 369
f 369 394 370
f 370 394 369
f 370 394 395
f 395 394 370
f 370 395 371
f 371 395 370
f 371 395 396
f 396 395 371
f 371 396 372
f 372 396 371
f 372 396 397
f 397 396 372
f 372 397 373
f 373 397 372
f 373 397 398
f 398 397 373
f 373 398 374
f 374 398 373
f 374 398 399
f 399 398 374
f 374 399 375
f 375 399 374
f 375 399 400
f 400 399 375
f 375 400 376
f 376 400 375
f 376 400 401
f 401 400 376
f 376 401 377
f 377 401 376
f 377 401 402
f 402 401 377
f 377 402 378
f 378 402 377
f 378 402 403
f 403 402 378
f 378 403 379
f 379 403 378
f 379 403 404
f 404 403 379
f 379 404 380
f 380 404 379
f 380 404 405
f 405 404 380
f 380 405 381
f 381 405 380
f 381 405 406
f 406 405 381
f 381 406 382
f 382 406 381
f 382 406 407
f 407 406 382
f 382 407 383
f 383 407 382
f 383 407 408
f 408 407 383
f 383 408 384
f 384 408 383
f 384 408 385
f 385 408 384
f 384 385 361
f 361 385 384
usemtl soap_light
f 409 429 430
f 430 429 409
f 409 430 410
f 410 430 409
f 410 430 431
f 431 430 410
f 410 431 411
f 411 431 410
f 411 431 432
f 432 431 411
f 411 432 412
f 412 432 411
f 412 432 433
f 433 432 412
f 412 433 413
f 413 433 412
f 413 433 434
f 434 433 413
f 413 434 414
f 414 434 413
f 414 434 435
f 435 434 414
f 414 435 415
f 415 435 414
f 415 435 436
f 436 435 415
f 415 436 416
f 416 436 415
f 416 436 437
f 437 436 416
f 416 437 417
f 417 437 416
f 417 437 438
f 438 437 417
f 417 438 418
f 418 438 417
f 418 438 439
f 439 438 418
f 418 439 419
f 419 439 418
f 419 439 440
f 440 439 419
f 419 440 420
f 420 440 419
f 420 440 441
f 441 440 420
f 420 441 421
f 421 441 420
f 421 441 442
f 442 441 421
f 421 442 422
f 422 442 421
f 422 442 443
f 443 442 422
f 422 443 423
f 423 443 422
f 423 443 444
f 444 443 423
f 423 444 424
f 424 444 423
f 424 444 445
f 445 444 424
f 424 445 425
f 425 445 424
f 425 445 446
f 446 445 425
f 425 446 426
f 426 446 425
f 426 446 447
f 447 446 426
f 426 447 427
f 427 447 426
f 427 447 448
f 448 447 427
f 427 448 428
f 428 448 427
f 428 448 429
f 429 448 428
f 428 429 409
f 409 429 428
f 429 449 450
f 450 449 429
f 429 450 430
f 430 450 429
f 430 450 451
f 451 450 430
f 430 451 431
f 431 451 430
f 431 451 452
f 452 451 431
f 431 452 432
f 432 452 431
f 432 452 453
f 453 452 432
f 432 453 433
f 433 453 432
f 433 453 454
f 454 453 433
f 433 454 434
f 434 454 433
f 434 454 455
f 455 454 434
f 434 455 435
f 435 455 434
f 435 455 456
f 456 455 435
f 435 456 436
f 436 456 435
f 436 456 457
f 457 456 436
f 436 457 437
f 437 457 436
f 437 457 458
f 458 457 437
f 437 458 438
f 438 458 437
f 438 458 459
f 459 458 438
f 438 459 439
f 439 459 438
f 439 459 460
f 460 459 439
f 439 460 440
f 440 460 439
f 440 460 461
f 461 460 440
f 440 461 441
f 441 461 440
f 441 461 462
f 462 461 441
f 441 462 442
f 442 462 441
f 442 462 463
f 463 462 442
f 442 463 443
f 443 463 442
f 443 463 464
f 464 463 443
f 443 464 444
f 444 464 443
f 444 464 465
f 465 464 444
f 444 465 445
f 445 465 444
f 445 465 466
f 466 465 445
f 445 466 446
f 446 466 445
f 446 466 467
f 467 466 446
f 446 467 447
f 447 467 446
f 447 467 468
f 468 467 447
f 447 468 448
f 448 468 447
f 448 468 449
f 449 468 448
f 448 449 429
f 429 449 448
f 449 469 470
f 470 469 449
f 449 470 450
f 450 470 449
f 450 470 471
f 471 470 450
f 450 471 451
f 451 471 450
f 451 471 472
f 472 471 451
f 451 472 452
f 452 472 451
f 452 472 473
f 473 472 452
f 452 473 453
f 453 473 452
f 453 473 474
f 474 473 453
f 453 474 454
f 454 474 453
f 454 474 475
f 475 474 454
f 454 475 455
f 455 475 454
f 455 475 476
f 476 475 455
f 455 476 456
f 456 476 455
f 456 476 477
f 477 476 456
f 456 477 457
f 457 477 456
f 457 477 478
f 478 477 457
f 457 478 458
f 458 478 457
f 458 478 479
f 479 478 458
f 458 479 459
f 459 479 458
f 459 479 480
f 480 479 459
f 459 480 460
f 460 480 459
f 460 480 481
f 481 480 460
f 460 481 461
f 461 481 460
f 461 481 482
f 482 481 461
f 461 482 462
f 462 482 461
f 462 482 483
f 483 482 462
f 462 483 463
f 463 483 462
f 463 483 484
f 484 483 463
f 463 484 464
f 464 484 463
f 464 484 485
f 485 484 464
f 464 485 465
f 465 485 464
f 465 485 486
f 486 485 465
f 465 486 466
f 466 486 465
f 466 486 487
f 487 486 466
f 466 487 467
f 467 487 466
f 467 487 488
f 488 487 467
f 467 488 468
f 468 488 467
f 468 488 469
f 469 488 468
f 468 469 449
f 449 469 468
f 469 489 490
f 490 489 469
f 469 490 470
f 470 490 469
f 470 490 491
f 491 490 470
f 470 491 471
f 471 491 470
f 471 491 492
f 492 491 471
f 471 492 472
f 472 492 471
f 472 492 493
f 493 492 472
f 472 493 473
f 473 493 472
f 473 493 494
f 494 493 473
f 473 494 474
f 474 494 473
f 474 494 495
f 495 494 474
f 474 495 475
f 475 495 474
f 475 495 496
f 496 495 475
f 475 496 476
f 476 496 475
f 476 496 497
f 497 496 476
f 476 497 477
f 477 497 476
f 477 497 498
f 498 497 477
f 477 498 478
f 478 498 477
f 478 498 499
f 499 498 478
f 478 499 479
f 479 499 478
f 479 499 500
f 500 499 479
f 479 500 480
f 480 500 479
f 480 500 501
f 501 500 480
f 480 501 481
f 481 501 480
f 481 501 502
f 502 501 481
f 481 502 482
f 482 502 481
f 482 502 503
f 503 502 482
f 482 503 483
f 483 503 482
f 483 503 504
f 504 503 483
f 483 504 484
f 484 504 483
f 484 504 505
f 505 504 484
f 484 505 485
f 485 505 484
f 485 505 506
f 506 505 485
f 485 506 486
f 486 506 485
f 486 506 507
f 507 506 486
f 486 507 487
f 487 507 486
f 487 507 508
f 508 507 487
f 487 508 488
f 488 508 487
f 488 508 489
f 489 508 488
f 488 489 469
f 469 489 488
f 489 509 510
f 510 509 489
f 489 510 490
f 490 510 489
f 490 510 511
f 511 510 490
f 490 511 491
f 491 511 490
f 491 511 512
f 512 511 491
f 491 512 492
f 492 512 491
f 492 512 513
f 513 512 492
f 492 513 493
f 493 513 492
f 493 513 514
f 514 513 493
f 493 514 494
f 494 514 493
f 494 514 515
f 515 514 494
f 494 515 495
f 495 515 494
f 495 515 516
f 516 515 495
f 495 516 496
f 496 516 495
f 496 516 517
f 517 516 496
f 496 517 497
f 497 517 496
f 497 517 518
f 518 517 497
f 497 518 498
f 498 518 497
f 498 518 519
f 519 518 498
f 498 519 499
f 499 519 498
f 499 519 520
f 520 519 499
f 499 520 500
f 500 520 499
f 500 520 521
f 521 520 500
f 500 521 501
f 501 521 500
f 501 521 522
f 522 521 501
f 501 522 502
f 502 522 501
f 502 522 523
f 523 522 502
f 502 523 503
f 503 523 502
f 503 523 524
f 524 523 503
f 503 524 504
f 504 524 503
f 504 524 525
f 525 524 504
f 504 525 505
f 505 525 504
f 505 525 526
f 526 525 505
f 505 526 506
f 506 526 505
f 506 526 527
f 527 526 506
f 506 527 507
f 507 527 506
f 507 527 528
f 528 527 507
f 507 528 508
f 508 528 507
f 508 528 509
f 509 528 508
f 508 509 489
f 489 509 508
f 509 529 530
f 530 529 509
f 509 530 510
f 510 530 509
f 510 530 531
f 531 530 510
f 510 531 511
f 511 531 510
f 511 531 532
f 532 531 511
f 511 532 512
f 512 532 511
f 512 532 533
f 533 532 512
f 512 533 513
f 513 533 512
f 513 533 534
f 534 533 513
f 513 534 514
f 514 534 513
f 514 534 535
f 535 534 514
f 514 535 515
f 515 535 514
f 515 535 536
f 536 535 515
f 515 536 516
f 516 536 515
f 516 536 537
f 537 536 516
f 516 537 517
f 517 537 516
f 517 537 538
f 538 537 517
f 517 538 518
f 518 538 517
f 518 538 539
f 539 538 518
f 518 539 519
f 519 539 518
f 519 539 540
f 540 539 519
f 519 540 520
f 520 540 519
f 520 540 541
f 541 540 520
f 520 541 521
f 521 541 520
f 521 541 542
f 542 541 521
f 521 542 522
f 522 542 521
f 522 542 543
f 543 542 522
f 522 543 523
f 523 543 522
f 523 543 544
f 544 543 523
f 523 544 524
f 524 544 523
f 524 544 545
f 545 544 524
f 524 545 525
f 525 545 524
f 525 545 546
f 546 545 525
f 525 546 526
f 526 546 525
f 526 546 547
f 547 546 526
f 526 547 527
f 527 547 526
f 527 547 548
f 548 547 527
f 527 548 528
f 528 548 527
f 528 548 529
f 529 548 528
f 528 529 509
f 509 529 528
f 529 549 550
f 550 549 529
f 529 550 530
f 530 550 529
f 530 550 551
f 551 550 530
f 530 551 531
f 531 551 530
f 531 551 552
f 552 551 531
f 531 552 532
f 532 552 531
f 532 552 553
f 553 552 532
f 532 553 533
f 533 553 532
f 533 553 554
f 554 553 533
f 533 554 534
f 534 554 533
f 534 554 555
f 555 554 534
f 534 555 535
f 535 555 534
f 535 555 556
f 556 555 535
f 535 556 536
f 536 556 535
f 536 556 557
f 557 556 536
f 536 557 537
f 537 557 536
f 537 557 558
f 558 557 537
f 537 558 538
f 538 558 537
f 538 558 559
f 559 558 538
f 538 559 539
f 539 559 538
f 539 559 560
f 560 559 539
f 539 560 540
f 540 560 539
f 540 560 561
f 561 560 540
f 540 561 541
f 541 561 540
f 541 561 562
f 562 561 541
f 541 562 542
f 542 562 541
f 542 562 563
f 563 562 542
f 542 563 543
f 543 563 542
f 543 563 564
f 564 563 543
f 543 564 544
f 544 564 543
f 544 564 565
f 565 564 544
f 544 565 545
f 545 565 544
f 545 565 566
f 566 565 545
f 545 566 546
f 546 566 545
f 546 566 567
f 567 566 546
f 546 567 547
f 547 567 546
f 547 567 568
f 568 567 547
f 547 568 548
f 548 568 547
f 548 568 549
f 549 568 548
f 548 549 529
f 529 549 548
f 549 569 570
f 570 569 549
f 549 570 550
f 550 570 549
f 550 570 571
f 571 570 550
f 550 571 551
f 551 571 550
f 551 571 572
f 572 571 551
f 551 572 552
f 552 572 551
f 552 572 573
f 573 572 552
f 552 573 553
f 553 573 552
f 553 573 574
f 574 573 553
f 553 574 554
f 554 574 553
f 554 574 575
f 575 574 554
f 554 575 555
f 555 575 554
f 555 575 576
f 576 575 555
f 555 576 556
f 556 576 555
f 556 576 577
f 577 576 556
f 556 577 557
f 557 577 556
f 557 577 578
f 578 577 557
f 557 578 558
f 558 578 557
f 558 578 579
f 579 578 558
f 558 579 559
f 559 579 558
f 559 579 580
f 580 579 559
f 559 580 560
f 560 580 559
f 560 580 581
f 581 580 560
f 560 581 561
f 561 581 560
f 561 581 582
f 582 581 561
f 561 582 562
f 562 582 561
f 562 582 583
f 583 582 562
f 562 583 563
f 563 583 562
f 563 583 584
f 584 583 563
f 563 584 564
f 564 584 563
f 564 584 585
f 585 584 564
f 564 585 565
f 565 585 564
f 565 585 586
f 586 585 565
f 565 586 566
f 566 586 565
f 566 586 587
f 587 586 566
f 566 587 567
f 567 587 566
f 567 587 588
f 588 587 567
f 567 588 568
f 568 588 567
f 568 588 569
f 569 588 568
f 568 569 549
f 549 569 568
f 569 589 590
f 590 589 569
f 569 590 570
f 570 590 569
f 570 590 591
f 591 590 570
f 570 591 571
f 571 591 570
f 571 591 592
f 592 591 571
f 571 592 572
f 572 592 571
f 572 592 593
f 593 592 572
f 572 593 573
f 573 593 572
f 573 593 594
f 594 593 573
f 573 594 574
f 574 594 573
f 574 594 595
f 595 594 574
f 574 595 575
f 575 595 574
f 575 595 596
f 596 595 575
f 575 596 576
f 576 596 575
f 576 596 597
f 597 596 576
f 576 597 577
f 577 597 576
f 577 597 598
f 598 597 577
f 577 598 578
f 578 598 577
f 578 598 599
f 599 598 578
f 578 599 579
f 579 599 578
f 579 599 600
f 600 599 579
f 579 600 580
f 580 600 579
f 580 600 601
f 601 600 580
f 580 601 581
f 581 601 580
f 581 601 602
f 602 601 581
f 581 602 582
f 582 602 581
f 582 602 603
f 603 602 582
f 582 603 583
f 583 603 582
f 583 603 604
f 604 603 583
f 583 604 584
f 584 604 583
f 584 604 605
f 605 604 584
f 584 605 585
f 585 605 584
f 585 605 606
f 606 605 585
f 585 606 586
f 586 606 585
f 586 606 607
f 607 606 586
f 586 607 587
f 587 607 586
f 587 607 608
f 608 607 587
f 587 608 588
f 588 608 587
f 588 608 589
f 589 608 588
f 588 589 569
f 569 589 588
f 589 609 610
f 610 609 589
f 589 610 590
f 590 610 589
f 590 610 611
f 611 610 590
f 590 611 591
f 591 611 590
f 591 611 612
f 612 611 591
f 591 612 592
f 592 612 591
f 592 612 613
f 613 612 592
f 592 613 593
f 593 613 592
f 593 613 614
f 614 613 593
f 593 614 594
f 594 614 593
f 594 614 615
f 615 614 594
f 594 615 595
f 595 615 594
f 595 615 616
f 616 615 595
f 595 616 596
f 596 616 595
f 596 616 617
f 617 616 596
f 596 617 597
f 597 617 596
f 597 617 618
f 618 617 597
f 597 618 598
f 598 618 597
f 598 618 619
f 619 618 598
f 598 619 599
f 599 619 598
f 599 619 620
f 620 619 599
f 599 620 600
f 600 620 599
f 600 620 621
f 621 620 600
f 600 621 601
f 601 621 600
f 601 621 622
f 622 621 601
f 601 622 602
f 602 622 601
f 602 622 623
f 623 622 602
f 602 623 603
f 603 623 602
f 603 623 624
f 624 623 603
f 603 624 604
f 604 624 603
f 604 624 625
f 625 624 604
f 604 625 605
f 605 625 604
f 605 625 626
f 626 625 605
f 605 626 606
f 606 626 605
f 606 626 627
f 627 626 606
f 606 627 607
f 607 627 606
f 607 627 628
f 628 627 607
f 607 628 608
f 608 628 607
f 608 628 609
f 609 628 608
f 608 609 589
f 589 609 608
f 609 629 630
f 630 629 609
f 609 630 610
f 610 630 609
f 610 630 631
f 631 630 610
f 610 631 611
f 611 631 610
f 611 631 632
f 632 631 611
f 611 632 612
f 612 632 611
f 612 632 633
f 633 632 612
f 612 633 613
f 613 633 612
f 613 633 634
f 634 633 613
f 613 634 614
f 614 634 613
f 614 634 635
f 635 634 614
f 614 635 615
f 615 635 614
f 615 635 636
f 636 635 615
f 615 636 616
f 616 636 615
f 616 636 637
f 637 636 616
f 616 637 617
f 617 637 616
f 617 637 638
f 638 637 617
f 617 638 618
f 618 638 617
f 618 638 639
f 639 638 618
f 618 639 619
f 619 639 618
f 619 639 640
f 640 639 619
f 619 640 620
f 620 640 619
f 620 640 641
f 641 640 620
f 620 641 621
f 621 641 620
f 621 641 642
f 642 641 621
f 621 642 622
f 622 642 621
f 622 642 643
f 643 642 622
f 622 643 623
f 623 643 622
f 623 643 644
f 644 643 623
f 623 644 624
f 624 644 623
f 624 644 645
f 645 644 624
f 624 645 625
f 625 645 624
f 625 645 646
f 646 645 625
f 625 646 626
f 626 646 625
f 626 646 647
f 647 646 626
f 626 647 627
f 627 647 626
f 627 647 648
f 648 647 627
f 627 648 628
f 628 648 627
f 628 648 629
f 629 648 628
f 628 629 609
f 609 629 628
f 629 649 650
f 650 649 629
f 629 650 630
f 630 650 629
f 630 650 651
f 651 650 630
f 630 651 631
f 631 651 630
f 631 651 652
f 652 651 631
f 631 652 632
f 632 652 631
f 632 652 653
f 653 652 632
f 632 653 633
f 633 653 632
f 633 653 654
f 654 653 633
f 633 654 634
f 634 654 633
f 634 654 655
f 655 654 634
f 634 655 635
f 635 655 634
f 635 655 656
f 656 655 635
f 635 656 636
f 636 656 635
f 636 656 657
f 657 656 636
f 636 657 637
f 637 657 636
f 637 657 658
f 658 657 637
f 637 658 638
f 638 658 637
f 638 658 659
f 659 658 638
f 638 659 639
f 639 659 638
f 639 659 660
f 660 659 639
f 639 660 640
f 640 660 639
f 640 660 661
f 661 660 640
f 640 661 641
f 641 661 640
f 641 661 662
f 662 661 641
f 641 662 642
f 642 662 641
f 642 662 663
f 663 662 642
f 642 663 643
f 643 663 642
f 643 663 664
f 664 663 643
f 643 664 644
f 644 664 643
f 644 664 665
f 665 664 644
f 644 665 645
f 645 665 644
f 645 665 666
f 666 665 645
f 645 666 646
f 646 666 645
f 646 666 667
f 667 666 646
f 646 667 647
f 647 667 646
f 647 667 668
f 668 667 647
f 647 668 648
f 648 668 647
f 648 668 649
f 649 668 648
f 648 649 629
f 629 649 648
