mtllib tomato.mtl
v 0.0000 0.4600 0.0000
v 0.0000 0.4600 0.0000
v 0.0000 0.4600 0.0000
v 0.0000 0.4600 0.0000
v 0.0000 0.4600 0.0000
v 0.0000 0.4600 0.0000
v 0.0000 0.4600 0.0000
v 0.0000 0.4600 0.0000
v 0.0000 0.4600 0.0000
v 0.0000 0.4600 0.0000
v 0.0000 0.4600 0.0000
v 0.0000 0.4600 0.0000
v 0.0000 0.4600 0.0000
v 0.0000 0.4600 0.0000
v 0.0000 0.4600 0.0000
v 0.0000 0.4600 0.0000
v 0.0000 0.4600 0.0000
v 0.0000 0.4600 0.0000
v 0.0000 0.4600 0.0000
v 0.0000 0.4600 0.0000
v 0.0000 0.4600 0.0000
v 0.0000 0.4600 0.0000
v 0.0000 0.4600 0.0000
v 0.0000 0.4600 0.0000
v 0.0912 0.4530 0.0000
v 0.0881 0.4530 0.0236
v 0.0790 0.4530 0.0456
v 0.0645 0.4530 0.0645
v 0.0456 0.4530 0.0790
v 0.0236 0.4530 0.0881
v 0.0000 0.4530 0.0912
v -0.0236 0.4530 0.0881
v -0.0456 0.4530 0.0790
v -0.0645 0.4530 0.0645
v -0.0790 0.4530 0.0456
v -0.0881 0.4530 0.0236
v -0.0912 0.4530 0.0000
v -0.0881 0.4530 -0.0236
v -0.0790 0.4530 -0.0456
v -0.0645 0.4530 -0.0645
v -0.0456 0.4530 -0.0790
v -0.0236 0.4530 -0.0881
v -0.0000 0.4530 -0.0912
v 0.0236 0.4530 -0.0881
v 0.0456 0.4530 -0.0790
v 0.0645 0.4530 -0.0645
v 0.0790 0.4530 -0.0456
v 0.0881 0.4530 -0.0236
v 0.1796 0.4323 0.0000
v 0.1734 0.4323 0.0465
v 0.1555 0.4323 0.0898
v 0.1270 0.4323 0.1270
v 0.0898 0.4323 0.1555
v 0.0465 0.4323 0.1734
v 0.0000 0.4323 0.1796
v -0.0465 0.4323 0.1734
v -0.0898 0.4323 0.1555
v -0.1270 0.4323 0.1270
v -0.1555 0.4323 0.0898
v -0.1734 0.4323 0.0465
v -0.1796 0.4323 0.0000
v -0.1734 0.4323 -0.0465
v -0.1555 0.4323 -0.0898
v -0.1270 0.4323 -0.1270
v -0.0898 0.4323 -0.1555
v -0.0465 0.4323 -0.1734
v -0.0000 0.4323 -0.1796
v 0.0465 0.4323 -0.1734
v 0.0898 0.4323 -0.1555
v 0.1270 0.4323 -0.1270
v 0.1555 0.4323 -0.0898
v 0.1734 0.4323 -0.0465
v 0.2625 0.3984 0.0000
v 0.2536 0.3984 0.0679
v 0.2273 0.3984 0.1312
v 0.1856 0.3984 0.1856
v 0.1313 0.3984 0.2273
v 0.0679 0.3984 0.2536
v 0.0000 0.3984 0.2625
v -0.0679 0.3984 0.2536
v -0.1312 0.3984 0.2273
v -0.1856 0.3984 0.1856
v -0.2273 0.3984 0.1312
v -0.2536 0.3984 0.0679
v -0.2625 0.3984 0.0000
v -0.2536 0.3984 -0.0679
v -0.2273 0.3984 -0.1312
v -0.1856 0.3984 -0.1856
v -0.1313 0.3984 -0.2273
v -0.0679 0.3984 -0.2536
v -0.0000 0.3984 -0.2625
v 0.0679 0.3984 -0.2536
v 0.1313 0.3984 -0.2273
v 0.1856 0.3984 -0.1856
v 0.2273 0.3984 -0.1313
v 0.2536 0.3984 -0.0679
v 0.3375 0.3524 0.0000
v 0.3260 0.3524 0.0873
v 0.2923 0.3524 0.1687
v 0.2386 0.3524 0.2386
v 0.1687 0.3524 0.2923
v 0.0873 0.3524 0.3260
v 0.0000 0.3524 0.3375
v -0.0873 0.3524 0.3260
v -0.1687 0.3524 0.2923
v -0.2386 0.3524 0.2386
v -0.2923 0.3524 0.1687
v -0.3260 0.3524 0.0873
v -0.3375 0.3524 0.0000
v -0.3260 0.3524 -0.0873
v -0.2923 0.3524 -0.1687
v -0.2386 0.3524 -0.2386
v -0.1687 0.3524 -0.2923
v -0.0873 0.3524 -0.3260
v -0.0000 0.3524 -0.3375
v 0.0873 0.3524 -0.3260
v 0.1687 0.3524 -0.2923
v 0.2386 0.3524 -0.2386
v 0.2923 0.3524 -0.1687
v 0.3260 0.3524 -0.0873
v 0.4022 0.2957 0.0000
v 0.3885 0.2957 0.1041
v 0.3483 0.2957 0.2011
v 0.2844 0.2957 0.2844
v 0.2011 0.2957 0.3483
v 0.1041 0.2957 0.3885
v 0.0000 0.2957 0.4022
v -0.1041 0.2957 0.3885
v -0.2011 0.2957 0.3483
v -0.2844 0.2957 0.2844
v -0.3483 0.2957 0.2011
v -0.3885 0.2957 0.1041
v -0.4022 0.2957 0.0000
v -0.3885 0.2957 -0.1041
v -0.3483 0.2957 -0.2011
v -0.2844 0.2957 -0.2844
v -0.2011 0.2957 -0.3483
v -0.1041 0.2957 -0.3885
v -0.0000 0.2957 -0.4022
v 0.1041 0.2957 -0.3885
v 0.2011 0.2957 -0.3483
v 0.2844 0.2957 -0.2844
v 0.3483 0.2957 -0.2011
v 0.3885 0.2957 -0.1041
v 0.4547 0.2300 0.0000
v 0.4392 0.2300 0.1177
v 0.3938 0.2300 0.2273
v 0.3215 0.2300 0.3215
v 0.2273 0.2300 0.3937
v 0.1177 0.2300 0.4392
v 0.0000 0.2300 0.4547
v -0.1177 0.2300 0.4392
v -0.2273 0.2300 0.3938
v -0.3215 0.2300 0.3215
v -0.3938 0.2300 0.2273
v -0.4392 0.2300 0.1177
v -0.4547 0.2300 0.0000
v -0.4392 0.2300 -0.1177
v -0.3938 0.2300 -0.2273
v -0.3215 0.2300 -0.3215
v -0.2273 0.2300 -0.3937
v -0.1177 0.2300 -0.4392
v -0.0000 0.2300 -0.4547
v 0.1177 0.2300 -0.4392
v 0.2273 0.2300 -0.3937
v 0.3215 0.2300 -0.3215
v 0.3937 0.2300 -0.2273
v 0.4392 0.2300 -0.1177
v 0.4933 0.1573 0.0000
v 0.4765 0.1573 0.1277
v 0.4272 0.1573 0.2467
v 0.3488 0.1573 0.3488
v 0.2467 0.1573 0.4272
v 0.1277 0.1573 0.4765
v 0.0000 0.1573 0.4933
v -0.1277 0.1573 0.4765
v -0.2467 0.1573 0.4272
v -0.3488 0.1573 0.3488
v -0.4272 0.1573 0.2467
v -0.4765 0.1573 0.1277
v -0.4933 0.1573 0.0000
v -0.4765 0.1573 -0.1277
v -0.4272 0.1573 -0.2467
v -0.3488 0.1573 -0.3488
v -0.2467 0.1573 -0.4272
v -0.1277 0.1573 -0.4765
v -0.0000 0.1573 -0.4933
v 0.1277 0.1573 -0.4765
v 0.2467 0.1573 -0.4272
v 0.3488 0.1573 -0.3488
v 0.4272 0.1573 -0.2467
v 0.4765 0.1573 -0.1277
v 0.5170 0.0799 0.0000
v 0.4994 0.0799 0.1338
v 0.4478 0.0799 0.2585
v 0.3656 0.0799 0.3656
v 0.2585 0.0799 0.4478
v 0.1338 0.0799 0.4994
v 0.0000 0.0799 0.5170
v -0.1338 0.0799 0.4994
v -0.2585 0.0799 0.4478
v -0.3656 0.0799 0.3656
v -0.4478 0.0799 0.2585
v -0.4994 0.0799 0.1338
v -0.5170 0.0799 0.0000
v -0.4994 0.0799 -0.1338
v -0.4478 0.0799 -0.2585
v -0.3656 0.0799 -0.3656
v -0.2585 0.0799 -0.4478
v -0.1338 0.0799 -0.4994
v -0.0000 0.0799 -0.5170
v 0.1338 0.0799 -0.4994
v 0.2585 0.0799 -0.4478
v 0.3656 0.0799 -0.3656
v 0.4478 0.0799 -0.2585
v 0.4994 0.0799 -0.1338
v 0.5250 0.0000 0.0000
v 0.5071 0.0000 0.1359
v 0.4547 0.0000 0.2625
v 0.3712 0.0000 0.3712
v 0.2625 0.0000 0.4547
v 0.1359 0.0000 0.5071
v 0.0000 0.0000 0.5250
v -0.1359 0.0000 0.5071
v -0.2625 0.0000 0.4547
v -0.3712 0.0000 0.3712
v -0.4547 0.0000 0.2625
v -0.5071 0.0000 0.1359
v -0.5250 0.0000 0.0000
v -0.5071 0.0000 -0.1359
v -0.4547 0.0000 -0.2625
v -0.3712 0.0000 -0.3712
v -0.2625 0.0000 -0.4547
v -0.1359 0.0000 -0.5071
v -0.0000 0.0000 -0.5250
v 0.1359 0.0000 -0.5071
v 0.2625 0.0000 -0.4547
v 0.3712 0.0000 -0.3712
v 0.4547 0.0000 -0.2625
v 0.5071 0.0000 -0.1359
v 0.5170 -0.0799 0.0000
v 0.4994 -0.0799 0.1338
v 0.4478 -0.0799 0.2585
v 0.3656 -0.0799 0.3656
v 0.2585 -0.0799 0.4478
v 0.1338 -0.0799 0.4994
v 0.0000 -0.0799 0.5170
v -0.1338 -0.0799 0.4994
v -0.2585 -0.0799 0.4478
v -0.3656 -0.0799 0.3656
v -0.4478 -0.0799 0.2585
v -0.4994 -0.0799 0.1338
v -0.5170 -0.0799 0.0000
v -0.4994 -0.0799 -0.1338
v -0.4478 -0.0799 -0.2585
v -0.3656 -0.0799 -0.3656
v -0.2585 -0.0799 -0.4478
v -0.1338 -0.0799 -0.4994
v -0.0000 -0.0799 -0.5170
v 0.1338 -0.0799 -0.4994
v 0.2585 -0.0799 -0.4478
v 0.3656 -0.0799 -0.3656
v 0.4478 -0.0799 -0.2585
v 0.4994 -0.0799 -0.1338
v 0.4933 -0.1573 0.0000
v 0.4765 -0.1573 0.1277
v 0.4272 -0.1573 0.2467
v 0.3488 -0.1573 0.3488
v 0.2467 -0.1573 0.4272
v 0.1277 -0.1573 0.4765
v 0.0000 -0.1573 0.4933
v -0.1277 -0.1573 0.4765
v -0.2467 -0.1573 0.4272
v -0.3488 -0.1573 0.3488
v -0.4272 -0.1573 0.2467
v -0.4765 -0.1573 0.1277
v -0.4933 -0.1573 0.0000
v -0.4765 -0.1573 -0.1277
v -0.4272 -0.1573 -0.2467
v -0.3488 -0.1573 -0.3488
v -0.2467 -0.1573 -0.4272
v -0.1277 -0.1573 -0.4765
v -0.0000 -0.1573 -0.4933
v 0.1277 -0.1573 -0.4765
v 0.2467 -0.1573 -0.4272
v 0.3488 -0.1573 -0.3488
v 0.4272 -0.1573 -0.2467
v 0.4765 -0.1573 -0.1277
v 0.4547 -0.2300 0.0000
v 0.4392 -0.2300 0.1177
v 0.3938 -0.2300 0.2273
v 0.3215 -0.2300 0.3215
v 0.2273 -0.2300 0.3938
v 0.1177 -0.2300 0.4392
v 0.0000 -0.2300 0.4547
v -0.1177 -0.2300 0.4392
v -0.2273 -0.2300 0.3938
v -0.3215 -0.2300 0.3215
v -0.3938 -0.2300 0.2273
v -0.4392 -0.2300 0.1177
v -0.4547 -0.2300 0.0000
v -0.4392 -0.2300 -0.1177
v -0.3938 -0.2300 -0.2273
v -0.3215 -0.2300 -0.3215
v -0.2273 -0.2300 -0.3937
v -0.1177 -0.2300 -0.4392
v -0.0000 -0.2300 -0.4547
v 0.1177 -0.2300 -0.4392
v 0.2273 -0.2300 -0.3938
v 0.3215 -0.2300 -0.3215
v 0.3937 -0.2300 -0.2273
v 0.4392 -0.2300 -0.1177
v 0.4022 -0.2957 0.0000
v 0.3885 -0.2957 0.1041
v 0.3483 -0.2957 0.2011
v 0.2844 -0.2957 0.2844
v 0.2011 -0.2957 0.3483
v 0.1041 -0.2957 0.3885
v 0.0000 -0.2957 0.4022
v -0.1041 -0.2957 0.3885
v -0.2011 -0.2957 0.3483
v -0.2844 -0.2957 0.2844
v -0.3483 -0.2957 0.2011
v -0.3885 -0.2957 0.1041
v -0.4022 -0.2957 0.0000
v -0.3885 -0.2957 -0.1041
v -0.3483 -0.2957 -0.2011
v -0.2844 -0.2957 -0.2844
v -0.2011 -0.2957 -0.3483
v -0.1041 -0.2957 -0.3885
v -0.0000 -0.2957 -0.4022
v 0.1041 -0.2957 -0.3885
v 0.2011 -0.2957 -0.3483
v 0.2844 -0.2957 -0.2844
v 0.3483 -0.2957 -0.2011
v 0.3885 -0.2957 -0.1041
v 0.3375 -0.3524 0.0000
v 0.3260 -0.3524 0.0873
v 0.2923 -0.3524 0.1687
v 0.2386 -0.3524 0.2386
v 0.1687 -0.3524 0.2923
v 0.0873 -0.3524 0.3260
v 0.0000 -0.3524 0.3375
v -0.0873 -0.3524 0.3260
v -0.1687 -0.3524 0.2923
v -0.2386 -0.3524 0.2386
v -0.2923 -0.3524 0.1687
v -0.3260 -0.3524 0.0873
v -0.3375 -0.3524 0.0000
v -0.3260 -0.3524 -0.0873
v -0.2923 -0.3524 -0.1687
v -0.2386 -0.3524 -0.2386
v -0.1687 -0.3524 -0.2923
v -0.0873 -0.3524 -0.3260
v -0.0000 -0.3524 -0.3375
v 0.0873 -0.3524 -0.3260
v 0.1687 -0.3524 -0.2923
v 0.2386 -0.3524 -0.2386
v 0.2923 -0.3524 -0.1687
v 0.3260 -0.3524 -0.0873
v 0.2625 -0.3984 0.0000
v 0.2536 -0.3984 0.0679
v 0.2273 -0.3984 0.1313
v 0.1856 -0.3984 0.1856
v 0.1313 -0.3984 0.2273
v 0.0679 -0.3984 0.2536
v 0.0000 -0.3984 0.2625
v -0.0679 -0.3984 0.2536
v -0.1313 -0.3984 0.2273
v -0.1856 -0.3984 0.1856
v -0.2273 -0.3984 0.1313
v -0.2536 -0.3984 0.0679
v -0.2625 -0.3984 0.0000
v -0.2536 -0.3984 -0.0679
v -0.2273 -0.3984 -0.1313
v -0.1856 -0.3984 -0.1856
v -0.1313 -0.3984 -0.2273
v -0.0679 -0.3984 -0.2536
v -0.0000 -0.3984 -0.2625
v 0.0679 -0.3984 -0.2536
v 0.1313 -0.3984 -0.2273
v 0.1856 -0.3984 -0.1856
v 0.2273 -0.3984 -0.1313
v 0.2536 -0.3984 -0.0679
v 0.1796 -0.4323 0.0000
v 0.1734 -0.4323 0.0465
v 0.1555 -0.4323 0.0898
v 0.1270 -0.4323 0.1270
v 0.0898 -0.4323 0.1555
v 0.0465 -0.4323 0.1734
v 0.0000 -0.4323 0.1796
v -0.0465 -0.4323 0.1734
v -0.0898 -0.4323 0.1555
v -0.1270 -0.4323 0.1270
v -0.1555 -0.4323 0.0898
v -0.1734 -0.4323 0.0465
v -0.1796 -0.4323 0.0000
v -0.1734 -0.4323 -0.0465
v -0.1555 -0.4323 -0.0898
v -0.1270 -0.4323 -0.1270
v -0.0898 -0.4323 -0.1555
v -0.0465 -0.4323 -0.1734
v -0.0000 -0.4323 -0.1796
v 0.0465 -0.4323 -0.1734
v 0.0898 -0.4323 -0.1555
v 0.1270 -0.4323 -0.1270
v 0.1555 -0.4323 -0.0898
v 0.1734 -0.4323 -0.0465
v 0.0912 -0.4530 0.0000
v 0.0881 -0.4530 0.0236
v 0.0790 -0.4530 0.0456
v 0.0645 -0.4530 0.0645
v 0.0456 -0.4530 0.0790
v 0.0236 -0.4530 0.0881
v 0.0000 -0.4530 0.0912
v -0.0236 -0.4530 0.0881
v -0.0456 -0.4530 0.0790
v -0.0645 -0.4530 0.0645
v -0.0790 -0.4530 0.0456
v -0.0881 -0.4530 0.0236
v -0.0912 -0.4530 0.0000
v -0.0881 -0.4530 -0.0236
v -0.0790 -0.4530 -0.0456
v -0.0645 -0.4530 -0.0645
v -0.0456 -0.4530 -0.0790
v -0.0236 -0.4530 -0.0881
v -0.0000 -0.4530 -0.0912
v 0.0236 -0.4530 -0.0881
v 0.0456 -0.4530 -0.0790
v 0.0645 -0.4530 -0.0645
v 0.0790 -0.4530 -0.0456
v 0.0881 -0.4530 -0.0236
v 0.0000 -0.4600 0.0000
v 0.0000 -0.4600 0.0000
v 0.0000 -0.4600 0.0000
v 0.0000 -0.4600 0.0000
v 0.0000 -0.4600 0.0000
v 0.0000 -0.4600 0.0000
v 0.0000 -0.4600 0.0000
v -0.0000 -0.4600 0.0000
v -0.0000 -0.4600 0.0000
v -0.0000 -0.4600 0.0000
v -0.0000 -0.4600 0.0000
v -0.0000 -0.4600 0.0000
v -0.0000 -0.4600 0.0000
v -0.0000 -0.4600 -0.0000
v -0.0000 -0.4600 -0.0000
v -0.0000 -0.4600 -0.0000
v -0.0000 -0.4600 -0.0000
v -0.0000 -0.4600 -0.0000
v -0.0000 -0.4600 -0.0000
v 0.0000 -0.4600 -0.0000
v 0.0000 -0.4600 -0.0000
v 0.0000 -0.4600 -0.0000
v 0.0000 -0.4600 -0.0000
v 0.0000 -0.4600 -0.0000
v 0.1500 0.4920 0.0000
v 0.1500 0.4920 0.0000
v 0.1500 0.4920 0.0000
v 0.1500 0.4920 0.0000
v 0.1500 0.4920 0.0000
v 0.1500 0.4920 0.0000
v 0.1500 0.4920 0.0000
v 0.1500 0.4920 0.0000
v 0.2690 0.4864 0.0000
v 0.2341 0.4864 0.0346
v 0.1500 0.4864 0.0490
v 0.0659 0.4864 0.0346
v 0.0310 0.4864 0.0000
v 0.0659 0.4864 -0.0346
v 0.1500 0.4864 -0.0490
v 0.2341 0.4864 -0.0346
v 0.3561 0.4710 0.0000
v 0.2957 0.4710 0.0600
v 0.1500 0.4710 0.0849
v 0.0043 0.4710 0.0600
v -0.0561 0.4710 0.0000
v 0.0043 0.4710 -0.0600
v 0.1500 0.4710 -0.0849
v 0.2957 0.4710 -0.0600
v 0.3880 0.4500 0.0000
v 0.3183 0.4500 0.0693
v 0.1500 0.4500 0.0980
v -0.0183 0.4500 0.0693
v -0.0880 0.4500 0.0000
v -0.0183 0.4500 -0.0693
v 0.1500 0.4500 -0.0980
v 0.3183 0.4500 -0.0693
v 0.3561 0.4290 0.0000
v 0.2957 0.4290 0.0600
v 0.1500 0.4290 0.0849
v 0.0043 0.4290 0.0600
v -0.0561 0.4290 0.0000
v 0.0043 0.4290 -0.0600
v 0.1500 0.4290 -0.0849
v 0.2957 0.4290 -0.0600
v 0.2690 0.4136 0.0000
v 0.2341 0.4136 0.0346
v 0.1500 0.4136 0.0490
v 0.0659 0.4136 0.0346
v 0.0310 0.4136 0.0000
v 0.0659 0.4136 -0.0346
v 0.1500 0.4136 -0.0490
v 0.2341 0.4136 -0.0346
v 0.1500 0.4080 0.0000
v 0.1500 0.4080 0.0000
v 0.1500 0.4080 0.0000
v 0.1500 0.4080 0.0000
v 0.1500 0.4080 0.0000
v 0.1500 0.4080 -0.0000
v 0.1500 0.4080 -0.0000
v 0.1500 0.4080 -0.0000
v 0.0750 0.4920 0.1299
v 0.0750 0.4920 0.1299
v 0.0750 0.4920 0.1299
v 0.0750 0.4920 0.1299
v 0.0750 0.4920 0.1299
v 0.0750 0.4920 0.1299
v 0.0750 0.4920 0.1299
v 0.0750 0.4920 0.1299
v 0.1940 0.4864 0.1299
v 0.1591 0.4864 0.1646
v 0.0750 0.4864 0.1789
v -0.0091 0.4864 0.1646
v -0.0440 0.4864 0.1299
v -0.0091 0.4864 0.0953
v 0.0750 0.4864 0.0809
v 0.1591 0.4864 0.0953
v 0.2811 0.4710 0.1299
v 0.2207 0.4710 0.1899
v 0.0750 0.4710 0.2148
v -0.0707 0.4710 0.1899
v -0.1311 0.4710 0.1299
v -0.0707 0.4710 0.0699
v 0.0750 0.4710 0.0450
v 0.2207 0.4710 0.0699
v 0.3130 0.4500 0.1299
v 0.2433 0.4500 0.1992
v 0.0750 0.4500 0.2279
v -0.0933 0.4500 0.1992
v -0.1630 0.4500 0.1299
v -0.0933 0.4500 0.0606
v 0.0750 0.4500 0.0319
v 0.2433 0.4500 0.0606
v 0.2811 0.4290 0.1299
v 0.2207 0.4290 0.1899
v 0.0750 0.4290 0.2148
v -0.0707 0.4290 0.1899
v -0.1311 0.4290 0.1299
v -0.0707 0.4290 0.0699
v 0.0750 0.4290 0.0450
v 0.2207 0.4290 0.0699
v 0.1940 0.4136 0.1299
v 0.1591 0.4136 0.1646
v 0.0750 0.4136 0.1789
v -0.0091 0.4136 0.1646
v -0.0440 0.4136 0.1299
v -0.0091 0.4136 0.0953
v 0.0750 0.4136 0.0809
v 0.1591 0.4136 0.0953
v 0.0750 0.4080 0.1299
v 0.0750 0.4080 0.1299
v 0.0750 0.4080 0.1299
v 0.0750 0.4080 0.1299
v 0.0750 0.4080 0.1299
v 0.0750 0.4080 0.1299
v 0.0750 0.4080 0.1299
v 0.0750 0.4080 0.1299
v -0.0750 0.4920 0.1299
v -0.0750 0.4920 0.1299
v -0.0750 0.4920 0.1299
v -0.0750 0.4920 0.1299
v -0.0750 0.4920 0.1299
v -0.0750 0.4920 0.1299
v -0.0750 0.4920 0.1299
v -0.0750 0.4920 0.1299
v 0.0440 0.4864 0.1299
v 0.0091 0.4864 0.1646
v -0.0750 0.4864 0.1789
v -0.1591 0.4864 0.1646
v -0.1940 0.4864 0.1299
v -0.1591 0.4864 0.0953
v -0.0750 0.4864 0.0809
v 0.0091 0.4864 0.0953
v 0.1311 0.4710 0.1299
v 0.0707 0.4710 0.1899
v -0.0750 0.4710 0.2148
v -0.2207 0.4710 0.1899
v -0.2811 0.4710 0.1299
v -0.2207 0.4710 0.0699
v -0.0750 0.4710 0.0450
v 0.0707 0.4710 0.0699
v 0.1630 0.4500 0.1299
v 0.0933 0.4500 0.1992
v -0.0750 0.4500 0.2279
v -0.2433 0.4500 0.1992
v -0.3130 0.4500 0.1299
v -0.2433 0.4500 0.0606
v -0.0750 0.4500 0.0319
v 0.0933 0.4500 0.0606
v 0.1311 0.4290 0.1299
v 0.0707 0.4290 0.1899
v -0.0750 0.4290 0.2148
v -0.2207 0.4290 0.1899
v -0.2811 0.4290 0.1299
v -0.2207 0.4290 0.0699
v -0.0750 0.4290 0.0450
v 0.0707 0.4290 0.0699
v 0.0440 0.4136 0.1299
v 0.0091 0.4136 0.1646
v -0.0750 0.4136 0.1789
v -0.1591 0.4136 0.1646
v -0.1940 0.4136 0.1299
v -0.1591 0.4136 0.0953
v -0.0750 0.4136 0.0809
v 0.0091 0.4136 0.0953
v -0.0750 0.4080 0.1299
v -0.0750 0.4080 0.1299
v -0.0750 0.4080 0.1299
v -0.0750 0.4080 0.1299
v -0.0750 0.4080 0.1299
v -0.0750 0.4080 0.1299
v -0.0750 0.4080 0.1299
v -0.0750 0.4080 0.1299
v -0.1500 0.4920 0.0000
v -0.1500 0.4920 0.0000
v -0.1500 0.4920 0.0000
v -0.1500 0.4920 0.0000
v -0.1500 0.4920 0.0000
v -0.1500 0.4920 0.0000
v -0.1500 0.4920 0.0000
v -0.1500 0.4920 0.0000
v -0.0310 0.4864 0.0000
v -0.0659 0.4864 0.0346
v -0.1500 0.4864 0.0490
v -0.2341 0.4864 0.0346
v -0.2690 0.4864 0.0000
v -0.2341 0.4864 -0.0346
v -0.1500 0.4864 -0.0490
v -0.0659 0.4864 -0.0346
v 0.0561 0.4710 0.0000
v -0.0043 0.4710 0.0600
v -0.1500 0.4710 0.0849
v -0.2957 0.4710 0.0600
v -0.3561 0.4710 0.0000
v -0.2957 0.4710 -0.0600
v -0.1500 0.4710 -0.0849
v -0.0043 0.4710 -0.0600
v 0.0880 0.4500 0.0000
v 0.0183 0.4500 0.0693
v -0.1500 0.4500 0.0980
v -0.3183 0.4500 0.0693
v -0.3880 0.4500 0.0000
v -0.3183 0.4500 -0.0693
v -0.1500 0.4500 -0.0980
v 0.0183 0.4500 -0.0693
v 0.0561 0.4290 0.0000
v -0.0043 0.4290 0.0600
v -0.1500 0.4290 0.0849
v -0.2957 0.4290 0.0600
v -0.3561 0.4290 0.0000
v -0.2957 0.4290 -0.0600
v -0.1500 0.4290 -0.0849
v -0.0043 0.4290 -0.0600
v -0.0310 0.4136 0.0000
v -0.0659 0.4136 0.0346
v -0.1500 0.4136 0.0490
v -0.2341 0.4136 0.0346
v -0.2690 0.4136 0.0000
v -0.2341 0.4136 -0.0346
v -0.1500 0.4136 -0.0490
v -0.0659 0.4136 -0.0346
v -0.1500 0.4080 0.0000
v -0.1500 0.4080 0.0000
v -0.1500 0.4080 0.0000
v -0.1500 0.4080 0.0000
v -0.1500 0.4080 0.0000
v -0.1500 0.4080 0.0000
v -0.1500 0.4080 0.0000
v -0.1500 0.4080 0.0000
v -0.0750 0.4920 -0.1299
v -0.0750 0.4920 -0.1299
v -0.0750 0.4920 -0.1299
v -0.0750 0.4920 -0.1299
v -0.0750 0.4920 -0.1299
v -0.0750 0.4920 -0.1299
v -0.0750 0.4920 -0.1299
v -0.0750 0.4920 -0.1299
v 0.0440 0.4864 -0.1299
v 0.0091 0.4864 -0.0953
v -0.0750 0.4864 -0.0809
v -0.1591 0.4864 -0.0953
v -0.1940 0.4864 -0.1299
v -0.1591 0.4864 -0.1646
v -0.0750 0.4864 -0.1789
v 0.0091 0.4864 -0.1646
v 0.1311 0.4710 -0.1299
v 0.0707 0.4710 -0.0699
v -0.0750 0.4710 -0.0450
v -0.2207 0.4710 -0.0699
v -0.2811 0.4710 -0.1299
v -0.2207 0.4710 -0.1899
v -0.0750 0.4710 -0.2148
v 0.0707 0.4710 -0.1899
v 0.1630 0.4500 -0.1299
v 0.0933 0.4500 -0.0606
v -0.0750 0.4500 -0.0319
v -0.2433 0.4500 -0.0606
v -0.3130 0.4500 -0.1299
v -0.2433 0.4500 -0.1992
v -0.0750 0.4500 -0.2279
v 0.0933 0.4500 -0.1992
v 0.1311 0.4290 -0.1299
v 0.0707 0.4290 -0.0699
v -0.0750 0.4290 -0.0450
v -0.2207 0.4290 -0.0699
v -0.2811 0.4290 -0.1299
v -0.2207 0.4290 -0.1899
v -0.0750 0.4290 -0.2148
v 0.0707 0.4290 -0.1899
v 0.0440 0.4136 -0.1299
v 0.0091 0.4136 -0.0953
v -0.0750 0.4136 -0.0809
v -0.1591 0.4136 -0.0953
v -0.1940 0.4136 -0.1299
v -0.1591 0.4136 -0.1646
v -0.0750 0.4136 -0.1789
v 0.0091 0.4136 -0.1646
v -0.0750 0.4080 -0.1299
v -0.0750 0.4080 -0.1299
v -0.0750 0.4080 -0.1299
v -0.0750 0.4080 -0.1299
v -0.0750 0.4080 -0.1299
v -0.0750 0.4080 -0.1299
v -0.0750 0.4080 -0.1299
v -0.0750 0.4080 -0.1299
v 0.0750 0.4920 -0.1299
v 0.0750 0.4920 -0.1299
v 0.0750 0.4920 -0.1299
v 0.0750 0.4920 -0.1299
v 0.0750 0.4920 -0.1299
v 0.0750 0.4920 -0.1299
v 0.0750 0.4920 -0.1299
v 0.0750 0.4920 -0.1299
v 0.1940 0.4864 -0.1299
v 0.1591 0.4864 -0.0953
v 0.0750 0.4864 -0.0809
v -0.0091 0.4864 -0.0953
v -0.0440 0.4864 -0.1299
v -0.0091 0.4864 -0.1646
v 0.0750 0.4864 -0.1789
v 0.1591 0.4864 -0.1646
v 0.2811 0.4710 -0.1299
v 0.2207 0.4710 -0.0699
v 0.0750 0.4710 -0.0450
v -0.0707 0.4710 -0.0699
v -0.1311 0.4710 -0.1299
v -0.0707 0.4710 -0.1899
v 0.0750 0.4710 -0.2148
v 0.2207 0.4710 -0.1899
v 0.3130 0.4500 -0.1299
v 0.2433 0.4500 -0.0606
v 0.0750 0.4500 -0.0319
v -0.0933 0.4500 -0.0606
v -0.1630 0.4500 -0.1299
v -0.0933 0.4500 -0.1992
v 0.0750 0.4500 -0.2279
v 0.2433 0.4500 -0.1992
v 0.2811 0.4290 -0.1299
v 0.2207 0.4290 -0.0699
v 0.0750 0.4290 -0.0450
v -0.0707 0.4290 -0.0699
v -0.1311 0.4290 -0.1299
v -0.0707 0.4290 -0.1899
v 0.0750 0.4290 -0.2148
v 0.2207 0.4290 -0.1899
v 0.1940 0.4136 -0.1299
v 0.1591 0.4136 -0.0953
v 0.0750 0.4136 -0.0809
v -0.0091 0.4136 -0.0953
v -0.0440 0.4136 -0.1299
v -0.0091 0.4136 -0.1646
v 0.0750 0.4136 -0.1789
v 0.1591 0.4136 -0.1646
v 0.0750 0.4080 -0.1299
v 0.0750 0.4080 -0.1299
v 0.0750 0.4080 -0.1299
v 0.0750 0.4080 -0.1299
v 0.0750 0.4080 -0.1299
v 0.0750 0.4080 -0.1299
v 0.0750 0.4080 -0.1299
v 0.0750 0.4080 -0.1299
v 0.0000 0.5000 0.0000
v 0.0000 0.5000 0.0000
v 0.0000 0.5000 0.0000
v 0.0000 0.5000 0.0000
v 0.0000 0.5000 0.0000
v 0.0000 0.5000 0.0000
v 0.0000 0.5000 0.0000
v 0.0000 0.5000 0.0000
v 0.0500 0.4933 0.0000
v 0.0354 0.4933 0.0354
v 0.0000 0.4933 0.0500
v -0.0354 0.4933 0.0354
v -0.0500 0.4933 0.0000
v -0.0354 0.4933 -0.0354
v -0.0000 0.4933 -0.0500
v 0.0354 0.4933 -0.0354
v 0.0866 0.4750 0.0000
v 0.0612 0.4750 0.0612
v 0.0000 0.4750 0.0866
v -0.0612 0.4750 0.0612
v -0.0866 0.4750 0.0000
v -0.0612 0.4750 -0.0612
v -0.0000 0.4750 -0.0866
v 0.0612 0.4750 -0.0612
v 0.1000 0.4500 0.0000
v 0.0707 0.4500 0.0707
v 0.0000 0.4500 0.1000
v -0.0707 0.4500 0.0707
v -0.1000 0.4500 0.0000
v -0.0707 0.4500 -0.0707
v -0.0000 0.4500 -0.1000
v 0.0707 0.4500 -0.0707
v 0.0866 0.4250 0.0000
v 0.0612 0.4250 0.0612
v 0.0000 0.4250 0.0866
v -0.0612 0.4250 0.0612
v -0.0866 0.4250 0.0000
v -0.0612 0.4250 -0.0612
v -0.0000 0.4250 -0.0866
v 0.0612 0.4250 -0.0612
v 0.0500 0.4067 0.0000
v 0.0354 0.4067 0.0354
v 0.0000 0.4067 0.0500
v -0.0354 0.4067 0.0354
v -0.0500 0.4067 0.0000
v -0.0354 0.4067 -0.0354
v -0.0000 0.4067 -0.0500
v 0.0354 0.4067 -0.0354
v 0.0000 0.4000 0.0000
v 0.0000 0.4000 0.0000
v 0.0000 0.4000 0.0000
v -0.0000 0.4000 0.0000
v -0.0000 0.4000 0.0000
v -0.0000 0.4000 -0.0000
v -0.0000 0.4000 -0.0000
v 0.0000 0.4000 -0.0000
v 0.0000 0.4400 -0.0550
v -0.0389 0.4400 -0.0389
v -0.0550 0.4400 -0.0000
v -0.0389 0.4400 0.0389
v -0.0000 0.4400 0.0550
v 0.0389 0.4400 0.0389
v 0.0550 0.4400 0.0000
v 0.0389 0.4400 -0.0389
v 0.0000 0.7000 -0.0450
v -0.0318 0.7000 -0.0318
v -0.0450 0.7000 -0.0000
v -0.0318 0.7000 0.0318
v -0.0000 0.7000 0.0450
v 0.0318 0.7000 0.0318
v 0.0450 0.7000 0.0000
v 0.0318 0.7000 -0.0318
usemtl tomato
f 1 25 26
f 26 25 1
f 1 26 2
f 2 26 1
f 2 26 27
f 27 26 2
f 2 27 3
f 3 27 2
f 3 27 28
f 28 27 3
f 3 28 4
f 4 28 3
f 4 28 29
f 29 28 4
f 4 29 5
f 5 29 4
f 5 29 30
f 30 29 5
f 5 30 6
f 6 30 5
f 6 30 31
f 31 30 6
f 6 31 7
f 7 31 6
f 7 31 32
f 32 31 7
f 7 32 8
f 8 32 7
f 8 32 33
f 33 32 8
f 8 33 9
f 9 33 8
f 9 33 34
f 34 33 9
f 9 34 10
f 10 34 9
f 10 34 35
f 35 34 10
f 10 35 11
f 11 35 10
f 11 35 36
f 36 35 11
f 11 36 12
f 12 36 11
f 12 36 37
f 37 36 12
f 12 37 13
f 13 37 12
f 13 37 38
f 38 37 13
f 13 38 14
f 14 38 13
f 14 38 39
f 39 38 14
f 14 39 15
f 15 39 14
f 15 39 40
f 40 39 15
f 15 40 16
f 16 40 15
f 16 40 41
f 41 40 16
f 16 41 17
f 17 41 16
f 17 41 42
f 42 41 17
f 17 42 18
f 18 42 17
f 18 42 43
f 43 42 18
f 18 43 19
f 19 43 18
f 19 43 44
f 44 43 19
f 19 44 20
f 20 44 19
f 20 44 45
f 45 44 20
f 20 45 21
f 21 45 20
f 21 45 46
f 46 45 21
f 21 46 22
f 22 46 21
f 22 46 47
f 47 46 22
f 22 47 23
f 23 47 22
f 23 47 48
f 48 47 23
f 23 48 24
f 24 48 23
f 24 48 25
f 25 48 24
f 24 25 1
f 1 25 24
f 25 49 50
f 50 49 25
f 25 50 26
f 26 50 25
f 26 50 51
f 51 50 26
f 26 51 27
f 27 51 26
f 27 51 52
f 52 51 27
f 27 52 28
f 28 52 27
f 28 52 53
f 53 52 28
f 28 53 29
f 29 53 28
f 29 53 54
f 54 53 29
f 29 54 30
f 30 54 29
f 30 54 55
f 55 54 30
f 30 55 31
f 31 55 30
f 31 55 56
f 56 55 31
f 31 56 32
f 32 56 31
f 32 56 57
f 57 56 32
f 32 57 33
f 33 57 32
f 33 57 58
f 58 57 33
f 33 58 34
f 34 58 33
f 34 58 59
f 59 58 34
f 34 59 35
f 35 59 34
f 35 59 60
f 60 59 35
f 35 60 36
f 36 60 35
f 36 60 61
f 61 60 36
f 36 61 37
f 37 61 36
f 37 61 62
f 62 61 37
f 37 62 38
f 38 62 37
f 38 62 63
f 63 62 38
f 38 63 39
f 39 63 38
f 39 63 64
f 64 63 39
f 39 64 40
f 40 64 39
f 40 64 65
f 65 64 40
f 40 65 41
f 41 65 40
f 41 65 66
f 66 65 41
f 41 66 42
f 42 66 41
f 42 66 67
f 67 66 42
f 42 67 43
f 43 67 42
f 43 67 68
f 68 67 43
f 43 68 44
f 44 68 43
f 44 68 69
f 69 68 44
f 44 69 45
f 45 69 44
f 45 69 70
f 70 69 45
f 45 70 46
f 46 70 45
f 46 70 71
f 71 70 46
f 46 71 47
f 47 71 46
f 47 71 72
f 72 71 47
f 47 72 48
f 48 72 47
f 48 72 49
f 49 72 48
f 48 49 25
f 25 49 48
f 49 73 74
f 74 73 49
f 49 74 50
f 50 74 49
f 50 74 75
f 75 74 50
f 50 75 51
f 51 75 50
f 51 75 76
f 76 75 51
f 51 76 52
f 52 76 51
f 52 76 77
f 77 76 52
f 52 77 53
f 53 77 52
f 53 77 78
f 78 77 53
f 53 78 54
f 54 78 53
f 54 78 79
f 79 78 54
f 54 79 55
f 55 79 54
f 55 79 80
f 80 79 55
f 55 80 56
f 56 80 55
f 56 80 81
f 81 80 56
f 56 81 57
f 57 81 56
f 57 81 82
f 82 81 57
f 57 82 58
f 58 82 57
f 58 82 83
f 83 82 58
f 58 83 59
f 59 83 58
f 59 83 84
f 84 83 59
f 59 84 60
f 60 84 59
f 60 84 85
f 85 84 60
f 60 85 61
f 61 85 60
f 61 85 86
f 86 85 61
f 61 86 62
f 62 86 61
f 62 86 87
f 87 86 62
f 62 87 63
f 63 87 62
f 63 87 88
f 88 87 63
f 63 88 64
f 64 88 63
f 64 88 89
f 89 88 64
f 64 89 65
f 65 89 64
f 65 89 90
f 90 89 65
f 65 90 66
f 66 90 65
f 66 90 91
f 91 90 66
f 66 91 67
f 67 91 66
f 67 91 92
f 92 91 67
f 67 92 68
f 68 92 67
f 68 92 93
f 93 92 68
f 68 93 69
f 69 93 68
f 69 93 94
f 94 93 69
f 69 94 70
f 70 94 69
f 70 94 95
f 95 94 70
f 70 95 71
f 71 95 70
f 71 95 96
f 96 95 71
f 71 96 72
f 72 96 71
f 72 96 73
f 73 96 72
f 72 73 49
f 49 73 72
f 73 97 98
f 98 97 73
f 73 98 74
f 74 98 73
f 74 98 99
f 99 98 74
f 74 99 75
f 75 99 74
f 75 99 100
f 100 99 75
f 75 100 76
f 76 100 75
f 76 100 101
f 101 100 76
f 76 101 77
f 77 101 76
f 77 101 102
f 102 101 77
f 77 102 78
f 78 102 77
f 78 102 103
f 103 102 78
f 78 103 79
f 79 103 78
f 79 103 104
f 104 103 79
f 79 104 80
f 80 104 79
f 80 104 105
f 105 104 80
f 80 105 81
f 81 105 80
f 81 105 106
f 106 105 81
f 81 106 82
f 82 106 81
f 82 106 107
f 107 106 82
f 82 107 83
f 83 107 82
f 83 107 108
f 108 107 83
f 83 108 84
f 84 108 83
f 84 108 109
f 109 108 84
f 84 109 85
f 85 109 84
f 85 109 110
f 110 109 85
f 85 110 86
f 86 110 85
f 86 110 111
f 111 110 86
f 86 111 87
f 87 111 86
f 87 111 112
f 112 111 87
f 87 112 88
f 88 112 87
f 88 112 113
f 113 112 88
f 88 113 89
f 89 113 88
f 89 113 114
f 114 113 89
f 89 114 90
f 90 114 89
f 90 114 115
f 115 114 90
f 90 115 91
f 91 115 90
f 91 115 116
f 116 115 91
f 91 116 92
f 92 116 91
f 92 116 117
f 117 116 92
f 92 117 93
f 93 117 92
f 93 117 118
f 118 117 93
f 93 118 94
f 94 118 93
f 94 118 119
f 119 118 94
f 94 119 95
f 95 119 94
f 95 119 120
f 120 119 95
f 95 120 96
f 96 120 95
f 96 120 97
f 97 120 96
f 96 97 73
f 73 97 96
f 97 121 122
f 122 121 97
f 97 122 98
f 98 122 97
f 98 122 123
f 123 122 98
f 98 123 99
f 99 123 98
f 99 123 124
f 124 123 99
f 99 124 100
f 100 124 99
f 100 124 125
f 125 124 100
f 100 125 101
f 101 125 100
f 101 125 126
f 126 125 101
f 101 126 102
f 102 126 101
f 102 126 127
f 127 126 102
f 102 127 103
f 103 127 102
f 103 127 128
f 128 127 103
f 103 128 104
f 104 128 103
f 104 128 129
f 129 128 104
f 104 129 105
f 105 129 104
f 105 129 130
f 130 129 105
f 105 130 106
f 106 130 105
f 106 130 131
f 131 130 106
f 106 131 107
f 107 131 106
f 107 131 132
f 132 131 107
f 107 132 108
f 108 132 107
f 108 132 133
f 133 132 108
f 108 133 109
f 109 133 108
f 109 133 134
f 134 133 109
f 109 134 110
f 110 134 109
f 110 134 135
f 135 134 110
f 110 135 111
f 111 135 110
f 111 135 136
f 136 135 111
f 111 136 112
f 112 136 111
f 112 136 137
f 137 136 112
f 112 137 113
f 113 137 112
f 113 137 138
f 138 137 113
f 113 138 114
f 114 138 113
f 114 138 139
f 139 138 114
f 114 139 115
f 115 139 114
f 115 139 140
f 140 139 115
f 115 140 116
f 116 140 115
f 116 140 141
f 141 140 116
f 116 141 117
f 117 141 116
f 117 141 142
f 142 141 117
f 117 142 118
f 118 142 117
f 118 142 143
f 143 142 118
f 118 143 119
f 119 143 118
f 119 143 144
f 144 143 119
f 119 144 120
f 120 144 119
f 120 144 121
f 121 144 120
f 120 121 97
f 97 121 120
f 121 145 146
f 146 145 121
f 121 146 122
f 122 146 121
f 122 146 147
f 147 146 122
f 122 147 123
f 123 147 122
f 123 147 148
f 148 147 123
f 123 148 124
f 124 148 123
f 124 148 149
f 149 148 124
f 124 149 125
f 125 149 124
f 125 149 150
f 150 149 125
f 125 150 126
f 126 150 125
f 126 150 151
f 151 150 126
f 126 151 127
f 127 151 126
f 127 151 152
f 152 151 127
f 127 152 128
f 128 152 127
f 128 152 153
f 153 152 128
f 128 153 129
f 129 153 128
f 129 153 154
f 154 153 129
f 129 154 130
f 130 154 129
f 130 154 155
f 155 154 130
f 130 155 131
f 131 155 130
f 131 155 156
f 156 155 131
f 131 156 132
f 132 156 131
f 132 156 157
f 157 156 132
f 132 157 133
f 133 157 132
f 133 157 158
f 158 157 133
f 133 158 134
f 134 158 133
f 134 158 159
f 159 158 134
f 134 159 135
f 135 159 134
f 135 159 160
f 160 159 135
f 135 160 136
f 136 160 135
f 136 160 161
f 161 160 136
f 136 161 137
f 137 161 136
f 137 161 162
f 162 161 137
f 137 162 138
f 138 162 137
f 138 162 163
f 163 162 138
f 138 163 139
f 139 163 138
f 139 163 164
f 164 163 139
f 139 164 140
f 140 164 139
f 140 164 165
f 165 164 140
f 140 165 141
f 141 165 140
f 141 165 166
f 166 165 141
f 141 166 142
f 142 166 141
f 142 166 167
f 167 166 142
f 142 167 143
f 143 167 142
f 143 167 168
f 168 167 143
f 143 168 144
f 144 168 143
f 144 168 145
f 145 168 144
f 144 145 121
f 121 145 144
f 145 169 170
f 170 169 145
f 145 170 146
f 146 170 145
f 146 170 171
f 171 170 146
f 146 171 147
f 147 171 146
f 147 171 172
f 172 171 147
f 147 172 148
f 148 172 147
f 148 172 173
f 173 172 148
f 148 173 149
f 149 173 148
f 149 173 174
f 174 173 149
f 149 174 150
f 150 174 149
f 150 174 175
f 175 174 150
f 150 175 151
f 151 175 150
f 151 175 176
f 176 175 151
f 151 176 152
f 152 176 151
f 152 176 177
f 177 176 152
f 152 177 153
f 153 177 152
f 153 177 178
f 178 177 153
f 153 178 154
f 154 178 153
f 154 178 179
f 179 178 154
f 154 179 155
f 155 179 154
f 155 179 180
f 180 179 155
f 155 180 156
f 156 180 155
f 156 180 181
f 181 180 156
f 156 181 157
f 157 181 156
f 157 181 182
f 182 181 157
f 157 182 158
f 158 182 157
f 158 182 183
f 183 182 158
f 158 183 159
f 159 183 158
f 159 183 184
f 184 183 159
f 159 184 160
f 160 184 159
f 160 184 185
f 185 184 160
f 160 185 161
f 161 185 160
f 161 185 186
f 186 185 161
f 161 186 162
f 162 186 161
f 162 186 187
f 187 186 162
f 162 187 163
f 163 187 162
f 163 187 188
f 188 187 163
f 163 188 164
f 164 188 163
f 164 188 189
f 189 188 164
f 164 189 165
f 165 189 164
f 165 189 190
f 190 189 165
f 165 190 166
f 166 190 165
f 166 190 191
f 191 190 166
f 166 191 167
f 167 191 166
f 167 191 192
f 192 191 167
f 167 192 168
f 168 192 167
f 168 192 169
f 169 192 168
f 168 169 145
f 145 169 168
f 169 193 194
f 194 193 169
f 169 194 170
f 170 194 169
f 170 194 195
f 195 194 170
f 170 195 171
f 171 195 170
f 171 195 196
f 196 195 171
f 171 196 172
f 172 196 171
f 172 196 197
f 197 196 172
f 172 197 173
f 173 197 172
f 173 197 198
f 198 197 173
f 173 198 174
f 174 198 173
f 174 198 199
f 199 198 174
f 174 199 175
f 175 199 174
f 175 199 200
f 200 199 175
f 175 200 176
f 176 200 175
f 176 200 201
f 201 200 176
f 176 201 177
f 177 201 176
f 177 201 202
f 202 201 177
f 177 202 178
f 178 202 177
f 178 202 203
f 203 202 178
f 178 203 179
f 179 203 178
f 179 203 204
f 204 203 179
f 179 204 180
f 180 204 179
f 180 204 205
f 205 204 180
f 180 205 181
f 181 205 180
f 181 205 206
f 206 205 181
f 181 206 182
f 182 206 181
f 182 206 207
f 207 206 182
f 182 207 183
f 183 207 182
f 183 207 208
f 208 207 183
f 183 208 184
f 184 208 183
f 184 208 209
f 209 208 184
f 184 209 185
f 185 209 184
f 185 209 210
f 210 209 185
f 185 210 186
f 186 210 185
f 186 210 211
f 211 210 186
f 186 211 187
f 187 211 186
f 187 211 212
f 212 211 187
f 187 212 188
f 188 212 187
f 188 212 213
f 213 212 188
f 188 213 189
f 189 213 188
f 189 213 214
f 214 213 189
f 189 214 190
f 190 214 189
f 190 214 215
f 215 214 190
f 190 215 191
f 191 215 190
f 191 215 216
f 216 215 191
f 191 216 192
f 192 216 191
f 192 216 193
f 193 216 192
f 192 193 169
f 169 193 192
f 193 217 218
f 218 217 193
f 193 218 194
f 194 218 193
f 194 218 219
f 219 218 194
f 194 219 195
f 195 219 194
f 195 219 220
f 220 219 195
f 195 220 196
f 196 220 195
f 196 220 221
f 221 220 196
f 196 221 197
f 197 221 196
f 197 221 222
f 222 221 197
f 197 222 198
f 198 222 197
f 198 222 223
f 223 222 198
f 198 223 199
f 199 223 198
f 199 223 224
f 224 223 199
f 199 224 200
f 200 224 199
f 200 224 225
f 225 224 200
f 200 225 201
f 201 225 200
f 201 225 226
f 226 225 201
f 201 226 202
f 202 226 201
f 202 226 227
f 227 226 202
f 202 227 203
f 203 227 202
f 203 227 228
f 228 227 203
f 203 228 204
f 204 228 203
f 204 228 229
f 229 228 204
f 204 229 205
f 205 229 204
f 205 229 230
f 230 229 205
f 205 230 206
f 206 230 205
f 206 230 231
f 231 230 206
f 206 231 207
f 207 231 206
f 207 231 232
f 232 231 207
f 207 232 208
f 208 232 207
f 208 232 233
f 233 232 208
f 208 233 209
f 209 233 208
f 209 233 234
f 234 233 209
f 209 234 210
f 210 234 209
f 210 234 235
f 235 234 210
f 210 235 211
f 211 235 210
f 211 235 236
f 236 235 211
f 211 236 212
f 212 236 211
f 212 236 237
f 237 236 212
f 212 237 213
f 213 237 212
f 213 237 238
f 238 237 213
f 213 238 214
f 214 238 213
f 214 238 239
f 239 238 214
f 214 239 215
f 215 239 214
f 215 239 240
f 240 239 215
f 215 240 216
f 216 240 215
f 216 240 217
f 217 240 216
f 216 217 193
f 193 217 216
f 217 241 242
f 242 241 217
f 217 242 218
f 218 242 217
f 218 242 243
f 243 242 218
f 218 243 219
f 219 243 218
f 219 243 244
f 244 243 219
f 219 244 220
f 220 244 219
f 220 244 245
f 245 244 220
f 220 245 221
f 221 245 220
f 221 245 246
f 246 245 221
f 221 246 222
f 222 246 221
f 222 246 247
f 247 246 222
f 222 247 223
f 223 247 222
f 223 247 248
f 248 247 223
f 223 248 224
f 224 248 223
f 224 248 249
f 249 248 224
f 224 249 225
f 225 249 224
f 225 249 250
f 250 249 225
f 225 250 226
f 226 250 225
f 226 250 251
f 251 250 226
f 226 251 227
f 227 251 226
f 227 251 252
f 252 251 227
f 227 252 228
f 228 252 227
f 228 252 253
f 253 252 228
f 228 253 229
f 229 253 228
f 229 253 254
f 254 253 229
f 229 254 230
f 230 254 229
f 230 254 255
f 255 254 230
f 230 255 231
f 231 255 230
f 231 255 256
f 256 255 231
f 231 256 232
f 232 256 231
f 232 256 257
f 257 256 232
f 232 257 233
f 233 257 232
f 233 257 258
f 258 257 233
f 233 258 234
f 234 258 233
f 234 258 259
f 259 258 234
f 234 259 235
f 235 259 234
f 235 259 260
f 260 259 235
f 235 260 236
f 236 260 235
f 236 260 261
f 261 260 236
f 236 261 237
f 237 261 236
f 237 261 262
f 262 261 237
f 237 262 238
f 238 262 237
f 238 262 263
f 263 262 238
f 238 263 239
f 239 263 238
f 239 263 264
f 264 263 239
f 239 264 240
f 240 264 239
f 240 264 241
f 241 264 240
f 240 241 217
f 217 241 240
f 241 265 266
f 266 265 241
f 241 266 242
f 242 266 241
f 242 266 267
f 267 266 242
f 242 267 243
f 243 267 242
f 243 267 268
f 268 267 243
f 243 268 244
f 244 268 243
f 244 268 269
f 269 268 244
f 244 269 245
f 245 269 244
f 245 269 270
f 270 269 245
f 245 270 246
f 246 270 245
f 246 270 271
f 271 270 246
f 246 271 247
f 247 271 246
f 247 271 272
f 272 271 247
f 247 272 248
f 248 272 247
f 248 272 273
f 273 272 248
f 248 273 249
f 249 273 248
f 249 273 274
f 274 273 249
f 249 274 250
f 250 274 249
f 250 274 275
f 275 274 250
f 250 275 251
f 251 275 250
f 251 275 276
f 276 275 251
f 251 276 252
f 252 276 251
f 252 276 277
f 277 276 252
f 252 277 253
f 253 277 252
f 253 277 278
f 278 277 253
f 253 278 254
f 254 278 253
f 254 278 279
f 279 278 254
f 254 279 255
f 255 279 254
f 255 279 280
f 280 279 255
f 255 280 256
f 256 280 255
f 256 280 281
f 281 280 256
f 256 281 257
f 257 281 256
f 257 281 282
f 282 281 257
f 257 282 258
f 258 282 257
f 258 282 283
f 283 282 258
f 258 283 259
f 259 283 258
f 259 283 284
f 284 283 259
f 259 284 260
f 260 284 259
f 260 284 285
f 285 284 260
f 260 285 261
f 261 285 260
f 261 285 286
f 286 285 261
f 261 286 262
f 262 286 261
f 262 286 287
f 287 286 262
f 262 287 263
f 263 287 262
f 263 287 288
f 288 287 263
f 263 288 264
f 264 288 263
f 264 288 265
f 265 288 264
f 264 265 241
f 241 265 264
f 265 289 290
f 290 289 265
f 265 290 266
f 266 290 265
f 266 290 291
f 291 290 266
f 266 291 267
f 267 291 266
f 267 291 292
f 292 291 267
f 267 292 268
f 268 292 267
f 268 292 293
f 293 292 268
f 268 293 269
f 269 293 268
f 269 293 294
f 294 293 269
f 269 294 270
f 270 294 269
f 270 294 295
f 295 294 270
f 270 295 271
f 271 295 270
f 271 295 296
f 296 295 271
f 271 296 272
f 272 296 271
f 272 296 297
f 297 296 272
f 272 297 273
f 273 297 272
f 273 297 298
f 298 297 273
f 273 298 274
f 274 298 273
f 274 298 299
f 299 298 274
f 274 299 275
f 275 299 274
f 275 299 300
f 300 299 275
f 275 300 276
f 276 300 275
f 276 300 301
f 301 300 276
f 276 301 277
f 277 301 276
f 277 301 302
f 302 301 277
f 277 302 278
f 278 302 277
f 278 302 303
f 303 302 278
f 278 303 279
f 279 303 278
f 279 303 304
f 304 303 279
f 279 304 280
f 280 304 279
f 280 304 305
f 305 304 280
f 280 305 281
f 281 305 280
f 281 305 306
f 306 305 281
f 281 306 282
f 282 306 281
f 282 306 307
f 307 306 282
f 282 307 283
f 283 307 282
f 283 307 308
f 308 307 283
f 283 308 284
f 284 308 283
f 284 308 309
f 309 308 284
f 284 309 285
f 285 309 284
f 285 309 310
f 310 309 285
f 285 310 286
f 286 310 285
f 286 310 311
f 311 310 286
f 286 311 287
f 287 311 286
f 287 311 312
f 312 311 287
f 287 312 288
f 288 312 287
f 288 312 289
f 289 312 288
f 288 289 265
f 265 289 288
f 289 313 314
f 314 313 289
f 289 314 290
f 290 314 289
f 290 314 315
f 315 314 290
f 290 315 291
f 291 315 290
f 291 315 316
f 316 315 291
f 291 316 292
f 292 316 291
f 292 316 317
f 317 316 292
f 292 317 293
f 293 317 292
f 293 317 318
f 318 317 293
f 293 318 294
f 294 318 293
f 294 318 319
f 319 318 294
f 294 319 295
f 295 319 294
f 295 319 320
f 320 319 295
f 295 320 296
f 296 320 295
f 296 320 321
f 321 320 296
f 296 321 297
f 297 321 296
f 297 321 322
f 322 321 297
f 297 322 298
f 298 322 297
f 298 322 323
f 323 322 298
f 298 323 299
f 299 323 298
f 299 323 324
f 324 323 299
f 299 324 300
f 300 324 299
f 300 324 325
f 325 324 300
f 300 325 301
f 301 325 300
f 301 325 326
f 326 325 301
f 301 326 302
f 302 326 301
f 302 326 327
f 327 326 302
f 302 327 303
f 303 327 302
f 303 327 328
f 328 327 303
f 303 328 304
f 304 328 303
f 304 328 329
f 329 328 304
f 304 329 305
f 305 329 304
f 305 329 330
f 330 329 305
f 305 330 306
f 306 330 305
f 306 330 331
f 331 330 306
f 306 331 307
f 307 331 306
f 307 331 332
f 332 331 307
f 307 332 308
f 308 332 307
f 308 332 333
f 333 332 308
f 308 333 309
f 309 333 308
f 309 333 334
f 334 333 309
f 309 334 310
f 310 334 309
f 310 334 335
f 335 334 310
f 310 335 311
f 311 335 310
f 311 335 336
f 336 335 311
f 311 336 312
f 312 336 311
f 312 336 313
f 313 336 312
f 312 313 289
f 289 313 312
f 313 337 338
f 338 337 313
f 313 338 314
f 314 338 313
f 314 338 339
f 339 338 314
f 314 339 315
f 315 339 314
f 315 339 340
f 340 339 315
f 315 340 316
f 316 340 315
f 316 340 341
f 341 340 316
f 316 341 317
f 317 341 316
f 317 341 342
f 342 341 317
f 317 342 318
f 318 342 317
f 318 342 343
f 343 342 318
f 318 343 319
f 319 343 318
f 319 343 344
f 344 343 319
f 319 344 320
f 320 344 319
f 320 344 345
f 345 344 320
f 320 345 321
f 321 345 320
f 321 345 346
f 346 345 321
f 321 346 322
f 322 346 321
f 322 346 347
f 347 346 322
f 322 347 323
f 323 347 322
f 323 347 348
f 348 347 323
f 323 348 324
f 324 348 323
f 324 348 349
f 349 348 324
f 324 349 325
f 325 349 324
f 325 349 350
f 350 349 325
f 325 350 326
f 326 350 325
f 326 350 351
f 351 350 326
f 326 351 327
f 327 351 326
f 327 351 352
f 352 351 327
f 327 352 328
f 328 352 327
f 328 352 353
f 353 352 328
f 328 353 329
f 329 353 328
f 329 353 354
f 354 353 329
f 329 354 330
f 330 354 329
f 330 354 355
f 355 354 330
f 330 355 331
f 331 355 330
f 331 355 356
f 356 355 331
f 331 356 332
f 332 356 331
f 332 356 357
f 357 356 332
f 332 357 333
f 333 357 332
f 333 357 358
f 358 357 333
f 333 358 334
f 334 358 333
f 334 358 359
f 359 358 334
f 334 359 335
f 335 359 334
f 335 359 360
f 360 359 335
f 335 360 336
f 336 360 335
f 336 360 337
f 337 360 336
f 336 337 313
f 313 337 336
f 337 361 362
f 362 361 337
f 337 362 338
f 338 362 337
f 338 362 363
f 363 362 338
f 338 363 339
f 339 363 338
f 339 363 364
f 364 363 339
f 339 364 340
f 340 364 339
f 340 364 365
f 365 364 340
f 340 365 341
f 341 365 340
f 341 365 366
f 366 365 341
f 341 366 342
f 342 366 341
f 342 366 367
f 367 366 342
f 342 367 343
f 343 367 342
f 343 367 368
f 368 367 343
f 343 368 344
f 344 368 343
f 344 368 369
f 369 368 344
f 344 369 345
f 345 369 344
f 345 369 370
f 370 369 345
f 345 370 346
f 346 370 345
f 346 370 371
f 371 370 346
f 346 371 347
f 347 371 346
f 347 371 372
f 372 371 347
f 347 372 348
f 348 372 347
f 348 372 373
f 373 372 348
f 348 373 349
f 349 373 348
f 349 373 374
f 374 373 349
f 349 374 350
f 350 374 349
f 350 374 375
f 375 374 350
f 350 375 351
f 351 375 350
f 351 375 376
f 376 375 351
f 351 376 352
f 352 376 351
f 352 376 377
f 377 376 352
f 352 377 353
f 353 377 352
f 353 377 378
f 378 377 353
f 353 378 354
f 354 378 353
f 354 378 379
f 379 378 354
f 354 379 355
f 355 379 354
f 355 379 380
f 380 379 355
f 355 380 356
f 356 380 355
f 356 380 381
f 381 380 356
f 356 381 357
f 357 381 356
f 357 381 382
f 382 381 357
f 357 382 358
f 358 382 357
f 358 382 383
f 383 382 358
f 358 383 359
f 359 383 358
f 359 383 384
f 384 383 359
f 359 384 360
f 360 384 359
f 360 384 361
f 361 384 360
f 360 361 337
f 337 361 360
f 361 385 386
f 386 385 361
f 361 386 362
f 362 386 361
f 362 386 387
f 387 386 362
f 362 387 363
f 363 387 362
f 363 387 388
f 388 387 363
f 363 388 364
f 364 388 363
f 364 388 389
f 389 388 364
f 364 389 365
f 365 389 364
f 365 389 390
f 390 389 365
f 365 390 366
f 366 390 365
f 366 390 391
f 391 390 366
f 366 391 367
f 367 391 366
f 367 391 392
f 392 391 367
f 367 392 368
f 368 392 367
f 368 392 393
f 393 392 368
f 368 393 369
f 369 393 368
f 369 393 394
f 394 393 369
f 369 394 370
f 370 394 369
f 370 394 395
f 395 394 370
f 370 395 371
f 371 395 370
f 371 395 396
f 396 395 371
f 371 396 372
f 372 396 371
f 372 396 397
f 397 396 372
f 372 397 373
f 373 397 372
f 373 397 398
f 398 397 373
f 373 398 374
f 374 398 373
f 374 398 399
f 399 398 374
f 374 399 375
f 375 399 374
f 375 399 400
f 400 399 375
f 375 400 376
f 376 400 375
f 376 400 401
f 401 400 376
f 376 401 377
f 377 401 376
f 377 401 402
f 402 401 377
f 377 402 378
f 378 402 377
f 378 402 403
f 403 402 378
f 378 403 379
f 379 403 378
f 379 403 404
f 404 403 379
f 379 404 380
f 380 404 379
f 380 404 405
f 405 404 380
f 380 405 381
f 381 405 380
f 381 405 406
f 406 405 381
f 381 406 382
f 382 406 381
f 382 406 407
f 407 406 382
f 382 407 383
f 383 407 382
f 383 407 408
f 408 407 383
f 383 408 384
f 384 408 383
f 384 408 385
f 385 408 384
f 384 385 361
f 361 385 384
f 385 409 410
f 410 409 385
f 385 410 386
f 386 410 385
f 386 410 411
f 411 410 386
f 386 411 387
f 387 411 386
f 387 411 412
f 412 411 387
f 387 412 388
f 388 412 387
f 388 412 413
f 413 412 388
f 388 413 389
f 389 413 388
f 389 413 414
f 414 413 389
f 389 414 390
f 390 414 389
f 390 414 415
f 415 414 390
f 390 415 391
f 391 415 390
f 391 415 416
f 416 415 391
f 391 416 392
f 392 416 391
f 392 416 417
f 417 416 392
f 392 417 393
f 393 417 392
f 393 417 418
f 418 417 393
f 393 418 394
f 394 418 393
f 394 418 419
f 419 418 394
f 394 419 395
f 395 419 394
f 395 419 420
f 420 419 395
f 395 420 396
f 396 420 395
f 396 420 421
f 421 420 396
f 396 421 397
f 397 421 396
f 397 421 422
f 422 421 397
f 397 422 398
f 398 422 397
f 398 422 423
f 423 422 398
f 398 423 399
f 399 423 398
f 399 423 424
f 424 423 399
f 399 424 400
f 400 424 399
f 400 424 425
f 425 424 400
f 400 425 401
f 401 425 400
f 401 425 426
f 426 425 401
f 401 426 402
f 402 426 401
f 402 426 427
f 427 426 402
f 402 427 403
f 403 427 402
f 403 427 428
f 428 427 403
f 403 428 404
f 404 428 403
f 404 428 429
f 429 428 404
f 404 429 405
f 405 429 404
f 405 429 430
f 430 429 405
f 405 430 406
f 406 430 405
f 406 430 431
f 431 430 406
f 406 431 407
f 407 431 406
f 407 431 432
f 432 431 407
f 407 432 408
f 408 432 407
f 408 432 409
f 409 432 408
f 408 409 385
f 385 409 408
f 409 433 434
f 434 433 409
f 409 434 410
f 410 434 409
f 410 434 435
f 435 434 410
f 410 435 411
f 411 435 410
f 411 435 436
f 436 435 411
f 411 436 412
f 412 436 411
f 412 436 437
f 437 436 412
f 412 437 413
f 413 437 412
f 413 437 438
f 438 437 413
f 413 438 414
f 414 438 413
f 414 438 439
f 439 438 414
f 414 439 415
f 415 439 414
f 415 439 440
f 440 439 415
f 415 440 416
f 416 440 415
f 416 440 441
f 441 440 416
f 416 441 417
f 417 441 416
f 417 441 442
f 442 441 417
f 417 442 418
f 418 442 417
f 418 442 443
f 443 442 418
f 418 443 419
f 419 443 418
f 419 443 444
f 444 443 419
f 419 444 420
f 420 444 419
f 420 444 445
f 445 444 420
f 420 445 421
f 421 445 420
f 421 445 446
f 446 445 421
f 421 446 422
f 422 446 421
f 422 446 447
f 447 446 422
f 422 447 423
f 423 447 422
f 423 447 448
f 448 447 423
f 423 448 424
f 424 448 423
f 424 448 449
f 449 448 424
f 424 449 425
f 425 449 424
f 425 449 450
f 450 449 425
f 425 450 426
f 426 450 425
f 426 450 451
f 451 450 426
f 426 451 427
f 427 451 426
f 427 451 452
f 452 451 427
f 427 452 428
f 428 452 427
f 428 452 453
f 453 452 428
f 428 453 429
f 429 453 428
f 429 453 454
f 454 453 429
f 429 454 430
f 430 454 429
f 430 454 455
f 455 454 430
f 430 455 431
f 431 455 430
f 431 455 456
f 456 455 431
f 431 456 432
f 432 456 431
f 432 456 433
f 433 456 432
f 432 433 409
f 409 433 432
usemtl leaf
f 457 465 466
f 466 465 457
f 457 466 458
f 458 466 457
f 458 466 467
f 467 466 458
f 458 467 459
f 459 467 458
f 459 467 468
f 468 467 459
f 459 468 460
f 460 468 459
f 460 468 469
f 469 468 460
f 460 469 461
f 461 469 460
f 461 469 470
f 470 469 461
f 461 470 462
f 462 470 461
f 462 470 471
f 471 470 462
f 462 471 463
f 463 471 462
f 463 471 472
f 472 471 463
f 463 472 464
f 464 472 463
f 464 472 465
f 465 472 464
f 464 465 457
f 457 465 464
f 465 473 474
f 474 473 465
f 465 474 466
f 466 474 465
f 466 474 475
f 475 474 466
f 466 475 467
f 467 475 466
f 467 475 476
f 476 475 467
f 467 476 468
f 468 476 467
f 468 476 477
f 477 476 468
f 468 477 469
f 469 477 468
f 469 477 478
f 478 477 469
f 469 478 470
f 470 478 469
f 470 478 479
f 479 478 470
f 470 479 471
f 471 479 470
f 471 479 480
f 480 479 471
f 471 480 472
f 472 480 471
f 472 480 473
f 473 480 472
f 472 473 465
f 465 473 472
f 473 481 482
f 482 481 473
f 473 482 474
f 474 482 473
f 474 482 483
f 483 482 474
f 474 483 475
f 475 483 474
f 475 483 484
f 484 483 475
f 475 484 476
f 476 484 475
f 476 484 485
f 485 484 476
f 476 485 477
f 477 485 476
f 477 485 486
f 486 485 477
f 477 486 478
f 478 486 477
f 478 486 487
f 487 486 478
f 478 487 479
f 479 487 478
f 479 487 488
f 488 487 479
f 479 488 480
f 480 488 479
f 480 488 481
f 481 488 480
f 480 481 473
f 473 481 480
f 481 489 490
f 490 489 481
f 481 490 482
f 482 490 481
f 482 490 491
f 491 490 482
f 482 491 483
f 483 491 482
f 483 491 492
f 492 491 483
f 483 492 484
f 484 492 483
f 484 492 493
f 493 492 484
f 484 493 485
f 485 493 484
f 485 493 494
f 494 493 485
f 485 494 486
f 486 494 485
f 486 494 495
f 495 494 486
f 486 495 487
f 487 495 486
f 487 495 496
f 496 495 487
f 487 496 488
f 488 496 487
f 488 496 489
f 489 496 488
f 488 489 481
f 481 489 488
f 489 497 498
f 498 497 489
f 489 498 490
f 490 498 489
f 490 498 499
f 499 498 490
f 490 499 491
f 491 499 490
f 491 499 500
f 500 499 491
f 491 500 492
f 492 500 491
f 492 500 501
f 501 500 492
f 492 501 493
f 493 501 492
f 493 501 502
f 502 501 493
f 493 502 494
f 494 502 493
f 494 502 503
f 503 502 494
f 494 503 495
f 495 503 494
f 495 503 504
f 504 503 495
f 495 504 496
f 496 504 495
f 496 504 497
f 497 504 496
f 496 497 489
f 489 497 496
f 497 505 506
f 506 505 497
f 497 506 498
f 498 506 497
f 498 506 507
f 507 506 498
f 498 507 499
f 499 507 498
f 499 507 508
f 508 507 499
f 499 508 500
f 500 508 499
f 500 508 509
f 509 508 500
f 500 509 501
f 501 509 500
f 501 509 510
f 510 509 501
f 501 510 502
f 502 510 501
f 502 510 511
f 511 510 502
f 502 511 503
f 503 511 502
f 503 511 512
f 512 511 503
f 503 512 504
f 504 512 503
f 504 512 505
f 505 512 504
f 504 505 497
f 497 505 504
f 513 521 522
f 522 521 513
f 513 522 514
f 514 522 513
f 514 522 523
f 523 522 514
f 514 523 515
f 515 523 514
f 515 523 524
f 524 523 515
f 515 524 516
f 516 524 515
f 516 524 525
f 525 524 516
f 516 525 517
f 517 525 516
f 517 525 526
f 526 525 517
f 517 526 518
f 518 526 517
f 518 526 527
f 527 526 518
f 518 527 519
f 519 527 518
f 519 527 528
f 528 527 519
f 519 528 520
f 520 528 519
f 520 528 521
f 521 528 520
f 520 521 513
f 513 521 520
f 521 529 530
f 530 529 521
f 521 530 522
f 522 530 521
f 522 530 531
f 531 530 522
f 522 531 523
f 523 531 522
f 523 531 532
f 532 531 523
f 523 532 524
f 524 532 523
f 524 532 533
f 533 532 524
f 524 533 525
f 525 533 524
f 525 533 534
f 534 533 525
f 525 534 526
f 526 534 525
f 526 534 535
f 535 534 526
f 526 535 527
f 527 535 526
f 527 535 536
f 536 535 527
f 527 536 528
f 528 536 527
f 528 536 529
f 529 536 528
f 528 529 521
f 521 529 528
f 529 537 538
f 538 537 529
f 529 538 530
f 530 538 529
f 530 538 539
f 539 538 530
f 530 539 531
f 531 539 530
f 531 539 540
f 540 539 531
f 531 540 532
f 532 540 531
f 532 540 541
f 541 540 532
f 532 541 533
f 533 541 532
f 533 541 542
f 542 541 533
f 533 542 534
f 534 542 533
f 534 542 543
f 543 542 534
f 534 543 535
f 535 543 534
f 535 543 544
f 544 543 535
f 535 544 536
f 536 544 535
f 536 544 537
f 537 544 536
f 536 537 529
f 529 537 536
f 537 545 546
f 546 545 537
f 537 546 538
f 538 546 537
f 538 546 547
f 547 546 538
f 538 547 539
f 539 547 538
f 539 547 548
f 548 547 539
f 539 548 540
f 540 548 539
f 540 548 549
f 549 548 540
f 540 549 541
f 541 549 540
f 541 549 550
f 550 549 541
f 541 550 542
f 542 550 541
f 542 550 551
f 551 550 542
f 542 551 543
f 543 551 542
f 543 551 552
f 552 551 543
f 543 552 544
f 544 552 543
f 544 552 545
f 545 552 544
f 544 545 537
f 537 545 544
f 545 553 554
f 554 553 545
f 545 554 546
f 546 554 545
f 546 554 555
f 555 554 546
f 546 555 547
f 547 555 546
f 547 555 556
f 556 555 547
f 547 556 548
f 548 556 547
f 548 556 557
f 557 556 548
f 548 557 549
f 549 557 548
f 549 557 558
f 558 557 549
f 549 558 550
f 550 558 549
f 550 558 559
f 559 558 550
f 550 559 551
f 551 559 550
f 551 559 560
f 560 559 551
f 551 560 552
f 552 560 551
f 552 560 553
f 553 560 552
f 552 553 545
f 545 553 552
f 553 561 562
f 562 561 553
f 553 562 554
f 554 562 553
f 554 562 563
f 563 562 554
f 554 563 555
f 555 563 554
f 555 563 564
f 564 563 555
f 555 564 556
f 556 564 555
f 556 564 565
f 565 564 556
f 556 565 557
f 557 565 556
f 557 565 566
f 566 565 557
f 557 566 558
f 558 566 557
f 558 566 567
f 567 566 558
f 558 567 559
f 559 567 558
f 559 567 568
f 568 567 559
f 559 568 560
f 560 568 559
f 560 568 561
f 561 568 560
f 560 561 553
f 553 561 560
f 569 577 578
f 578 577 569
f 569 578 570
f 570 578 569
f 570 578 579
f 579 578 570
f 570 579 571
f 571 579 570
f 571 579 580
f 580 579 571
f 571 580 572
f 572 580 571
f 572 580 581
f 581 580 572
f 572 581 573
f 573 581 572
f 573 581 582
f 582 581 573
f 573 582 574
f 574 582 573
f 574 582 583
f 583 582 574
f 574 583 575
f 575 583 574
f 575 583 584
f 584 583 575
f 575 584 576
f 576 584 575
f 576 584 577
f 577 584 576
f 576 577 569
f 569 577 576
f 577 585 586
f 586 585 577
f 577 586 578
f 578 586 577
f 578 586 587
f 587 586 578
f 578 587 579
f 579 587 578
f 579 587 588
f 588 587 579
f 579 588 580
f 580 588 579
f 580 588 589
f 589 588 580
f 580 589 581
f 581 589 580
f 581 589 590
f 590 589 581
f 581 590 582
f 582 590 581
f 582 590 591
f 591 590 582
f 582 591 583
f 583 591 582
f 583 591 592
f 592 591 583
f 583 592 584
f 584 592 583
f 584 592 585
f 585 592 584
f 584 585 577
f 577 585 584
f 585 593 594
f 594 593 585
f 585 594 586
f 586 594 585
f 586 594 595
f 595 594 586
f 586 595 587
f 587 595 586
f 587 595 596
f 596 595 587
f 587 596 588
f 588 596 587
f 588 596 597
f 597 596 588
f 588 597 589
f 589 597 588
f 589 597 598
f 598 597 589
f 589 598 590
f 590 598 589
f 590 598 599
f 599 598 590
f 590 599 591
f 591 599 590
f 591 599 600
f 600 599 591
f 591 600 592
f 592 600 591
f 592 600 593
f 593 600 592
f 592 593 585
f 585 593 592
f 593 601 602
f 602 601 593
f 593 602 594
f 594 602 593
f 594 602 603
f 603 602 594
f 594 603 595
f 595 603 594
f 595 603 604
f 604 603 595
f 595 604 596
f 596 604 595
f 596 604 605
f 605 604 596
f 596 605 597
f 597 605 596
f 597 605 606
f 606 605 597
f 597 606 598
f 598 606 597
f 598 606 607
f 607 606 598
f 598 607 599
f 599 607 598
f 599 607 608
f 608 607 599
f 599 608 600
f 600 608 599
f 600 608 601
f 601 608 600
f 600 601 593
f 593 601 600
f 601 609 610
f 610 609 601
f 601 610 602
f 602 610 601
f 602 610 611
f 611 610 602
f 602 611 603
f 603 611 602
f 603 611 612
f 612 611 603
f 603 612 604
f 604 612 603
f 604 612 613
f 613 612 604
f 604 613 605
f 605 613 604
f 605 613 614
f 614 613 605
f 605 614 606
f 606 614 605
f 606 614 615
f 615 614 606
f 606 615 607
f 607 615 606
f 607 615 616
f 616 615 607
f 607 616 608
f 608 616 607
f 608 616 609
f 609 616 608
f 608 609 601
f 601 609 608
f 609 617 618
f 618 617 609
f 609 618 610
f 610 618 609
f 610 618 619
f 619 618 610
f 610 619 611
f 611 619 610
f 611 619 620
f 620 619 611
f 611 620 612
f 612 620 611
f 612 620 621
f 621 620 612
f 612 621 613
f 613 621 612
f 613 621 622
f 622 621 613
f 613 622 614
f 614 622 613
f 614 622 623
f 623 622 614
f 614 623 615
f 615 623 614
f 615 623 624
f 624 623 615
f 615 624 616
f 616 624 615
f 616 624 617
f 617 624 616
f 616 617 609
f 609 617 616
f 625 633 634
f 634 633 625
f 625 634 626
f 626 634 625
f 626 634 635
f 635 634 626
f 626 635 627
f 627 635 626
f 627 635 636
f 636 635 627
f 627 636 628
f 628 636 627
f 628 636 637
f 637 636 628
f 628 637 629
f 629 637 628
f 629 637 638
f 638 637 629
f 629 638 630
f 630 638 629
f 630 638 639
f 639 638 630
f 630 639 631
f 631 639 630
f 631 639 640
f 640 639 631
f 631 640 632
f 632 640 631
f 632 640 633
f 633 640 632
f 632 633 625
f 625 633 632
f 633 641 642
f 642 641 633
f 633 642 634
f 634 642 633
f 634 642 643
f 643 642 634
f 634 643 635
f 635 643 634
f 635 643 644
f 644 643 635
f 635 644 636
f 636 644 635
f 636 644 645
f 645 644 636
f 636 645 637
f 637 645 636
f 637 645 646
f 646 645 637
f 637 646 638
f 638 646 637
f 638 646 647
f 647 646 638
f 638 647 639
f 639 647 638
f 639 647 648
f 648 647 639
f 639 648 640
f 640 648 639
f 640 648 641
f 641 648 640
f 640 641 633
f 633 641 640
f 641 649 650
f 650 649 641
f 641 650 642
f 642 650 641
f 642 650 651
f 651 650 642
f 642 651 643
f 643 651 642
f 643 651 652
f 652 651 643
f 643 652 644
f 644 652 643
f 644 652 653
f 653 652 644
f 644 653 645
f 645 653 644
f 645 653 654
f 654 653 645
f 645 654 646
f 646 654 645
f 646 654 655
f 655 654 646
f 646 655 647
f 647 655 646
f 647 655 656
f 656 655 647
f 647 656 648
f 648 656 647
f 648 656 649
f 649 656 648
f 648 649 641
f 641 649 648
f 649 657 658
f 658 657 649
f 649 658 650
f 650 658 649
f 650 658 659
f 659 658 650
f 650 659 651
f 651 659 650
f 651 659 660
f 660 659 651
f 651 660 652
f 652 660 651
f 652 660 661
f 661 660 652
f 652 661 653
f 653 661 652
f 653 661 662
f 662 661 653
f 653 662 654
f 654 662 653
f 654 662 663
f 663 662 654
f 654 663 655
f 655 663 654
f 655 663 664
f 664 663 655
f 655 664 656
f 656 664 655
f 656 664 657
f 657 664 656
f 656 657 649
f 649 657 656
f 657 665 666
f 666 665 657
f 657 666 658
f 658 666 657
f 658 666 667
f 667 666 658
f 658 667 659
f 659 667 658
f 659 667 668
f 668 667 659
f 659 668 660
f 660 668 659
f 660 668 669
f 669 668 660
f 660 669 661
f 661 669 660
f 661 669 670
f 670 669 661
f 661 670 662
f 662 670 661
f 662 670 671
f 671 670 662
f 662 671 663
f 663 671 662
f 663 671 672
f 672 671 663
f 663 672 664
f 664 672 663
f 664 672 665
f 665 672 664
f 664 665 657
f 657 665 664
f 665 673 674
f 674 673 665
f 665 674 666
f 666 674 665
f 666 674 675
f 675 674 666
f 666 675 667
f 667 675 666
f 667 675 676
f 676 675 667
f 667 676 668
f 668 676 667
f 668 676 677
f 677 676 668
f 668 677 669
f 669 677 668
f 669 677 678
f 678 677 669
f 669 678 670
f 670 678 669
f 670 678 679
f 679 678 670
f 670 679 671
f 671 679 670
f 671 679 680
f 680 679 671
f 671 680 672
f 672 680 671
f 672 680 673
f 673 680 672
f 672 673 665
f 665 673 672
f 681 689 690
f 690 689 681
f 681 690 682
f 682 690 681
f 682 690 691
f 691 690 682
f 682 691 683
f 683 691 682
f 683 691 692
f 692 691 683
f 683 692 684
f 684 692 683
f 684 692 693
f 693 692 684
f 684 693 685
f 685 693 684
f 685 693 694
f 694 693 685
f 685 694 686
f 686 694 685
f 686 694 695
f 695 694 686
f 686 695 687
f 687 695 686
f 687 695 696
f 696 695 687
f 687 696 688
f 688 696 687
f 688 696 689
f 689 696 688
f 688 689 681
f 681 689 688
f 689 697 698
f 698 697 689
f 689 698 690
f 690 698 689
f 690 698 699
f 699 698 690
f 690 699 691
f 691 699 690
f 691 699 700
f 700 699 691
f 691 700 692
f 692 700 691
f 692 700 701
f 701 700 692
f 692 701 693
f 693 701 692
f 693 701 702
f 702 701 693
f 693 702 694
f 694 702 693
f 694 702 703
f 703 702 694
f 694 703 695
f 695 703 694
f 695 703 704
f 704 703 695
f 695 704 696
f 696 704 695
f 696 704 697
f 697 704 696
f 696 697 689
f 689 697 696
f 697 705 706
f 706 705 697
f 697 706 698
f 698 706 697
f 698 706 707
f 707 706 698
f 698 707 699
f 699 707 698
f 699 707 708
f 708 707 699
f 699 708 700
f 700 708 699
f 700 708 709
f 709 708 700
f 700 709 701
f 701 709 700
f 701 709 710
f 710 709 701
f 701 710 702
f 702 710 701
f 702 710 711
f 711 710 702
f 702 711 703
f 703 711 702
f 703 711 712
f 712 711 703
f 703 712 704
f 704 712 703
f 704 712 705
f 705 712 704
f 704 705 697
f 697 705 704
f 705 713 714
f 714 713 705
f 705 714 706
f 706 714 705
f 706 714 715
f 715 714 706
f 706 715 707
f 707 715 706
f 707 715 716
f 716 715 707
f 707 716 708
f 708 716 707
f 708 716 717
f 717 716 708
f 708 717 709
f 709 717 708
f 709 717 718
f 718 717 709
f 709 718 710
f 710 718 709
f 710 718 719
f 719 718 710
f 710 719 711
f 711 719 710
f 711 719 720
f 720 719 711
f 711 720 712
f 712 720 711
f 712 720 713
f 713 720 712
f 712 713 705
f 705 713 712
f 713 721 722
f 722 721 713
f 713 722 714
f 714 722 713
f 714 722 723
f 723 722 714
f 714 723 715
f 715 723 714
f 715 723 724
f 724 723 715
f 715 724 716
f 716 724 715
f 716 724 725
f 725 724 716
f 716 725 717
f 717 725 716
f 717 725 726
f 726 725 717
f 717 726 718
f 718 726 717
f 718 726 727
f 727 726 718
f 718 727 719
f 719 727 718
f 719 727 728
f 728 727 719
f 719 728 720
f 720 728 719
f 720 728 721
f 721 728 720
f 720 721 713
f 713 721 720
f 721 729 730
f 730 729 721
f 721 730 722
f 722 730 721
f 722 730 731
f 731 730 722
f 722 731 723
f 723 731 722
f 723 731 732
f 732 731 723
f 723 732 724
f 724 732 723
f 724 732 733
f 733 732 724
f 724 733 725
f 725 733 724
f 725 733 734
f 734 733 725
f 725 734 726
f 726 734 725
f 726 734 735
f 735 734 726
f 726 735 727
f 727 735 726
f 727 735 736
f 736 735 727
f 727 736 728
f 728 736 727
f 728 736 729
f 729 736 728
f 728 729 721
f 721 729 728
f 737 745 746
f 746 745 737
f 737 746 738
f 738 746 737
f 738 746 747
f 747 746 738
f 738 747 739
f 739 747 738
f 739 747 748
f 748 747 739
f 739 748 740
f 740 748 739
f 740 748 749
f 749 748 740
f 740 749 741
f 741 749 740
f 741 749 750
f 750 749 741
f 741 750 742
f 742 750 741
f 742 750 751
f 751 750 742
f 742 751 743
f 743 751 742
f 743 751 752
f 752 751 743
f 743 752 744
f 744 752 743
f 744 752 745
f 745 752 744
f 744 745 737
f 737 745 744
f 745 753 754
f 754 753 745
f 745 754 746
f 746 754 745
f 746 754 755
f 755 754 746
f 746 755 747
f 747 755 746
f 747 755 756
f 756 755 747
f 747 756 748
f 748 756 747
f 748 756 757
f 757 756 748
f 748 757 749
f 749 757 748
f 749 757 758
f 758 757 749
f 749 758 750
f 750 758 749
f 750 758 759
f 759 758 750
f 750 759 751
f 751 759 750
f 751 759 760
f 760 759 751
f 751 760 752
f 752 760 751
f 752 760 753
f 753 760 752
f 752 753 745
f 745 753 752
f 753 761 762
f 762 761 753
f 753 762 754
f 754 762 753
f 754 762 763
f 763 762 754
f 754 763 755
f 755 763 754
f 755 763 764
f 764 763 755
f 755 764 756
f 756 764 755
f 756 764 765
f 765 764 756
f 756 765 757
f 757 765 756
f 757 765 766
f 766 765 757
f 757 766 758
f 758 766 757
f 758 766 767
f 767 766 758
f 758 767 759
f 759 767 758
f 759 767 768
f 768 767 759
f 759 768 760
f 760 768 759
f 760 768 761
f 761 768 760
f 760 761 753
f 753 761 760
f 761 769 770
f 770 769 761
f 761 770 762
f 762 770 761
f 762 770 771
f 771 770 762
f 762 771 763
f 763 771 762
f 763 771 772
f 772 771 763
f 763 772 764
f 764 772 763
f 764 772 773
f 773 772 764
f 764 773 765
f 765 773 764
f 765 773 774
f 774 773 765
f 765 774 766
f 766 774 765
f 766 774 775
f 775 774 766
f 766 775 767
f 767 775 766
f 767 775 776
f 776 775 767
f 767 776 768
f 768 776 767
f 768 776 769
f 769 776 768
f 768 769 761
f 761 769 768
f 769 777 778
f 778 777 769
f 769 778 770
f 770 778 769
f 770 778 779
f 779 778 770
f 770 779 771
f 771 779 770
f 771 779 780
f 780 779 771
f 771 780 772
f 772 780 771
f 772 780 781
f 781 780 772
f 772 781 773
f 773 781 772
f 773 781 782
f 782 781 773
f 773 782 774
f 774 782 773
f 774 782 783
f 783 782 774
f 774 783 775
f 775 783 774
f 775 783 784
f 784 783 775
f 775 784 776
f 776 784 775
f 776 784 777
f 777 784 776
f 776 777 769
f 769 777 776
f 777 785 786
f 786 785 777
f 777 786 778
f 778 786 777
f 778 786 787
f 787 786 778
f 778 787 779
f 779 787 778
f 779 787 788
f 788 787 779
f 779 788 780
f 780 788 779
f 780 788 789
f 789 788 780
f 780 789 781
f 781 789 780
f 781 789 790
f 790 789 781
f 781 790 782
f 782 790 781
f 782 790 791
f 791 790 782
f 782 791 783
f 783 791 782
f 783 791 792
f 792 791 783
f 783 792 784
f 784 792 783
f 784 792 785
f 785 792 784
f 784 785 777
f 777 785 784
f 793 801 802
f 802 801 793
f 793 802 794
f 794 802 793
f 794 802 803
f 803 802 794
f 794 803 795
f 795 803 794
f 795 803 804
f 804 803 795
f 795 804 796
f 796 804 795
f 796 804 805
f 805 804 796
f 796 805 797
f 797 805 796
f 797 805 806
f 806 805 797
f 797 806 798
f 798 806 797
f 798 806 807
f 807 806 798
f 798 807 799
f 799 807 798
f 799 807 808
f 808 807 799
f 799 808 800
f 800 808 799
f 800 808 801
f 801 808 800
f 800 801 793
f 793 801 800
f 801 809 810
f 810 809 801
f 801 810 802
f 802 810 801
f 802 810 811
f 811 810 802
f 802 811 803
f 803 811 802
f 803 811 812
f 812 811 803
f 803 812 804
f 804 812 803
f 804 812 813
f 813 812 804
f 804 813 805
f 805 813 804
f 805 813 814
f 814 813 805
f 805 814 806
f 806 814 805
f 806 814 815
f 815 814 806
f 806 815 807
f 807 815 806
f 807 815 816
f 816 815 807
f 807 816 808
f 808 816 807
f 808 816 809
f 809 816 808
f 808 809 801
f 801 809 808
f 809 817 818
f 818 817 809
f 809 818 810
f 810 818 809
f 810 818 819
f 819 818 810
f 810 819 811
f 811 819 810
f 811 819 820
f 820 819 811
f 811 820 812
f 812 820 811
f 812 820 821
f 821 820 812
f 812 821 813
f 813 821 812
f 813 821 822
f 822 821 813
f 813 822 814
f 814 822 813
f 814 822 823
f 823 822 814
f 814 823 815
f 815 823 814
f 815 823 824
f 824 823 815
f 815 824 816
f 816 824 815
f 816 824 817
f 817 824 816
f 816 817 809
f 809 817 816
f 817 825 826
f 826 825 817
f 817 826 818
f 818 826 817
f 818 826 827
f 827 826 818
f 818 827 819
f 819 827 818
f 819 827 828
f 828 827 819
f 819 828 820
f 820 828 819
f 820 828 829
f 829 828 820
f 820 829 821
f 821 829 820
f 821 829 830
f 830 829 821
f 821 830 822
f 822 830 821
f 822 830 831
f 831 830 822
f 822 831 823
f 823 831 822
f 823 831 832
f 832 831 823
f 823 832 824
f 824 832 823
f 824 832 825
f 825 832 824
f 824 825 817
f 817 825 824
f 825 833 834
f 834 833 825
f 825 834 826
f 826 834 825
f 826 834 835
f 835 834 826
f 826 835 827
f 827 835 826
f 827 835 836
f 836 835 827
f 827 836 828
f 828 836 827
f 828 836 837
f 837 836 828
f 828 837 829
f 829 837 828
f 829 837 838
f 838 837 829
f 829 838 830
f 830 838 829
f 830 838 839
f 839 838 830
f 830 839 831
f 831 839 830
f 831 839 840
f 840 839 831
f 831 840 832
f 832 840 831
f 832 840 833
f 833 840 832
f 832 833 825
f 825 833 832
f 833 841 842
f 842 841 833
f 833 842 834
f 834 842 833
f 834 842 843
f 843 842 834
f 834 843 835
f 835 843 834
f 835 843 844
f 844 843 835
f 835 844 836
f 836 844 835
f 836 844 845
f 845 844 836
f 836 845 837
f 837 845 836
f 837 845 846
f 846 845 837
f 837 846 838
f 838 846 837
f 838 846 847
f 847 846 838
f 838 847 839
f 839 847 838
f 839 847 848
f 848 847 839
f 839 848 840
f 840 848 839
f 840 848 841
f 841 848 840
f 840 841 833
f 833 841 840
usemtl stem
f 849 857 858
f 858 857 849
f 849 858 850
f 850 858 849
f 850 858 859
f 859 858 850
f 850 859 851
f 851 859 850
f 851 859 860
f 860 859 851
f 851 860 852
f 852 860 851
f 852 860 861
f 861 860 852
f 852 861 853
f 853 861 852
f 853 861 862
f 862 861 853
f 853 862 854
f 854 862 853
f 854 862 863
f 863 862 854
f 854 863 855
f 855 863 854
f 855 863 864
f 864 863 855
f 855 864 856
f 856 864 855
f 856 864 857
f 857 864 856
f 856 857 849
f 849 857 856
