# ProBuilder 6.0.9
# https://unity3d.com/unity/features/worldbuilding/probuilder
# 2026-07-14 오전 9:17:53

mtllib ./Sphere_(1).mtl
o Sphere (1)

g Sphere (1)
v 8.342332 -1.358678 9.190866
v 7.414732 -1.311114 8.683122
v 8.883217 -1.496825 8.778043
v 6.607624 -1.308945 8.210468
v 7.987693 -1.464043 8.275361
v 9.516514 -1.676815 8.398495
v 5.936443 -1.352211 7.781943
v 7.201591 -1.480215 7.795226
v 5.414023 -1.440085 7.405741
v 6.583683 -1.541976 7.382134
v 7.928962 -1.696636 7.435747
v 8.671082 -1.666053 7.890213
v 10.23011 -1.895206 8.059481
v 9.416735 -1.900256 7.565259
v 11.01037 -2.147822 7.767482
v 5.050354 -1.570887 7.089055
v 6.055427 -1.672344 6.969057
v 4.852391 -1.742116 6.837942
v 5.787745 -1.829136 6.689652
v 6.885458 -1.954161 6.619765
v 4.823917 -1.950497 6.657202
v 5.686734 -2.031893 6.476097
v 4.965478 -2.192045 6.550293
v 5.771573 -2.264742 6.344854
v 6.729579 -2.364597 6.219217
v 6.73605 -2.143596 6.37709
v 7.883677 -2.278597 6.366464
v 7.821182 -2.489702 6.175787
v 9.025504 -2.637663 6.215392
v 7.322271 -1.800361 6.980762
v 8.284387 -2.119401 6.663648
v 9.373099 -2.466955 6.462739
v 9.82763 -2.32624 6.809944
v 8.813164 -1.988906 7.077131
v 10.3779 -2.218982 7.248457
v 11.84236 -2.429832 7.528082
v 11.24359 -2.519104 7.042311
v 12.71018 -2.735844 7.34586
v 10.7224 -2.647727 6.634763
v 10.31952 -2.805652 6.337276
v 11.67848 -2.990455 6.539109
v 12.17431 -2.852338 6.895447
v 13.59723 -3.060006 7.224298
v 13.0764 -3.18854 6.817029
v 14.48655 -3.396119 7.165724
v 9.675219 -1.522359 9.461008
v 10.25602 -1.67602 9.055945
v 11.08537 -1.727394 9.751367
v 10.959 -1.879861 8.677539
v 11.70945 -2.114512 8.354238
v 12.45795 -2.119873 8.994276
v 11.75155 -1.905412 9.360972
v 12.54583 -1.969864 10.05639
v 13.23741 -2.163773 9.671839
v 14.02866 -2.24513 10.37024
v 12.67062 -2.433238 8.037436
v 13.53151 -2.732912 7.829638
v 14.35661 -2.749477 8.368473
v 14.44264 -3.064315 7.676031
v 15.33689 -3.399785 7.594916
v 16.15623 -3.408905 8.080008
v 15.27236 -3.072924 8.200509
v 16.02683 -3.088752 8.752443
v 16.92891 -3.423304 8.611722
v 17.64014 -3.442708 9.179892
v 13.40312 -2.417841 8.656645
v 15.16933 -2.762805 9.032918
v 16.83012 -3.11465 9.445148
v 15.94342 -2.800636 9.736824
v 14.20721 -2.443765 9.350032
v 15.00187 -2.508397 10.04774
v 15.50551 -2.547931 10.68692
v 16.47402 -2.827777 10.36705
v 16.94814 -2.872474 11.00037
v 17.42233 -3.142238 10.05449
v 18.27634 -3.466745 9.773653
v 18.82533 -3.494956 10.38165
v 17.9416 -3.177121 10.69329
v 18.32897 -3.212555 11.30461
v 19.27662 -3.5268 10.99226
v 19.62158 -3.56167 11.5938
v 8.696218 -1.352429 9.788183
v 10.06837 -1.531123 10.06959
v 9.146093 -1.390784 10.39946
v 11.56228 -1.759264 10.38337
v 13.04775 -2.017318 10.69638
v 12.08329 -1.83057 11.01814
v 10.58261 -1.589218 10.71077
v 9.683353 -1.47301 11.01301
v 11.15903 -1.689484 11.32758
v 10.29772 -1.597534 11.61709
v 14.81221 -2.361942 11.07228
v 16.28476 -2.681629 11.38945
v 15.56876 -2.511332 11.76068
v 17.75396 -3.032224 11.70693
v 19.08962 -3.382404 12.0024
v 18.45491 -3.208925 12.38262
v 17.04593 -2.851595 12.08772
v 16.2797 -2.689621 12.41849
v 17.72958 -3.044549 12.72718
v 16.9275 -2.89242 13.0295
v 13.82751 -2.150566 11.40114
v 14.59977 -2.323007 12.10958
v 15.28674 -2.517268 12.75033
v 13.6073 -2.17087 12.41619
v 12.83357 -1.978043 11.73331
v 11.93053 -1.861755 12.03532
v 10.97746 -1.761975 12.20016
v 12.64749 -2.050291 12.605
v 11.70956 -1.963188 12.75107
v 14.38834 -2.390303 12.97587
v 16.064 -2.755447 13.2838
v 15.15561 -2.636249 13.48522
v 13.42886 -2.281496 13.15235
v 12.48003 -2.197327 13.25928
v 14.21968 -2.537106 13.6299
v 13.27413 -2.459913 13.71507
v 7.29916 -1.221873 9.307423
v 7.684074 -1.229595 9.915471
v 6.378692 -1.132168 9.447132
v 8.177715 -1.285085 10.55532
v 8.749087 -1.384713 11.1718
v 7.322751 -1.228533 10.71042
v 6.779699 -1.154439 10.07423
v 5.598526 -1.091279 9.607323
v 6.053835 -1.132839 10.2443
v 4.973585 -1.099988 9.78493
v 9.520591 -1.556984 11.87955
v 10.2426 -1.746158 12.44955
v 8.84676 -1.568833 12.10848
v 11.04456 -1.979967 12.99823
v 11.84363 -2.23662 13.47631
v 10.44893 -2.041023 13.18098
v 9.605759 -1.785479 12.66673
v 8.292824 -1.63279 12.29825
v 9.116701 -1.876863 12.83474
v 7.872422 -1.747278 12.44419
v 8.008939 -1.367901 11.42145
v 7.362827 -1.407794 11.64179
v 6.875845 -1.500372 11.81064
v 6.047694 -1.307258 11.14525
v 6.590563 -1.235353 10.93335
v 5.40836 -1.172693 10.46443
v 4.515817 -1.158129 9.97656
v 5.052124 -1.261104 10.66339
v 4.233975 -1.264588 10.17854
v 5.813301 -1.43107 11.36166
v 6.739884 -1.654747 12.01682
v 5.740743 -1.601039 11.56079
v 4.872536 -1.403187 10.87429
v 4.133448 -1.417332 10.38703
v 4.894105 -1.587181 11.08482
v 4.21616 -1.613438 10.59801
v 6.398144 -1.188137 8.806577
v 5.482662 -1.112623 8.95576
v 4.754076 -1.090936 9.123486
v 4.755238 -1.145757 8.496383
v 5.598313 -1.201926 8.331031
v 4.97704 -1.263104 7.919062
v 4.108601 -1.130789 9.343612
v 3.755086 -1.219289 9.544915
v 3.48018 -1.224483 8.931215
v 3.586605 -1.361729 9.765396
v 3.612619 -1.545866 9.979756
v 3.202274 -1.5192 9.371795
v 3.233899 -1.347911 9.137366
v 3.103797 -1.378762 8.557894
v 2.992974 -1.533948 8.785754
v 2.988721 -1.58983 8.232841
v 3.988482 -1.151463 8.689506
v 3.459705 -1.281958 8.276021
v 3.221016 -1.469276 7.924691
v 3.711732 -1.403282 7.6804
v 4.105817 -1.242066 8.055677
v 4.448784 -1.393471 7.505986
v 4.184467 -1.550847 7.225456
v 3.547629 -1.590167 7.442636
v 3.189595 -1.685775 7.723629
v 3.591758 -1.81995 7.267855
v 4.097185 -1.755987 7.007313
v 4.187516 -1.98979 6.874234
v 20.62296 -3.890864 11.49701
v 20.24356 -3.857782 10.88636
v 21.49227 -4.216121 11.3815
v 19.74416 -3.828778 10.24923
v 19.15683 -3.802631 9.640293
v 20.53954 -4.159657 10.12231
v 21.09142 -4.193091 10.75432
v 22.21287 -4.531223 11.24948
v 21.75423 -4.504995 10.61408
v 22.771 -4.830142 11.10348
v 18.35353 -3.776733 8.94759
v 17.59419 -3.759464 8.395247
v 18.95273 -4.108498 8.75396
v 16.74459 -3.744977 7.869101
v 15.89122 -3.738315 7.416701
v 17.2543 -4.079491 7.726985
v 18.14891 -4.098226 8.216909
v 19.42298 -4.429836 8.603771
v 18.54972 -4.413124 8.090643
v 19.7527 -4.732833 8.50072
v 19.82733 -4.140124 9.423594
v 20.39012 -4.483819 9.24266
v 20.78852 -4.79909 9.115718
v 21.65018 -4.837915 9.765249
v 21.19421 -4.509742 9.936047
v 22.31647 -4.848351 10.43332
v 23.15597 -5.107164 10.94628
v 22.59623 -5.112065 10.27054
v 23.36042 -5.35699 10.7809
v 21.80369 -5.086514 9.587106
v 20.84025 -5.032506 8.949376
v 21.79156 -5.306411 9.428031
v 22.69255 -5.353363 10.09902
v 23.38046 -5.574845 10.6105
v 22.58845 -5.549312 9.927531
v 23.21568 -5.756562 10.43833
v 14.49417 -3.607758 6.93594
v 13.07436 -3.40199 6.606089
v 14.4869 -3.820875 6.774657
v 11.63022 -3.202126 6.342906
v 10.28283 -3.022518 6.170269
v 11.62468 -3.423686 6.232205
v 13.04896 -3.621631 6.461898
v 14.46489 -4.031394 6.684958
v 13.01803 -3.831288 6.399677
v 14.42856 -4.235288 6.668559
v 8.793403 -2.83416 6.073995
v 7.643871 -2.697996 6.085232
v 8.682509 -3.051607 6.042027
v 6.586782 -2.581545 6.186739
v 5.720854 -2.498249 6.368844
v 6.629113 -2.827147 6.266739
v 7.593119 -2.931663 6.109239
v 8.695556 -3.28465 6.120277
v 7.672888 -3.172448 6.245931
v 8.832219 -3.527551 6.306818
v 10.10563 -3.231623 6.078131
v 10.05414 -3.468693 6.102488
v 10.13354 -3.709845 6.240884
v 11.52307 -3.891528 6.280271
v 11.54503 -3.657238 6.198857
v 12.96659 -4.068125 6.424009
v 14.37861 -4.42866 6.725772
v 12.91128 -4.255511 6.527021
v 14.31598 -4.607811 6.855505
v 11.44179 -4.069673 6.432035
v 10.08494 -3.885665 6.448235
v 11.40709 -4.239941 6.667479
v 12.85029 -4.433596 6.712073
v 14.24187 -4.769317 7.055276
v 12.77339 -4.583606 6.960355
v 14.15771 -4.910087 7.321266
v 4.741854 -2.32832 6.696019
v 4.014836 -2.13512 7.046265
v 4.689833 -2.490537 6.914833
v 3.464569 -1.972574 7.481924
v 3.137783 -1.852486 7.964061
v 3.547314 -2.160266 7.758172
v 4.019288 -2.311336 7.303587
v 4.810411 -2.675595 7.20255
v 4.207231 -2.50559 7.620242
v 5.101282 -2.879955 7.55367
v 3.020564 -1.761972 8.597264
v 3.150839 -1.730319 9.176654
v 3.315762 -1.981467 9.008986
v 3.504257 -1.740862 9.804347
v 4.051385 -1.795155 10.42584
v 4.071417 -2.013009 10.25544
v 3.589907 -1.979778 9.623046
v 3.867047 -2.242908 9.457869
v 4.275873 -2.262836 10.09005
v 4.660844 -2.539858 9.932859
v 3.293074 -2.049134 8.354839
v 3.738535 -2.302227 8.807733
v 4.429289 -2.586265 9.277113
v 4.426402 -2.659726 8.651924
v 3.85587 -2.39283 8.173905
v 4.652253 -2.758433 8.072689
v 5.556884 -3.099709 7.961477
v 5.210363 -2.988054 8.514534
v 6.168506 -3.330655 8.418175
v 5.094713 -2.898751 9.139262
v 5.218968 -2.838777 9.786857
v 5.939574 -3.153878 9.654839
v 5.953249 -3.236443 9.017015
v 6.924451 -3.568377 8.915028
v 6.80888 -3.479136 9.53933
v 7.810265 -3.80833 9.442537
v 4.843387 -1.820688 11.10881
v 5.584937 -1.807942 11.59858
v 5.640276 -2.063589 11.60831
v 6.531856 -1.839322 12.0922
v 7.595907 -1.90948 12.54271
v 7.470087 -2.115401 12.59138
v 6.481102 -2.072989 12.11621
v 6.59159 -2.337494 12.08696
v 7.49806 -2.35997 12.58899
v 7.679137 -2.637167 12.53562
v 9.012885 -2.041898 13.03033
v 10.32431 -2.19373 13.39727
v 10.26915 -2.376976 13.5546
v 11.75696 -2.384723 13.72251
v 13.18997 -2.600683 13.98106
v 13.11586 -2.762189 14.18083
v 11.67157 -2.558043 13.90237
v 11.61029 -2.744262 14.00411
v 13.05323 -2.94134 14.31057
v 13.00328 -3.134712 14.36778
v 8.804371 -2.226817 13.10738
v 10.17125 -2.596435 13.61984
v 11.55885 -2.981099 14.02844
v 10.16754 -2.844818 13.60266
v 8.752878 -2.463887 13.13174
v 8.863597 -2.729225 13.10094
v 8.882121 -2.956876 12.9457
v 10.13588 -3.061277 13.4864
v 10.17754 -3.290509 13.30935
v 11.5339 -3.191923 13.96749
v 12.96695 -3.338607 14.35138
v 12.94494 -3.549125 14.26168
v 11.53289 -3.416329 13.8285
v 11.54062 -3.631685 13.61964
v 12.93767 -3.762242 14.1004
v 12.94529 -3.973881 13.87062
v 14.65845 -2.786394 14.07598
v 15.61484 -2.872606 13.97188
v 16.02475 -3.130059 14.36886
v 16.5932 -2.986519 13.80249
v 17.49622 -3.114735 13.57868
v 17.97186 -3.351092 14.05249
v 17.03226 -3.235978 14.24888
v 17.3469 -3.484335 14.5881
v 18.3427 -3.59567 14.43928
v 18.59962 -3.842449 14.72952
v 18.48918 -3.287088 13.24684
v 19.25079 -3.447811 12.91434
v 19.93333 -3.691554 13.39699
v 19.93994 -3.623334 12.52647
v 20.50739 -3.801622 12.12131
v 21.26333 -4.039345 12.61816
v 20.66953 -3.867316 13.03333
v 21.22439 -4.095858 13.47625
v 21.87496 -4.270291 13.07486
v 22.33056 -4.490046 13.48267
v 19.0231 -3.519119 13.76791
v 20.4625 -3.944734 13.88864
v 21.66941 -4.348701 13.92869
v 20.81242 -4.191013 14.29074
v 19.46856 -3.772211 14.22081
v 19.78069 -4.020866 14.55989
v 19.75895 -4.197551 14.79041
v 20.88094 -4.373988 14.57167
v 20.80273 -4.542853 14.7696
v 21.86061 -4.544034 14.24427
v 22.62143 -4.694406 13.83379
v 22.74201 -4.879463 14.12151
v 21.87835 -4.724657 14.49722
v 21.71099 -4.871751 14.66749
v 22.68999 -5.04168 14.34032
v 22.46636 -5.177955 14.48605
v 19.08951 -6.011322 11.84547
v 20.13268 -6.148128 11.72892
v 18.73562 -6.017571 11.24816
v 21.05315 -6.237832 11.58921
v 19.74777 -6.140405 11.12087
v 18.28575 -5.979216 10.63688
v 21.83331 -6.278721 11.42902
v 20.65214 -6.21556 10.96211
v 22.45826 -6.270011 11.25141
v 21.37801 -6.237161 10.79204
v 20.10909 -6.141467 10.32592
v 19.25413 -6.084915 10.48102
v 17.74849 -5.89699 10.02333
v 18.68275 -5.985287 9.864535
v 17.13412 -5.772466 9.419247
v 22.91602 -6.211871 11.05978
v 22.02348 -6.197307 10.57191
v 23.19787 -6.105412 10.85779
v 22.37972 -6.108895 10.37295
v 21.38415 -6.062741 9.891085
v 23.29839 -5.952668 10.64931
v 22.55931 -5.966813 10.16205
v 22.53773 -5.782819 9.951521
v 21.6911 -5.768961 9.475552
v 21.61854 -5.93893 9.674682
v 20.556 -5.869628 9.225703
v 20.69196 -5.715252 9.01952
v 19.55942 -5.622722 8.592146
v 20.84128 -6.134647 10.10299
v 20.06901 -5.962206 9.394546
v 19.13902 -5.73721 8.738088
v 18.58508 -5.801167 8.927861
v 19.4229 -6.002099 9.614889
v 17.91125 -5.813015 9.156793
v 16.45438 -5.608025 8.836176
v 17.18925 -5.623841 8.586788
v 15.72228 -5.406812 8.285269
v 17.82608 -5.584521 8.369608
v 18.31514 -5.493137 8.201601
v 16.98291 -5.328977 7.855355
v 16.38728 -5.390032 8.038111
v 14.95181 -5.172673 7.777059
v 15.58821 -5.13338 7.560027
v 17.75662 -5.847641 11.57533
v 17.36347 -5.838877 10.96675
v 16.34647 -5.642606 11.28497
v 16.84923 -5.780782 10.32557
v 16.27282 -5.680516 9.708759
v 15.34855 -5.53943 10.0182
v 15.86956 -5.610736 10.65297
v 14.88601 -5.400136 10.97995
v 14.38409 -5.352682 10.33996
v 13.40318 -5.124869 10.6661
v 15.50131 -5.508245 9.001018
v 14.78435 -5.319709 8.431339
v 13.82455 -5.19913 8.620146
v 14.00298 -5.088504 7.883992
v 13.21216 -4.832894 7.406442
v 12.27623 -4.73375 7.55112
v 13.0435 -4.979697 8.060468
v 12.1451 -4.852731 8.286009
v 11.36784 -4.614553 7.752536
v 10.50434 -4.47758 8.006836
v 14.59827 -5.391956 9.303031
v 12.83207 -5.046993 8.926759
v 11.15215 -4.680378 8.617849
v 11.86308 -4.858668 9.275654
v 13.60433 -5.219434 9.635199
v 12.61963 -5.008058 9.964054
v 11.92633 -4.822069 10.34942
v 11.14708 -4.688371 9.646888
v 10.4837 -4.497526 10.03596
v 10.38591 -4.518405 8.948618
v 9.702261 -4.325451 8.309159
v 8.97693 -4.161075 8.653723
v 9.677884 -4.337776 9.329409
v 9.102875 -4.157445 9.731731
v 8.342218 -3.987596 9.033939
v 18.54862 -5.873175 12.2583
v 17.17582 -5.69398 11.98039
v 17.91533 -5.693185 12.63784
v 15.68029 -5.464588 11.67537
v 14.19443 -5.206227 11.3645
v 14.9739 -5.250126 12.04206
v 16.47284 -5.490139 12.3588
v 17.20173 -5.474794 12.97686
v 15.72239 -5.255487 12.6821
v 16.42147 -5.222178 13.26886
v 12.42997 -4.861603 10.9886
v 10.95782 -4.542222 10.66929
v 11.48842 -4.569365 11.29951
v 9.490237 -4.192879 10.34305
v 8.15522 -3.843199 10.04408
v 8.606509 -3.875044 10.65469
v 10.00951 -4.227762 10.98185
v 10.60172 -4.25535 11.59119
v 9.155501 -3.903255 11.26269
v 9.791698 -3.927292 11.85645
v 13.22463 -4.926235 11.68631
v 12.26251 -4.607195 12.00342
v 11.40501 -4.281248 12.2839
v 13.07523 -4.620522 12.66787
v 14.02872 -4.952158 12.37969
v 14.76122 -4.936762 12.9989
v 15.58948 -4.940168 13.50826
v 13.90033 -4.637088 13.2067
v 14.72166 -4.634156 13.69048
v 12.15948 -4.297076 12.83583
v 10.50294 -3.946696 12.42462
v 11.27561 -3.961095 12.95633
v 12.9892 -4.305685 13.36031
v 13.83461 -4.309994 13.81204
v 12.09495 -3.970215 13.44142
v 20.01711 -6.058886 12.35322
v 19.44415 -5.905957 12.76098
v 20.82422 -6.061055 12.82587
v 18.76076 -5.703947 13.14613
v 18.01511 -5.469744 13.47108
v 19.50288 -5.673364 13.60059
v 20.23025 -5.889785 13.24111
v 21.4954 -6.017789 13.2544
v 20.84816 -5.828023 13.65421
v 22.01782 -5.929915 13.6306
v 17.05394 -5.151018 13.78788
v 16.18825 -4.850896 13.99403
v 17.60421 -5.04376 14.22639
v 15.25753 -4.517662 14.14089
v 14.35544 -4.181459 14.21931
v 15.75336 -4.379545 14.49723
v 16.70944 -4.722273 14.40158
v 18.05874 -4.903045 14.5736
v 17.11232 -4.564348 14.69906
v 18.40634 -4.732337 14.82095
v 18.61868 -5.381094 13.95921
v 19.14746 -5.250598 14.37269
v 19.54816 -5.091403 14.66987
v 20.54638 -5.415839 14.41657
v 20.10957 -5.569639 14.05558
v 21.37641 -5.697656 14.06728
v 22.38149 -5.799113 13.94728
v 21.64409 -5.540864 14.34669
v 22.57945 -5.627884 14.1984
v 20.69579 -5.226404 14.65925
v 19.61066 -4.880298 14.86055
v 20.70226 -5.005403 14.81712
v 21.74511 -5.338108 14.56024
v 22.60792 -5.419503 14.37914
v 21.66027 -5.105258 14.69148
v 21.0337 -6.181863 12.22976
v 21.83353 -6.168074 12.70531
v 22.4548 -6.106896 13.11728
v 22.6766 -6.224243 12.53996
v 21.94918 -6.257376 12.08058
v 22.67776 -6.279064 11.91285
v 22.98306 -5.976529 13.53035
v 23.24737 -5.819153 13.81088
v 23.72011 -5.966718 13.35594
v 23.33466 -5.614013 14.02903
v 23.24432 -5.38021 14.1621
v 23.84008 -5.550049 13.76848
v 23.88421 -5.779833 13.5937
v 24.21082 -5.900723 13.11165
v 24.24224 -5.684225 13.31271
v 24.44312 -5.78017 12.8035
v 23.32602 -6.127934 12.98066
v 23.97214 -6.088041 12.76032
v 24.32804 -5.991238 12.47845
v 23.95166 -6.145517 12.10512
v 23.44336 -6.218537 12.34683
v 23.32324 -6.239211 11.69273
v 23.67675 -6.150712 11.49142
v 24.19794 -6.022089 11.89897
v 24.43887 -5.836052 12.25058
v 24.22957 -5.8508 11.66454
v 23.84524 -6.008271 11.27094
v 23.81922 -5.824133 11.05658
v 15.67488 -4.985277 7.313825
v 17.10753 -5.17627 7.639067
v 18.41896 -5.328102 8.006013
v 17.16269 -4.993024 7.481739
v 15.76027 -4.811957 7.13397
v 15.82155 -4.625738 7.032231
v 19.83593 -5.46052 8.493629
v 20.89999 -5.530678 8.94414
v 19.96175 -5.254599 8.444963
v 21.8469 -5.562057 9.437763
v 20.95074 -5.297011 8.920134
v 19.93378 -5.01003 8.447347
v 18.62747 -5.143183 7.928954
v 18.67896 -4.906113 7.904598
v 18.56824 -4.640775 7.935399
v 17.26431 -4.525182 7.433674
v 17.26059 -4.773564 7.416502
v 15.87299 -4.388901 7.007899
v 15.89795 -4.178077 7.068847
v 17.29596 -4.308723 7.549937
v 15.89895 -3.953671 7.20784
v 7.491905 -3.746666 8.509872
v 8.181047 -3.922189 8.122004
v 8.942659 -4.082912 7.7895
v 7.49851 -3.678446 7.639354
v 6.762308 -3.502684 8.003011
v 6.207455 -3.274142 7.560093
v 9.93562 -4.255265 7.457661
v 10.83864 -4.383482 7.233853
v 9.45998 -4.018908 6.983845
v 11.817 -4.497394 7.064456
v 10.39958 -4.134022 6.787462
v 9.089136 -3.774329 6.597056
v 8.40874 -3.850881 7.268427
v 7.963279 -3.597789 6.815534
v 7.651155 -3.349134 6.476449
v 6.619424 -3.178987 6.745601
v 6.96934 -3.425266 7.147701
v 5.762432 -3.0213 7.107646
v 5.571233 -2.825966 6.792064
v 6.550904 -2.996012 6.464665
v 5.553492 -2.645343 6.539122
v 10.68725 -3.625023 13.16724
v 9.837651 -3.610536 12.64109
v 9.078308 -3.593267 12.08875
v 8.47911 -3.261502 12.28238
v 9.282933 -3.271774 12.81943
v 8.008861 -2.940164 12.43257
v 8.275012 -3.567369 11.39605
v 7.687679 -3.541222 10.78711
v 6.892299 -3.210343 10.91403
v 7.188286 -3.512218 10.14998
v 6.340416 -3.176908 10.28201
v 5.677607 -2.865005 10.42226
v 7.604516 -3.229876 11.61274
v 6.237632 -2.860257 11.10029
v 5.115365 -2.521648 10.60302
v 5.781661 -2.532084 11.27109
v 7.041719 -2.886181 11.79368
v 6.643323 -2.570909 11.92062
v 5.628156 -2.283486 11.44923
v 4.835611 -2.257935 10.7658
v 4.739294 -2.016637 10.93731
v 20.84506 -4.788455 14.8496
v 19.78797 -4.672004 14.95111
v 18.63844 -4.535841 14.96234
v 18.74933 -4.318393 14.99431
v 19.83872 -4.438337 14.9271
v 18.73629 -4.08535 14.91606
v 17.14902 -4.347482 14.86607
v 15.80162 -4.167874 14.69343
v 15.80716 -3.946314 14.80413
v 14.35748 -3.968009 14.43025
v 14.38288 -3.748369 14.57444
v 14.41381 -3.538712 14.63666
v 17.32621 -4.138377 14.95821
v 15.88681 -3.712762 14.83748
v 14.46525 -3.301875 14.61233
v 15.90878 -3.478472 14.75607
v 17.3777 -3.901306 14.93385
v 17.2983 -3.660155 14.79545
v 15.99005 -3.300327 14.6043
v 14.52056 -3.114489 14.50932
v 14.58155 -2.936404 14.32427
v 23.92758 -5.629138 11.23199
v 24.281 -5.639681 11.85968
v 24.41128 -5.608027 12.43907
v 24.11608 -5.388533 12.02735
v 23.84193 -5.390222 11.41329
v 23.56479 -5.127092 11.57847
v 24.29406 -5.517513 13.07228
v 23.96727 -5.397426 13.55441
v 23.88453 -5.209733 13.27817
v 23.417 -5.23488 13.99007
v 23.41255 -5.058664 13.73275
v 23.22461 -4.86441 13.4161
v 24.13877 -5.320865 12.6815
v 23.57597 -4.97717 12.86243
v 22.77959 -4.611567 12.96365
v 23.00544 -4.710274 12.38441
v 23.69331 -5.067773 12.22861
v 23.00255 -4.783735 11.75923
v 22.33713 -4.471248 11.89708
v 22.22148 -4.381946 12.5218
v 21.47859 -4.133557 12.01932

vt -0.5870448 -2.492608E-09
vt -0.6874416 0.1068583
vt -0.54094 0.1729003
vt -0.7746931 0.2116732
vt -0.6378743 0.2807288
vt -0.4844911 0.3424944
vt -0.2116732 1.039625
vt -0.3124404 0.8986166
vt -0.3900849 1.040015
vt -0.407233 0.7404246
vt -0.4899021 0.8907322
vt -0.7229168 0.3900849
vt -0.7895735 0.4899021
vt -0.6563361 0.5605083
vt -0.5763146 0.4561721
vt -0.4187776 0.5055392
vt -0.5069375 0.6173127
vt -0.3450563 0.658917
vt -0.4942385 0.5680741
vt -0.5982841 0.693674
vt -0.571793 0.3848608
vt -0.6801625 0.5126004
vt -0.7746034 0.6298428
vt -0.6384136 0.194288
vt -0.7528148 0.3154548
vt -0.6928263 1.689868E-08
vt -0.8113139 0.1200766
vt -0.9142874 0.237857
vt -0.8531814 0.4383381
vt -0.9318493 0.5505028
vt 0.7842171 0.4383381
vt 0.783923 0.237857
vt 0.6775964 0.3510891
vt 0.6716513 0.5505028
vt 0.5583128 0.4576076
vt -0.6765436 0.8355755
vt -0.5605083 1.019107
vt 0.7684516 0.6298428
vt 0.6300607 0.7602317
vt 0.5230607 0.6722916
vt 0.4749292 0.8704214
vt -0.8520821 0.7602317
vt 0.5732481 0.9574842
vt 0.7219853 0.8355755
vt -0.7219853 0.6765436
vt -0.5732481 0.7435933
vt -0.4749292 0.9069213
vt -0.4151033 0.7926783
vt -0.2647367 0.7996947
vt 0.4151033 1.047119
vt 0.3305263 0.9587195
vt -0.3305263 0.9255278
vt -0.1793547 0.9251806
vt 0.3865233 0.7642983
vt 0.4283529 0.5553755
vt 0.290202 0.6425235
vt 0.2378668 0.8459377
vt 0.1793547 1.027384
vt 0.09054303 0.911673
vt 0.1465017 0.7173851
vt 6.799884E-09 0.7785285
vt -0.4503969 -2.681293E-09
vt -0.4000075 0.1734999
vt -0.3051364 -2.818707E-09
vt -0.3363934 0.3480172
vt -0.2665128 0.5089308
vt -0.1814069 0.3464132
vt -0.2457884 0.1749984
vt -0.154041 -2.90222E-09
vt -0.09183408 0.1753656
vt -4.581824E-08 -2.930236E-09
vt -0.1746788 0.6842964
vt -0.0906051 0.8173727
vt -3.897532E-08 0.6928263
vt 5.685803E-09 1.040899
vt -0.09054302 0.911673
vt -0.1793547 1.027384
vt -3.220596E-08 0.9373512
vt 0.1793546 0.9251806
vt 0.09060503 0.8173727
vt 0.1746787 0.6842964
vt 0.2647366 0.7996947
vt 0.3450562 0.658917
vt -0.09192466 0.5266157
vt 0.09192457 0.5266157
vt 0.2665127 0.5089308
vt 0.1814068 0.3464132
vt -4.416243E-08 0.3510772
vt 0.09183399 0.1753656
vt 0.1540409 -2.90222E-09
vt 0.2457883 0.1749984
vt 0.3051364 -2.818707E-09
vt 0.3363933 0.3480172
vt 0.4187776 0.5055392
vt 0.484491 0.3424944
vt 0.4000074 0.1734999
vt 0.4503969 -2.681293E-09
vt 0.5409399 0.1729003
vt 0.5870447 -2.492608E-09
vt -0.54094 -0.1729003
vt -0.4000075 -0.1734999
vt -0.4844911 -0.3424944
vt -0.2457884 -0.1749984
vt -0.09183408 -0.1753656
vt -0.1814069 -0.3464132
vt -0.3363934 -0.3480172
vt -0.4187776 -0.5055392
vt -0.2665128 -0.5089308
vt -0.3450563 -0.658917
vt 0.09183399 -0.1753656
vt 0.2457883 -0.1749984
vt 0.1814068 -0.3464132
vt 0.4000074 -0.1734999
vt 0.5409399 -0.1729003
vt 0.484491 -0.3424944
vt 0.3363933 -0.3480172
vt 0.2665127 -0.5089308
vt 0.4187776 -0.5055392
vt 0.3450562 -0.658917
vt -4.416243E-08 -0.3510772
vt 0.09192457 -0.5266157
vt 0.1746787 -0.6842964
vt -3.897532E-08 -0.6928263
vt -0.09192466 -0.5266157
vt -0.1746788 -0.6842964
vt -0.2647367 -0.7996947
vt -0.0906051 -0.8173727
vt -0.1793547 -0.9251806
vt 0.09060503 -0.8173727
vt 0.2647366 -0.7996947
vt 0.1793546 -0.9251806
vt -3.220596E-08 -0.9373512
vt -0.6874416 -0.1068583
vt -0.6378743 -0.2807288
vt -0.7746931 -0.2116732
vt -0.5763146 -0.4561721
vt -0.5069375 -0.6173127
vt -0.6563361 -0.5605083
vt -0.7229168 -0.3900849
vt 0.2116732 1.039625
vt 0.3900849 1.040015
vt 0.3124404 0.8986166
vt -0.7895735 -0.4899021
vt 0.4899021 0.8907322
vt 0.407233 0.7404246
vt -0.4151033 -0.7926783
vt -0.3305263 -0.9255278
vt -0.4151033 1.047119
vt -0.3305262 0.9587194
vt -0.4749292 0.8704214
vt -0.2378667 0.8459376
vt -0.1465017 0.717385
vt -0.2902019 0.6425235
vt -0.3865232 0.7642983
vt -0.5230607 0.6722915
vt -0.4283529 0.5553755
vt -0.5583128 0.4576075
vt -0.4749292 -0.9069213
vt -0.5732481 -0.7435933
vt -0.6300607 0.7602317
vt -0.6716513 0.5505027
vt -0.7684516 0.6298428
vt -0.5732481 0.9574842
vt 0.8520821 0.7602317
vt 0.7746034 0.6298428
vt 0.6765436 0.8355755
vt -0.7219853 0.8355755
vt -0.7219853 -0.6765436
vt 0.5605083 1.019107
vt 0.5982841 0.693674
vt 0.4942385 0.5680741
vt 0.6801625 0.5126004
vt 0.571793 0.3848608
vt 0.9318493 0.5505028
vt 0.8531814 0.4383381
vt -0.6775964 0.3510891
vt -0.7842171 0.4383381
vt -0.783923 0.237857
vt 0.9142874 0.237857
vt 0.7528148 0.3154548
vt 0.6384136 0.194288
vt 0.8113139 0.1200766
vt 0.6928263 1.689868E-08
vt -0.784884 -2.084223E-09
vt 0.1069315 0.9184813
vt 0.2061546 0.7689435
vt -3.137902E-09 1.053301
vt -0.1069315 0.9184813
vt -0.2061546 0.7689435
vt 0.3145365 0.5718853
vt 0.3970091 0.3910668
vt 0.2140951 0.3892643
vt 0.4720861 0.1949618
vt 0.5315554 1.817788E-08
vt 0.3601199 1.910947E-08
vt 0.2900777 0.1966457
vt 0.1083819 0.1970583
vt 0.1817981 1.967566E-08
vt 0.1084888 0.5917578
vt -4.302848E-09 0.3945053
vt -0.1083819 0.1970583
vt -0.2140951 0.3892643
vt -0.1084888 0.5917578
vt -0.3145365 0.5718853
vt -0.3970091 0.3910668
vt -0.2900777 0.1966457
vt -0.1817981 1.967566E-08
vt -0.3601199 1.910947E-08
vt -0.4720861 0.1949618
vt -0.5315554 1.817788E-08
vt 0.6874415 0.1068583
vt 0.6378742 0.2807288
vt 0.774693 0.2116732
vt 0.5763145 0.4561721
vt 0.5069374 0.6173127
vt 0.656336 0.5605083
vt 0.7229167 0.3900849
vt 0.7895735 0.4899021
vt 0.4151033 0.7926783
vt 0.3305262 0.9255278
vt 0.4749292 0.9069213
vt 0.5732481 0.7435933
vt 0.7219853 0.6765436
vt 7.314622E-09 0.5973085
vt 0.1470098 0.5304829
vt 7.689488E-09 0.4046665
vt 0.2948816 0.446119
vt 0.4312267 0.3534445
vt 0.2935224 0.2405785
vt 0.1482795 0.3259602
vt 7.917313E-09 0.2042865
vt 0.1485906 0.1217887
vt 0.5798173 0.2316559
vt 0.6925753 0.1201589
vt -0.9263147 1.413003E-08
vt -0.8113139 -0.1200766
vt -0.9142874 -0.237857
vt 0.7942353 -1.404715E-09
vt 0.783923 -0.237857
vt 0.6925753 -0.1201589
vt 0.5798173 -0.2316559
vt 0.6775964 -0.3510891
vt 0.5583128 -0.4576076
vt 0.4462114 0.1219088
vt 0.4462114 -0.1219088
vt 0.4312267 -0.3534445
vt 0.2935224 -0.2405785
vt 0.2974743 -1.926215E-09
vt 0.1485906 -0.1217887
vt 7.917313E-09 -0.2042865
vt 0.1482795 -0.3259602
vt 7.689488E-09 -0.4046665
vt 0.2948816 -0.446119
vt 0.4283529 -0.5553755
vt 0.290202 -0.6425235
vt 0.1470098 -0.5304829
vt 7.314622E-09 -0.5973085
vt 0.1465017 -0.7173851
vt 6.799884E-09 -0.7785285
vt -0.6384136 -0.194288
vt -0.4720861 -0.1949618
vt -0.571793 -0.3848608
vt -0.2900777 -0.1966456
vt -0.1083819 -0.1970583
vt -0.2140951 -0.3892643
vt -0.3970091 -0.3910667
vt -0.4942385 -0.5680741
vt -0.3145365 -0.5718853
vt -0.407233 -0.7404246
vt 0.1083819 -0.1970583
vt 0.2900777 -0.1966456
vt 0.2140951 -0.3892643
vt 0.4720861 -0.1949618
vt 0.6384136 -0.194288
vt 0.571793 -0.3848608
vt 0.3970091 -0.3910667
vt 0.3145365 -0.5718853
vt 0.4942385 -0.5680741
vt 0.407233 -0.7404246
vt -4.302848E-09 -0.3945052
vt 0.1084888 -0.5917578
vt 0.2061546 -0.7689435
vt -0.1084888 -0.5917578
vt -0.2061546 -0.7689435
vt -0.3124404 -0.8986166
vt -0.1069315 -0.9184813
vt -0.2116732 -1.039625
vt 0.1069315 -0.9184813
vt 0.3124404 -0.8986166
vt 0.2116732 -1.039625
vt -3.137902E-09 -1.053301
vt 0.7848839 -2.084223E-09
vt 0.774693 -0.2116732
vt 0.6874415 -0.1068583
vt 0.8113139 -0.1200766
vt 0.9263147 1.413003E-08
vt 0.9142874 -0.237857
vt -0.6925753 0.1201588
vt -0.5798173 0.2316558
vt -0.7942353 -3.137194E-08
vt -0.6925753 -0.1201589
vt -0.783923 -0.237857
vt -0.6775964 -0.3510891
vt -0.5798173 -0.2316559
vt -0.5583128 -0.4576076
vt -0.4312267 0.3534445
vt -0.2948815 0.4461189
vt -0.2935224 0.2405785
vt -0.1470097 0.5304828
vt -0.1482795 0.3259601
vt -0.1485906 0.1217887
vt -0.4462114 0.1219088
vt -0.2974743 -4.301878E-08
vt -0.1485906 -0.1217887
vt -0.2935224 -0.2405786
vt -0.4462114 -0.1219089
vt -0.4312267 -0.3534446
vt -0.4283529 -0.5553756
vt -0.2948815 -0.446119
vt -0.2902019 -0.6425236
vt -0.1482795 -0.3259602
vt -0.1470097 -0.5304829
vt -0.1465017 -0.7173851
vt 0.3305262 -0.9255278
vt 0.4151033 -0.7926783
vt 0.5069374 -0.6173127
vt 0.5763145 -0.4561721
vt 0.656336 -0.5605083
vt 0.6378742 -0.2807288
vt 0.7229167 -0.3900849
vt 0.7895735 -0.4899021
vt 0.5732481 -0.7435933
vt 0.4749292 -0.9069213
vt 0.7219853 -0.6765436
vt 0.3900849 -1.040015
vt 0.4899021 -0.8907322
vt 0.5982841 -0.693674
vt 0.6801625 -0.5126004
vt 0.7746034 -0.6298428
vt 0.7528148 -0.3154548
vt 0.8531814 -0.4383381
vt 0.9318493 -0.5505028
vt -0.7842171 -0.4383381
vt -0.6716513 -0.5505028
vt 0.6765436 -0.8355755
vt 0.5605083 -1.019107
vt -0.7684516 -0.6298428
vt -0.6300607 -0.7602317
vt -0.5230607 -0.6722916
vt -0.4749292 -0.8704214
vt 0.8520821 -0.7602317
vt -0.5732481 -0.9574842
vt -0.7219853 -0.8355755
vt -0.4151033 -1.047119
vt -0.3305263 -0.9587195
vt -0.3865233 -0.7642983
vt -0.2378668 -0.8459377
vt -0.1793547 -1.027384
vt -0.09054302 -0.911673
vt 5.685803E-09 -1.040899
vt 0.09054303 -0.911673
vt 0.1793547 -1.027384
vt -0.3900849 -1.040015
vt -0.4899021 -0.8907322
vt 0.4151033 -1.047119
vt 0.3305263 -0.9587196
vt 0.4749292 -0.8704215
vt 0.2378668 -0.8459377
vt 0.3865233 -0.7642984
vt 0.5230607 -0.6722916
vt 0.6300607 -0.7602317
vt 0.6716513 -0.5505028
vt 0.7684516 -0.6298428
vt 0.5732481 -0.9574842
vt -0.8520821 -0.7602317
vt -0.7746034 -0.6298428
vt -0.6765436 -0.8355755
vt 0.7219853 -0.8355755
vt -0.5605083 -1.019107
vt -0.5982841 -0.693674
vt -0.6801625 -0.5126004
vt -0.9318493 -0.5505028
vt -0.8531814 -0.4383381
vt 0.7842171 -0.4383382
vt -0.7528148 -0.3154548

vn -5.918009 1.940496 -1.372935
vn -6.668996 1.984654 -1.751596
vn -5.458127 1.83231 -1.664825
vn -7.304758 1.992369 -2.102065
vn -6.212362 1.862328 -2.078769
vn -4.838341 1.674883 -1.950455
vn -7.777947 1.965551 -2.395754
vn -6.823733 1.859793 -2.41407
vn -8.113764 1.908214 -2.643164
vn -7.274678 1.818835 -2.702362
vn -6.177828 1.68157 -2.687445
vn -5.583027 1.696914 -2.352012
vn -4.100183 1.477251 -2.196487
vn -4.815596 1.484908 -2.594105
vn -3.237175 1.237219 -2.398192
vn -8.316957 1.825402 -2.841152
vn -7.579545 1.745084 -2.938257
vn -8.398986 1.722709 -2.991246
vn -7.736903 1.647305 -3.11351
vn -6.875765 1.535092 -3.185393
vn -8.374052 1.599807 -3.101454
vn -7.757081 1.528873 -3.239158
vn -8.257356 1.467932 -3.168991
vn -7.704614 1.395598 -3.314468
vn -6.964826 1.292672 -3.424526
vn -6.974976 1.42238 -3.332429
vn -5.987112 1.282273 -3.363709
vn -6.067204 1.162016 -3.478294
vn -4.97715 0.9976552 -3.465091
vn -6.609565 1.624428 -2.970815
vn -5.749958 1.377858 -3.183937
vn -4.770223 1.100757 -3.316297
vn -4.395195 1.175352 -3.090538
vn -5.355071 1.448875 -2.923445
vn -3.90288 1.226972 -2.783665
vn -2.294384 0.9664691 -2.542178
vn -2.923106 0.9451338 -2.902092
vn -1.324196 0.6807791 -2.622118
vn -3.401889 0.8879322 -3.180728
vn -3.717762 0.8021327 -3.372034
vn -2.342834 0.5832451 -3.195636
vn -1.942929 0.6553195 -2.956357
vn -0.3347056 0.3827669 -2.64162
vn -0.8568346 0.3412523 -2.930391
vn 0.5755816 0.1030584 -2.607265
vn -4.739541 1.796203 -1.13415
vn -4.061313 1.64258 -1.423658
vn -3.256751 1.581894 -0.8290195
vn -3.336284 1.454881 -1.697152
vn -2.450781 1.214904 -1.927811
vn -1.60155 1.167887 -1.367836
vn -2.477865 1.397747 -1.110067
vn -1.595329 1.307159 -0.4821828
vn -0.6696865 1.080604 -0.7431557
vn 0.2111906 0.9723269 -0.09989482
vn -1.457237 0.9318023 -2.106612
vn -0.4510193 0.632966 -2.217167
vn 0.4795609 0.566946 -1.73126
vn 0.5451303 0.3306419 -2.255681
vn 1.459862 0.03226297 -2.259305
vn 2.396553 -0.04593459 -1.829448
vn 1.481533 0.2555118 -1.805455
vn 2.396864 0.1790431 -1.285533
vn 3.288711 -0.1239865 -1.352752
vn 4.127124 -0.2011302 -0.829298
vn -0.5755207 0.8811503 -1.580677
vn 1.426022 0.4902213 -1.154267
vn 3.268968 0.09775806 -0.7092727
vn 2.313527 0.403218 -0.5337654
vn 0.3629428 0.803413 -0.9670702
vn 1.248234 0.7060077 -0.334561
vn 2.010207 0.6029478 0.2859425
vn 3.036228 0.3207683 0.06465828
vn 3.650891 0.2327361 0.6425882
vn 4.013749 0.01931835 -0.1312971
vn 4.864284 -0.2736335 -0.2866926
vn 5.463128 -0.3371367 0.2441747
vn 4.587109 -0.04657591 0.4188065
vn 5.102302 -0.1260445 0.9625612
vn 5.931786 -0.3922974 0.7616879
vn 6.244982 -0.4351038 1.218274
vn -5.595905 1.938699 -0.920562
vn -4.214725 1.761042 -0.5949472
vn -5.124563 1.895897 -0.4043185
vn -2.636379 1.520148 -0.2537901
vn -0.8328193 1.206572 0.1380666
vn -1.919033 1.41304 0.3471669
vn -3.642237 1.691132 -0.04443101
vn -4.530659 1.809655 0.1288851
vn -2.907292 1.567411 0.5381967
vn -3.806584 1.676904 0.67768
vn 1.085101 0.8319753 0.5466613
vn 2.877713 0.4431701 0.9209347
vn 1.996044 0.6483713 1.181237
vn 4.433697 0.07188527 1.247517
vn 5.794007 -0.2859078 1.505951
vn 5.176905 -0.1161221 1.790311
vn 3.707796 0.2555689 1.521424
vn 2.812458 0.4502649 1.756735
vn 4.433809 0.05877017 2.03868
vn 3.557715 0.2385546 2.246574
vn 0.0401927 1.052633 0.7763839
vn 0.952759 0.8556647 1.40224
vn 1.798817 0.6408421 1.945042
vn -0.1308939 1.038326 1.566338
vn -1.048784 1.246594 0.9758301
vn -2.055284 1.393601 1.123962
vn -2.989191 1.502983 1.211077
vn -1.16826 1.186803 1.657274
vn -2.124448 1.298716 1.70074
vn 0.7642918 0.8093493 2.068986
vn 2.593904 0.4125278 2.400503
vn 1.596301 0.5720024 2.49341
vn -0.2655354 0.95662 2.12343
vn -1.22106 1.06719 2.146349
vn 0.5735081 0.716686 2.528665
vn -0.3719026 0.8346848 2.510923
vn -6.750902 2.0479 -1.30915
vn -6.444932 2.041913 -0.8224597
vn -7.46799 2.118413 -1.220304
vn -5.960712 1.988555 -0.3118021
vn -5.338776 1.888896 0.2320427
vn -6.63538 2.034882 -0.2158035
vn -7.134403 2.099686 -0.735869
vn -8.014872 2.148499 -1.115918
vn -7.659301 2.115832 -0.6246796
vn -8.418592 2.143596 -0.9965156
vn -4.564859 1.738137 0.792256
vn -3.704469 1.548486 1.318734
vn -5.135496 1.746995 0.9084672
vn -2.821582 1.333796 1.790009
vn -1.812711 1.079359 2.233131
vn -3.283112 1.309307 1.883621
vn -4.252822 1.545004 1.4159
vn -5.569145 1.717667 0.999378
vn -4.619629 1.498534 1.499735
vn -5.820032 1.64851 1.088045
vn -5.960612 1.91646 0.3476104
vn -6.424844 1.89899 0.4617105
vn -6.714491 1.843939 0.5654932
vn -7.470112 1.994034 0.0251926
vn -7.141403 2.035101 -0.09789548
vn -8.030865 2.093584 -0.5002832
vn -8.682239 2.107464 -0.8679467
vn -8.244426 2.039202 -0.3719443
vn -8.816779 2.04532 -0.7343819
vn -7.620147 1.920567 0.1527015
vn -6.835635 1.755382 0.6726747
vn -7.649496 1.821359 0.2739674
vn -8.313341 1.958405 -0.2343104
vn -8.83832 1.958305 -0.5935382
vn -8.297409 1.853341 -0.1122681
vn -8.759533 1.855702 -0.4562953
vn -7.514385 2.081823 -1.68866
vn -8.141449 2.134279 -1.583148
vn -8.62763 2.14901 -1.463579
vn -8.638989 2.110989 -1.901018
vn -8.061028 2.07218 -2.01757
vn -8.472903 2.029533 -2.299398
vn -8.967384 2.128292 -1.326247
vn -9.157716 2.077631 -1.181909
vn -9.342015 2.074756 -1.607963
vn -9.227654 2.002708 -1.041
vn -9.166582 1.901749 -0.8686489
vn -9.456264 1.921729 -1.286595
vn -9.462392 2.010558 -1.454171
vn -9.549373 1.989131 -1.852959
vn -9.601301 1.913184 -1.676402
vn -9.606801 1.876341 -2.046638
vn -9.07282 2.110829 -1.762863
vn -9.357392 2.03636 -2.023341
vn -9.479456 1.935143 -2.23064
vn -9.195274 1.961446 -2.40064
vn -8.996138 2.051617 -2.177089
vn -8.743409 1.955342 -2.536136
vn -8.873245 1.857969 -2.718582
vn -9.257063 1.852007 -2.563335
vn -9.469843 1.811674 -2.386524
vn -9.196964 1.721504 -2.687298
vn -8.892934 1.744244 -2.849116
vn -8.780396 1.603544 -2.954784
vn 7.044998 -0.6938785 1.17004
vn 6.743326 -0.6680973 0.6813168
vn 7.723329 -0.9428241 1.099527
vn 6.258841 -0.615966 0.1707852
vn 5.628507 -0.5549693 -0.3690875
vn 6.888302 -0.8704258 0.09616972
vn 7.391368 -0.9166127 0.6143225
vn 8.22938 -1.160901 1.014455
vn 7.871383 -1.1394 0.5243631
vn 8.590035 -1.35427 0.9154218
vn 4.838072 -0.4802565 -0.921488
vn 3.954329 -0.3981245 -1.43692
vn 5.356541 -0.729297 -1.013023
vn 3.042141 -0.3183337 -1.894336
vn 2.000073 -0.2167412 -2.321754
vn 3.448494 -0.5478814 -1.961849
vn 4.448237 -0.6453061 -1.508333
vn 5.735627 -0.9511809 -1.078125
vn 4.759703 -0.8536336 -1.565991
vn 5.93199 -1.133051 -1.141003
vn 6.201317 -0.8082475 -0.4614658
vn 6.612149 -1.036633 -0.5503073
vn 6.84897 -1.224791 -0.6291031
vn 7.621629 -1.296449 -0.09686103
vn 7.344301 -1.100955 0.0019233
vn 8.195416 -1.335984 0.422449
vn 8.809899 -1.51971 0.8075621
vn 8.362178 -1.497068 0.3162466
vn 8.901281 -1.656272 0.6944119
vn 7.722727 -1.448285 -0.2012227
vn 6.918417 -1.374255 -0.7118307
vn 7.703597 -1.572273 -0.2995579
vn 8.385956 -1.624085 0.1999631
vn 8.879221 -1.769995 0.5741917
vn 8.323146 -1.734845 0.1000941
vn 8.759533 -1.855702 0.4562953
vn 0.5805198 -0.02533638 -2.748155
vn -0.9441283 0.2183727 -3.083146
vn 0.5764661 -0.1601527 -2.852726
vn -2.4123 0.4572555 -3.324695
vn -3.809566 0.6791224 -3.48132
vn -2.443397 0.3239026 -3.396373
vn -0.9468601 0.08323935 -3.168311
vn 0.5632862 -0.2901634 -2.910054
vn -0.9766728 -0.04828046 -3.20879
vn 0.5407692 -0.4175701 -2.921165
vn -5.087475 0.8788307 -3.547589
vn -6.153338 1.042251 -3.529366
vn -5.162843 0.7549559 -3.566548
vn -7.003875 1.167155 -3.446588
vn -7.730351 1.277102 -3.302294
vn -7.018928 1.043587 -3.398936
vn -6.181404 0.9130337 -3.516091
vn -5.144272 0.6173332 -3.520723
vn -6.149985 0.7808895 -3.439138
vn -5.089108 0.4821963 -3.412134
vn -3.888657 0.5534323 -3.532157
vn -3.918103 0.4178633 -3.518229
vn -3.895542 0.2832871 -3.440653
vn -2.501769 0.05515748 -3.368762
vn -2.482 0.1883743 -3.413726
vn -1.005113 -0.1792198 -3.195337
vn 0.5094216 -0.5381579 -2.884575
vn -1.030266 -0.3007632 -3.128859
vn 0.4704502 -0.648253 -2.80258
vn -2.525188 -0.06248578 -3.271298
vn -3.857836 0.1572318 -3.305778
vn -2.508217 -0.1781802 -3.117409
vn -1.079683 -0.405723 -3.019027
vn 0.4231864 -0.7497034 -2.673735
vn -1.044196 -0.5213656 -2.841768
vn 0.3719027 -0.8346848 -2.510923
vn -8.414953 1.411498 -3.082108
vn -8.936221 1.544948 -2.828641
vn -8.483488 1.333662 -2.951276
vn -9.300068 1.65401 -2.542993
vn -9.522729 1.735914 -2.210171
vn -9.281872 1.562746 -2.359679
vn -8.959487 1.460909 -2.677789
vn -8.444618 1.237648 -2.780768
vn -8.873525 1.356285 -2.47459
vn -8.285207 1.118887 -2.56207
vn -9.592646 1.789902 -1.83249
vn -9.505397 1.812561 -1.433829
vn -9.428613 1.676057 -1.567002
vn -9.270942 1.803412 -1.020525
vn -8.879221 1.769995 -0.5741917
vn -8.901281 1.656272 -0.6944119
vn -9.243958 1.680571 -1.141116
vn -9.097501 1.529234 -1.264701
vn -8.809899 1.51971 -0.8075621
vn -8.590036 1.35427 -0.9154218
vn -9.444376 1.635886 -1.982197
vn -9.204781 1.503274 -1.700444
vn -8.802357 1.344564 -1.380932
vn -8.815545 1.298123 -1.817505
vn -9.128099 1.444062 -2.11467
vn -8.64763 1.225087 -2.216751
vn -7.992455 0.9779529 -2.294291
vn -8.278119 1.07269 -1.914885
vn -7.560097 0.8167797 -1.981287
vn -8.35854 1.134789 -1.480463
vn -8.22938 1.160901 -1.014454
vn -7.723329 0.9428241 -1.099527
vn -7.770321 0.9034913 -1.567601
vn -6.963091 0.6306323 -1.612486
vn -7.044997 0.6938784 -1.17004
vn -6.244982 0.4351039 -1.218274
vn -8.323146 1.734845 -0.1000941
vn -7.700049 1.704725 0.3140564
vn -7.703597 1.572273 0.2995581
vn -6.940111 1.64978 0.7206768
vn -5.958109 1.551116 1.155466
vn -6.041451 1.433398 1.17958
vn -6.968177 1.520562 0.7339523
vn -6.918417 1.374256 0.7118307
vn -6.014907 1.289618 1.182332
vn -5.93199 1.133051 1.141002
vn -4.750003 1.405308 1.598801
vn -3.39969 1.219696 2.009059
vn -3.46062 1.109379 2.098532
vn -1.954121 0.9982668 2.372704
vn -0.4231864 0.7497034 2.673735
vn -0.4704502 0.648253 2.80258
vn -1.993353 0.8913177 2.484706
vn -2.042037 0.7743704 2.546171
vn -0.5094216 0.5381579 2.884575
vn -0.5407692 0.4175701 2.921165
vn -4.848108 1.294299 1.650671
vn -3.509606 0.9818693 2.137271
vn -2.070477 0.6434311 2.559623
vn -3.518991 0.8406343 2.126143
vn -4.877554 1.15873 1.664599
vn -4.835979 1.009472 1.639469
vn -4.759703 0.8536336 1.565991
vn -3.512578 0.6999551 2.062456
vn -3.448494 0.5478814 1.961849
vn -2.076758 0.5073152 2.524158
vn -0.5632862 0.2901634 2.910054
vn -0.5764662 0.1601527 2.852726
vn -2.089676 0.3741711 2.436823
vn -2.000073 0.2167412 2.321754
vn -0.5805198 0.02533638 2.748155
vn -0.5755816 -0.1030584 2.607265
vn 1.044196 0.5213656 2.841768
vn 2.163489 0.3601423 2.852031
vn 2.508217 0.1781802 3.117409
vn 3.172966 0.2052274 2.783906
vn 4.176094 0.0309084 2.654433
vn 4.616241 -0.1576536 2.985982
vn 3.597304 0.01176552 3.088295
vn 3.857836 -0.1572317 3.305779
vn 4.936704 -0.3342708 3.23755
vn 5.089108 -0.4821962 3.412134
vn 5.105327 -0.1509817 2.45706
vn 5.881155 -0.3243253 2.210995
vn 6.430749 -0.5171135 2.567811
vn 6.510756 -0.4885123 1.937627
vn 6.963091 -0.6306324 1.612486
vn 7.560097 -0.8167796 1.981287
vn 7.080698 -0.6767201 2.292523
vn 7.486761 -0.8424031 2.602045
vn 7.992455 -0.977953 2.294291
vn 8.285206 -1.118887 2.56207
vn 5.595776 -0.340662 2.809589
vn 6.812463 -0.6902818 2.874843
vn 7.744096 -0.9874843 2.860423
vn 7.027282 -0.8375074 3.113725
vn 5.937263 -0.5155005 3.09534
vn 6.121592 -0.663126 3.300099
vn 6.149985 -0.7808895 3.439138
vn 7.077556 -0.950098 3.283908
vn 7.018928 -1.043587 3.398936
vn 7.854656 -1.105171 3.057812
vn 8.444618 -1.237648 2.780767
vn 8.483488 -1.333662 2.951276
vn 7.829696 -1.194553 3.20481
vn 7.730351 -1.277102 3.302294
vn 8.414953 -1.411498 3.082108
vn 8.257356 -1.467932 3.168991
vn 5.918009 -1.940496 1.372935
vn 6.750902 -2.0479 1.30915
vn 5.595905 -1.938699 0.920562
vn 7.46799 -2.118413 1.220304
vn 6.444932 -2.041913 0.8224596
vn 5.124563 -1.895897 0.4043186
vn 8.014872 -2.148499 1.115918
vn 7.134404 -2.099686 0.7358691
vn 8.418593 -2.143596 0.9965157
vn 7.6593 -2.115832 0.6246794
vn 6.635381 -2.034882 0.2158037
vn 5.960712 -1.988555 0.311802
vn 4.530659 -1.809655 -0.1288851
vn 5.338776 -1.888896 -0.2320428
vn 3.806584 -1.676904 -0.6776801
vn 8.682239 -2.107464 0.8679466
vn 8.030865 -2.093584 0.5002832
vn 8.816779 -2.04532 0.7343819
vn 8.244425 -2.039202 0.3719443
vn 7.470112 -1.994034 -0.0251926
vn 8.83832 -1.958305 0.593538
vn 8.313341 -1.958405 0.2343103
vn 8.297409 -1.853341 0.1122681
vn 7.649496 -1.821359 -0.2739676
vn 7.620147 -1.920567 -0.1527015
vn 6.71449 -1.843938 -0.5654933
vn 6.835635 -1.755382 -0.6726747
vn 5.820031 -1.64851 -1.088046
vn 7.141403 -2.035101 0.09789557
vn 6.424844 -1.89899 -0.4617105
vn 5.569145 -1.717667 -0.999378
vn 5.135496 -1.746995 -0.9084672
vn 5.960612 -1.91646 -0.3476104
vn 4.564858 -1.738137 -0.7922558
vn 2.989191 -1.502983 -1.211077
vn 3.70447 -1.548486 -1.318734
vn 2.124448 -1.298716 -1.70074
vn 4.252822 -1.545004 -1.4159
vn 4.619629 -1.498534 -1.499735
vn 3.283112 -1.309307 -1.883622
vn 2.821582 -1.333796 -1.790009
vn 1.22106 -1.06719 -2.146349
vn 1.812711 -1.079359 -2.233131
vn 4.739541 -1.796203 1.13415
vn 4.214725 -1.761042 0.5949472
vn 3.256751 -1.581894 0.8290195
vn 3.642237 -1.691132 0.04443093
vn 2.907291 -1.567411 -0.5381967
vn 1.919033 -1.41304 -0.347167
vn 2.636379 -1.520149 0.2537903
vn 1.595329 -1.307159 0.4821828
vn 0.8328193 -1.206572 -0.1380666
vn -0.2111906 -0.9723269 0.09989482
vn 2.055284 -1.393601 -1.123962
vn 1.16826 -1.186803 -1.657274
vn 0.130894 -1.038326 -1.566338
vn 0.2655354 -0.9566201 -2.12343
vn -0.5735081 -0.716686 -2.528665
vn -1.596301 -0.5720024 -2.49341
vn -0.7642919 -0.8093492 -2.068986
vn -1.798817 -0.6408421 -1.945042
vn -2.593904 -0.4125278 -2.400502
vn -3.557715 -0.2385546 -2.246574
vn 1.048784 -1.246594 -0.9758301
vn -0.952759 -0.8556647 -1.40224
vn -2.812458 -0.450265 -1.756735
vn -1.996043 -0.6483714 -1.181237
vn -0.0401927 -1.052633 -0.7763839
vn -1.085101 -0.8319753 -0.5466613
vn -2.010207 -0.6029478 -0.2859425
vn -2.877713 -0.44317 -0.9209349
vn -3.650891 -0.2327361 -0.6425882
vn -3.707796 -0.2555689 -1.521424
vn -4.433809 -0.05877017 -2.03868
vn -5.176905 0.1161221 -1.790312
vn -4.433697 -0.07188527 -1.247517
vn -5.102302 0.1260445 -0.9625612
vn -5.794007 0.2859078 -1.505951
vn 5.458127 -1.83231 1.664825
vn 4.061313 -1.64258 1.423658
vn 4.838341 -1.674883 1.950455
vn 2.477864 -1.397747 1.110067
vn 0.6696866 -1.080604 0.7431557
vn 1.60155 -1.167887 1.367836
vn 3.336284 -1.454881 1.697152
vn 4.100183 -1.477251 2.196487
vn 2.450782 -1.214904 1.927811
vn 3.237175 -1.237219 2.398192
vn -1.248234 -0.7060077 0.334561
vn -3.036228 -0.3207684 -0.06465816
vn -2.313527 -0.4032179 0.5337655
vn -4.587109 0.04657591 -0.4188065
vn -5.931786 0.3922974 -0.7616879
vn -5.463128 0.3371368 -0.2441748
vn -4.013749 -0.01931842 0.1312971
vn -3.268968 -0.09775801 0.7092726
vn -4.864284 0.2736335 0.2866926
vn -4.127123 0.2011301 0.8292978
vn -0.3629428 -0.803413 0.9670702
vn -1.426022 -0.4902213 1.154267
vn -2.396864 -0.1790431 1.285533
vn -0.4795609 -0.5669461 1.73126
vn 0.5755207 -0.8811503 1.580677
vn 1.457237 -0.9318023 2.106612
vn 2.294384 -0.9664692 2.542178
vn 0.4510193 -0.632966 2.217167
vn 1.324195 -0.680779 2.622118
vn -1.481532 -0.2555119 1.805455
vn -3.28871 0.1239866 1.352753
vn -2.396553 0.04593467 1.829448
vn -0.5451303 -0.3306419 2.255681
vn 0.3347056 -0.3827669 2.64162
vn -1.459862 -0.03226301 2.259305
vn 6.668996 -1.984654 1.751596
vn 6.212362 -1.862328 2.078769
vn 7.304758 -1.992369 2.102065
vn 5.583027 -1.696914 2.352012
vn 4.815597 -1.484909 2.594105
vn 6.177827 -1.68157 2.687445
vn 6.823733 -1.859793 2.41407
vn 7.777947 -1.965551 2.395754
vn 7.274678 -1.818835 2.702362
vn 8.113764 -1.908213 2.643164
vn 3.90288 -1.226972 2.783665
vn 2.923106 -0.9451337 2.902092
vn 4.395195 -1.175352 3.090538
vn 1.942929 -0.6553195 2.956357
vn 0.8568344 -0.3412523 2.930391
vn 2.342834 -0.5832452 3.195636
vn 3.401889 -0.8879322 3.180728
vn 4.770223 -1.100757 3.316297
vn 3.717762 -0.8021327 3.372034
vn 4.97715 -0.9976553 3.465091
vn 5.355071 -1.448875 2.923445
vn 5.749958 -1.377858 3.183937
vn 5.987113 -1.282273 3.363709
vn 6.875765 -1.535092 3.185393
vn 6.609565 -1.624428 2.970815
vn 7.579545 -1.745084 2.938257
vn 8.316957 -1.825402 2.841152
vn 7.736904 -1.647305 3.11351
vn 8.398986 -1.722709 2.991246
vn 6.974976 -1.42238 3.332429
vn 6.067204 -1.162016 3.478294
vn 6.964827 -1.292673 3.424526
vn 7.757081 -1.528873 3.239158
vn 8.374052 -1.599807 3.101454
vn 7.704614 -1.395598 3.314468
vn 7.514385 -2.081823 1.68866
vn 8.061028 -2.07218 2.01757
vn 8.472903 -2.029533 2.299398
vn 8.638989 -2.110989 1.901018
vn 8.141449 -2.134279 1.583148
vn 8.62763 -2.14901 1.463579
vn 8.743409 -1.955342 2.536136
vn 8.873245 -1.857969 2.718582
vn 9.195274 -1.961446 2.40064
vn 8.892934 -1.744244 2.849116
vn 8.780395 -1.603544 2.954784
vn 9.196964 -1.721504 2.687298
vn 9.257063 -1.852007 2.563335
vn 9.479456 -1.935143 2.23064
vn 9.469843 -1.811674 2.386524
vn 9.606801 -1.876341 2.046638
vn 8.996138 -2.051617 2.177088
vn 9.357392 -2.03636 2.023341
vn 9.549373 -1.989131 1.852959
vn 9.342015 -2.074756 1.607964
vn 9.07282 -2.110829 1.762863
vn 8.967384 -2.128292 1.326247
vn 9.157716 -2.077631 1.181909
vn 9.462392 -2.010558 1.454171
vn 9.601301 -1.913184 1.676402
vn 9.456264 -1.921729 1.286596
vn 9.227654 -2.002708 1.041
vn 9.166583 -1.901749 0.8686492
vn 1.954121 -0.9982669 -2.372704
vn 3.39969 -1.219696 -2.009059
vn 4.750003 -1.405308 -1.598801
vn 3.460619 -1.109379 -2.098532
vn 1.993353 -0.8913177 -2.484706
vn 2.042037 -0.7743704 -2.546171
vn 5.958109 -1.551116 -1.155466
vn 6.94011 -1.649779 -0.7206769
vn 6.041451 -1.433398 -1.179579
vn 7.700049 -1.704725 -0.3140561
vn 6.968176 -1.520562 -0.7339525
vn 6.014907 -1.289618 -1.182332
vn 4.848108 -1.294299 -1.650671
vn 4.877553 -1.15873 -1.664599
vn 4.835979 -1.009472 -1.639469
vn 3.518991 -0.8406343 -2.126143
vn 3.509606 -0.9818693 -2.137271
vn 2.070478 -0.6434311 -2.559623
vn 2.076758 -0.5073152 -2.524158
vn 3.512578 -0.6999551 -2.062456
vn 2.089675 -0.3741711 -2.436823
vn -6.510756 0.4885123 -1.937627
vn -5.881155 0.3243253 -2.210995
vn -5.105327 0.1509817 -2.45706
vn -6.430749 0.5171135 -2.567811
vn -7.080698 0.67672 -2.292523
vn -7.486761 0.8424031 -2.602045
vn -4.176094 -0.03090854 -2.654433
vn -3.172966 -0.2052274 -2.783906
vn -4.616241 0.1576536 -2.985982
vn -2.163489 -0.3601423 -2.852031
vn -3.597305 -0.01176549 -3.088295
vn -4.936704 0.3342708 -3.23755
vn -5.595776 0.340662 -2.809589
vn -5.937263 0.5155004 -3.09534
vn -6.121592 0.663126 -3.300099
vn -7.027282 0.8375074 -3.113725
vn -6.812463 0.6902818 -2.874843
vn -7.744096 0.9874843 -2.860423
vn -7.854656 1.105171 -3.057812
vn -7.077556 0.950098 -3.283908
vn -7.829696 1.194553 -3.20481
vn -3.042141 0.3183338 1.894336
vn -3.954329 0.3981245 1.43692
vn -4.838072 0.4802566 0.9214877
vn -5.356541 0.729297 1.013023
vn -4.448237 0.645306 1.508333
vn -5.735627 0.9511809 1.078125
vn -5.628507 0.5549694 0.3690876
vn -6.258841 0.615966 -0.1707852
vn -6.888302 0.8704258 -0.09616972
vn -6.743326 0.6680973 -0.6813168
vn -7.391368 0.9166129 -0.6143227
vn -7.871383 1.1394 -0.5243631
vn -6.201317 0.8082475 0.4614658
vn -7.344301 1.100955 -0.0019233
vn -8.195416 1.335984 -0.422449
vn -7.621629 1.296449 0.09686121
vn -6.612149 1.036633 0.5503073
vn -6.84897 1.224791 0.6291031
vn -7.722727 1.448285 0.2012227
vn -8.362178 1.497068 -0.3162467
vn -8.385956 1.624085 -0.1999631
vn 7.003874 -1.167154 3.446588
vn 6.153338 -1.042251 3.529367
vn 5.087475 -0.8788307 3.547589
vn 5.162843 -0.7549558 3.566548
vn 6.181405 -0.9130338 3.516091
vn 5.144272 -0.6173332 3.520723
vn 3.809566 -0.6791224 3.48132
vn 2.4123 -0.4572555 3.324695
vn 2.443397 -0.3239025 3.396373
vn 0.9441283 -0.2183727 3.083146
vn 0.9468601 -0.08323932 3.168311
vn 0.9766728 0.04828046 3.20879
vn 3.888657 -0.5534323 3.532157
vn 2.482 -0.1883743 3.413726
vn 1.005113 0.1792199 3.195337
vn 2.501769 -0.05515748 3.368762
vn 3.918103 -0.4178633 3.518229
vn 3.895542 -0.283287 3.440653
vn 2.525188 0.06248578 3.271298
vn 1.030266 0.3007632 3.128859
vn 1.079683 0.405723 3.019027
vn 9.270942 -1.803412 1.020525
vn 9.505397 -1.812561 1.433829
vn 9.592646 -1.789902 1.83249
vn 9.428613 -1.676057 1.567002
vn 9.243958 -1.680571 1.141116
vn 9.097501 -1.529234 1.264701
vn 9.522729 -1.735914 2.210171
vn 9.300068 -1.65401 2.542993
vn 9.281872 -1.562746 2.359679
vn 8.936221 -1.544948 2.828641
vn 8.959487 -1.460909 2.677789
vn 8.873525 -1.356285 2.47459
vn 9.444376 -1.635886 1.982197
vn 9.128099 -1.444062 2.11467
vn 8.64763 -1.225087 2.216751
vn 8.815545 -1.298123 1.817505
vn 9.204781 -1.503274 1.700444
vn 8.802357 -1.344564 1.380932
vn 8.35854 -1.134789 1.480463
vn 8.278119 -1.07269 1.914885
vn 7.770321 -0.9034913 1.567601

usemtl ProBuilderDefault
f 3/3/3 2/2/2 1/1/1
f 5/5/5 4/4/4 2/2/2
f 3/3/3 5/5/5 2/2/2
f 6/6/6 5/5/5 3/3/3
f 8/9/8 7/8/7 4/7/4
f 10/11/10 9/10/9 7/8/7
f 8/9/8 10/11/10 7/8/7
f 11/14/11 10/13/10 8/12/8
f 5/5/5 8/12/8 4/4/4
f 12/15/12 11/14/11 8/12/8
f 5/5/5 12/15/12 8/12/8
f 6/6/6 12/15/12 5/5/5
f 13/16/13 12/15/12 6/6/6
f 14/17/14 11/14/11 12/15/12
f 13/16/13 14/17/14 12/15/12
f 15/18/15 14/17/14 13/16/13
f 17/20/17 16/19/16 9/10/9
f 19/22/19 18/21/18 16/19/16
f 17/20/17 19/22/19 16/19/16
f 20/23/20 19/22/19 17/20/17
f 22/25/22 21/24/21 18/21/18
f 24/27/24 23/26/23 21/24/21
f 22/25/22 24/27/24 21/24/21
f 25/28/25 24/27/24 22/25/22
f 19/22/19 22/25/22 18/21/18
f 26/29/26 25/28/25 22/25/22
f 19/22/19 26/29/26 22/25/22
f 20/23/20 26/29/26 19/22/19
f 27/30/27 26/29/26 20/23/20
f 28/33/28 25/32/25 26/31/26
f 27/34/27 28/33/28 26/31/26
f 29/35/29 28/33/28 27/34/27
f 10/11/10 17/20/17 9/10/9
f 30/36/30 20/23/20 17/20/17
f 10/11/10 30/36/30 17/20/17
f 11/37/11 30/36/30 10/11/10
f 31/39/31 27/34/27 20/38/20
f 32/40/32 29/35/29 27/34/27
f 31/39/31 32/40/32 27/34/27
f 33/41/33 32/40/32 31/39/31
f 30/36/30 31/42/31 20/23/20
f 34/43/34 33/41/33 31/39/31
f 30/44/30 34/43/34 31/39/31
f 11/14/11 34/46/34 30/45/30
f 14/17/14 34/46/34 11/14/11
f 35/48/35 33/47/33 34/46/34
f 14/17/14 35/48/35 34/46/34
f 15/18/15 35/48/35 14/17/14
f 36/49/36 35/48/35 15/18/15
f 37/51/37 33/41/33 35/50/35
f 36/49/36 37/52/37 35/48/35
f 38/53/38 37/52/37 36/49/36
f 39/54/39 32/40/32 33/41/33
f 40/55/40 29/35/29 32/40/32
f 39/54/39 40/55/40 32/40/32
f 41/56/41 40/55/40 39/54/39
f 37/51/37 39/54/39 33/41/33
f 42/57/42 41/56/41 39/54/39
f 37/51/37 42/57/42 39/54/39
f 38/58/38 42/57/42 37/51/37
f 43/59/43 42/57/42 38/58/38
f 44/60/44 41/56/41 42/57/42
f 43/59/43 44/60/44 42/57/42
f 45/61/45 44/60/44 43/59/43
f 46/62/46 3/3/3 1/1/1
f 47/63/47 6/6/6 3/3/3
f 46/62/46 47/63/47 3/3/3
f 48/64/48 47/63/47 46/62/46
f 49/65/49 13/16/13 6/6/6
f 50/66/50 15/18/15 13/16/13
f 49/65/49 50/66/50 13/16/13
f 51/67/51 50/66/50 49/65/49
f 47/63/47 49/65/49 6/6/6
f 52/68/52 51/67/51 49/65/49
f 47/63/47 52/68/52 49/65/49
f 48/64/48 52/68/52 47/63/47
f 53/69/53 52/68/52 48/64/48
f 54/70/54 51/67/51 52/68/52
f 53/69/53 54/70/54 52/68/52
f 55/71/55 54/70/54 53/69/53
f 56/72/56 36/49/36 15/18/15
f 57/73/57 38/53/38 36/49/36
f 56/72/56 57/73/57 36/49/36
f 58/74/58 57/73/57 56/72/56
f 59/75/59 43/59/43 38/58/38
f 60/76/60 45/61/45 43/59/43
f 59/75/59 60/76/60 43/59/43
f 61/77/61 60/76/60 59/75/59
f 57/73/57 59/78/59 38/53/38
f 62/80/62 61/79/61 59/78/59
f 57/73/57 62/80/62 59/78/59
f 58/74/58 62/80/62 57/73/57
f 63/81/63 62/80/62 58/74/58
f 64/82/64 61/79/61 62/80/62
f 63/81/63 64/82/64 62/80/62
f 65/83/65 64/82/64 63/81/63
f 50/66/50 56/72/56 15/18/15
f 66/84/66 58/74/58 56/72/56
f 50/66/50 66/84/66 56/72/56
f 51/67/51 66/84/66 50/66/50
f 67/85/67 63/81/63 58/74/58
f 68/86/68 65/83/65 63/81/63
f 67/85/67 68/86/68 63/81/63
f 69/87/69 68/86/68 67/85/67
f 66/84/66 67/85/67 58/74/58
f 70/88/70 69/87/69 67/85/67
f 66/84/66 70/88/70 67/85/67
f 51/67/51 70/88/70 66/84/66
f 54/70/54 70/88/70 51/67/51
f 71/89/71 69/87/69 70/88/70
f 54/70/54 71/89/71 70/88/70
f 55/71/55 71/89/71 54/70/54
f 72/90/72 71/89/71 55/71/55
f 73/91/73 69/87/69 71/89/71
f 72/90/72 73/91/73 71/89/71
f 74/92/74 73/91/73 72/90/72
f 75/93/75 68/86/68 69/87/69
f 76/94/76 65/83/65 68/86/68
f 75/93/75 76/94/76 68/86/68
f 77/95/77 76/94/76 75/93/75
f 73/91/73 75/93/75 69/87/69
f 78/96/78 77/95/77 75/93/75
f 73/91/73 78/96/78 75/93/75
f 74/92/74 78/96/78 73/91/73
f 79/97/79 78/96/78 74/92/74
f 80/98/80 77/95/77 78/96/78
f 79/97/79 80/98/80 78/96/78
f 81/99/81 80/98/80 79/97/79
f 82/100/82 46/62/46 1/1/1
f 83/101/83 48/64/48 46/62/46
f 82/100/82 83/101/83 46/62/46
f 84/102/84 83/101/83 82/100/82
f 85/103/85 53/69/53 48/64/48
f 86/104/86 55/71/55 53/69/53
f 85/103/85 86/104/86 53/69/53
f 87/105/87 86/104/86 85/103/85
f 83/101/83 85/103/85 48/64/48
f 88/106/88 87/105/87 85/103/85
f 83/101/83 88/106/88 85/103/85
f 84/102/84 88/106/88 83/101/83
f 89/107/89 88/106/88 84/102/84
f 90/108/90 87/105/87 88/106/88
f 89/107/89 90/108/90 88/106/88
f 91/109/91 90/108/90 89/107/89
f 92/110/92 72/90/72 55/71/55
f 93/111/93 74/92/74 72/90/72
f 92/110/92 93/111/93 72/90/72
f 94/112/94 93/111/93 92/110/92
f 95/113/95 79/97/79 74/92/74
f 96/114/96 81/99/81 79/97/79
f 95/113/95 96/114/96 79/97/79
f 97/115/97 96/114/96 95/113/95
f 93/111/93 95/113/95 74/92/74
f 98/116/98 97/115/97 95/113/95
f 93/111/93 98/116/98 95/113/95
f 94/112/94 98/116/98 93/111/93
f 99/117/99 98/116/98 94/112/94
f 100/118/100 97/115/97 98/116/98
f 99/117/99 100/118/100 98/116/98
f 101/119/101 100/118/100 99/117/99
f 86/104/86 92/110/92 55/71/55
f 102/120/102 94/112/94 92/110/92
f 86/104/86 102/120/102 92/110/92
f 87/105/87 102/120/102 86/104/86
f 103/121/103 99/117/99 94/112/94
f 104/122/104 101/119/101 99/117/99
f 103/121/103 104/122/104 99/117/99
f 105/123/105 104/122/104 103/121/103
f 102/120/102 103/121/103 94/112/94
f 106/124/106 105/123/105 103/121/103
f 102/120/102 106/124/106 103/121/103
f 87/105/87 106/124/106 102/120/102
f 90/108/90 106/124/106 87/105/87
f 107/125/107 105/123/105 106/124/106
f 90/108/90 107/125/107 106/124/106
f 91/109/91 107/125/107 90/108/90
f 108/126/108 107/125/107 91/109/91
f 109/127/109 105/123/105 107/125/107
f 108/126/108 109/127/109 107/125/107
f 110/128/110 109/127/109 108/126/108
f 111/129/111 104/122/104 105/123/105
f 112/130/112 101/119/101 104/122/104
f 111/129/111 112/130/112 104/122/104
f 113/131/113 112/130/112 111/129/111
f 109/127/109 111/129/111 105/123/105
f 114/132/114 113/131/113 111/129/111
f 109/127/109 114/132/114 111/129/111
f 110/128/110 114/132/114 109/127/109
f 115/76/115 114/75/114 110/77/110
f 116/59/116 113/58/113 114/75/114
f 115/76/115 116/59/116 114/75/114
f 117/61/117 116/59/116 115/76/115
f 118/133/118 82/100/82 1/1/1
f 119/134/119 84/102/84 82/100/82
f 118/133/118 119/134/119 82/100/82
f 120/135/120 119/134/119 118/133/118
f 121/136/121 89/107/89 84/102/84
f 122/137/122 91/109/91 89/107/89
f 121/136/121 122/137/122 89/107/89
f 123/138/123 122/137/122 121/136/121
f 119/134/119 121/136/121 84/102/84
f 124/139/124 123/138/123 121/136/121
f 119/134/119 124/139/124 121/136/121
f 120/135/120 124/139/124 119/134/119
f 125/142/125 124/141/124 120/140/120
f 126/143/126 123/138/123 124/139/124
f 125/142/125 126/144/126 124/141/124
f 127/145/127 126/144/126 125/142/125
f 128/146/128 108/126/108 91/109/91
f 129/147/129 110/128/110 108/126/108
f 128/146/128 129/147/129 108/126/108
f 130/150/130 129/149/129 128/148/128
f 131/151/131 115/76/115 110/77/110
f 132/152/132 117/61/117 115/76/115
f 131/151/131 132/152/132 115/76/115
f 133/153/133 132/152/132 131/151/131
f 129/149/129 131/151/131 110/77/110
f 134/154/134 133/153/133 131/151/131
f 129/149/129 134/154/134 131/151/131
f 130/150/130 134/154/134 129/149/129
f 135/155/135 134/154/134 130/150/130
f 136/156/136 133/153/133 134/154/134
f 135/155/135 136/156/136 134/154/134
f 137/157/137 136/156/136 135/155/135
f 122/137/122 128/146/128 91/109/91
f 138/159/138 130/158/130 128/146/128
f 122/137/122 138/159/138 128/146/128
f 123/138/123 138/159/138 122/137/122
f 139/160/139 135/155/135 130/150/130
f 140/161/140 137/157/137 135/155/135
f 139/160/139 140/161/140 135/155/135
f 141/162/141 140/161/140 139/160/139
f 138/163/138 139/160/139 130/150/130
f 142/166/142 141/165/141 139/164/139
f 138/163/138 142/167/142 139/160/139
f 123/138/123 142/168/142 138/159/138
f 126/144/126 142/166/142 123/169/123
f 143/170/143 141/165/141 142/166/142
f 126/144/126 143/170/143 142/166/142
f 127/145/127 143/170/143 126/144/126
f 144/171/144 143/170/143 127/145/127
f 145/172/145 141/165/141 143/170/143
f 144/171/144 145/172/145 143/170/143
f 146/173/146 145/172/145 144/171/144
f 147/175/147 140/174/140 141/165/141
f 148/176/148 137/157/137 140/161/140
f 147/177/147 148/176/148 140/161/140
f 149/178/149 148/176/148 147/177/147
f 145/172/145 147/175/147 141/165/141
f 150/180/150 149/179/149 147/175/147
f 145/172/145 150/180/150 147/175/147
f 146/173/146 150/180/150 145/172/145
f 151/181/151 150/180/150 146/173/146
f 152/182/152 149/179/149 150/180/150
f 151/181/151 152/182/152 150/180/150
f 153/183/153 152/182/152 151/181/151
f 2/2/2 118/133/118 1/1/1
f 154/184/154 120/135/120 118/133/118
f 2/2/2 154/184/154 118/133/118
f 4/4/4 154/184/154 2/2/2
f 155/185/155 125/142/125 120/140/120
f 156/186/156 127/145/127 125/142/125
f 155/185/155 156/186/156 125/142/125
f 157/61/157 156/186/156 155/185/155
f 154/187/154 155/185/155 120/140/120
f 158/188/158 157/61/157 155/185/155
f 154/187/154 158/188/158 155/185/155
f 4/7/4 158/188/158 154/187/154
f 7/8/7 158/188/158 4/7/4
f 159/189/159 157/61/157 158/188/158
f 7/8/7 159/189/159 158/188/158
f 9/10/9 159/189/159 7/8/7
f 160/190/160 144/171/144 127/145/127
f 161/191/161 146/173/146 144/171/144
f 160/190/160 161/191/161 144/171/144
f 162/192/162 161/191/161 160/190/160
f 163/193/163 151/181/151 146/173/146
f 164/194/164 153/183/153 151/181/151
f 163/193/163 164/194/164 151/181/151
f 165/195/165 164/194/164 163/193/163
f 161/191/161 163/193/163 146/173/146
f 166/196/166 165/195/165 163/193/163
f 161/191/161 166/196/166 163/193/163
f 162/192/162 166/196/166 161/191/161
f 167/197/167 166/196/166 162/192/162
f 168/198/168 165/195/165 166/196/166
f 167/197/167 168/198/168 166/196/166
f 169/71/169 168/198/168 167/197/167
f 156/186/156 160/190/160 127/145/127
f 170/199/170 162/192/162 160/190/160
f 156/186/156 170/199/170 160/190/160
f 157/61/157 170/199/170 156/186/156
f 171/200/171 167/197/167 162/192/162
f 172/201/172 169/71/169 167/197/167
f 171/200/171 172/201/172 167/197/167
f 173/202/173 172/201/172 171/200/171
f 170/199/170 171/200/171 162/192/162
f 174/203/174 173/202/173 171/200/171
f 170/199/170 174/203/174 171/200/171
f 157/61/157 174/203/174 170/199/170
f 159/189/159 174/203/174 157/61/157
f 175/204/175 173/202/173 174/203/174
f 159/189/159 175/204/175 174/203/174
f 9/10/9 175/204/175 159/189/159
f 16/19/16 175/204/175 9/10/9
f 176/205/176 173/202/173 175/204/175
f 16/19/16 176/205/176 175/204/175
f 18/21/18 176/205/176 16/19/16
f 177/206/177 172/201/172 173/202/173
f 178/207/178 169/71/169 172/201/172
f 177/206/177 178/207/178 172/201/172
f 179/208/179 178/207/178 177/206/177
f 176/205/176 177/206/177 173/202/173
f 180/209/180 179/208/179 177/206/177
f 176/205/176 180/209/180 177/206/177
f 18/21/18 180/209/180 176/205/176
f 21/24/21 180/209/180 18/21/18
f 181/210/181 179/208/179 180/209/180
f 21/24/21 181/210/181 180/209/180
f 23/26/23 181/210/181 21/24/21
f 182/211/182 80/98/80 81/99/81
f 183/212/183 77/95/77 80/98/80
f 182/211/182 183/212/183 80/98/80
f 184/213/184 183/212/183 182/211/182
f 185/214/185 76/94/76 77/95/77
f 186/215/186 65/83/65 76/94/76
f 185/214/185 186/215/186 76/94/76
f 187/216/187 186/215/186 185/214/185
f 183/212/183 185/214/185 77/95/77
f 188/217/188 187/216/187 185/214/185
f 183/212/183 188/217/188 185/214/185
f 184/213/184 188/217/188 183/212/183
f 189/142/189 188/141/188 184/140/184
f 190/218/190 187/216/187 188/217/188
f 189/142/189 190/144/190 188/141/188
f 191/145/191 190/144/190 189/142/189
f 192/219/192 64/82/64 65/83/65
f 193/220/193 61/79/61 64/82/64
f 192/219/192 193/220/193 64/82/64
f 194/150/194 193/149/193 192/148/192
f 195/151/195 60/76/60 61/77/61
f 196/152/196 45/61/45 60/76/60
f 195/151/195 196/152/196 60/76/60
f 197/153/197 196/152/196 195/151/195
f 193/149/193 195/151/195 61/77/61
f 198/154/198 197/153/197 195/151/195
f 193/149/193 198/154/198 195/151/195
f 194/150/194 198/154/198 193/149/193
f 199/155/199 198/154/198 194/150/194
f 200/156/200 197/153/197 198/154/198
f 199/155/199 200/156/200 198/154/198
f 201/157/201 200/156/200 199/155/199
f 186/215/186 192/219/192 65/83/65
f 202/222/202 194/221/194 192/219/192
f 186/215/186 202/222/202 192/219/192
f 187/216/187 202/222/202 186/215/186
f 203/160/203 199/155/199 194/150/194
f 204/161/204 201/157/201 199/155/199
f 203/160/203 204/161/204 199/155/199
f 205/162/205 204/161/204 203/160/203
f 202/163/202 203/160/203 194/150/194
f 206/166/206 205/165/205 203/164/203
f 202/163/202 206/167/206 203/160/203
f 187/216/187 206/223/206 202/222/202
f 190/144/190 206/166/206 187/169/187
f 207/170/207 205/165/205 206/166/206
f 190/144/190 207/170/207 206/166/206
f 191/145/191 207/170/207 190/144/190
f 208/171/208 207/170/207 191/145/191
f 209/172/209 205/165/205 207/170/207
f 208/171/208 209/172/209 207/170/207
f 210/173/210 209/172/209 208/171/208
f 211/175/211 204/174/204 205/165/205
f 212/176/212 201/157/201 204/161/204
f 211/177/211 212/176/212 204/161/204
f 213/178/213 212/176/212 211/177/211
f 209/172/209 211/175/211 205/165/205
f 214/180/214 213/179/213 211/175/211
f 209/172/209 214/180/214 211/175/211
f 210/173/210 214/180/214 209/172/209
f 215/181/215 214/180/214 210/173/210
f 216/182/216 213/179/213 214/180/214
f 215/181/215 216/182/216 214/180/214
f 217/183/217 216/182/216 215/181/215
f 218/224/218 44/60/44 45/61/45
f 219/225/219 41/56/41 44/60/44
f 218/224/218 219/225/219 44/60/44
f 220/226/220 219/225/219 218/224/218
f 221/227/221 40/55/40 41/56/41
f 222/228/222 29/35/29 40/55/40
f 221/227/221 222/228/222 40/55/40
f 223/229/223 222/228/222 221/227/221
f 219/225/219 221/227/221 41/56/41
f 224/230/224 223/229/223 221/227/221
f 219/225/219 224/230/224 221/227/221
f 220/226/220 224/230/224 219/225/219
f 225/231/225 224/230/224 220/226/220
f 226/232/226 223/229/223 224/230/224
f 225/231/225 226/232/226 224/230/224
f 227/71/227 226/232/226 225/231/225
f 228/233/228 28/33/28 29/35/29
f 229/234/229 25/32/25 28/33/28
f 228/233/228 229/234/229 28/33/28
f 230/99/230 229/234/229 228/233/228
f 231/235/231 24/27/24 25/28/25
f 232/236/232 23/26/23 24/27/24
f 231/235/231 232/236/232 24/27/24
f 233/237/233 232/236/232 231/235/231
f 229/234/229 231/238/231 25/32/25
f 234/240/234 233/239/233 231/238/231
f 229/234/229 234/240/234 231/238/231
f 230/99/230 234/240/234 229/234/229
f 235/241/235 234/240/234 230/99/230
f 236/242/236 233/239/233 234/240/234
f 235/241/235 236/242/236 234/240/234
f 237/243/237 236/242/236 235/241/235
f 222/228/222 228/233/228 29/35/29
f 238/244/238 230/99/230 228/233/228
f 222/228/222 238/244/238 228/233/228
f 223/229/223 238/244/238 222/228/222
f 239/245/239 235/241/235 230/99/230
f 240/246/240 237/243/237 235/241/235
f 239/245/239 240/246/240 235/241/235
f 241/247/241 240/246/240 239/245/239
f 238/244/238 239/245/239 230/99/230
f 242/248/242 241/247/241 239/245/239
f 238/244/238 242/248/242 239/245/239
f 223/229/223 242/248/242 238/244/238
f 226/232/226 242/248/242 223/229/223
f 243/249/243 241/247/241 242/248/242
f 226/232/226 243/249/243 242/248/242
f 227/71/227 243/249/243 226/232/226
f 244/250/244 243/249/243 227/71/227
f 245/251/245 241/247/241 243/249/243
f 244/250/244 245/251/245 243/249/243
f 246/252/246 245/251/245 244/250/244
f 247/253/247 240/246/240 241/247/241
f 248/254/248 237/243/237 240/246/240
f 247/253/247 248/254/248 240/246/240
f 249/255/249 248/254/248 247/253/247
f 245/251/245 247/253/247 241/247/241
f 250/256/250 249/255/249 247/253/247
f 245/251/245 250/256/250 247/253/247
f 246/252/246 250/256/250 245/251/245
f 251/257/251 250/256/250 246/252/246
f 252/258/252 249/255/249 250/256/250
f 251/257/251 252/258/252 250/256/250
f 253/259/253 252/258/252 251/257/251
f 254/260/254 181/210/181 23/26/23
f 255/261/255 179/208/179 181/210/181
f 254/260/254 255/261/255 181/210/181
f 256/262/256 255/261/255 254/260/254
f 257/263/257 178/207/178 179/208/179
f 258/264/258 169/71/169 178/207/178
f 257/263/257 258/264/258 178/207/178
f 259/265/259 258/264/258 257/263/257
f 255/261/255 257/263/257 179/208/179
f 260/266/260 259/265/259 257/263/257
f 255/261/255 260/266/260 257/263/257
f 256/262/256 260/266/260 255/261/255
f 261/267/261 260/266/260 256/262/256
f 262/268/262 259/265/259 260/266/260
f 261/267/261 262/268/262 260/266/260
f 263/269/263 262/268/262 261/267/261
f 264/270/264 168/198/168 169/71/169
f 265/271/265 165/195/165 168/198/168
f 264/270/264 265/271/265 168/198/168
f 266/272/266 265/271/265 264/270/264
f 267/273/267 164/194/164 165/195/165
f 268/274/268 153/183/153 164/194/164
f 267/273/267 268/274/268 164/194/164
f 269/275/269 268/274/268 267/273/267
f 265/271/265 267/273/267 165/195/165
f 270/276/270 269/275/269 267/273/267
f 265/271/265 270/276/270 267/273/267
f 266/272/266 270/276/270 265/271/265
f 271/277/271 270/276/270 266/272/266
f 272/278/272 269/275/269 270/276/270
f 271/277/271 272/278/272 270/276/270
f 273/279/273 272/278/272 271/277/271
f 258/264/258 264/270/264 169/71/169
f 274/280/274 266/272/266 264/270/264
f 258/264/258 274/280/274 264/270/264
f 259/265/259 274/280/274 258/264/258
f 275/281/275 271/277/271 266/272/266
f 276/282/276 273/279/273 271/277/271
f 275/281/275 276/282/276 271/277/271
f 277/259/277 276/282/276 275/281/275
f 274/280/274 275/281/275 266/272/266
f 278/283/278 277/259/277 275/281/275
f 274/280/274 278/283/278 275/281/275
f 259/265/259 278/283/278 274/280/274
f 262/268/262 278/283/278 259/265/259
f 279/284/279 277/259/277 278/283/278
f 262/268/262 279/284/279 278/283/278
f 263/269/263 279/284/279 262/268/262
f 280/285/280 279/284/279 263/269/263
f 281/286/281 277/259/277 279/284/279
f 280/285/280 281/286/281 279/284/279
f 282/287/282 281/286/281 280/285/280
f 283/288/283 276/282/276 277/259/277
f 284/289/284 273/279/273 276/282/276
f 283/288/283 284/289/284 276/282/276
f 285/290/285 284/289/284 283/288/283
f 281/286/281 283/288/283 277/259/277
f 286/291/286 285/290/285 283/288/283
f 281/286/281 286/291/286 283/288/283
f 282/287/282 286/291/286 281/286/281
f 287/211/287 286/292/286 282/213/282
f 288/294/288 285/293/285 286/292/286
f 287/211/287 288/294/288 286/292/286
f 289/99/289 288/294/288 287/211/287
f 290/295/290 152/182/152 153/183/153
f 291/296/291 149/179/149 152/182/152
f 290/295/290 291/296/291 152/182/152
f 292/297/292 291/296/291 290/295/290
f 293/298/293 148/176/148 149/178/149
f 294/299/294 137/157/137 148/176/148
f 293/298/293 294/299/294 148/176/148
f 295/1/295 294/299/294 293/298/293
f 291/300/291 293/298/293 149/178/149
f 296/301/296 295/1/295 293/298/293
f 291/300/291 296/301/296 293/298/293
f 292/302/292 296/301/296 291/300/291
f 297/303/297 296/301/296 292/302/292
f 298/304/298 295/1/295 296/301/296
f 297/303/297 298/304/298 296/301/296
f 299/305/299 298/304/298 297/303/297
f 300/306/300 136/156/136 137/157/137
f 301/307/301 133/153/133 136/156/136
f 300/306/300 301/307/301 136/156/136
f 302/308/302 301/307/301 300/306/300
f 303/309/303 132/152/132 133/153/133
f 304/224/304 117/61/117 132/152/132
f 303/309/303 304/224/304 132/152/132
f 305/226/305 304/224/304 303/309/303
f 301/307/301 303/309/303 133/153/133
f 306/310/306 305/226/305 303/309/303
f 301/307/301 306/310/306 303/309/303
f 302/308/302 306/310/306 301/307/301
f 307/311/307 306/310/306 302/308/302
f 308/231/308 305/226/305 306/310/306
f 307/311/307 308/231/308 306/310/306
f 309/71/309 308/231/308 307/311/307
f 294/299/294 300/306/300 137/157/137
f 310/312/310 302/308/302 300/306/300
f 294/299/294 310/312/310 300/306/300
f 295/1/295 310/312/310 294/299/294
f 311/313/311 307/311/307 302/308/302
f 312/314/312 309/71/309 307/311/307
f 311/313/311 312/314/312 307/311/307
f 313/315/313 312/314/312 311/313/311
f 310/312/310 311/313/311 302/308/302
f 314/316/314 313/315/313 311/313/311
f 310/312/310 314/316/314 311/313/311
f 295/1/295 314/316/314 310/312/310
f 298/304/298 314/316/314 295/1/295
f 315/317/315 313/315/313 314/316/314
f 298/304/298 315/317/315 314/316/314
f 299/305/299 315/317/315 298/304/298
f 316/318/316 315/317/315 299/305/299
f 317/319/317 313/315/313 315/317/315
f 316/318/316 317/319/317 315/317/315
f 318/320/318 317/319/317 316/318/316
f 319/321/319 312/314/312 313/315/313
f 320/250/320 309/71/309 312/314/312
f 319/321/319 320/250/320 312/314/312
f 321/252/321 320/250/320 319/321/319
f 317/319/317 319/321/319 313/315/313
f 322/322/322 321/252/321 319/321/319
f 317/319/317 322/322/322 319/321/319
f 318/320/318 322/322/322 317/319/317
f 323/323/323 322/322/322 318/320/318
f 324/257/324 321/252/321 322/322/322
f 323/323/323 324/257/324 322/322/322
f 325/259/325 324/257/324 323/323/323
f 326/60/326 116/59/116 117/61/117
f 327/57/327 113/58/113 116/59/116
f 326/60/326 327/57/327 116/59/116
f 328/56/328 327/57/327 326/60/326
f 329/324/329 112/130/112 113/131/113
f 330/325/330 101/119/101 112/130/112
f 329/324/329 330/325/330 112/130/112
f 331/41/331 330/50/330 329/51/329
f 327/57/327 329/51/329 113/58/113
f 332/54/332 331/41/331 329/51/329
f 327/57/327 332/54/332 329/51/329
f 328/56/328 332/54/332 327/57/327
f 333/55/333 332/54/332 328/56/328
f 334/40/334 331/41/331 332/54/332
f 333/55/333 334/40/334 332/54/332
f 335/35/335 334/40/334 333/55/333
f 336/326/336 100/118/100 101/119/101
f 337/327/337 97/115/97 100/118/100
f 336/326/336 337/327/337 100/118/100
f 338/328/338 337/327/337 336/326/336
f 339/329/339 96/114/96 97/115/97
f 340/294/340 81/99/81 96/114/96
f 339/329/339 340/294/340 96/114/96
f 341/293/341 340/294/340 339/329/339
f 337/327/337 339/329/339 97/115/97
f 342/330/342 341/293/341 339/329/339
f 337/327/337 342/330/342 339/329/339
f 338/328/338 342/330/342 337/327/337
f 343/331/343 342/330/342 338/328/338
f 344/8/344 341/7/341 342/9/342
f 343/11/343 344/8/344 342/9/342
f 345/10/345 344/8/344 343/11/343
f 330/325/330 336/326/336 101/119/101
f 346/332/346 338/328/338 336/326/336
f 330/325/330 346/332/346 336/326/336
f 331/333/331 346/332/346 330/325/330
f 347/36/347 343/11/343 338/37/338
f 348/20/348 345/10/345 343/11/343
f 347/36/347 348/20/348 343/11/343
f 349/23/349 348/20/348 347/36/347
f 346/332/346 347/334/347 338/328/338
f 350/42/350 349/23/349 347/36/347
f 346/43/346 350/39/350 347/44/347
f 331/41/331 350/39/350 346/43/346
f 334/40/334 350/39/350 331/41/331
f 351/34/351 349/38/349 350/39/350
f 334/40/334 351/34/351 350/39/350
f 335/35/335 351/34/351 334/40/334
f 352/33/352 351/34/351 335/35/335
f 353/29/353 349/23/349 351/30/351
f 352/33/352 353/31/353 351/34/351
f 354/32/354 353/31/353 352/33/352
f 355/22/355 348/20/348 349/23/349
f 356/19/356 345/10/345 348/20/348
f 355/22/355 356/19/356 348/20/348
f 357/21/357 356/19/356 355/22/355
f 353/29/353 355/22/355 349/23/349
f 358/25/358 357/21/357 355/22/355
f 353/29/353 358/25/358 355/22/355
f 354/28/354 358/25/358 353/29/353
f 359/27/359 358/25/358 354/28/354
f 360/24/360 357/21/357 358/25/358
f 359/27/359 360/24/360 358/25/358
f 361/26/361 360/24/360 359/27/359
f 364/3/364 363/2/363 362/1/362
f 366/5/366 365/4/365 363/2/363
f 364/3/364 366/5/366 363/2/363
f 367/6/367 366/5/366 364/3/364
f 369/335/369 368/289/368 365/290/365
f 371/336/371 370/279/370 368/289/368
f 369/335/369 371/336/371 368/289/368
f 372/14/372 371/13/371 369/12/369
f 366/5/366 369/12/369 365/4/365
f 373/15/373 372/14/372 369/12/369
f 366/5/366 373/15/373 369/12/369
f 367/6/367 373/15/373 366/5/366
f 374/16/374 373/15/373 367/6/367
f 375/17/375 372/14/372 373/15/373
f 374/16/374 375/17/375 373/15/373
f 376/18/376 375/17/375 374/16/374
f 378/337/378 377/278/377 370/279/370
f 380/338/380 379/275/379 377/278/377
f 378/337/378 380/338/380 377/278/377
f 381/339/381 380/338/380 378/337/378
f 383/340/383 382/274/382 379/275/379
f 384/295/384 217/183/217 382/274/382
f 383/340/383 384/295/384 382/274/382
f 385/297/385 384/295/384 383/340/383
f 380/338/380 383/340/383 379/275/379
f 386/341/386 385/297/385 383/340/383
f 380/338/380 386/341/386 383/340/383
f 381/339/381 386/341/386 380/338/380
f 387/342/387 386/341/386 381/339/381
f 388/303/388 385/302/385 386/343/386
f 387/344/387 388/303/388 386/343/386
f 389/305/389 388/303/388 387/344/387
f 371/336/371 378/337/378 370/279/370
f 390/345/390 381/339/381 378/337/378
f 371/336/371 390/345/390 378/337/378
f 372/346/372 390/345/390 371/336/371
f 391/348/391 387/344/387 381/347/381
f 392/349/392 389/305/389 387/344/387
f 391/348/391 392/349/392 387/344/387
f 393/350/393 392/349/392 391/348/391
f 390/345/390 391/351/391 381/339/381
f 394/352/394 393/350/393 391/348/391
f 390/353/390 394/352/394 391/348/391
f 372/14/372 394/46/394 390/45/390
f 375/17/375 394/46/394 372/14/372
f 395/48/395 393/47/393 394/46/394
f 375/17/375 395/48/395 394/46/394
f 376/18/376 395/48/395 375/17/375
f 396/49/396 395/48/395 376/18/376
f 397/355/397 393/350/393 395/354/395
f 396/49/396 397/52/397 395/48/395
f 398/53/398 397/52/397 396/49/396
f 399/356/399 392/349/392 393/350/393
f 400/318/400 389/305/389 392/349/392
f 399/356/399 400/318/400 392/349/392
f 401/320/401 400/318/400 399/356/399
f 397/355/397 399/356/399 393/350/393
f 402/357/402 401/320/401 399/356/399
f 397/355/397 402/357/402 399/356/399
f 398/358/398 402/357/402 397/355/397
f 403/359/403 402/357/402 398/358/398
f 404/323/404 401/320/401 402/357/402
f 403/359/403 404/323/404 402/357/402
f 253/259/253 404/323/404 403/359/403
f 405/62/405 364/3/364 362/1/362
f 406/63/406 367/6/367 364/3/364
f 405/62/405 406/63/406 364/3/364
f 407/64/407 406/63/406 405/62/405
f 408/65/408 374/16/374 367/6/367
f 409/66/409 376/18/376 374/16/374
f 408/65/408 409/66/409 374/16/374
f 410/67/410 409/66/409 408/65/408
f 406/63/406 408/65/408 367/6/367
f 411/68/411 410/67/410 408/65/408
f 406/63/406 411/68/411 408/65/408
f 407/64/407 411/68/411 406/63/406
f 412/69/412 411/68/411 407/64/407
f 413/70/413 410/67/410 411/68/411
f 412/69/412 413/70/413 411/68/411
f 414/71/414 413/70/413 412/69/412
f 415/72/415 396/49/396 376/18/376
f 416/73/416 398/53/398 396/49/396
f 415/72/415 416/73/416 396/49/396
f 417/74/417 416/73/416 415/72/415
f 418/360/418 403/359/403 398/358/398
f 419/361/419 253/259/253 403/359/403
f 418/360/418 419/361/419 403/359/403
f 420/362/420 419/361/419 418/360/418
f 416/73/416 418/78/418 398/53/398
f 421/80/421 420/79/420 418/78/418
f 416/73/416 421/80/421 418/78/418
f 417/74/417 421/80/421 416/73/416
f 422/81/422 421/80/421 417/74/417
f 423/82/423 420/79/420 421/80/421
f 422/81/422 423/82/423 421/80/421
f 424/83/424 423/82/423 422/81/422
f 409/66/409 415/72/415 376/18/376
f 425/84/425 417/74/417 415/72/415
f 409/66/409 425/84/425 415/72/415
f 410/67/410 425/84/425 409/66/409
f 426/85/426 422/81/422 417/74/417
f 427/86/427 424/83/424 422/81/422
f 426/85/426 427/86/427 422/81/422
f 428/87/428 427/86/427 426/85/426
f 425/84/425 426/85/426 417/74/417
f 429/88/429 428/87/428 426/85/426
f 425/84/425 429/88/429 426/85/426
f 410/67/410 429/88/429 425/84/425
f 413/70/413 429/88/429 410/67/410
f 430/89/430 428/87/428 429/88/429
f 413/70/413 430/89/430 429/88/429
f 414/71/414 430/89/430 413/70/413
f 431/90/431 430/89/430 414/71/414
f 432/91/432 428/87/428 430/89/430
f 431/90/431 432/91/432 430/89/430
f 433/92/433 432/91/432 431/90/431
f 434/93/434 427/86/427 428/87/428
f 435/94/435 424/83/424 427/86/427
f 434/93/434 435/94/435 427/86/427
f 436/95/436 435/94/435 434/93/434
f 432/91/432 434/93/434 428/87/428
f 437/96/437 436/95/436 434/93/434
f 432/91/432 437/96/437 434/93/434
f 433/92/433 437/96/437 432/91/432
f 438/97/438 437/96/437 433/92/433
f 439/98/439 436/95/436 437/96/437
f 438/97/438 439/98/439 437/96/437
f 289/99/289 439/98/439 438/97/438
f 440/100/440 405/62/405 362/1/362
f 441/101/441 407/64/407 405/62/405
f 440/100/440 441/101/441 405/62/405
f 442/102/442 441/101/441 440/100/440
f 443/103/443 412/69/412 407/64/407
f 444/104/444 414/71/414 412/69/412
f 443/103/443 444/104/444 412/69/412
f 445/105/445 444/104/444 443/103/443
f 441/101/441 443/103/443 407/64/407
f 446/106/446 445/105/445 443/103/443
f 441/101/441 446/106/446 443/103/443
f 442/102/442 446/106/446 441/101/441
f 447/107/447 446/106/446 442/102/442
f 448/108/448 445/105/445 446/106/446
f 447/107/447 448/108/448 446/106/446
f 449/109/449 448/108/448 447/107/447
f 450/110/450 431/90/431 414/71/414
f 451/111/451 433/92/433 431/90/431
f 450/110/450 451/111/451 431/90/431
f 452/112/452 451/111/451 450/110/450
f 453/113/453 438/97/438 433/92/433
f 454/114/454 289/99/289 438/97/438
f 453/113/453 454/114/454 438/97/438
f 455/115/455 454/114/454 453/113/453
f 451/111/451 453/113/453 433/92/433
f 456/116/456 455/115/455 453/113/453
f 451/111/451 456/116/456 453/113/453
f 452/112/452 456/116/456 451/111/451
f 457/117/457 456/116/456 452/112/452
f 458/118/458 455/115/455 456/116/456
f 457/117/457 458/118/458 456/116/456
f 459/119/459 458/118/458 457/117/457
f 444/104/444 450/110/450 414/71/414
f 460/120/460 452/112/452 450/110/450
f 444/104/444 460/120/460 450/110/450
f 445/105/445 460/120/460 444/104/444
f 461/121/461 457/117/457 452/112/452
f 462/122/462 459/119/459 457/117/457
f 461/121/461 462/122/462 457/117/457
f 463/123/463 462/122/462 461/121/461
f 460/120/460 461/121/461 452/112/452
f 464/124/464 463/123/463 461/121/461
f 460/120/460 464/124/464 461/121/461
f 445/105/445 464/124/464 460/120/460
f 448/108/448 464/124/464 445/105/445
f 465/125/465 463/123/463 464/124/464
f 448/108/448 465/125/465 464/124/464
f 449/109/449 465/125/465 448/108/448
f 466/126/466 465/125/465 449/109/449
f 467/127/467 463/123/463 465/125/465
f 466/126/466 467/127/467 465/125/465
f 468/128/468 467/127/467 466/126/466
f 469/129/469 462/122/462 463/123/463
f 470/130/470 459/119/459 462/122/462
f 469/129/469 470/130/470 462/122/462
f 471/131/471 470/130/470 469/129/469
f 467/127/467 469/129/469 463/123/463
f 472/132/472 471/131/471 469/129/469
f 467/127/467 472/132/472 469/129/469
f 468/128/468 472/132/472 467/127/467
f 473/361/473 472/360/472 468/362/468
f 474/359/474 471/358/471 472/360/472
f 473/361/473 474/359/474 472/360/472
f 325/259/325 474/359/474 473/361/473
f 475/133/475 440/100/440 362/1/362
f 476/134/476 442/102/442 440/100/440
f 475/133/475 476/134/476 440/100/440
f 477/135/477 476/134/476 475/133/475
f 478/136/478 447/107/447 442/102/442
f 479/137/479 449/109/449 447/107/447
f 478/136/478 479/137/479 447/107/447
f 480/138/480 479/137/479 478/136/478
f 476/134/476 478/136/478 442/102/442
f 481/139/481 480/138/480 478/136/478
f 476/134/476 481/139/481 478/136/478
f 477/135/477 481/139/481 476/134/476
f 482/285/482 481/363/481 477/287/477
f 483/143/483 480/138/480 481/139/481
f 482/285/482 483/364/483 481/363/481
f 484/269/484 483/364/483 482/285/482
f 485/146/485 466/126/466 449/109/449
f 486/147/486 468/128/468 466/126/466
f 485/146/485 486/147/486 466/126/466
f 487/367/487 486/366/486 485/365/485
f 488/368/488 473/361/473 468/362/468
f 489/258/489 325/259/325 473/361/473
f 488/368/488 489/258/489 473/361/473
f 490/255/490 489/258/489 488/368/488
f 486/366/486 488/368/488 468/362/468
f 491/369/491 490/255/490 488/368/488
f 486/366/486 491/369/491 488/368/488
f 487/367/487 491/369/491 486/366/486
f 492/370/492 491/369/491 487/367/487
f 493/254/493 490/255/490 491/369/491
f 492/370/492 493/254/493 491/369/491
f 494/243/494 493/254/493 492/370/492
f 479/137/479 485/146/485 449/109/449
f 495/159/495 487/158/487 485/146/485
f 479/137/479 495/159/495 485/146/485
f 480/138/480 495/159/495 479/137/479
f 496/371/496 492/370/492 487/367/487
f 497/372/497 494/243/494 492/370/492
f 496/371/496 497/372/497 492/370/492
f 498/373/498 497/372/497 496/371/496
f 495/374/495 496/371/496 487/367/487
f 499/377/499 498/376/498 496/375/496
f 495/374/495 499/378/499 496/371/496
f 480/138/480 499/168/499 495/159/495
f 483/364/483 499/377/499 480/379/480
f 500/380/500 498/376/498 499/377/499
f 483/364/483 500/380/500 499/377/499
f 484/269/484 500/380/500 483/364/483
f 501/267/501 500/380/500 484/269/484
f 502/381/502 498/376/498 500/380/500
f 501/267/501 502/381/502 500/380/500
f 503/262/503 502/381/502 501/267/501
f 504/383/504 497/382/497 498/376/498
f 505/242/505 494/243/494 497/372/497
f 504/384/504 505/242/505 497/372/497
f 506/239/506 505/242/505 504/384/504
f 502/381/502 504/383/504 498/376/498
f 507/385/507 506/237/506 504/383/504
f 502/381/502 507/385/507 504/383/504
f 503/262/503 507/385/507 502/381/502
f 508/260/508 507/385/507 503/262/503
f 509/236/509 506/237/506 507/385/507
f 508/260/508 509/236/509 507/385/507
f 361/26/361 509/236/509 508/260/508
f 363/2/363 475/133/475 362/1/362
f 510/184/510 477/135/477 475/133/475
f 363/2/363 510/184/510 475/133/475
f 365/4/365 510/184/510 363/2/363
f 511/286/511 482/285/482 477/287/477
f 512/284/512 484/269/484 482/285/482
f 511/286/511 512/284/512 482/285/482
f 513/259/513 512/284/512 511/286/511
f 510/291/510 511/286/511 477/287/477
f 514/288/514 513/259/513 511/286/511
f 510/291/510 514/288/514 511/286/511
f 365/290/365 514/288/514 510/291/510
f 368/289/368 514/288/514 365/290/365
f 515/282/515 513/259/513 514/288/514
f 368/289/368 515/282/515 514/288/514
f 370/279/370 515/282/515 368/289/368
f 516/268/516 501/267/501 484/269/484
f 517/266/517 503/262/503 501/267/501
f 516/268/516 517/266/517 501/267/501
f 518/265/518 517/266/517 516/268/516
f 519/261/519 508/260/508 503/262/503
f 520/210/520 361/26/361 508/260/508
f 519/261/519 520/210/520 508/260/508
f 521/208/521 520/210/520 519/261/519
f 517/266/517 519/261/519 503/262/503
f 522/263/522 521/208/521 519/261/519
f 517/266/517 522/263/522 519/261/519
f 518/265/518 522/263/522 517/266/517
f 523/264/523 522/263/522 518/265/518
f 524/207/524 521/208/521 522/263/522
f 523/264/523 524/207/524 522/263/522
f 525/71/525 524/207/524 523/264/523
f 512/284/512 516/268/516 484/269/484
f 526/283/526 518/265/518 516/268/516
f 512/284/512 526/283/526 516/268/516
f 513/259/513 526/283/526 512/284/512
f 527/280/527 523/264/523 518/265/518
f 528/270/528 525/71/525 523/264/523
f 527/280/527 528/270/528 523/264/523
f 529/272/529 528/270/528 527/280/527
f 526/283/526 527/280/527 518/265/518
f 530/281/530 529/272/529 527/280/527
f 526/283/526 530/281/530 527/280/527
f 513/259/513 530/281/530 526/283/526
f 515/282/515 530/281/530 513/259/513
f 531/277/531 529/272/529 530/281/530
f 515/282/515 531/277/531 530/281/530
f 370/279/370 531/277/531 515/282/515
f 377/278/377 531/277/531 370/279/370
f 532/276/532 529/272/529 531/277/531
f 377/278/377 532/276/532 531/277/531
f 379/275/379 532/276/532 377/278/377
f 533/271/533 528/270/528 529/272/529
f 534/198/534 525/71/525 528/270/528
f 533/271/533 534/198/534 528/270/528
f 535/195/535 534/198/534 533/271/533
f 532/276/532 533/271/533 529/272/529
f 536/273/536 535/195/535 533/271/533
f 532/276/532 536/273/536 533/271/533
f 379/275/379 536/273/536 532/276/532
f 382/274/382 536/273/536 379/275/379
f 537/194/537 535/195/535 536/273/536
f 382/274/382 537/194/537 536/273/536
f 217/183/217 537/194/537 382/274/382
f 251/257/251 404/323/404 253/259/253
f 538/322/538 401/320/401 404/323/404
f 251/257/251 538/322/538 404/323/404
f 246/252/246 538/322/538 251/257/251
f 539/319/539 400/318/400 401/320/401
f 540/317/540 389/305/389 400/318/400
f 539/319/539 540/317/540 400/318/400
f 541/315/541 540/317/540 539/319/539
f 538/322/538 539/319/539 401/320/401
f 542/321/542 541/315/541 539/319/539
f 538/322/538 542/321/542 539/319/539
f 246/252/246 542/321/542 538/322/538
f 244/250/244 542/321/542 246/252/246
f 543/314/543 541/315/541 542/321/542
f 244/250/244 543/314/543 542/321/542
f 227/71/227 543/314/543 244/250/244
f 544/304/544 388/303/388 389/305/389
f 545/301/545 385/302/385 388/303/388
f 544/304/544 545/301/545 388/303/388
f 546/1/546 545/301/545 544/304/544
f 547/296/547 384/295/384 385/297/385
f 216/182/216 217/183/217 384/295/384
f 547/296/547 216/182/216 384/295/384
f 213/179/213 216/182/216 547/296/547
f 545/301/545 547/300/547 385/302/385
f 548/298/548 213/178/213 547/300/547
f 545/301/545 548/298/548 547/300/547
f 546/1/546 548/298/548 545/301/545
f 549/299/549 548/298/548 546/1/546
f 212/176/212 213/178/213 548/298/548
f 549/299/549 212/176/212 548/298/548
f 201/157/201 212/176/212 549/299/549
f 540/317/540 544/304/544 389/305/389
f 550/316/550 546/1/546 544/304/544
f 540/317/540 550/316/550 544/304/544
f 541/315/541 550/316/550 540/317/540
f 551/312/551 549/299/549 546/1/546
f 552/306/552 201/157/201 549/299/549
f 551/312/551 552/306/552 549/299/549
f 553/308/553 552/306/552 551/312/551
f 550/316/550 551/312/551 546/1/546
f 554/313/554 553/308/553 551/312/551
f 550/316/550 554/313/554 551/312/551
f 541/315/541 554/313/554 550/316/550
f 543/314/543 554/313/554 541/315/541
f 555/311/555 553/308/553 554/313/554
f 543/314/543 555/311/555 554/313/554
f 227/71/227 555/311/555 543/314/543
f 225/231/225 555/311/555 227/71/227
f 556/310/556 553/308/553 555/311/555
f 225/231/225 556/310/556 555/311/555
f 220/226/220 556/310/556 225/231/225
f 557/307/557 552/306/552 553/308/553
f 200/156/200 201/157/201 552/306/552
f 557/307/557 200/156/200 552/306/552
f 197/153/197 200/156/200 557/307/557
f 556/310/556 557/307/557 553/308/553
f 558/309/558 197/153/197 557/307/557
f 556/310/556 558/309/558 557/307/557
f 220/226/220 558/309/558 556/310/556
f 218/224/218 558/309/558 220/226/220
f 196/152/196 197/153/197 558/309/558
f 218/224/218 196/152/196 558/309/558
f 45/61/45 196/152/196 218/224/218
f 287/211/287 439/98/439 289/99/289
f 559/212/559 436/95/436 439/98/439
f 287/211/287 559/212/559 439/98/439
f 282/213/282 559/212/559 287/211/287
f 560/214/560 435/94/435 436/95/436
f 561/215/561 424/83/424 435/94/435
f 560/214/560 561/215/561 435/94/435
f 562/216/562 561/215/561 560/214/560
f 559/212/559 560/214/560 436/95/436
f 563/217/563 562/216/562 560/214/560
f 559/212/559 563/217/563 560/214/560
f 282/213/282 563/217/563 559/212/559
f 280/285/280 563/363/563 282/287/282
f 564/218/564 562/216/562 563/217/563
f 280/285/280 564/364/564 563/363/563
f 263/269/263 564/364/564 280/285/280
f 565/219/565 423/82/423 424/83/424
f 566/220/566 420/79/420 423/82/423
f 565/219/565 566/220/566 423/82/423
f 567/367/567 566/366/566 565/365/565
f 568/368/568 419/361/419 420/362/420
f 252/258/252 253/259/253 419/361/419
f 568/368/568 252/258/252 419/361/419
f 249/255/249 252/258/252 568/368/568
f 566/366/566 568/368/568 420/362/420
f 569/369/569 249/255/249 568/368/568
f 566/366/566 569/369/569 568/368/568
f 567/367/567 569/369/569 566/366/566
f 570/370/570 569/369/569 567/367/567
f 248/254/248 249/255/249 569/369/569
f 570/370/570 248/254/248 569/369/569
f 237/243/237 248/254/248 570/370/570
f 561/215/561 565/219/565 424/83/424
f 571/222/571 567/221/567 565/219/565
f 561/215/561 571/222/571 565/219/565
f 562/216/562 571/222/571 561/215/561
f 572/371/572 570/370/570 567/367/567
f 573/372/573 237/243/237 570/370/570
f 572/371/572 573/372/573 570/370/570
f 574/373/574 573/372/573 572/371/572
f 571/374/571 572/371/572 567/367/567
f 575/377/575 574/376/574 572/375/572
f 571/374/571 575/378/575 572/371/572
f 562/216/562 575/223/575 571/222/571
f 564/364/564 575/377/575 562/379/562
f 576/380/576 574/376/574 575/377/575
f 564/364/564 576/380/576 575/377/575
f 263/269/263 576/380/576 564/364/564
f 261/267/261 576/380/576 263/269/263
f 577/381/577 574/376/574 576/380/576
f 261/267/261 577/381/577 576/380/576
f 256/262/256 577/381/577 261/267/261
f 578/383/578 573/382/573 574/376/574
f 236/242/236 237/243/237 573/372/573
f 578/384/578 236/242/236 573/372/573
f 233/239/233 236/242/236 578/384/578
f 577/381/577 578/383/578 574/376/574
f 579/385/579 233/237/233 578/383/578
f 577/381/577 579/385/579 578/383/578
f 256/262/256 579/385/579 577/381/577
f 254/260/254 579/385/579 256/262/256
f 232/236/232 233/237/233 579/385/579
f 254/260/254 232/236/232 579/385/579
f 23/26/23 232/236/232 254/260/254
f 323/323/323 474/359/474 325/259/325
f 580/357/580 471/358/471 474/359/474
f 323/323/323 580/357/580 474/359/474
f 318/320/318 580/357/580 323/323/323
f 581/324/581 470/130/470 471/131/471
f 582/325/582 459/119/459 470/130/470
f 581/324/581 582/325/582 470/130/470
f 583/350/583 582/354/582 581/355/581
f 580/357/580 581/355/581 471/358/471
f 584/356/584 583/350/583 581/355/581
f 580/357/580 584/356/584 581/355/581
f 318/320/318 584/356/584 580/357/580
f 316/318/316 584/356/584 318/320/318
f 585/349/585 583/350/583 584/356/584
f 316/318/316 585/349/585 584/356/584
f 299/305/299 585/349/585 316/318/316
f 586/326/586 458/118/458 459/119/459
f 587/327/587 455/115/455 458/118/458
f 586/326/586 587/327/587 458/118/458
f 588/328/588 587/327/587 586/326/586
f 589/329/589 454/114/454 455/115/455
f 288/294/288 289/99/289 454/114/454
f 589/329/589 288/294/288 454/114/454
f 285/293/285 288/294/288 589/329/589
f 587/327/587 589/329/589 455/115/455
f 590/330/590 285/293/285 589/329/589
f 587/327/587 590/330/590 589/329/589
f 588/328/588 590/330/590 587/327/587
f 591/331/591 590/330/590 588/328/588
f 284/289/284 285/290/285 590/335/590
f 591/336/591 284/289/284 590/335/590
f 273/279/273 284/289/284 591/336/591
f 582/325/582 586/326/586 459/119/459
f 592/332/592 588/328/588 586/326/586
f 582/325/582 592/332/592 586/326/586
f 583/333/583 592/332/592 582/325/582
f 593/345/593 591/336/591 588/346/588
f 594/337/594 273/279/273 591/336/591
f 593/345/593 594/337/594 591/336/591
f 595/339/595 594/337/594 593/345/593
f 592/332/592 593/334/593 588/328/588
f 596/351/596 595/339/595 593/345/593
f 592/352/592 596/348/596 593/353/593
f 583/350/583 596/348/596 592/352/592
f 585/349/585 596/348/596 583/350/583
f 597/344/597 595/347/595 596/348/596
f 585/349/585 597/344/597 596/348/596
f 299/305/299 597/344/597 585/349/585
f 297/303/297 597/344/597 299/305/299
f 598/341/598 595/339/595 597/342/597
f 297/303/297 598/343/598 597/344/597
f 292/302/292 598/343/598 297/303/297
f 599/338/599 594/337/594 595/339/595
f 272/278/272 273/279/273 594/337/594
f 599/338/599 272/278/272 594/337/594
f 269/275/269 272/278/272 599/338/599
f 598/341/598 599/338/599 595/339/595
f 600/340/600 269/275/269 599/338/599
f 598/341/598 600/340/600 599/338/599
f 292/297/292 600/340/600 598/341/598
f 290/295/290 600/340/600 292/297/292
f 268/274/268 269/275/269 600/340/600
f 290/295/290 268/274/268 600/340/600
f 153/183/153 268/274/268 290/295/290
f 359/27/359 509/236/509 361/26/361
f 601/235/601 506/237/506 509/236/509
f 359/27/359 601/235/601 509/236/509
f 354/28/354 601/235/601 359/27/359
f 602/240/602 505/242/505 506/239/506
f 603/241/603 494/243/494 505/242/505
f 602/240/602 603/241/603 505/242/505
f 604/99/604 603/241/603 602/240/602
f 601/238/601 602/240/602 506/239/506
f 605/234/605 604/99/604 602/240/602
f 601/238/601 605/234/605 602/240/602
f 354/32/354 605/234/605 601/238/601
f 352/33/352 605/234/605 354/32/354
f 606/233/606 604/99/604 605/234/605
f 352/33/352 606/233/606 605/234/605
f 335/35/335 606/233/606 352/33/352
f 607/246/607 493/254/493 494/243/494
f 608/253/608 490/255/490 493/254/493
f 607/246/607 608/253/608 493/254/493
f 609/247/609 608/253/608 607/246/607
f 610/256/610 489/258/489 490/255/490
f 324/257/324 325/259/325 489/258/489
f 610/256/610 324/257/324 489/258/489
f 321/252/321 324/257/324 610/256/610
f 608/253/608 610/256/610 490/255/490
f 611/251/611 321/252/321 610/256/610
f 608/253/608 611/251/611 610/256/610
f 609/247/609 611/251/611 608/253/608
f 612/249/612 611/251/611 609/247/609
f 320/250/320 321/252/321 611/251/611
f 612/249/612 320/250/320 611/251/611
f 309/71/309 320/250/320 612/249/612
f 603/241/603 607/246/607 494/243/494
f 613/245/613 609/247/609 607/246/607
f 603/241/603 613/245/613 607/246/607
f 604/99/604 613/245/613 603/241/603
f 614/248/614 612/249/612 609/247/609
f 615/232/615 309/71/309 612/249/612
f 614/248/614 615/232/615 612/249/612
f 616/229/616 615/232/615 614/248/614
f 613/245/613 614/248/614 609/247/609
f 617/244/617 616/229/616 614/248/614
f 613/245/613 617/244/617 614/248/614
f 604/99/604 617/244/617 613/245/613
f 606/233/606 617/244/617 604/99/604
f 618/228/618 616/229/616 617/244/617
f 606/233/606 618/228/618 617/244/617
f 335/35/335 618/228/618 606/233/606
f 333/55/333 618/228/618 335/35/335
f 619/227/619 616/229/616 618/228/618
f 333/55/333 619/227/619 618/228/618
f 328/56/328 619/227/619 333/55/333
f 620/230/620 615/232/615 616/229/616
f 308/231/308 309/71/309 615/232/615
f 620/230/620 308/231/308 615/232/615
f 305/226/305 308/231/308 620/230/620
f 619/227/619 620/230/620 616/229/616
f 621/225/621 305/226/305 620/230/620
f 619/227/619 621/225/621 620/230/620
f 328/56/328 621/225/621 619/227/619
f 326/60/326 621/225/621 328/56/328
f 304/224/304 305/226/305 621/225/621
f 326/60/326 304/224/304 621/225/621
f 117/61/117 304/224/304 326/60/326
f 215/181/215 537/194/537 217/183/217
f 622/193/622 535/195/535 537/194/537
f 215/181/215 622/193/622 537/194/537
f 210/173/210 622/193/622 215/181/215
f 623/196/623 534/198/534 535/195/535
f 624/197/624 525/71/525 534/198/534
f 623/196/623 624/197/624 534/198/534
f 625/192/625 624/197/624 623/196/623
f 622/193/622 623/196/623 535/195/535
f 626/191/626 625/192/625 623/196/623
f 622/193/622 626/191/626 623/196/623
f 210/173/210 626/191/626 622/193/622
f 208/171/208 626/191/626 210/173/210
f 627/190/627 625/192/625 626/191/626
f 208/171/208 627/190/627 626/191/626
f 191/145/191 627/190/627 208/171/208
f 628/201/628 524/207/524 525/71/525
f 629/206/629 521/208/521 524/207/524
f 628/201/628 629/206/629 524/207/524
f 630/202/630 629/206/629 628/201/628
f 631/209/631 520/210/520 521/208/521
f 360/24/360 361/26/361 520/210/520
f 631/209/631 360/24/360 520/210/520
f 357/21/357 360/24/360 631/209/631
f 629/206/629 631/209/631 521/208/521
f 632/205/632 357/21/357 631/209/631
f 629/206/629 632/205/632 631/209/631
f 630/202/630 632/205/632 629/206/629
f 633/204/633 632/205/632 630/202/630
f 356/19/356 357/21/357 632/205/632
f 633/204/633 356/19/356 632/205/632
f 345/10/345 356/19/356 633/204/633
f 624/197/624 628/201/628 525/71/525
f 634/200/634 630/202/630 628/201/628
f 624/197/624 634/200/634 628/201/628
f 625/192/625 634/200/634 624/197/624
f 635/203/635 633/204/633 630/202/630
f 636/189/636 345/10/345 633/204/633
f 635/203/635 636/189/636 633/204/633
f 637/61/637 636/189/636 635/203/635
f 634/200/634 635/203/635 630/202/630
f 638/199/638 637/61/637 635/203/635
f 634/200/634 638/199/638 635/203/635
f 625/192/625 638/199/638 634/200/634
f 627/190/627 638/199/638 625/192/625
f 639/186/639 637/61/637 638/199/638
f 627/190/627 639/186/639 638/199/638
f 191/145/191 639/186/639 627/190/627
f 189/142/189 639/186/639 191/145/191
f 640/185/640 637/61/637 639/186/639
f 189/142/189 640/185/640 639/186/639
f 184/140/184 640/185/640 189/142/189
f 641/188/641 636/189/636 637/61/637
f 344/8/344 345/10/345 636/189/636
f 641/188/641 344/8/344 636/189/636
f 341/7/341 344/8/344 641/188/641
f 640/185/640 641/188/641 637/61/637
f 642/187/642 341/7/341 641/188/641
f 640/185/640 642/187/642 641/188/641
f 184/140/184 642/187/642 640/185/640
f 182/211/182 642/292/642 184/213/184
f 340/294/340 341/293/341 642/292/642
f 182/211/182 340/294/340 642/292/642
f 81/99/81 340/294/340 182/211/182

